<svg width="64" height="64" viewBox="0 0 64 64" fill="none" xmlns="http://www.w3.org/2000/svg">
<circle cx="32" cy="32" r="32" fill="#FF7EB5"/>
<mask id="mask0" mask-type="alpha" maskUnits="userSpaceOnUse" x="0" y="0" width="64" height="64">
<circle cx="32" cy="32" r="32" fill="#14CA7B"/>
</mask>
<g mask="url(#mask0)">
<path d="M72.3964 99.7954C72.2344 97.4495 71.7592 95.1359 70.9835 92.9161C69.7551 89.2921 68.588 85.6688 67.053 82.1677C66.5613 81.0622 66.0703 79.8952 65.6401 78.7896C64.4367 75.6366 63.042 72.56 61.4636 69.577C61.3347 69.3219 61.2318 69.0544 61.1563 68.7787C61.0197 68.3188 60.8555 67.8675 60.6647 67.4273C60.2359 66.5697 59.7435 65.7079 59.3133 64.7831C58.0269 62.0195 56.2402 59.5011 55.3827 56.5532C55.3074 56.2863 55.1576 56.0463 54.951 55.8614C54.7443 55.6765 54.4892 55.5543 54.2156 55.509C53.4081 55.3067 52.587 55.1634 51.7587 55.0803C50.7146 54.9573 49.6704 54.9573 48.6857 54.8344C48.4796 54.8303 48.2783 54.772 48.1019 54.6654C47.9255 54.5589 47.7803 54.4078 47.6807 54.2274C47.5811 54.0469 47.5308 53.8435 47.5347 53.6374C47.5386 53.4314 47.5967 53.23 47.703 53.0535C48.0153 52.4384 48.365 51.8429 48.75 51.2704C48.957 50.9895 49.0582 50.6444 49.0358 50.2961C49.0133 49.9478 48.8685 49.6186 48.6271 49.3666C48.1055 48.7837 47.552 48.2301 46.9691 47.7086C46.4424 47.2657 45.8887 46.8562 45.3111 46.4823C44.6357 46.0535 44.0247 45.6247 43.3458 45.1959C42.6686 44.8112 41.9716 44.4627 41.2576 44.1518C40.5137 43.7947 39.7302 43.5268 38.9235 43.3535C37.3796 43.1073 35.8188 42.9825 34.2554 42.9805C31.7615 43.0607 29.2771 43.3276 26.823 43.7787C25.3439 44.1141 23.8878 44.5438 22.4636 45.0651C21.0205 45.5314 19.6227 46.1275 18.2872 46.846C17.8203 47.1214 17.3263 47.3477 16.8128 47.5214C15.9706 47.8141 15.1966 48.2751 14.5381 48.8764C14.314 49.0094 14.1255 49.1947 13.9887 49.4166C13.8519 49.6384 13.771 49.8902 13.7529 50.1501C13.7348 50.4101 13.78 50.6706 13.8846 50.9093C13.9893 51.148 14.1502 51.3577 14.3537 51.5206C14.8556 52.0634 15.3889 52.5762 15.951 53.0564C16.4416 53.485 16.7674 54.0713 16.8722 54.7144C16.9951 55.2668 16.7492 55.6355 16.1353 55.7585C15.3371 55.8814 14.5996 55.9428 13.8013 56.0658C11.836 56.3731 9.80924 56.6797 7.84395 56.9234C7.5238 56.9487 7.22011 57.0756 6.97705 57.2855C6.73399 57.4954 6.56425 57.7773 6.49254 58.0904C6.42258 58.2669 6.38109 58.4533 6.36962 58.6428C6.21985 59.7146 5.79679 60.7298 5.14113 61.5907C4.04677 63.2239 3.23682 65.0306 2.74561 66.9342C2.62269 67.4259 2.43831 67.8554 2.31682 68.3471C1.64147 70.6197 0.965411 72.8308 0.228603 75.1034C0.0965767 75.4502 0.0392799 75.8209 0.060462 76.1914C0.081645 76.5618 0.180829 76.9236 0.351523 77.2531C0.612777 77.8297 0.698286 78.4705 0.597363 79.0955C0.535904 79.8937 0.290064 80.6312 0.228603 81.4295C-0.140158 84.2545 -0.569664 87.0803 -0.754045 89.9053C-0.938425 93.0991 -0.815505 96.2929 -0.876966 99.4867C-0.928559 100.907 -1.07179 102.323 -1.30576 103.725C-1.5516 105.137 -1.91964 106.488 -2.16334 107.901C-2.65502 110.174 -2.96161 112.569 -3.57621 114.842C-4.06789 116.684 -4.4974 118.527 -4.98908 120.431C-5.72589 123.317 -6.40195 126.143 -7.07729 129.03C-7.10977 129.449 -7.26776 129.849 -7.5307 130.178C-7.79364 130.507 -8.14937 130.748 -8.55162 130.872C-8.74237 130.918 -8.9221 131.001 -9.08028 131.117C-9.23845 131.233 -9.3719 131.379 -9.47281 131.547C-10.3097 132.721 -10.6624 134.172 -10.4576 135.6C-10.1703 136.959 -10.1913 138.365 -10.5191 139.714C-11.0715 142.233 -11.6246 144.812 -12.3614 147.269C-12.8689 149.254 -13.0758 151.303 -12.9753 153.349C-12.9282 154.379 -12.6557 155.385 -12.1771 156.297C-11.6854 157.218 -11.3195 158.14 -10.8907 159.122C-10.197 160.689 -9.26474 162.14 -8.12712 163.422C-7.83814 163.703 -7.48624 163.91 -7.10071 164.028C-6.71519 164.145 -6.30718 164.169 -5.91066 164.097C-5.51414 164.025 -5.14056 163.859 -4.82103 163.613C-4.5015 163.368 -4.24525 163.049 -4.07361 162.685C-3.81621 161.987 -3.83823 161.217 -4.13507 160.535C-4.28686 160.15 -4.32117 159.729 -4.23366 159.324C-4.14615 158.92 -3.94074 158.55 -3.64339 158.263C-3.26804 157.873 -2.93836 157.441 -2.66074 156.976C-2.23195 156.239 -1.86247 155.502 -1.43225 154.827C-0.664115 153.559 -0.0653801 152.196 0.348665 150.773C0.819594 148.861 0.861571 146.868 0.471584 144.938C0.225744 143.464 -0.0808411 142.051 -0.385999 140.639C-0.472498 140.413 -0.483301 140.166 -0.416776 139.934C-0.350249 139.702 -0.210008 139.497 -0.0172367 139.352C0.0586891 139.282 0.121176 139.199 0.167143 139.106C0.657715 138.622 0.958441 137.977 1.01482 137.29C1.07119 136.603 0.879486 135.918 0.474444 135.36C0.233567 134.991 0.0280275 134.601 -0.139443 134.193C-0.265301 133.954 -0.325895 133.687 -0.315104 133.417C-0.304312 133.147 -0.222515 132.885 -0.0779829 132.657C0.535904 131.429 1.15051 130.2 1.70293 128.972C2.98931 126.392 4.28283 123.813 5.5106 121.171C7.26413 117.127 8.7211 112.96 9.86999 108.704C9.93145 108.642 9.99291 108.519 9.93145 108.458C9.99291 108.212 10.0544 108.029 10.1158 107.782C10.1923 107.729 10.2469 107.65 10.2695 107.56C10.2921 107.469 10.2812 107.374 10.2387 107.291C10.3002 107.045 10.3617 106.862 10.4231 106.615C10.669 106.369 10.4846 106.063 10.669 105.817C10.7919 104.834 10.9148 103.852 11.0978 102.931C11.8346 98.6312 12.3841 94.3319 12.7558 89.971C12.8172 88.8655 12.9401 87.6984 13.0631 86.5929C13.186 84.9956 13.3089 83.3376 13.4318 81.7411C13.4642 81.4891 13.5261 81.2418 13.6162 81.0043C13.6162 80.9428 13.7391 80.8814 13.8006 80.8814C13.8325 80.8836 13.8625 80.8972 13.8851 80.9198C13.9077 80.9424 13.9213 80.9724 13.9235 81.0043C13.9235 82.2907 13.985 83.5842 13.9235 84.812C13.862 86.9616 13.862 89.1113 13.6162 91.261C13.3704 93.4107 13.2474 95.5603 13.0638 97.71C13.0355 98.7834 12.9121 99.8522 12.695 100.904C12.2033 102.685 11.7738 104.406 11.2821 106.186C11.2046 106.41 11.1809 106.649 11.2129 106.884C11.2449 107.118 11.3318 107.342 11.4665 107.537C12.123 108.521 12.9561 109.375 13.9235 110.056C14.0643 110.145 14.1749 110.274 14.2408 110.427C14.3066 110.58 14.3245 110.75 14.2923 110.913C14.1775 111.688 13.9282 112.436 13.5555 113.124C12.5728 115.09 11.6516 117.116 10.7304 119.082C10.5241 119.467 10.4111 119.896 10.4004 120.334C10.3897 120.771 10.4817 121.205 10.669 121.6C10.9244 122.289 11.322 122.917 11.836 123.443C12.0464 123.657 12.188 123.929 12.2428 124.225C12.2975 124.52 12.2629 124.825 12.1433 125.101L11.9589 125.837C11.8511 126.241 11.6424 126.611 11.3523 126.912C11.0623 127.212 10.7005 127.434 10.3009 127.557C10.0717 127.607 9.85762 127.712 9.67619 127.861C9.49476 128.01 9.35107 128.199 9.25681 128.414C8.91319 129.066 8.68472 129.773 8.58147 130.503C8.58147 130.687 8.52001 130.931 8.58147 131.055C9.01026 131.607 8.76585 132.161 8.64293 132.774C8.15125 135.599 7.66028 138.364 7.1686 141.189C6.98422 142.233 6.8613 143.216 6.00157 143.952C5.82363 144.188 5.65946 144.434 5.50989 144.689C4.71162 146.041 4.15848 147.514 3.05291 148.681C2.90778 148.872 2.78411 149.078 2.68415 149.295C2.50755 149.565 2.42397 149.885 2.44616 150.206C2.46836 150.528 2.5951 150.833 2.80707 151.076C3.03355 151.368 3.18083 151.714 3.23466 152.08C3.28849 152.446 3.24706 152.819 3.11437 153.164C2.99145 153.717 2.74561 154.27 2.56194 154.822C2.00952 156.419 1.45638 158.077 0.964695 159.674C0.253234 161.911 -0.220341 164.217 -0.448174 166.553C-0.509633 167.597 -0.448174 168.703 -0.448174 169.747C-0.448174 170.73 -0.325253 171.712 -0.325253 172.695V174.169C-0.162519 176.568 0.186571 178.95 0.718855 181.294C0.922766 182.652 1.25171 183.988 1.7015 185.286C1.64004 185.409 1.7015 185.47 1.76296 185.532C1.76296 185.655 1.82442 185.716 1.82442 185.839C2.07026 186.208 1.76296 186.637 2.07026 186.944V187.006C2.37757 187.313 2.0088 187.804 2.37757 188.111C2.43903 188.234 2.43902 188.357 2.50048 188.48C2.54793 188.59 2.60994 188.694 2.68486 188.788C2.75482 188.964 2.79631 189.15 2.80779 189.34C2.79099 189.431 2.79928 189.525 2.83176 189.611C2.86424 189.698 2.91969 189.774 2.99217 189.832C3.10637 190.371 3.24951 190.904 3.42096 191.428C3.40863 191.528 3.41879 191.63 3.45069 191.725C3.48259 191.821 3.53542 191.908 3.60534 191.981C3.91264 193.209 4.15776 194.438 4.58799 195.666C5.63209 198.553 6.73766 201.378 7.78177 204.203C8.08907 205.002 8.3342 205.861 8.63935 206.722C9.00812 207.643 9.37616 208.564 9.74492 209.424C10.6661 211.758 11.4644 214.092 12.447 216.427C13.2453 218.393 13.9828 220.481 15.395 222.14C15.4564 222.201 15.5179 222.324 15.5793 222.386C15.7136 222.55 15.7869 222.756 15.7869 222.969C15.7869 223.182 15.7136 223.388 15.5793 223.553C15.1506 224.228 14.7811 225.027 14.4123 225.764C13.9206 226.869 14.2279 227.79 15.395 228.466C15.7846 228.654 16.1549 228.881 16.5005 229.141C17.3564 229.94 18.3299 230.603 19.387 231.106C19.8343 231.339 20.1989 231.703 20.4311 232.151C20.7384 232.703 20.7384 233.008 20.3082 233.437C19.7558 233.929 19.1412 234.358 18.5888 234.788C17.7517 235.306 16.9513 235.88 16.1932 236.508C14.8885 237.645 14.0379 239.216 13.7977 240.93C13.7558 241.815 13.4579 242.668 12.9401 243.387C12.7186 243.682 12.5652 244.022 12.4911 244.383C12.417 244.744 12.4239 245.117 12.5113 245.475C12.6982 246.593 12.9442 247.7 13.2482 248.792C13.3096 249.038 13.494 249.406 13.7398 249.467C14.5781 249.872 15.4677 250.161 16.3841 250.325C18.3493 250.632 20.2532 250.817 22.2192 250.939C23.3248 251 24.4918 250.877 25.5974 250.877C27.4054 250.839 29.1928 250.486 30.8794 249.833C31.591 249.625 32.2295 249.221 32.7217 248.666C34.0081 246.947 35.4853 245.349 36.4687 243.446C36.6999 243.072 36.9673 242.723 37.2669 242.402C37.4589 242.204 37.664 242.019 37.8808 241.849C37.9423 242.77 38.0037 243.569 38.0652 244.306C38.0652 244.675 37.9423 244.981 37.9423 245.35V247.254C37.9437 247.525 38.005 247.792 38.1218 248.036C38.2385 248.28 38.4078 248.496 38.6176 248.667C39.2435 249.278 39.9994 249.74 40.8288 250.018C41.7719 250.252 42.7461 250.335 43.7152 250.264C45.3125 250.141 46.9705 250.203 48.567 250.203H51.9452C52.6249 250.202 53.3033 250.141 53.9719 250.018C56.2445 249.59 58.5171 249.161 60.7283 248.667C61.4249 248.434 62.1025 248.147 62.755 247.809C63.0875 247.646 63.3674 247.392 63.5629 247.077C63.7583 246.762 63.8615 246.399 63.8606 246.028C63.9091 245.398 63.8036 244.766 63.5533 244.186C63.1845 243.388 62.9394 242.528 62.6321 241.729C61.9568 239.825 61.3457 237.798 59.6842 236.386C59.4998 236.263 59.4383 235.957 59.2554 235.772C59.073 235.417 58.846 235.087 58.58 234.789C57.9585 234.145 57.6068 233.288 57.5974 232.394C57.5359 231.595 57.5359 230.858 57.5359 230.059C57.5974 228.831 57.5974 227.603 57.7203 226.374C57.7707 225.433 58.1901 224.55 58.8873 223.917C59.5485 223.329 60.0645 222.596 60.3948 221.776C60.7251 220.955 60.8608 220.069 60.7912 219.187C60.6682 216.853 60.6682 214.581 60.6068 212.247C60.4839 207.887 60.3609 203.528 60.1151 199.164C59.9307 196.52 59.9307 193.882 59.9307 191.241C59.9307 188.661 60.0536 186.02 60.1151 183.441V183.133C60.1151 182.967 60.1538 182.803 60.2283 182.654C60.3027 182.505 60.4108 182.375 60.5439 182.276C60.7382 182.118 60.9433 181.975 61.1578 181.847C61.4046 181.731 61.6151 181.55 61.7663 181.323C61.9174 181.097 62.0036 180.833 62.0154 180.56C62.0901 180.217 62.1313 179.868 62.1383 179.516C62.3841 175.709 62.6907 171.9 62.9365 168.031C63.0792 166.21 63.038 164.378 62.8136 162.565C62.7852 162.472 62.7754 162.375 62.7848 162.278C62.7941 162.181 62.8224 162.088 62.8681 162.002C62.9138 161.916 62.9759 161.841 63.051 161.779C63.126 161.718 63.2124 161.672 63.3053 161.644C63.524 161.579 63.7122 161.438 63.8361 161.246C63.9599 161.055 64.0112 160.825 63.9807 160.599C63.9799 160.102 63.918 159.607 63.7963 159.125L63.2439 156.545C62.9366 155.132 62.6914 153.659 62.3227 152.246C62.1799 151.726 62.1588 151.179 62.2612 150.649C62.5662 149.363 62.6903 148.04 62.63 146.719C62.6198 146.124 62.6403 145.53 62.6914 144.938C63.1202 140.516 63.4897 136.155 63.4897 131.733C63.4897 130.135 63.4897 128.6 63.3668 127.003C63.2439 124.976 62.998 122.888 62.7529 120.861C62.674 120.235 62.8265 119.602 63.1817 119.08C65.0241 116.132 66.8671 113.184 68.7095 110.174C69.9586 108.126 70.9683 105.942 71.7189 103.664C72.3177 102.468 72.5532 101.123 72.3964 99.7954ZM36.2207 131.426C36.2207 135.725 36.2207 139.963 36.1592 144.263C36.0978 146.842 35.9748 149.36 35.8519 151.94C35.6675 155.38 35.5446 158.819 35.3602 162.258C35.2988 163.116 35.2373 164.039 35.2373 164.902C35.1758 165.947 33.6401 180.503 33.3335 182.346C32.9647 184.68 32.6581 187.014 32.3508 189.349C32.3508 189.411 32.2279 189.534 32.2279 189.534C32.105 189.472 31.9206 189.411 31.9206 189.349C30.6921 186.705 29.4022 184.006 28.2351 181.304C27.6213 179.829 27.191 178.231 26.6379 176.697C25.5139 173.573 25.4276 170.17 26.392 166.993C27.1289 164.291 27.9278 161.588 28.7876 158.947C29.7702 156.061 30.507 153.112 31.2445 150.164C31.6133 148.567 32.1021 146.97 32.5309 145.312C32.8382 144.145 33.0833 142.917 33.3885 141.75C34.1868 138.126 34.985 134.441 35.784 130.816C35.8476 130.465 36.0196 130.143 36.2757 129.894C36.2304 130.403 36.212 130.913 36.2207 131.424V131.426ZM59.314 101.576C58.8852 102.62 58.5157 103.665 58.1469 104.77C58.0822 105.011 57.9784 105.239 57.8396 105.445C57.7123 105.586 57.5368 105.674 57.348 105.691C57.225 105.691 57.0407 105.568 57.0407 105.445C56.7601 104.15 56.3283 102.893 55.7543 101.699C55.7164 101.512 55.7379 101.319 55.8157 101.146C55.9387 100.839 56.0616 100.532 56.1845 100.163C56.3059 99.8645 56.3526 99.5405 56.3204 99.2194C56.2883 98.8984 56.1784 98.59 56.0001 98.3211C56.0001 98.2596 55.9387 98.2596 55.9387 98.1981C54.7883 96.5438 53.9551 94.6903 53.4817 92.7318C53.3859 92.3947 53.2626 92.066 53.1129 91.7491C52.0713 89.3774 51.3485 86.8782 50.9633 84.3167C50.857 83.7952 50.7137 83.282 50.5345 82.7809C50.4226 82.2535 50.3405 81.7203 50.2886 81.1837C50.2886 80.9993 50.4115 80.8764 50.5345 80.5698C50.6758 80.7628 50.7992 80.9683 50.9032 81.1837C51.7015 83.149 52.93 84.8691 53.8512 86.773C54.6228 88.1866 55.5276 89.5233 56.5533 90.765C57.6279 92.2184 58.6124 93.7363 59.5012 95.3102C59.8513 96.0151 60.0203 96.7962 59.9929 97.5828C60.0072 98.9432 59.7773 100.295 59.314 101.574V101.576Z" fill="#0C0B0B"/>
<path d="M16.3822 115.212C15.9534 115.15 15.6454 115.764 15.1537 115.396L15.3381 114.291C15.461 113.677 15.7069 113.062 15.8298 112.448C15.9381 111.971 16.1963 111.54 16.5666 111.22C16.9921 110.743 17.5123 110.361 18.0939 110.096C18.6755 109.832 19.3059 109.691 19.9448 109.684C21.4805 109.684 22.9542 109.5 24.49 109.377C25.5955 109.315 25.9643 108.885 25.9643 107.78C25.9643 106.675 25.9028 105.508 25.8414 104.402C25.7184 102.314 25.5341 100.226 25.3497 98.0759C25.2882 97.1547 25.1653 96.2335 25.1038 95.3123C24.8991 92.4273 24.9402 89.5302 25.2268 86.6522C25.2268 86.2834 25.2882 85.9768 25.2882 85.608C25.3174 83.1139 25.564 80.627 26.025 78.1757C26.3938 75.5958 26.8233 73.078 27.3764 70.4981C27.8052 68.4099 28.2967 66.3217 28.8508 64.2335C28.9695 63.9643 28.9782 63.6593 28.875 63.3838C28.7717 63.1082 28.5648 62.8841 28.2983 62.7592L25.9028 61.1012C25.6116 60.9315 25.3433 60.7252 25.1046 60.4873C24.4292 59.8734 23.7531 59.2588 23.0778 58.5834C22.7185 58.2444 22.3897 57.8745 22.0952 57.4779C22.0337 57.355 21.9722 57.0491 22.0952 56.9862C22.2795 56.8633 22.6476 56.7404 22.709 56.8633C22.961 57.0894 23.1691 57.36 23.3229 57.6615C23.7517 57.7845 23.6917 57.5386 23.6302 57.2928C23.6917 56.864 23.2014 56.6789 23.7531 56.0064C23.7531 55.8835 24.49 55.5147 24.49 55.5147C24.8861 55.2879 25.3234 55.1422 25.7763 55.0859V55.2703C25.7149 55.6391 25.2846 55.8842 25.469 56.3144C25.5605 56.514 25.6967 56.6899 25.8672 56.8283C26.0376 56.9667 26.2376 57.064 26.4517 57.1127C27.488 57.5385 28.5883 57.7875 29.7069 57.8495C31.0583 57.911 32.4705 57.9724 33.8219 57.911C35.1077 57.8785 36.352 57.4494 37.3844 56.6825C37.8182 56.2727 38.2092 55.8199 38.5515 55.3311C39.1654 55.5154 39.4727 55.7599 39.409 56.4366C38.9803 57.911 37.6896 58.3405 36.5226 58.8936C33.9427 59.6304 29.3982 60.6131 25.7742 59.3224C26.5725 59.6297 27.4936 59.7512 28.2926 59.9977C29.1907 60.2511 30.1244 60.3549 31.0562 60.305C38.1191 60.1821 39.9007 57.0498 39.9622 57.0498C40.5761 56.804 40.9448 56.7425 41.0063 56.9883C41.0678 57.4171 40.699 57.5408 40.4539 57.7866C39.4756 58.6127 38.4275 59.3525 37.3216 59.9977C36.8299 60.2436 36.7691 60.4894 36.9528 60.9804C37.7511 63.1915 37.874 65.587 38.7337 67.7982C39.0729 68.818 39.3195 69.8664 39.4705 70.9305C39.8993 73.326 40.2688 75.6601 40.6375 78.0549C40.7605 78.9125 40.8219 79.8358 40.8834 80.6991C41.1292 84.446 41.3751 88.1315 41.6202 91.8777C41.9889 96.4229 41.8046 101.029 41.866 105.574V106.618C41.8686 106.727 41.8973 106.833 41.9497 106.928C42.0021 107.023 42.0766 107.104 42.167 107.165C42.2574 107.225 42.3609 107.262 42.4689 107.274C42.5768 107.286 42.686 107.271 42.7872 107.232C44.2615 106.618 45.7966 106.004 47.2095 105.328C48.8176 104.475 50.5643 103.913 52.3686 103.67C52.7506 103.612 53.1413 103.668 53.4911 103.832C53.841 103.996 54.1343 104.26 54.3339 104.591C55.378 106.127 55.378 106.249 53.8422 107.416C53.1017 107.965 52.3216 108.458 51.5081 108.891C49.5428 109.935 47.5775 110.918 45.6122 111.839C44.016 112.59 42.3198 113.107 40.5761 113.374C38.7952 113.62 37.0135 114.05 35.2326 114.419C33.5132 114.726 31.7308 114.971 30.0121 115.217C29.3982 115.34 28.7836 115.401 28.1082 115.586C26.2659 116.077 24.4228 116.507 22.5804 117.06C20.0709 117.738 17.6716 118.773 15.456 120.133C14.6675 120.635 13.9801 121.281 13.4293 122.037C13.2604 122.274 13.0758 122.5 12.8768 122.712C12.6925 122.896 12.4481 122.835 12.2015 122.651C11.9875 122.465 11.8147 122.236 11.6945 121.979C11.5743 121.722 11.5091 121.443 11.5034 121.16C11.4976 120.876 11.5512 120.594 11.6609 120.333C11.7705 120.071 11.9338 119.836 12.14 119.641C12.9735 118.747 13.8999 117.944 14.9036 117.246C15.5789 116.817 16.1321 116.325 16.8074 115.833C17.5253 115.08 18.4424 114.548 19.4517 114.297C20.8645 113.745 22.3381 113.439 23.751 112.884C21.2345 113.455 18.7698 114.233 16.3822 115.212Z" fill="#D5333F"/>
<path d="M22.7085 60.9789C23.1373 61.2248 23.8141 61.1018 23.9949 61.7772C24.0563 61.9001 24.3022 61.9616 24.4866 61.9616C24.7763 61.9681 25.0642 62.0094 25.3442 62.0845C25.608 62.1444 25.8433 62.2929 26.0109 62.5053C26.1785 62.7176 26.2683 62.981 26.2653 63.2515C26.2128 63.7 26.1923 64.1516 26.2039 64.6029C25.8351 67.9811 25.4671 71.3593 25.1598 74.676C24.791 78.5451 24.5459 82.4149 24.1157 86.2841C23.6869 90.7063 23.9313 95.1286 23.9927 99.5509C24.0542 101.639 24.4215 103.727 24.6066 105.816C24.6176 106.065 24.6589 106.313 24.7296 106.552C24.791 107.658 24.6066 107.965 23.5011 108.21C22.1141 108.559 20.668 108.601 19.2632 108.333C17.2364 107.904 15.1482 107.535 13.06 107.166C12.3232 107.043 12.2024 106.859 12.3846 106.184C12.8134 104.341 13.2422 102.437 13.671 100.594C13.9248 99.5039 14.0892 98.3947 14.1627 97.2776C14.2856 95.3737 14.47 93.4699 14.5915 91.5653C14.7144 89.5386 14.8373 87.5733 15.0203 85.5465C15.0633 83.735 14.9196 81.9238 14.5915 80.1416C14.0998 76.7635 13.6703 73.3238 13.1786 69.9464C12.8426 67.9661 12.2865 66.0296 11.5206 64.1727C11.444 63.9367 11.3409 63.7102 11.2133 63.4974C10.7216 62.4532 10.7216 62.4532 11.8272 62.211H11.9501C12.1345 62.1495 12.3789 62.1495 12.2574 61.8422C12.196 61.7193 11.9501 61.6578 11.7657 61.5964C11.5199 61.5964 11.2741 61.6578 11.0289 61.6578H10.7216C10.675 61.6514 10.6318 61.6298 10.5987 61.5964C10.5896 61.5098 10.6114 61.4227 10.6602 61.3505C11.0795 61.0794 11.5747 60.9502 12.073 60.9818C12.8713 60.9818 13.6703 60.9818 14.4071 60.9203L18.8294 60.7359C19.3216 60.7257 19.814 60.7463 20.3037 60.7974C20.7954 60.8589 21.2864 60.8589 21.778 60.9203C21.8395 61.4727 21.3492 61.412 21.0412 61.6571C21.3505 61.662 21.6575 61.6044 21.944 61.4879C22.2304 61.3713 22.4905 61.1982 22.7085 60.9789Z" fill="#53829F"/>
<path d="M50.7153 59.626C51.1492 59.6784 51.579 59.7605 52.0016 59.8719C52.1246 59.8719 52.3089 59.9948 52.3089 60.1177C52.3704 60.3635 52.1246 60.425 51.9402 60.425C51.6943 60.4865 51.5714 60.6708 51.6943 60.8538C51.8059 61.0419 51.8596 61.2588 51.8486 61.4773C51.8377 61.6958 51.7627 61.9062 51.6329 62.0823C50.8219 64.0343 50.1648 66.0467 49.6676 68.1011C49.126 70.3959 48.858 72.7468 48.8693 75.1047C48.9832 77.7589 49.2497 80.4044 49.6676 83.028C50.0922 85.9923 50.7076 88.9261 51.51 91.8111C51.6384 92.3808 51.8234 92.9363 52.0624 93.4691L54.0891 97.707C54.2383 98.0029 54.3617 98.3111 54.4579 98.6282C54.4986 98.7429 54.4961 98.8685 54.4509 98.9816C54.4056 99.0946 54.3207 99.1872 54.2121 99.2421C53.9048 99.365 53.5982 99.4879 53.2294 99.6108C51.6508 100.134 50.1282 100.813 48.6842 101.638C47.763 102.19 46.7804 102.62 45.8592 103.173C45.1224 103.602 44.4463 104.095 43.771 104.525C43.2793 104.832 42.9134 104.709 42.9134 104.096L42.729 99.1213C42.6676 97.3404 42.6676 95.5588 42.6061 93.8393C42.4832 90.8299 42.2988 87.759 42.1144 84.7489C41.9915 82.7222 41.93 80.7569 41.8071 78.7301C41.7457 77.7475 41.6227 76.7648 41.4998 75.8436C41.1311 73.6325 40.763 71.4214 40.3328 69.2102C40.1251 68.0509 39.8587 66.9029 39.5345 65.7706C39.2272 64.6036 38.9821 63.3751 38.6769 62.2081C38.6087 61.9706 38.607 61.719 38.6721 61.4807C38.7371 61.2424 38.8663 61.0265 39.0457 60.8566C39.3578 60.5536 39.6859 60.2673 40.0283 59.9991C40.3971 60.2449 40.7651 60.3678 40.8266 59.6918C41.1954 59.6303 41.6249 59.6303 41.9936 59.5688C43.3992 59.3436 44.8331 59.3643 46.2315 59.6303C47.1089 59.7341 47.9925 59.7752 48.8757 59.7532C48.9987 59.8761 49.183 59.9991 49.2445 60.182C49.6733 60.6737 50.0428 60.5508 50.3501 60.0591C50.4584 59.9039 50.5806 59.759 50.7153 59.626Z" fill="#53829F"/>
<path d="M23.6298 55.4498C22.9544 55.6956 22.2783 55.9414 21.5415 56.1866C21.3354 56.2715 21.1087 56.2935 20.89 56.2498C20.6714 56.206 20.4706 56.0985 20.3131 55.9407C20.1901 55.8178 20.0672 55.7563 20.0057 55.6334L16.8734 52.1316C16.6348 51.8717 16.4287 51.5837 16.2595 51.274C15.7071 50.4165 15.7679 50.1685 16.5668 49.5546C17.6109 48.8792 18.6551 48.2032 19.6992 47.6507C21.235 46.8525 22.8315 46.1764 24.3673 45.5011C25.5239 45.1122 26.7178 44.8446 27.9298 44.7028C28.7281 44.5799 29.4656 44.5184 30.2639 44.3955C31.5205 44.1603 32.808 44.1395 34.0716 44.334C34.5585 44.4158 35.0538 44.4365 35.5459 44.3955C37.363 44.3373 39.1695 44.6944 40.8279 45.4396C42.4549 46.0258 43.9412 46.9462 45.1908 48.1417C45.9958 48.7849 46.7162 49.5274 47.3348 50.3514C47.6421 50.7802 47.6421 50.8431 47.2733 51.209C45.8605 52.5604 44.3869 53.8532 42.9139 55.2011C42.3622 55.6226 41.7019 55.8782 41.0101 55.9379C40.7858 55.9902 40.5511 55.9777 40.3336 55.9018C40.1161 55.8259 39.9247 55.6897 39.7816 55.5091C38.9834 54.342 37.6934 53.9118 36.5264 53.3594L35.974 53.175C35.4823 53.0521 35.2986 52.7462 35.2372 52.1924C35.1757 50.5951 35.0528 48.9371 34.9913 47.3406C35.0102 47.0819 34.9773 46.8221 34.8945 46.5763C34.8116 46.3305 34.6806 46.1037 34.509 45.9093C34.3374 45.7148 34.1287 45.5565 33.8952 45.4437C33.6617 45.3309 33.4079 45.2659 33.1489 45.2524C31.9286 45.097 30.6889 45.2231 29.5249 45.6211C29.2633 45.7278 29.0315 45.8966 28.8496 46.1128C28.4273 46.7255 28.2122 47.4573 28.2357 48.201V52.7462C28.2357 53.3601 28.1742 53.4216 27.5603 53.483C26.6249 53.5763 25.7116 53.8253 24.8582 54.2198C24.665 54.3515 24.4983 54.5183 24.3666 54.7115C24.2357 54.7809 24.1286 54.888 24.0593 55.0188C24.0593 55.3261 23.752 55.2647 23.6305 55.4476L23.6298 55.4498Z" fill="#435E71"/>
<path d="M12.759 73.6913C12.7135 73.9962 12.6929 74.3043 12.6975 74.6125C12.69 74.6772 12.6697 74.7398 12.6378 74.7965C12.6058 74.8532 12.5628 74.903 12.5114 74.943C12.4599 74.9829 12.401 75.0122 12.3382 75.0291C12.2753 75.0459 12.2096 75.0501 12.1451 75.0413C11.5312 74.9798 10.8587 74.8569 10.2413 74.734C9.32007 74.5496 8.46034 74.3052 7.53915 74.1201C7.29704 74.0692 7.04955 74.0486 6.80235 74.0587C5.45094 74.1201 4.10024 73.8128 2.68737 73.9972C2.07349 74.0587 1.88911 73.8128 2.01203 73.1989L2.19641 72.4621C3.09105 69.2008 4.43458 66.0796 6.18846 63.1881C6.337 62.8793 6.59675 62.6382 6.91564 62.5129C7.23453 62.3877 7.58897 62.3876 7.90791 62.5127C8.42806 62.6665 8.88123 62.991 9.19429 63.4339C9.38186 63.7277 9.54625 64.0357 9.68597 64.3551C10.7915 66.8121 11.9586 69.2069 12.3881 71.9097C12.5466 72.4958 12.6704 73.0907 12.759 73.6913Z" fill="#D5333F"/>
<path d="M50.0408 70.6207C50.2509 67.9727 51.1164 65.4186 52.5593 63.1883C52.928 62.5744 53.2346 61.9019 53.6648 61.2845C54.4631 60.1174 55.0162 60.1174 55.876 61.223C56.7838 62.3744 57.547 63.6328 58.1486 64.9699C58.6402 66.2563 59.2541 67.4884 59.7451 68.7776C59.9295 69.2064 59.7451 69.5144 59.3163 69.6988C59.1829 69.7677 59.0371 69.8094 58.8875 69.8217C56.4037 70.0562 53.9757 70.6995 51.7017 71.7256L51.1493 71.9099C50.1051 72.2787 49.9208 72.1558 49.9822 71.0524C49.9808 70.928 50.0408 70.8051 50.0408 70.6207Z" fill="#D5333F"/>
<path d="M29.0962 51.8877V48.0793C29.0962 46.7929 29.465 46.3598 30.632 45.9296C31.4645 45.6224 32.3793 45.6224 33.2119 45.9296C33.5453 46.0157 33.8432 46.2044 34.0636 46.4689C34.284 46.7334 34.4158 47.0605 34.4404 47.4039C34.4404 47.8327 34.5018 48.2615 34.5018 48.6903C34.5633 50.4712 34.6247 52.1921 34.6862 53.9723V55.0164C34.6247 56.2449 34.3174 56.6744 33.0897 56.9203C32.1322 57.0409 31.1682 57.1025 30.2032 57.1046C29.2205 57.1046 29.0976 56.9203 29.0976 55.9991V51.8877H29.0962Z" fill="#E4A38D"/>
<path d="M17.9179 57.1673C18.3079 57.0669 18.7175 57.0707 19.1056 57.1785C19.4937 57.2862 19.8466 57.4941 20.129 57.7812C20.4363 58.0885 20.8044 58.3336 21.1117 58.6388C21.1731 58.7003 21.1117 58.9461 21.0502 59.0076C20.7819 59.133 20.4887 59.196 20.1926 59.1919C19.335 59.2534 18.5346 59.1919 17.6742 59.2534C15.2172 59.4378 12.7609 59.5607 10.304 59.7451C10.0608 59.7883 9.81085 59.7718 9.57547 59.6971C9.34009 59.6224 9.12634 59.4917 8.95256 59.3163C8.69184 59.0863 8.44576 58.8402 8.21576 58.5795C8.1543 58.518 8.1543 58.3337 8.1543 58.2107C8.1543 58.1493 8.27722 58.0878 8.40014 58.0878C8.89182 58.0263 9.38278 57.9034 9.87446 57.842C12.5744 57.5976 15.2151 57.4132 17.9179 57.1673Z" fill="#53829F"/>
<path d="M47.2144 58.0304H43.2838C42.9347 58.0406 42.5853 58.02 42.2397 57.969C42.1783 57.969 41.9939 57.7231 42.0553 57.6617C42.305 57.1892 42.5918 56.7373 42.9129 56.3102C43.0314 56.1901 43.1766 56.0997 43.3367 56.0463C43.4968 55.9929 43.6672 55.978 43.8341 56.0029C44.7553 56.0029 45.6765 56.0644 46.5977 56.1259C48.0105 56.1873 49.4227 56.3102 50.8356 56.3717C51.6931 56.4332 52.6165 56.4946 53.4798 56.6175C54.0937 56.679 54.278 57.17 53.9086 57.6617C53.7838 57.8374 53.6176 57.9797 53.4248 58.076C53.232 58.1724 53.0185 58.2198 52.803 58.2141C51.1457 58.0919 49.4256 58.0919 47.2144 58.0304Z" fill="#53829F"/>
<path d="M35.2995 55.5111C35.4224 53.8531 35.5454 53.7302 36.7738 54.2248C36.9257 54.2724 37.0625 54.3585 37.1711 54.4748C37.2797 54.591 37.3563 54.7335 37.3935 54.8881C37.4306 55.0428 37.427 55.2045 37.3831 55.3574C37.3391 55.5103 37.2562 55.6492 37.1426 55.7605C36.878 56.0385 36.5661 56.2671 36.2214 56.4359C35.9555 56.5657 35.6555 56.6087 35.3638 56.5588C34.9951 56.4359 35.2409 56.0671 35.2409 55.822C35.2995 55.6341 35.361 55.4497 35.2995 55.5111Z" fill="#A2323C"/>
<path d="M28.3588 55.7567C28.361 55.902 28.3402 56.0467 28.2974 56.1855C28.2875 56.307 28.2306 56.4198 28.1387 56.4999C28.0469 56.58 27.9274 56.621 27.8057 56.6143C27.4301 56.5683 27.0598 56.486 26.7001 56.3685C26.5762 56.3189 26.4683 56.2361 26.3882 56.1293C26.3082 56.0224 26.2592 55.8956 26.2465 55.7627C26.2338 55.6299 26.2579 55.496 26.3163 55.376C26.3746 55.2559 26.4649 55.1542 26.5772 55.0821C26.8659 54.9027 27.1752 54.7587 27.4984 54.6533C28.1737 54.4689 28.356 54.5918 28.4196 55.3286C28.3597 55.4628 28.3387 55.6111 28.3588 55.7567Z" fill="#A2323C"/>
<path d="M22.7089 60.9762C22.6474 61.8338 22.6474 61.8338 21.9721 61.8338C21.4196 61.8338 20.928 61.7724 20.3748 61.7724C20.3313 61.7592 20.2917 61.7354 20.2595 61.7033C20.2274 61.6711 20.2036 61.6315 20.1904 61.588C20.1904 61.4651 20.3133 61.2807 20.3748 61.2807C20.7477 61.2492 21.1174 61.1875 21.4804 61.0963C21.6033 61.0348 21.7262 60.8505 21.8491 60.7275C22.1432 60.7818 22.4312 60.8651 22.7089 60.9762Z" fill="#120E0D"/>
<path d="M40.9496 59.5658C41.1095 59.714 41.2533 59.8788 41.3784 60.0575C41.4398 60.1189 41.3784 60.3648 41.3784 60.3648C41.0784 60.4462 40.7653 60.4671 40.4572 60.4262C40.3343 60.3648 40.2728 60.0575 40.1499 59.8738C40.2743 59.44 40.643 59.5658 40.9496 59.5658Z" fill="#120E0D"/>
<path d="M49.0571 60.2399C49.0571 60.0556 48.9956 59.8112 48.9956 59.6261C49.5695 59.6148 50.1435 59.6353 50.7151 59.6875V60.2399C50.4648 60.3906 50.1782 60.4702 49.8861 60.4702C49.5939 60.4702 49.3073 60.3906 49.0571 60.2399Z" fill="#435E71"/>
<path d="M17.6719 61.6529C16.7507 61.6529 16.4434 61.53 16.5664 61.3456C16.8122 60.9768 17.1802 61.0997 17.4875 61.0997C17.7347 61.0897 17.9822 61.1103 18.2243 61.1612C18.2858 61.1612 18.3473 61.2841 18.3473 61.3456C18.3473 61.407 18.2858 61.53 18.2243 61.53C18.0557 61.6228 17.864 61.6654 17.6719 61.6529Z" fill="#120E0D"/>
<path d="M14.4166 61.96C14.2322 61.8986 14.0478 61.8986 13.8641 61.8371C13.8027 61.8371 13.7412 61.7142 13.7412 61.5913L13.8027 61.4683C14.2315 61.3454 14.6009 61.0996 15.0312 61.3454C15.0687 61.3746 15.0992 61.4119 15.1205 61.4544C15.1417 61.497 15.1532 61.5437 15.1541 61.5913C15.1541 61.6527 15.0926 61.8371 15.0312 61.8371C14.8231 61.8598 14.6174 61.9009 14.4166 61.96Z" fill="#120E0D"/>
<path d="M44.2083 60.4237C43.1639 60.4237 42.7351 60.3008 42.9219 60.0549C43.1677 59.6862 43.5972 59.8705 43.966 59.8091C44.2532 59.7991 44.5407 59.8197 44.8236 59.8705C44.885 59.8705 44.9465 59.9935 44.9465 60.0549C44.9312 60.1474 44.8883 60.233 44.8236 60.3008C44.6212 60.3542 44.4157 60.3953 44.2083 60.4237Z" fill="#120E0D"/>
<path d="M49.0571 60.2411C49.6105 60.2513 50.164 60.2308 50.7151 60.1797C50.7243 60.2663 50.7025 60.3534 50.6537 60.4255C50.3464 60.7943 49.9169 60.6099 49.4866 60.6099C49.18 60.6714 49.0571 60.487 49.0571 60.2411Z" fill="#120E0D"/>
<path d="M47.2128 60.4248C47.0266 60.4316 46.8404 60.4109 46.6603 60.3633C46.5374 60.3633 46.4759 60.2404 46.353 60.1175C46.4145 59.9946 46.5374 59.8717 46.5989 59.8717C46.9889 59.8615 47.3791 59.882 47.7659 59.9331C47.8274 59.9331 47.8888 60.056 47.9503 60.1175C48.0732 60.3633 47.8274 60.3633 47.7044 60.3633C47.5837 60.4863 47.4607 60.4248 47.2128 60.4248Z" fill="#120E0D"/>
<path d="M28.7879 0.752048C30.17 0.704447 31.105 0.589858 32.0508 0.595027C34.048 0.587397 36.011 0.967031 37.8244 1.71159C39.5937 2.33624 41.2906 3.12611 42.8917 4.07041C43.7968 4.63149 44.6372 5.28227 45.4001 6.01278C46.0623 6.64882 46.6539 7.35044 47.1662 8.10701C48.721 10.2607 49.8774 12.6686 50.5862 15.2282C51.1726 17.4082 51.4208 19.6725 51.323 21.9482C51.3386 22.8251 51.2922 23.7043 51.1841 24.5798C50.719 26.4001 50.8993 28.3849 49.9228 30.0851C49.8143 30.2811 49.8361 30.5207 49.6551 30.6045C48.8332 31.2526 49.0836 31.9492 49.4053 32.7029C49.7487 33.4293 49.8385 34.2523 49.6616 35.0513C49.4847 35.8503 49.0504 36.5833 48.4223 37.1431C47.791 37.8288 47.1549 38.4541 46.586 39.1315C46.2337 39.5515 45.9158 39.9971 45.6355 40.4638C45.2452 41.2 44.893 41.9534 44.5803 42.7212C44.1161 43.81 43.4861 44.8304 42.7121 45.7474C42.5982 45.8831 42.4904 46.0783 42.3764 46.2134C41.1916 47.9394 39.6488 49.414 37.8517 50.5381C35.8176 51.9568 33.3828 52.7033 30.9251 52.6618C29.5257 52.572 28.1675 52.2224 26.9239 51.6318C25.8719 51.1524 24.9394 50.6003 23.9442 50.051C22.3836 49.225 20.9542 48.1934 19.6947 46.9843C18.9262 46.2628 18.26 45.4454 17.7122 44.5519C17.3041 43.7973 16.7047 43.1602 15.9679 42.6979C15.2184 42.2383 14.5336 41.6891 13.9286 41.0627C13.1347 40.3427 12.6161 39.3814 12.452 38.3255C12.2878 37.2697 12.487 36.1773 13.0193 35.2151C13.2139 34.8668 13.3709 34.501 13.4875 34.1238C13.566 33.8916 13.5898 33.6472 13.5573 33.409C13.5247 33.1708 13.4365 32.9449 13.2994 32.7483C13.2315 32.6957 13.2206 32.5752 13.1527 32.5233C10.8543 28.731 9.96767 24.5221 9.63672 20.1849C9.54685 18.9761 9.6484 17.7539 9.93789 16.5605C10.271 14.6279 10.9077 12.7451 11.8257 10.9783C12.0441 10.5268 12.3237 10.1037 12.6568 9.72073C14.3739 7.8107 15.9603 5.85015 18.0954 4.37185C19.1572 3.58965 20.3353 2.97303 21.5847 2.54559C23.0589 2.122 24.4597 1.58491 25.9416 1.22129C26.8827 1.01405 27.8329 0.857395 28.7879 0.752048Z" fill="#0B080A"/>
<path d="M18.0582 16.476C17.8222 15.9585 17.5309 15.5086 17.362 15.0437C16.712 13.4269 16.0668 11.864 15.4166 10.2444C15.2381 9.9092 15.1781 9.52294 15.2456 9.14287C15.3131 8.76281 15.5043 8.40918 15.7911 8.13441C16.9258 6.6027 18.3726 5.3083 20.0367 4.3361C20.4821 4.08338 20.9458 3.86415 21.4237 3.68043C23.1202 3.0263 24.8581 2.48864 26.624 2.07159C28.2485 1.74089 29.8956 1.5593 31.5434 1.52925C32.5882 1.48025 33.6303 1.55642 34.6459 1.75606C36.2542 2.02553 37.7797 2.60186 39.135 3.4521C39.7953 3.79527 40.3926 4.14616 41.0585 4.55155C41.2679 4.65227 41.4679 4.7696 41.6565 4.90236L45.1228 7.75512C45.872 8.43496 46.4435 9.2785 46.7932 10.2209C46.977 10.7127 47.1886 11.1933 47.4272 11.6608C48.9215 14.0205 49.5723 16.814 49.283 19.6273C49.2656 20.0118 49.2794 20.3958 49.3244 20.7758C49.4825 22.5166 49.5783 24.2649 49.731 25.9462C49.7685 26.2319 49.718 26.5252 49.5858 26.7897C49.4535 27.0542 49.2454 27.2781 48.9872 27.4335C48.9166 27.4898 48.8342 27.5301 48.7463 27.5511C48.6585 27.572 48.5676 27.5732 48.4808 27.5545C48.394 27.5358 48.3136 27.4977 48.2459 27.4431C48.1783 27.3886 48.1252 27.3191 48.0908 27.2402C48.0067 27.008 47.9848 26.7675 47.9008 26.5354C47.8221 26.3626 47.6033 26.0255 47.4787 26.0407C47.1056 26.0865 47.0713 26.3939 47.0356 26.7022C46.9764 27.4376 46.9796 28.166 46.9211 28.9012C46.88 29.2778 46.8089 29.6519 46.7086 30.0201C46.6875 30.0854 46.65 30.1451 46.5995 30.1936C46.549 30.2422 46.4871 30.2781 46.4196 30.298C46.3573 30.3056 46.1602 30.2082 46.1494 30.0887C45.9932 29.6276 45.8665 29.1566 45.7701 28.6783C45.6805 28.386 45.6532 28.0854 45.5693 27.8547C45.552 27.8137 45.5245 27.778 45.489 27.7505C45.4536 27.723 45.4113 27.7047 45.366 27.6972C45.2931 27.7044 45.2225 27.7287 45.1603 27.7681C45.0981 27.8076 45.0462 27.8609 45.0094 27.9233C44.9144 28.2063 44.8565 28.4984 44.8371 28.7927C44.6869 29.9039 44.5358 31.0146 44.3177 32.0733C44.2547 32.3406 44.151 32.5987 44.0101 32.8391C43.908 32.9279 43.7818 32.9857 43.648 33.0051C43.5234 33.0204 43.3832 32.8552 43.3723 32.7357C43.261 32.2029 43.2173 31.7226 43.106 31.1899C43.0887 31.149 43.0611 31.1132 43.0257 31.0857C42.9902 31.0582 42.948 31.0399 42.9027 31.0324C42.8298 31.0396 42.7591 31.0639 42.6969 31.1033C42.6347 31.1428 42.5829 31.1961 42.546 31.2585C42.4257 31.628 42.3339 32.0045 42.2712 32.3851C42.0366 33.2621 41.8585 34.0742 41.6256 34.9531C41.5272 35.2815 41.3628 35.5901 41.1418 35.8607C40.7453 36.3334 40.2798 36.7552 39.6444 37.3795C39.6686 36.9524 39.5844 36.7189 39.6305 36.533C39.8135 35.7825 39.9972 35.0312 40.1748 34.2205C40.8573 30.9273 40.7875 27.5569 39.9703 24.3494C39.5805 23.1069 38.9644 21.9496 38.1504 20.9307C36.5859 18.7904 34.5598 17.0118 32.2046 15.7114C30.3483 14.6226 28.178 14.107 25.9699 14.2301C23.9231 14.3183 21.8961 14.7726 19.9915 15.5703C19.3205 15.8356 18.7202 16.1524 18.0582 16.476Z" fill="#793787"/>
<path d="M45.2052 34.3423C45.3899 34.8195 45.4157 35.3461 45.2792 35.8501C45.0356 37.4233 44.6946 38.9846 44.2581 40.5252C43.7906 41.8598 43.1922 43.1522 42.4712 44.3842C41.0219 47.1096 38.7446 49.0272 36.191 50.6749C35.5479 51.0666 34.8572 51.3758 34.1371 51.5943C33.5745 51.7944 32.9728 51.8472 32.3942 51.7473C31.1701 51.6415 29.9676 51.4022 28.8092 51.0338C25.3 49.7685 22.1872 48.0235 20.193 44.7497C18.9828 42.9575 18.0817 40.9792 17.5233 38.8887C17.1461 37.266 16.8911 35.6145 16.7604 33.947C16.6121 31.9831 16.6849 30.0012 16.9775 28.0359C17.1875 26.79 17.6321 25.5836 18.2888 24.4775C18.3456 24.4098 18.397 24.282 18.4538 24.2149C19.5879 22.8628 19.8151 22.5919 21.6101 22.9801C22.697 23.3016 23.7175 23.7909 24.6331 24.4295C27.13 26.2635 29.3028 28.4734 31.0738 30.9803C32.0908 32.3807 32.9063 33.9128 33.4992 35.5367C34.1818 37.5153 34.9267 39.4869 35.6716 41.4586C35.8059 41.8736 35.9686 42.2785 36.1587 42.6706C36.4724 43.3598 36.9861 43.4791 37.4999 42.93C38.4751 41.9005 39.388 40.8786 40.2955 39.7966C41.6054 38.3014 42.8421 36.6936 44.0898 35.2061C44.4469 34.9005 44.8192 34.6122 45.2052 34.3423Z" fill="#E4A38D"/>
<path d="M36.9524 41.3686C36.7832 40.9018 36.6203 40.4952 36.4567 40.0886C36.0126 38.6803 35.625 37.2039 35.1825 35.7961C34.9233 35.0357 34.6594 34.215 34.343 33.522C33.0639 30.728 31.4025 28.1241 29.4019 25.7777C27.8276 24.0753 26.0562 22.5546 24.1202 21.2433C23.5815 20.8834 23.0482 20.5825 22.5095 20.2219C22.0508 19.9461 21.5084 19.8206 20.9591 19.8631C20.5505 19.8909 20.1424 19.8587 19.7486 19.7679C19.2372 19.7084 19.0955 19.5434 18.989 19.0688C18.7596 17.9386 19.0454 17.5992 20.1851 17.6449C22.1568 17.769 24.1747 17.7051 26.1276 18.3191C28.7144 19.0247 31.013 20.4336 32.7569 22.3826C33.323 23.0443 33.9463 23.6387 34.4498 24.308C35.4581 25.4808 36.2245 26.8337 36.7097 28.2975C37.0506 29.401 37.3012 30.5319 37.4592 31.6798C37.6534 33.1186 37.785 34.5652 37.854 36.0198C37.865 37.2651 37.8096 38.5128 37.6881 39.7576C37.6684 40.3593 37.4039 40.9383 36.9524 41.3686Z" fill="#773685"/>
<path d="M11.0534 20.8861C11.0581 19.5358 10.9294 18.1402 10.9974 16.7823C11.1237 15.7189 11.3506 14.6648 11.6754 13.6331C11.9106 12.8336 12.2283 12.0554 12.6236 11.3101C12.8328 10.8643 13.1231 10.4551 13.4807 10.102C14.0108 9.5472 14.4745 9.67557 14.7279 10.3195C15.4124 12.1389 16.0329 13.966 16.7174 15.7854C17.062 16.7255 17.4074 17.6655 17.7577 18.6664C17.9119 19.0704 18.0363 19.4851 18.1301 19.9076C18.1954 20.0722 18.2015 20.2548 18.1475 20.4275C18.0935 20.6002 17.9824 20.7535 17.8311 20.8639C17.0515 21.5104 16.7469 22.4059 16.2478 23.2636C15.1236 25.2392 14.7174 27.4935 15.0949 29.6611C15.162 30.393 15.1652 31.1313 15.1046 31.8684C15.1206 31.9876 15.0879 32.1099 15.0132 32.2101C14.9386 32.3104 14.8276 32.3811 14.7031 32.4077C14.5841 32.4029 14.4684 32.3741 14.3636 32.3234C14.2588 32.2726 14.1672 32.201 14.0947 32.1132C13.9525 31.9203 13.8455 31.7051 13.778 31.4762C13.2694 30.4326 12.8254 29.3594 12.4483 28.2621C12.1782 27.4373 12.0367 26.597 11.8246 25.6995C11.6239 24.9263 11.4184 24.0923 11.2816 23.3107C11.1448 22.5291 11.136 21.7328 11.0689 21.005C11.1173 20.8784 11.1173 20.8784 11.0534 20.8861Z" fill="#773685"/>
<path d="M17.1708 40.4427C17.1134 40.5109 16.9418 40.7147 16.8105 40.6702C16.3911 40.6442 15.9852 40.5345 15.6183 40.3481C15.2513 40.1616 14.9312 39.9025 14.6781 39.5868C14.444 39.2868 14.2921 38.933 14.2356 38.5566C14.1791 38.1801 14.2197 37.7924 14.3539 37.4274C14.5026 37.0102 14.6776 36.6013 14.8779 36.2031C14.9415 36.0692 15.0437 35.9548 15.1719 35.8741C15.3 35.7933 15.4484 35.7497 15.5987 35.7487C15.9811 35.7632 16.0654 35.9969 16.1566 36.2916C16.2505 36.5186 16.3149 36.7568 16.3486 37.001C16.696 38.1282 16.9706 39.2776 17.1708 40.4427Z" fill="#D89A85"/>
<path d="M46.1951 35.7117C46.1842 35.1736 46.2414 34.6336 46.3654 34.1038C46.429 33.8351 46.5336 33.5755 46.6756 33.3338C46.7141 33.2744 46.7646 33.2229 46.824 33.1825C46.8834 33.1422 46.9504 33.114 47.0206 33.0997C47.0909 33.0853 47.1629 33.0852 47.2321 33.0993C47.3012 33.1133 47.3661 33.1413 47.4224 33.1814C47.7977 33.4498 48.0575 33.8415 48.1561 34.2873C48.2547 34.7332 48.1856 35.2045 47.9611 35.6181C47.844 35.8242 47.6887 36.0088 47.5034 36.1623C47.212 36.4417 46.8682 36.8505 46.4645 36.5943C46.2665 36.4962 46.2854 36.0056 46.1951 35.7117Z" fill="#D89A85"/>
<path d="M31.4905 47.7964C30.7866 47.8623 30.0898 47.6946 29.5167 47.3215C28.7134 46.7042 27.9146 46.1453 27.1729 45.5205C26.9927 45.3555 26.8657 45.1439 26.8059 44.9092C26.7172 44.6222 26.6285 44.3345 26.9207 44.1205C27.1496 44.0442 27.3972 44.057 27.6092 44.1562C28.9828 44.7813 30.5625 44.9063 32.0646 44.5085C33.0511 44.3344 33.9942 43.9553 34.827 43.3978C35.0622 43.2498 35.3035 43.1608 35.4484 43.382C35.5264 43.4667 35.5787 43.5707 35.6 43.6834C35.6213 43.7961 35.6108 43.9134 35.5695 44.0232C35.2453 44.8264 34.7523 45.562 34.1223 46.1827C33.4924 46.8034 32.7393 47.2954 31.9115 47.6272C31.7743 47.6911 31.6337 47.7476 31.4905 47.7964Z" fill="#0B080A"/>
<path d="M21.9551 35.9961C21.9045 35.339 22.1136 34.6781 22.5405 34.1459C22.9674 33.6136 23.5804 33.2495 24.2566 33.1264C24.7971 33.0638 25.3375 33.1688 25.7993 33.4262C26.261 33.6836 26.6201 34.08 26.8244 34.5578C26.8386 34.741 26.7942 34.9262 26.6972 35.0884C26.6002 35.2507 26.4552 35.3822 26.2818 35.4653C25.8669 35.6155 25.4343 35.709 24.997 35.7431C24.2098 35.7796 23.4559 36.1093 22.8936 36.6629C22.8348 36.7434 22.7513 36.8043 22.6556 36.8364C22.5599 36.8685 22.4572 36.8701 22.363 36.8409C22.2688 36.8118 22.1881 36.7534 22.133 36.6746C22.078 36.5959 22.0516 36.501 22.0578 36.4041C21.9876 36.3531 21.9714 36.1743 21.9551 35.9961Z" fill="#0C0B0B"/>
<path d="M23.4856 29.6892C23.4948 29.8956 23.4358 30.1019 23.3172 30.2786C23.1986 30.4553 23.0265 30.5932 22.8257 30.6724C22.5822 30.7323 22.3332 30.7627 22.0844 30.7631C21.6977 30.8309 21.3258 30.9721 20.9905 31.1784C20.6552 31.3847 20.3632 31.652 20.1316 31.9647C19.8437 32.3511 19.521 32.7128 19.1676 33.0453C19.0837 33.0792 18.9929 33.0916 18.9043 33.0813C18.8157 33.071 18.7323 33.0383 18.6624 32.9866C18.5951 32.9346 18.5115 32.7045 18.568 32.6373C18.7431 31.9575 19.0631 31.3155 19.5072 30.7532C19.9512 30.1908 20.5094 29.7208 21.1451 29.3737C21.4766 29.2112 21.8381 29.12 22.2041 29.1065C22.5701 29.093 22.9315 29.1575 23.2628 29.2954C23.3348 29.4071 23.413 29.5783 23.4856 29.6892Z" fill="#120E0D"/>
<path d="M30.9353 39.9584C30.8104 39.988 30.6806 39.9832 30.5613 39.9444L30.3604 39.7911C30.4112 39.6665 30.4566 39.4841 30.579 39.4694L31.624 39.3431C31.6687 39.3504 31.7104 39.3682 31.7455 39.395C31.7805 39.4217 31.8078 39.4566 31.8248 39.4964C31.79 39.6223 31.7132 39.7354 31.6062 39.8181C31.3778 39.8332 31.1517 39.8805 30.9353 39.9584Z" fill="#120E0D"/>
</g>
</svg>
