<svg width="64" height="64" viewBox="0 0 64 64" fill="none" xmlns="http://www.w3.org/2000/svg">
<circle cx="32" cy="32" r="32" fill="#3497FD"/>
<mask id="mask0" mask-type="alpha" maskUnits="userSpaceOnUse" x="0" y="0" width="64" height="64">
<circle cx="32" cy="32" r="32" fill="#14CA7B"/>
</mask>
<g mask="url(#mask0)">
<path d="M83.8755 200.034C83.7413 200.101 83.6077 200.235 83.4735 200.302C82.7364 200.838 82.5351 200.704 82.2015 199.967C81.6652 198.76 81.3974 197.423 80.7275 196.281C80.3756 195.627 79.8397 195.091 79.1862 194.74C78.7842 194.538 78.5164 194.203 78.1143 194.003C77.98 193.935 77.7122 193.935 77.5108 193.868V193.935C77.5108 194.136 77.4436 194.338 77.4436 194.472C77.3444 194.559 77.2234 194.617 77.0937 194.641C76.9639 194.664 76.8302 194.652 76.7066 194.606C75.0983 192.663 73.2893 193.735 71.6138 194.405C70.3052 195.014 69.0498 195.731 67.8608 196.549C65.5155 198.023 65.3169 198.023 63.3044 196.147C63.1701 196.013 62.9694 195.812 62.768 195.947C62.5002 196.147 62.5673 196.55 62.6338 196.885C63.0358 199.9 62.8352 202.983 62.8352 206.001C62.7119 207.695 62.6894 209.396 62.768 211.094C62.9224 212.635 63.214 214.161 63.6393 215.651C64.1408 217.243 64.4775 218.882 64.6442 220.543C64.7785 221.749 65.5155 222.419 66.7217 222.218C69.4715 221.793 72.2487 221.569 75.0312 221.548C76.1031 221.548 76.3738 220.409 77.0416 219.873C77.1472 219.791 77.2768 219.747 77.4101 219.747C77.5434 219.747 77.673 219.791 77.7786 219.873C77.7578 220.78 77.4788 221.663 76.9744 222.417C76.806 222.684 76.7058 222.989 76.6824 223.305C76.659 223.62 76.7131 223.936 76.8402 224.226C77.6443 226.102 77.7786 228.18 78.2471 230.123C78.3698 230.741 78.3924 231.374 78.3142 231.999C77.9122 236.489 77.6444 240.978 78.5821 245.401C78.8499 246.744 79.1184 248.149 79.3191 249.489C79.6542 251.291 79.5854 253.145 79.1177 254.917C78.7052 256.478 78.9219 258.138 79.7212 259.541C80.2648 260.45 80.7569 261.39 81.1953 262.355C81.5837 263.124 82.2215 263.738 83.0043 264.098C83.0552 264.105 83.1024 264.128 83.1385 264.165C83.8756 264.5 84.814 264.701 85.2832 265.507C85.8794 266.468 86.1388 267.6 86.0202 268.724C85.6181 271.137 85.8195 273.549 85.6853 275.962C85.6314 277.412 85.4066 278.852 85.0154 280.25C84.8683 280.712 84.8921 281.211 85.0825 281.657C85.4498 282.3 85.7637 282.973 86.0209 283.667C86.1972 284.305 86.5477 284.881 87.033 285.33C87.5183 285.779 88.1192 286.085 88.7684 286.211C89.7732 286.479 90.7117 287.083 91.7172 287.418C92.1756 287.556 92.5909 287.81 92.9234 288.155C93.7947 289.026 94.8667 289.696 95.4031 290.902C95.545 291.191 95.7515 291.443 96.0066 291.639C96.3513 291.972 96.605 292.387 96.7436 292.845C97.1457 293.851 97.682 294.789 98.1512 295.727C98.4036 296.174 98.5473 296.673 98.5707 297.185C98.594 297.698 98.4963 298.208 98.2855 298.676C98.1215 299.067 97.9871 299.471 97.8834 299.882C97.5674 300.92 96.9052 301.818 96.0073 302.426C95.4038 302.895 94.7353 303.297 94.1311 303.698C93.9968 303.765 93.8633 303.9 93.729 303.9C92.7906 303.967 92.0536 304.569 91.2494 304.971C90.3837 305.401 89.4571 305.695 88.5019 305.843C87.095 305.977 85.7545 306.312 84.3469 306.312C82.7539 306.281 81.1646 306.146 79.589 305.91C78.3934 305.666 77.1854 305.487 75.9703 305.374C74.4213 305.225 72.9174 304.769 71.5474 304.031C70.609 303.562 69.6713 303.025 68.7329 302.49C68.3059 302.261 67.902 301.992 67.5266 301.686C66.9902 301.149 66.5217 300.546 65.7176 300.479C65.6667 300.472 65.6195 300.449 65.5833 300.412C64.0421 298.871 61.8975 298.536 60.0213 297.665C58.8822 297.128 57.5417 296.928 56.4697 296.124C56.1379 295.862 55.7784 295.637 55.3977 295.454C54.3257 294.917 53.7894 293.912 53.1866 292.974C53.0502 292.753 52.9806 292.497 52.986 292.237C52.9188 292.036 52.9859 291.835 52.9188 291.567C52.651 289.557 52.651 289.49 50.8413 288.485C50.1884 288.123 49.6711 287.558 49.3672 286.876C48.563 285.067 47.6918 283.325 46.8233 281.516C46.7047 281.282 46.6148 281.034 46.5555 280.779C46.4212 280.175 46.2877 279.507 46.1534 278.903C45.7513 277.16 45.952 275.619 47.2925 274.346C47.5554 274.076 47.7479 273.745 47.8531 273.383C47.9583 273.02 47.9731 272.638 47.896 272.269C47.6946 270.727 47.4939 269.186 47.2261 267.645C46.9583 265.902 46.6233 264.161 46.2877 262.416C46.2299 262.039 46.2074 261.658 46.2205 261.277C46.2875 259.398 46.2204 257.517 46.0198 255.648C45.9641 255.226 45.9417 254.801 45.9527 254.376C46.0324 251.976 45.8753 249.574 45.4835 247.205C45.0814 244.591 44.8807 241.976 44.5451 239.361C44.2692 236.972 43.6132 234.642 42.6018 232.459C41.5978 230.253 41.1163 227.845 41.1948 225.423C41.1827 224.409 41.0705 223.399 40.8599 222.408C40.19 219.057 39.4529 215.706 38.7823 212.356C38.5817 211.484 38.5145 210.68 38.3803 209.812C38.0453 208.002 37.6433 206.126 37.2412 204.317C37.1637 204.01 37.1187 203.695 37.1069 203.378C37.1069 202.036 37.2412 200.698 37.2412 199.358C37.3083 196.141 37.509 192.991 36.7048 189.775C35.9678 186.759 35.4328 183.676 34.8958 180.659C34.5608 178.916 34.4266 177.175 34.1588 175.43C33.891 173.821 33.556 172.146 33.2875 170.538C33.1884 169.893 32.9097 169.289 32.4833 168.795C32.4152 168.729 32.3319 168.681 32.2407 168.655C32.1495 168.628 32.0533 168.625 31.9605 168.645C31.8677 168.665 31.7813 168.707 31.7088 168.768C31.6363 168.83 31.58 168.908 31.5449 168.996C30.6736 171.81 29.6016 174.558 29.8694 177.573C30.0037 178.981 30.0708 180.455 30.0708 181.929C30.0708 183.403 29.9365 184.811 29.803 186.285C29.6282 187.659 29.3822 189.024 29.066 190.373C28.5967 192.517 28.3289 194.728 28.0611 196.874C27.994 197.25 27.994 197.636 28.0611 198.013C28.3961 200.291 27.8604 202.503 27.5919 204.714C27.2531 206.772 26.7144 208.792 25.9836 210.745C25.4418 212.491 24.7697 214.193 23.9732 215.838C23.906 216.039 23.7725 216.24 23.7053 216.441C23.3704 218.384 22.3627 220.059 21.6949 221.801C20.6193 224.47 19.7019 227.2 18.9475 229.977C18.7883 230.658 18.6986 231.354 18.6797 232.054C18.5454 233.528 18.5454 235.069 18.4119 236.544C18.3072 237.456 18.1051 238.355 17.8091 239.224C17.4282 240.515 17.1813 241.841 17.0721 243.182C17.0154 243.723 16.926 244.26 16.8042 244.79C16.5335 245.933 16.4625 247.115 16.5944 248.283C16.8306 250.308 16.9648 252.343 16.9965 254.381C16.9965 255.253 17.3985 256.19 17.2643 257.062C17.1544 257.951 17.1095 258.846 17.13 259.742C17.3087 261.235 17.2862 262.745 17.0629 264.232C17.0062 264.773 16.9168 265.31 16.7951 265.84C16.2627 268.447 15.9268 271.09 15.7902 273.748C15.8042 274.973 15.9846 276.19 16.3266 277.366C16.4121 277.85 16.6463 278.294 16.9965 278.638C18.1356 279.777 18.2027 281.182 18.0684 282.659C17.8045 284.299 17.3316 285.898 16.6615 287.417C16.3526 287.973 16.1695 288.591 16.1252 289.226C16.0557 289.879 15.7731 290.492 15.321 290.969C14.1363 292.347 13.2265 293.939 12.6407 295.659C12.0379 297.535 11.2338 299.412 11.0324 301.489C10.8859 303.684 10.3646 305.837 9.49117 307.855C9.25837 308.393 8.94161 308.891 8.55274 309.329C6.98207 311.158 4.97759 312.564 2.72291 313.417C1.38028 313.887 0.0425968 314.087 -1.29791 314.489C-1.44789 314.544 -1.60775 314.567 -1.76713 314.556C-3.64327 314.289 -5.58655 314.824 -7.52982 314.356C-7.84173 314.322 -8.15634 314.322 -8.46825 314.356C-9.36872 314.31 -10.2646 314.198 -11.1486 314.021C-12.5555 313.686 -13.9631 313.351 -15.3036 312.949C-15.9445 312.737 -16.5268 312.379 -17.004 311.902C-17.4811 311.425 -17.8398 310.842 -18.0511 310.201C-18.3529 309.519 -18.5559 308.797 -18.6538 308.057C-18.7881 307.052 -18.8545 306.046 -18.9217 305.041C-19.0029 302.781 -18.6387 300.527 -17.8497 298.407C-17.2469 296.799 -16.5777 295.191 -16.7106 293.449C-16.7216 293.179 -16.699 292.909 -16.6434 292.645C-16.5102 292.218 -16.4772 291.767 -16.5469 291.326C-16.6167 290.884 -16.7873 290.465 -17.0455 290.101C-17.4679 289.179 -17.7828 288.212 -17.984 287.219C-18.386 285.947 -18.6538 284.604 -19.0559 283.333C-19.349 282.478 -19.7547 281.667 -20.2622 280.92C-20.6666 280.232 -20.8535 279.438 -20.7985 278.642C-20.8222 278.236 -20.7496 277.83 -20.5865 277.457C-20.4234 277.084 -20.1745 276.755 -19.8601 276.497C-19.3776 276.122 -18.9834 275.646 -18.7055 275.101C-18.4275 274.557 -18.2726 273.958 -18.2518 273.348C-18.0511 271.751 -17.502 270.218 -16.6434 268.858C-15.9508 267.718 -15.3887 266.504 -14.968 265.239C-14.707 264.302 -14.6163 263.326 -14.7002 262.357C-14.7673 260.28 -14.968 258.202 -15.1694 256.125C-15.2383 255.378 -15.3728 254.638 -15.5715 253.914C-15.7825 253.197 -15.8284 252.441 -15.7057 251.703C-15.1815 249.624 -15.0227 247.47 -15.2365 245.337C-15.2588 244.055 -14.9593 242.787 -14.3652 241.651C-14.0303 240.847 -13.6282 240.11 -13.2932 239.306C-12.924 238.499 -12.7217 237.627 -12.6986 236.74C-12.6755 235.854 -12.8321 234.972 -13.159 234.147C-13.9365 232.143 -14.2571 229.991 -14.0974 227.848C-14.0303 226.374 -13.896 224.833 -13.8296 223.358V221.75C-13.8044 221.299 -13.8684 220.849 -14.0179 220.423C-14.1674 219.998 -14.3995 219.606 -14.7009 219.27C-15.3447 218.525 -15.7011 217.574 -15.7057 216.59C-15.7937 215.572 -15.6799 214.548 -15.3708 213.575C-14.9037 212.103 -14.6996 210.561 -14.768 209.018C-14.768 207.787 -14.701 206.556 -14.5673 205.332C-14.5002 203.255 -14.433 201.177 -14.5673 199.1C-14.7869 196.703 -14.4189 194.288 -13.4953 192.064C-12.9678 190.939 -12.6067 189.742 -12.4233 188.513C-12.4233 188.043 -12.5576 187.776 -12.9597 187.641C-13.5625 187.374 -14.1659 187.239 -14.7687 186.971C-15.2379 186.77 -15.4386 186.368 -15.0365 185.967C-14.495 185.315 -14.0853 184.564 -13.8303 183.756C-13.1543 182.189 -12.3008 180.705 -11.2863 179.333C-10.4949 178.223 -9.36585 177.398 -8.06757 176.982C-6.92846 176.58 -6.39211 176.044 -6.32498 174.838C-6.19072 172.827 -5.85577 170.817 -5.52082 168.806C-5.35321 167.302 -4.74723 165.881 -3.77822 164.718C-3.15462 164.122 -2.7932 163.303 -2.77338 162.44C-2.74916 161.961 -2.65904 161.488 -2.50556 161.033C-2.10157 160.036 -1.96304 158.951 -2.10348 157.884C-2.17379 157.405 -2.10383 156.916 -1.90208 156.477C-1.36574 155.134 -0.762985 153.797 -0.15951 152.52C0.648502 151.054 1.12857 149.431 1.24744 147.762C1.31457 146.69 1.51526 145.617 1.64952 144.612L1.85021 143.004C1.89024 142.521 2.00317 142.046 2.18516 141.597C2.91523 140.166 3.41281 138.627 3.65922 137.04C4.00653 135.749 4.18679 134.419 4.19557 133.083C4.2469 132.382 4.35897 131.687 4.53052 131.005C4.62954 130.7 4.69703 130.386 4.73191 130.067C4.57782 128.194 4.2866 126.335 3.86062 124.505C3.72635 123.902 3.45854 123.768 2.78864 123.768C1.64952 123.835 0.510406 123.835 -0.562281 123.969C-3.0419 124.17 -5.18588 123.701 -7.06343 121.959C-8.28315 120.93 -9.32463 119.708 -10.1458 118.34C-10.7983 117.227 -11.5143 116.153 -12.2905 115.123C-13.2902 113.592 -14.058 111.921 -14.5687 110.165C-15.417 107.733 -16.0012 105.216 -16.3113 102.659C-16.3 102.348 -16.3837 102.04 -16.5513 101.776C-16.7189 101.513 -16.9624 101.307 -17.2497 101.185C-17.5533 101.06 -17.8119 100.846 -17.9912 100.571C-18.1706 100.295 -18.2624 99.9725 -18.2546 99.6441C-18.3889 98.505 -18.5895 97.433 -18.7909 96.2932V95.9583C-18.3889 92.943 -18.9916 89.9942 -19.528 87.0453C-19.6622 86.1069 -19.7287 85.0349 -20.7342 84.365C-20.8353 84.2467 -20.9064 84.1057 -20.9413 83.954C-20.9763 83.8023 -20.9741 83.6444 -20.9349 83.4937C-20.5998 82.0158 -20.5998 80.4816 -20.9349 79.0037C-21.0281 78.6455 -21.0211 78.2687 -20.9148 77.9142C-20.8085 77.5597 -20.607 77.2411 -20.3321 76.9933C-20.1314 76.7919 -19.7958 76.5912 -19.6622 76.3234C-19.3273 75.787 -18.3196 76.122 -18.456 75.1171C-18.4258 74.5308 -18.2655 73.9584 -17.9868 73.4417C-17.719 72.5704 -17.5176 71.6991 -17.2497 70.8271C-16.9819 69.8887 -16.647 69.0181 -16.4456 68.0797C-16.3113 67.4769 -16.0435 66.8734 -15.8428 66.2707C-15.7838 66.0632 -15.6728 65.8743 -15.5204 65.7218C-15.3679 65.5693 -15.1789 65.4583 -14.9715 65.3994C-14.326 65.1358 -13.7684 64.6947 -13.3632 64.1274C-13.0163 63.7217 -12.5812 63.4007 -12.0912 63.189C-10.051 62.2374 -8.11897 61.0692 -6.32852 59.7045C-5.26862 58.9041 -4.14829 58.1871 -2.9776 57.5598C-1.63497 56.8228 -0.363007 56.0858 0.976088 55.4151C3.0374 54.2669 5.21719 53.3457 7.47722 52.6677C7.74326 52.6198 7.98365 52.479 8.15553 52.2704C8.3274 52.0618 8.41958 51.7989 8.41565 51.5286C8.42311 51.3479 8.4688 51.1708 8.54967 51.0091C8.63055 50.8473 8.74478 50.7046 8.88486 50.5902C9.08379 50.3598 9.22201 50.0834 9.28694 49.786C9.47334 49.3276 9.63006 48.8576 9.75616 48.3791C10.0169 47.4404 10.5828 46.6152 11.3645 46.0337C11.7625 45.761 12.0852 45.3923 12.3029 44.9617C13.7111 42.5484 15.7194 40.5401 18.1327 39.1319C20.6572 37.5988 23.4572 36.5744 26.3751 36.1166C30.98 35.2633 35.7247 35.5653 40.1843 36.9957C42.0731 37.6099 43.8748 38.4649 45.545 39.5396C47.2203 40.591 48.6765 41.9563 49.8336 43.5605C50.0796 43.9739 50.425 44.3194 50.8385 44.5653C51.9655 45.1898 52.8942 46.1186 53.5187 47.2456C54.0736 48.0327 54.5664 48.8618 54.9928 49.7252C55.5292 50.9315 56.534 51.4007 57.6731 51.8028C59.0158 52.272 60.3534 52.6741 61.6303 53.2097C63.4394 53.9467 65.3826 54.4817 67.2595 55.153C68.6671 55.6222 70.0069 56.2921 71.4146 56.7613C72.8886 57.2977 74.4298 57.9004 75.971 58.3696C77.255 58.7394 78.4452 59.379 79.4622 60.2457C80.4791 61.1124 81.2993 62.1862 81.868 63.3953C83.1399 66.0756 84.4119 68.6895 85.6203 71.3698C86.2264 72.4946 86.6986 73.6866 87.0272 74.9214C87.0783 75.2118 87.2135 75.4809 87.416 75.6953C87.6184 75.9097 87.8793 76.06 88.1663 76.1277C88.3682 76.1972 88.5516 76.3118 88.7025 76.4627C88.8535 76.6137 88.9681 76.7971 89.0376 76.9989C89.7776 78.542 89.9668 80.2919 89.574 81.9575C89.4397 82.4938 89.3733 83.0295 89.239 83.4987C89.1952 84.0402 89.0351 84.5658 88.7698 85.0399C88.0999 85.7769 88.0999 86.7153 87.9656 87.5838C87.6978 89.125 87.43 90.6662 87.2957 92.2074C87.1615 93.7486 87.095 95.2898 87.0279 96.831C87.0361 97.8549 86.8776 98.8732 86.5587 99.8462C86.4834 99.9922 86.4377 100.152 86.4244 100.315C86.6251 101.587 86.1566 102.728 85.9552 103.934C85.8008 104.503 85.7109 105.088 85.6874 105.677C85.5246 107.488 85.1189 109.268 84.4811 110.971C84.0119 112.378 83.5427 113.786 83.0071 115.192C82.5077 116.596 81.7834 117.908 80.8624 119.079C80.4603 119.548 80.1254 120.151 79.7233 120.62C79.4088 121.05 79.0079 121.409 78.5462 121.674C78.0846 121.94 77.5726 122.106 77.043 122.161C75.4347 122.363 73.8935 122.698 72.2851 122.831C69.5659 123.11 66.8242 123.088 64.11 122.764C62.0996 122.496 62.0996 122.563 61.8318 124.573C61.6975 125.779 61.3625 126.986 61.2954 128.192C61.2166 129.309 61.239 130.43 61.3625 131.543C61.6304 133.688 62.0995 135.764 62.4345 137.842C62.6302 139.43 63.0359 140.984 63.6408 142.465C63.7909 143.038 63.9028 143.62 63.9757 144.208C64.6456 146.752 65.3183 149.301 65.919 151.848C66.4557 154.409 66.7918 157.007 66.9245 159.621C67.0415 161.172 67.4269 162.691 68.0636 164.111C69.0172 166.255 69.7146 168.504 70.1412 170.812C70.6101 172.733 71.2841 174.597 72.1516 176.374C72.1989 176.523 72.3021 176.648 72.4394 176.723C72.5767 176.798 72.7376 176.817 72.8886 176.776C74.6312 176.642 74.7648 176.709 75.3011 178.317C75.9046 180.06 76.9766 181.534 77.845 183.142C78.2784 183.88 78.9713 184.429 79.7883 184.683C79.9859 184.756 80.1643 184.872 80.3102 185.024C80.456 185.176 80.5654 185.358 80.6299 185.559C80.6945 185.759 80.7126 185.971 80.6828 186.18C80.6531 186.388 80.5762 186.587 80.4582 186.761C80.1904 187.297 79.989 187.833 79.7212 188.369C79.6052 188.659 79.4471 188.93 79.252 189.173C78.7156 189.843 78.7156 189.776 79.3191 190.178C80.2575 190.715 81.1952 191.25 82.0665 191.787C82.9895 192.329 83.7168 193.15 84.1441 194.132C84.6473 195.486 85.0505 196.874 85.3503 198.287C85.4846 198.89 85.3503 199.024 84.4119 199.225C84.3608 199.257 84.3025 199.275 84.2426 199.277C84.1827 199.28 84.1231 199.267 84.0695 199.24C84.0158 199.213 83.9698 199.173 83.9359 199.124C83.902 199.075 83.8812 199.017 83.8755 198.958C84.1434 196.009 83.0714 193.728 80.4582 192.324C78.7827 191.452 77.1744 190.515 76.1696 188.839C75.5757 187.946 75.1656 186.944 74.9633 185.89C74.8291 185.288 74.4941 184.885 73.8242 185.019C73.0872 185.153 72.8858 185.689 72.9529 186.362C73.0331 186.969 73.2419 187.552 73.5654 188.072C73.889 188.592 74.3198 189.037 74.8291 189.377C76.6381 190.851 78.7156 191.991 80.6589 193.334C81.3868 193.794 81.9136 194.512 82.1329 195.344C82.5282 196.97 83.1131 198.544 83.8755 200.034Z" fill="#090908"/>
<path d="M28.9253 84.8419C28.8582 84.909 28.7911 85.0433 28.7247 85.1097C28.3226 86.1817 28.524 86.5838 29.4617 86.9858C29.596 87.053 29.7966 86.9858 29.9309 87.053C30.1381 87.2087 30.3 87.4167 30.4001 87.6557C30.4673 87.79 30.4001 87.9907 30.4001 88.1249C30.4001 89.3312 30.2659 89.3969 29.1282 89.1969C28.324 89.0627 27.5198 88.9291 27.1178 88.0578C26.9815 87.8325 26.7668 87.6654 26.515 87.5886C24.8395 86.9858 23.1641 86.5166 21.3565 87.1194C20.418 87.3872 19.4803 87.9235 18.4076 87.5886C18.2734 87.5215 18.1398 87.7229 18.0055 87.7893C17.8937 87.9068 17.8031 88.0429 17.7377 88.1914C17.5917 88.5618 17.3449 88.8839 17.0251 89.1212C16.7054 89.3585 16.3256 89.5015 15.9287 89.534C15.3632 89.6453 14.8198 89.849 14.3204 90.1368C14.2461 90.1711 14.1654 90.1897 14.0835 90.1913C14.0016 90.1928 13.9203 90.1774 13.8447 90.1459C13.7691 90.1144 13.7009 90.0676 13.6444 90.0083C13.5878 89.9491 13.5442 89.8788 13.5162 89.8018C13.3181 89.1461 13.1834 88.4729 13.1141 87.7914C12.9799 85.6467 12.9127 83.5028 12.7792 81.3609C12.796 81.1794 12.775 80.9963 12.7173 80.8233C12.6596 80.6503 12.5666 80.4912 12.4442 80.3561C12.3923 80.2973 12.3274 80.2515 12.2547 80.2223C12.182 80.1931 12.1034 80.1813 12.0253 80.1878C11.9472 80.1943 11.8717 80.219 11.8048 80.2599C11.7379 80.3007 11.6815 80.3567 11.6401 80.4232C11.268 81.1932 11.1507 82.0617 11.3051 82.9028C11.7743 84.6454 11.5729 86.3873 11.6401 88.197C11.6084 89.316 11.4051 90.4235 11.0373 91.4808C10.903 91.8829 10.903 92.3521 10.4345 92.5528C9.81924 92.8836 9.11933 93.0236 8.42413 92.9549C8.34118 92.9437 8.26185 92.9138 8.19218 92.8674C8.12251 92.8209 8.06433 92.7593 8.02205 92.687C7.55284 91.7486 6.54799 91.4808 5.67669 91.1459C5.34174 91.0116 4.93966 90.878 4.60471 90.7438L2.99639 89.7389C2.7957 89.6047 2.59431 89.3368 2.39362 89.2026C2.25936 89.1354 1.92441 89.0683 1.79085 89.2026C1.71171 89.2652 1.65114 89.3483 1.61566 89.4428C1.58017 89.5373 1.57112 89.6397 1.58945 89.7389C1.68967 90.0973 1.8482 90.4368 2.05867 90.7438C2.11092 90.8195 2.14392 90.9067 2.15481 90.9981C2.16569 91.0894 2.15412 91.182 2.12112 91.2678C2.08812 91.3536 2.03467 91.4301 1.96542 91.4907C1.89617 91.5512 1.81321 91.5939 1.72372 91.6151C1.26282 91.7583 0.792776 91.8702 0.316788 91.95C-1.29154 92.1514 -2.967 92.4192 -4.57533 92.6199H-4.70959C-4.91028 92.8206 -5.24593 92.9549 -5.37949 93.2227C-5.51304 93.4905 -4.91027 94.0268 -4.50819 94.0268C-4.39241 94.0372 -4.27611 94.0138 -4.17324 93.9597C-2.49779 93.2898 -0.688776 93.4905 1.05593 93.2898C1.42491 93.2586 1.79543 93.3282 2.12791 93.4912C2.24445 93.5347 2.34833 93.6065 2.43023 93.7001C2.51214 93.7938 2.5695 93.9063 2.59713 94.0276C2.66426 94.2954 2.32931 94.4296 2.06078 94.4968C1.22614 94.6917 0.432264 95.0318 -0.284576 95.5016C-0.619527 95.9037 -1.15587 95.9708 -1.69151 96.3058C-1.15516 96.44 -0.753083 95.9708 -0.284576 96.1051C0.331858 95.9323 0.95845 95.798 1.59157 95.703C2.05755 95.6408 2.51071 95.5051 2.93419 95.3009C3.53696 95.1003 4.14043 94.8317 4.7432 94.631L11.5786 93.0227C11.9135 92.9556 12.3156 92.8884 12.7177 92.8213C13.589 92.687 14.5267 92.8213 15.398 92.4864C15.4757 92.4609 15.5586 92.4562 15.6386 92.4728C15.7186 92.4895 15.7929 92.5268 15.854 92.581C15.915 92.6353 15.9608 92.7047 15.9867 92.7822C16.0126 92.8597 16.0177 92.9426 16.0015 93.0227C15.9788 94.0994 15.8894 95.1737 15.7337 96.2394C15.6102 97.4641 15.5878 98.6968 15.6665 99.9252C15.6665 100.729 15.5994 101.534 15.6665 102.338C16.0428 105.094 16.8811 107.767 18.1462 110.245C18.7704 111.561 19.199 112.961 19.4181 114.4C19.4937 114.791 19.4436 115.197 19.275 115.558C19.1065 115.919 18.8281 116.217 18.4797 116.411C16.1085 117.983 13.6473 119.415 11.1087 120.699C9.49012 121.521 7.78089 122.151 6.01589 122.575C5.47955 122.642 5.01104 122.91 4.4747 122.71C4.27185 122.665 4.06002 122.689 3.87191 122.777C2.20411 123.19 0.466389 123.236 -1.22087 122.911C-2.09216 122.71 -3.02991 122.643 -3.9012 122.509C-4.11962 122.515 -4.3331 122.444 -4.50466 122.308C-5.10743 121.437 -6.18011 121.169 -6.85001 120.365C-7.58705 119.427 -8.39121 118.622 -9.12824 117.685C-9.75459 116.834 -10.2305 115.882 -10.5352 114.87C-11.0715 113.127 -11.8072 111.453 -12.4785 109.777C-12.9196 108.807 -13.1698 107.76 -13.2155 106.695C-13.2336 106.171 -13.3237 105.653 -13.4833 105.154C-13.7511 104.149 -14.0861 103.076 -14.4217 102.071C-14.6231 101.334 -14.4889 101.066 -13.7518 100.999C-12.912 100.858 -12.1123 100.538 -11.4065 100.061C-11.091 99.9072 -10.824 99.6695 -10.6349 99.3739C-10.4458 99.0783 -10.3418 98.7363 -10.3345 98.3854C-10.3123 97.3115 -10.3571 96.2372 -10.4688 95.1688C-10.7366 93.5605 -11.0715 92.0193 -11.4072 90.4781C-11.7428 88.9369 -12.0771 87.4628 -12.3456 85.9216C-12.3456 85.7874 -12.4127 85.5867 -12.4127 85.4524C-12.3776 83.9555 -12.5811 82.4625 -13.0155 81.0295C-13.1498 80.2925 -13.1498 79.5554 -13.2162 78.8184C-13.2942 78.2406 -13.3391 77.6588 -13.3505 77.0758C-13.1498 75.4675 -11.9435 74.3955 -11.2729 72.9214C-12.6155 73.9263 -12.4792 75.8032 -13.8875 76.5402C-14.1994 76.5065 -14.514 76.5065 -14.8259 76.5402C-16.0322 76.6744 -16.0322 76.4059 -16.1686 75.4682C-16.2575 75.0504 -16.2802 74.6211 -16.2357 74.1962C-16.1839 72.318 -15.8217 70.4613 -15.1637 68.7014C-14.6274 67.4294 -14.0917 66.0868 -12.6841 65.4847C-11.8128 64.2785 -10.4059 63.8764 -9.19962 63.2736C-8.10555 62.7237 -7.05438 62.0923 -6.05504 61.3848C-5.60956 61.0775 -5.13891 60.8085 -4.64811 60.5806C-3.50899 59.9107 -2.36988 59.238 -1.16364 58.5702C-0.627292 58.2352 -0.0245209 57.9667 0.511824 57.6989C1.98589 57.029 3.52708 56.3563 5.00186 55.6213C5.84747 55.1724 6.79193 54.9421 7.74927 54.9514C8.6877 54.9514 8.82127 55.0186 9.09192 55.9563C9.22618 56.4926 9.35974 56.9611 9.494 57.4975C9.56113 57.8324 9.76182 58.3017 9.62827 58.5695C9.49471 58.8373 9.0255 58.9716 8.75697 59.1722C8.68984 59.2394 8.55557 59.3729 8.62271 59.4401C8.68984 59.5743 8.82339 59.775 8.89052 59.775C9.9625 59.5743 10.2332 60.1771 10.4988 61.047C11.2789 62.9278 11.9501 64.8518 12.5093 66.8097C12.7099 67.4796 12.8442 68.1523 13.112 68.8201C13.2391 69.233 13.396 69.6361 13.5812 70.0263C13.6124 70.1005 13.6604 70.1664 13.7215 70.2188C13.7825 70.2712 13.8549 70.3086 13.9329 70.3282C14.011 70.3477 14.0925 70.3488 14.171 70.3314C14.2496 70.3139 14.323 70.2785 14.3854 70.2277C14.6443 70.0432 14.8905 69.8416 15.1224 69.6242C16.0108 68.8603 16.8192 68.0079 17.5349 67.0803C17.9457 66.5146 18.3943 65.9772 18.8775 65.472C19.1562 65.1076 19.5258 64.8229 19.9492 64.6465C20.3727 64.4701 20.8351 64.4083 21.29 64.4671C23.3004 64.5343 25.1766 65.0035 26.5192 66.7454C27.7255 68.2866 28.9317 69.7606 30.138 71.2354C30.624 71.7989 31.1626 72.315 31.7463 72.7766C32.0141 73.0444 32.2155 73.2458 31.9477 73.5808C31.2778 74.4521 31.2778 75.4569 30.9421 76.4625C30.8357 76.7629 30.8044 77.0849 30.8511 77.4003C30.8978 77.7156 31.021 78.0147 31.2099 78.2715C31.5449 78.6736 31.3442 79.0756 31.3442 79.4777C30.9911 81.4374 30.1603 83.2799 28.9253 84.8419Z" fill="#707E8B"/>
<path d="M60.4879 95.7633L61.6941 95.964C63.5703 95.964 64.7765 97.4381 66.452 97.9073C64.8436 97.1703 63.3025 96.1647 61.6941 95.4277C60.6717 95.0665 59.7359 94.4959 58.9467 93.7522C58.6464 93.5228 58.422 93.2085 58.3025 92.85C58.1831 92.4915 58.1741 92.1054 58.2768 91.7418C58.5136 90.6396 58.6482 89.5178 58.6789 88.3909C58.7569 85.5438 59.1388 82.7132 59.818 79.9472C59.9614 79.1152 60.209 78.3047 60.555 77.5347C60.61 77.3847 60.6328 77.2249 60.6221 77.0655C60.5465 76.9228 60.4298 76.8062 60.2872 76.7305C60.22 76.6634 60.0865 76.7305 60.0194 76.7976C59.9522 76.7976 59.9522 76.8648 59.8851 76.9319C59.388 77.9908 58.7575 78.9818 58.009 79.8807C57.2886 80.7497 56.7013 81.7209 56.2664 82.7624C55.7971 83.8344 55.0601 84.7729 54.8587 85.9791C54.7916 86.314 54.5909 86.3812 54.256 86.4483C53.989 86.4818 53.7188 86.4818 53.4518 86.4483C50.8719 86.359 48.2939 86.6757 45.8122 87.3867C44.5078 88.0398 43.0333 88.2738 41.5907 88.0566C40.0088 88.1659 38.4393 88.4125 36.9 88.7937C36.75 88.8487 36.5902 88.8716 36.4308 88.8608C34.4875 89.1958 34.1526 88.8608 34.2197 86.9175C34.2197 85.7784 34.354 84.5722 34.354 83.4331C34.354 82.0904 34.354 80.8185 34.4211 79.4758C34.4272 79.2247 34.4725 78.976 34.5554 78.7388C34.6129 78.3174 34.6354 77.892 34.6225 77.4668C34.6119 77.3294 34.6349 77.1913 34.6896 77.0648C35.0033 76.3593 35.3848 75.686 35.8287 75.0544C36.298 74.3845 36.5658 73.7117 36.0966 72.9768C35.9991 72.8196 35.9592 72.6334 35.9837 72.45C36.0082 72.2666 36.0955 72.0974 36.2308 71.9713C36.9679 71.1671 37.7049 70.4301 38.4419 69.6259C38.6546 69.4579 38.8362 69.2539 38.9783 69.0231C40.4556 67.1776 42.1677 65.533 44.0711 64.131C45.6123 62.859 47.2877 62.859 49.0967 63.394C49.3255 63.4683 49.5316 63.5995 49.6957 63.7752C49.8599 63.951 49.9767 64.1656 50.0352 64.3988C50.1023 64.5995 50.0352 64.8009 50.1023 65.0016C50.2366 65.4037 50.7722 65.5379 50.9736 65.2023C51.4428 64.5324 51.8449 63.8597 52.3162 63.1919C52.584 62.7227 52.8526 62.3206 53.1204 61.8492C53.2547 61.5814 53.4553 61.3129 53.5896 61.0451C54.1924 59.8388 54.7287 58.6326 55.265 57.4264C55.3371 57.2207 55.4741 57.0442 55.6554 56.9233C55.8367 56.8025 56.0524 56.7439 56.2699 56.7564C56.9398 56.8236 57.6768 56.8907 58.3474 56.9571C58.5488 56.9571 58.8167 56.89 58.7495 56.6222C58.6824 56.4215 58.6153 56.153 58.4146 56.153C58.1508 56.0945 57.8803 56.0719 57.6104 56.0858C57.1402 56.0969 56.6698 56.0745 56.2028 56.0187C56.1079 55.9898 56.0216 55.9381 55.9515 55.8679C55.8813 55.7978 55.8296 55.7115 55.8007 55.6166C55.9349 54.6782 56.0685 53.7405 56.2028 52.7349C56.2229 52.659 56.2582 52.5879 56.3067 52.5261C56.3552 52.4642 56.4158 52.4129 56.4848 52.3753C56.5537 52.3377 56.6297 52.3145 56.7079 52.3072C56.7862 52.2999 56.865 52.3086 56.9398 52.3328C58.0005 52.4892 59.0366 52.7821 60.0222 53.2041C62.1469 54.118 64.3168 54.9232 66.5233 55.6166C68.2659 56.2194 70.0078 56.9593 71.7525 57.627C73.0245 58.0963 74.4328 58.4312 75.7062 58.9697C77.6933 59.6699 79.4221 60.9547 80.6654 62.6555C80.9952 63.146 81.2865 63.6613 81.5367 64.1967C82.2066 65.5394 82.8793 66.877 83.48 68.2175C84.2842 70.0266 85.0212 71.8363 85.8254 73.7124C86.0815 74.2551 86.1746 74.8605 86.0932 75.455C86.026 75.9914 85.8254 76.2592 85.289 76.3263C84.6191 76.3934 83.8814 76.3934 83.2115 76.4606C82.94 76.4809 82.67 76.4046 82.4493 76.2451C82.2286 76.0857 82.0713 75.8534 82.0052 75.5893C81.8046 75.0529 81.6703 74.4502 81.4689 73.9138C81.3761 73.6521 81.2139 73.4206 80.9997 73.2439C80.9326 73.1768 80.7319 73.2439 80.5305 73.2439C80.4634 73.2439 80.4634 73.4446 80.3962 73.5117V73.646C81.1333 74.6509 81.1333 75.8571 81.2004 76.9969C81.2114 77.3779 81.1889 77.759 81.1332 78.136C80.999 79.0073 80.9326 79.945 80.7312 80.8163C80.6582 81.2363 80.5227 81.6429 80.3291 82.0226C80.1837 82.248 80.1179 82.5156 80.1422 82.7828C80.1666 83.0499 80.2796 83.3012 80.4633 83.4966C80.7339 83.7898 80.9299 84.1437 81.0348 84.5286C81.1397 84.9134 81.1505 85.3179 81.0661 85.7077C81.0123 87.1587 80.7874 88.5982 80.3962 89.9964C79.8371 92.225 79.4123 94.4851 79.1242 96.7646C79.0518 97.2861 78.9398 97.8013 78.7893 98.3058C78.675 98.6879 78.7165 99.0996 78.9048 99.4512C79.0931 99.8027 79.4128 100.065 79.7941 100.182C80.3305 100.316 80.9332 100.316 81.5367 100.45C82.3409 100.584 83.1451 100.718 83.8821 100.919C84.1167 100.982 84.3235 101.122 84.4692 101.316C84.615 101.511 84.6914 101.748 84.6863 101.991C84.7305 103.159 84.6406 104.328 84.4184 105.475C83.8821 107.419 83.5471 109.429 82.9444 111.372C82.3073 113.695 81.2388 115.876 79.7949 117.803C79.3707 118.416 78.8243 118.935 78.19 119.327C77.5557 119.719 76.8472 119.976 76.109 120.081C74.3 120.282 72.5574 120.751 70.7484 121.02C70.0785 121.154 69.3414 121.22 68.6708 121.287C67.1296 121.422 65.5884 121.555 64.0472 121.555C62.2764 121.612 60.5283 121.145 59.0216 120.213C58.4481 119.814 57.9949 119.266 57.7113 118.628C57.4277 117.99 57.3246 117.286 57.4132 116.594C57.6811 113.511 58.1503 110.429 58.4181 107.346C58.4402 106.539 58.3953 105.733 58.2839 104.933C58.2935 103.535 58.136 102.14 57.8146 100.778C57.6928 100.248 57.6034 99.7111 57.5468 99.1701C57.5169 98.984 57.534 98.7934 57.5965 98.6156C57.6591 98.4378 57.7651 98.2784 57.9049 98.1521C58.0447 98.0257 58.2139 97.9362 58.3971 97.8919C58.5803 97.8475 58.7716 97.8497 58.9538 97.8981C59.459 98.0362 59.952 98.2156 60.4278 98.4344C61.8348 99.0379 63.2424 99.7064 64.6493 100.378C64.7002 100.385 64.7474 100.408 64.7836 100.445C64.9843 100.378 65.1857 100.378 65.3199 100.244C65.387 100.244 65.3199 99.9092 65.1857 99.8421C64.651 99.1942 64.0441 98.6095 63.3766 98.0995C62.2725 97.4524 61.1315 96.8705 59.9593 96.3569C60.1533 96.1757 60.3302 95.977 60.4879 95.7633Z" fill="#707E8B"/>
<path d="M12.4406 47.8516C12.5749 48.053 12.7084 48.1194 12.7755 48.2536C13.0434 48.9907 13.2448 49.6606 13.4454 50.3983C13.9818 51.9395 14.4503 53.4136 15.0538 54.9555C15.3755 55.8121 15.8783 56.5892 16.5278 57.2337C16.9299 57.5686 17.2649 57.9707 17.6669 58.3728C18.1344 58.7379 18.522 59.1948 18.8061 59.7154C19.0739 60.3182 18.3369 60.7203 18.2026 61.2566C17.8677 62.1951 17.5998 63.1999 17.3313 64.1383C17.203 64.6059 16.9744 65.04 16.6614 65.4103C16.3936 65.7453 16.1922 66.0802 15.9244 66.4152C15.7372 66.6914 15.5116 66.9396 15.2545 67.1522C14.5846 67.6885 14.0482 67.5543 13.8475 66.683C13.2742 64.1798 12.5356 61.7174 11.6364 59.312C11.1189 57.5835 10.7601 55.8114 10.5645 54.0178V53.6828C10.8676 51.8345 11.3388 50.0177 11.9721 48.2551C12.1057 48.1194 12.307 47.9858 12.4406 47.8516Z" fill="#4F5963"/>
<path d="M41.323 61.3868C42.1943 60.9176 43.1327 60.4484 44.0033 59.9799C44.3382 59.9127 44.4054 60.047 44.4054 60.382C43.6012 61.3204 42.797 62.191 41.9929 63.1294C41.409 63.7767 40.6348 64.222 39.7818 64.4013L35.1582 65.6076C33.1831 66.0731 31.1551 66.2757 29.127 66.2104C28.7352 66.2315 28.3453 66.1422 28.0018 65.9527C27.6582 65.7632 27.3748 65.481 27.1837 65.1384C26.983 64.8706 26.8487 64.602 26.6473 64.3342C26.5131 64.1335 26.6473 63.9321 26.9152 63.9321H28.1871C28.7899 63.9321 29.1927 63.7314 29.0584 63.53C28.9242 63.128 28.5892 63.1951 28.3214 63.128C27.9193 63.0608 27.5844 63.0608 27.1823 62.9937C26.615 62.8991 26.0552 62.7648 25.5068 62.5916C25.3961 62.539 25.2974 62.4643 25.2167 62.3721C25.136 62.2798 25.075 62.172 25.0376 62.0553C25.0376 61.6532 25.4397 61.7875 25.6404 61.8546L27.8515 62.0553C29.5269 62.1895 31.1352 61.7875 32.8107 61.5861C33.4142 61.5189 33.9498 61.3182 34.5533 61.2511C36.8987 61.1168 39.0433 60.2463 41.1873 59.4421C42.6428 58.7924 44.034 58.0071 45.3424 57.0968C45.7781 56.706 46.1815 56.2806 46.5486 55.8248C46.7493 55.6234 46.8165 55.1549 47.2185 55.3556C47.3528 55.4227 47.2856 55.9583 47.1514 56.2269C47.0624 56.545 46.8746 56.8266 46.6151 57.031C45.9299 57.722 45.1651 58.3292 44.3368 58.84C43.1306 59.5099 41.9915 60.3141 40.8523 61.0511C38.5741 62.9944 35.8267 63.4636 32.945 63.6657C31.9401 63.7329 30.9346 63.5315 30.1975 63.7329C30.5325 63.5322 31.136 63.6657 31.7387 63.6657C34.4716 63.7588 37.1859 63.1837 39.6461 61.9903C40.1509 61.6622 40.7249 61.4557 41.323 61.3868Z" fill="#CA7F2D"/>
<path d="M51.7767 49.3929C51.7809 48.2704 51.5045 47.1647 50.9725 46.1762C50.9054 46.042 50.9725 45.9084 50.9725 45.707C51.1732 45.707 51.4417 45.707 51.5088 45.8413C52.0594 46.4823 52.574 47.1535 53.0501 47.8517C53.7871 48.9908 54.5241 50.1971 55.1947 51.4033C55.3949 51.7019 55.5106 52.0491 55.5297 52.4081C55.5543 52.9923 55.5092 53.5773 55.3954 54.1507C54.6619 57.2659 53.3168 60.2043 51.4382 62.7952C51.1704 63.1301 50.969 63.063 50.8354 62.7952C50.3662 62.0581 49.897 61.3882 49.4928 60.6505C49.2921 60.3155 49.1578 59.9806 48.9564 59.6456C48.6886 59.2435 48.0852 59.0429 48.2194 58.5065C48.3537 58.1154 48.5582 57.7522 48.8229 57.4345C50.106 55.3938 51.0349 53.1509 51.5703 50.8005C51.6767 50.3376 51.7457 49.8669 51.7767 49.3929Z" fill="#4F5963"/>
<path d="M41.323 61.3865C39.33 62.7459 37.024 63.5761 34.6219 63.7989C33.0852 63.9441 31.5407 63.9889 29.9983 63.9332C29.7915 63.9206 29.588 63.8753 29.3955 63.7989C29.3284 63.7989 29.2612 63.6647 29.2612 63.5983C29.2612 63.5318 29.3284 63.3969 29.3955 63.3969C29.8607 63.319 30.3309 63.2741 30.8024 63.2626C31.8744 63.1955 32.9471 63.2626 34.0191 63.1955C35.9926 62.9949 37.9063 62.4027 39.6482 61.4536C40.0385 61.2683 40.4416 61.1115 40.8544 60.9844C40.9959 61.1346 41.153 61.2694 41.323 61.3865Z" fill="#0E0D0D"/>
<path d="M44.3381 60.3818L43.936 59.9797L44.9409 59.377L45.0751 59.5112C45.0751 59.9797 44.7402 60.1811 44.3381 60.3818Z" fill="#926B32"/>
<path d="M44.9414 59.3788C45.0087 59.3115 45.076 59.3115 45.1426 59.2441C45.1426 59.3115 45.0753 59.4454 45.0753 59.5127C45.076 59.4461 45.0087 59.4461 44.9414 59.3788Z" fill="#926B32"/>
<path d="M6.94577 60.449C6.94577 60.6497 6.94577 60.8511 6.87864 60.8511C6.13875 61.2485 5.37827 61.6064 4.60041 61.9231C4.49968 61.9063 4.40632 61.8595 4.33258 61.7888C4.26544 61.7217 4.26544 61.521 4.33258 61.521C5.06961 61.0518 5.73951 60.6497 6.47725 60.249C6.6101 60.1784 6.80798 60.3826 6.94577 60.449Z" fill="#0E0D0D"/>
<path d="M-0.961426 64.8048C-0.894294 64.6034 -0.827165 64.4027 -0.693608 64.3356C0.0434234 63.8663 0.713326 63.3971 1.45107 62.9929C1.5182 62.9258 1.85315 63.06 1.85315 63.1272C1.85315 63.3279 1.92028 63.5964 1.78601 63.6635C1.04898 64.1327 0.244819 64.5348 -0.559344 65.0061C-0.693607 65.0054 -0.827163 64.8719 -0.961426 64.8048Z" fill="#0E0D0D"/>
<path d="M63.3695 58.6403C63.2352 58.7075 63.0346 58.9753 62.9675 58.9082C62.2101 58.6997 61.4707 58.4308 60.7563 58.104C60.6892 58.104 60.6221 57.9026 60.6221 57.8362C60.6965 57.7083 60.8159 57.6128 60.957 57.5684C61.6941 57.7698 62.4311 57.9704 63.1681 58.2383C63.2353 58.2383 63.2352 58.3054 63.2352 58.3725C63.3024 58.4397 63.3024 58.5068 63.3695 58.6403Z" fill="#0E0D0D"/>
<path d="M49.7791 17.5399C49.6449 19.1504 49.7791 20.7608 49.3763 22.3705C49.2526 23.2823 49.2301 24.2049 49.3092 25.1215C49.2898 25.3425 49.3552 25.5626 49.4923 25.737C49.6293 25.9115 49.8276 26.0272 50.0469 26.0606C50.459 26.1645 50.8627 26.2992 51.2546 26.4634C51.6742 26.6917 52.022 27.0323 52.2592 27.447C52.4963 27.8617 52.6133 28.3342 52.5972 28.8116C52.7091 30.4239 52.2845 32.0279 51.3896 33.3737C51.0405 33.8454 50.6349 34.2726 50.1819 34.6457C49.9015 34.8482 49.6836 35.1254 49.5531 35.4458C49.4227 35.7661 49.3849 36.1167 49.4442 36.4575C49.5784 37.6166 49.5784 38.7872 49.4442 39.9462C49.4198 41.2733 49.5322 42.5994 49.7798 43.9035C49.9251 45.7132 49.9027 47.5326 49.7127 49.3383C49.6204 50.4203 49.2507 51.4603 48.6393 52.3578C47.7352 53.8842 46.5517 55.2267 45.1506 56.315C44.1585 57.0575 43.0467 57.6249 41.8633 57.9926C40.1503 58.6083 38.4028 59.1236 36.6298 59.5359C35.3579 59.8044 34.0803 59.8715 32.8055 60.0729C31.0005 60.3191 29.169 60.2964 27.3707 60.0058C25.5588 59.8044 23.8819 58.9995 22.2044 58.3282L21.8016 58.1268C19.1163 56.7842 18.7821 56.5164 17.0381 54.1696C16.307 53.1151 15.7833 51.9312 15.4948 50.6809C14.9776 48.8706 14.7291 46.9943 14.757 45.1118C14.757 42.3609 14.6228 39.677 14.6228 36.926C14.6453 36.6194 14.5819 36.3126 14.4397 36.0399C14.2975 35.7673 14.0822 35.5398 13.8179 35.3827C11.8054 34.1108 11.5369 32.1625 11.8054 30.0122C11.8941 29.5824 12.0061 29.1578 12.141 28.7402C12.2239 28.0731 12.4773 27.4385 12.8768 26.8978C13.2764 26.3572 13.8086 25.9286 14.4221 25.6536C14.575 25.6061 14.7062 25.5059 14.7922 25.3708C14.8782 25.2357 14.9136 25.0746 14.892 24.9159C14.8796 22.9805 14.6999 21.0498 14.3549 19.1454C14.0196 17.6249 13.4778 16.1575 12.7445 14.784C11.7879 13.1092 10.664 11.5357 9.39005 10.0876C8.97893 9.58831 8.61932 9.04876 8.31667 8.47717C8.04814 8.00725 8.24952 7.67227 8.78657 7.538C8.8537 7.47087 8.98795 7.53803 9.12221 7.47089C9.65926 7.40376 9.79353 7.06812 9.79353 6.53178C9.81634 4.97997 10.1589 3.44955 10.7998 2.03609C10.8564 1.87831 10.9716 1.74839 11.1215 1.67337C11.2714 1.59835 11.4444 1.58401 11.6047 1.6333L14.4228 2.23747C14.733 2.34048 15.0653 2.35744 15.3844 2.28651C15.7034 2.21558 15.9973 2.05941 16.2346 1.83468C16.3111 1.75174 16.4021 1.68351 16.5031 1.6333C17.2409 1.23051 18.0464 0.828429 18.8513 1.49904C18.9856 1.56617 19.187 1.49902 19.3213 1.56615C20.5932 2.63954 22.0065 2.30389 23.4813 2.1032C24.219 1.96894 24.9574 1.83469 25.6952 1.6333C26.9028 1.23051 28.1777 0.961977 29.3853 0.492764C30.6573 0.0228446 31.9349 -0.312115 33.2097 -0.647772C35.1497 -1.11741 37.1737 -1.11741 39.1137 -0.647772C39.898 -0.455532 40.6325 -0.09891 41.2687 0.398481C41.9048 0.895873 42.4281 1.5227 42.8038 2.23747C43.4751 3.44513 44.28 4.58564 45.0178 5.7933C45.2862 6.26301 45.715 6.62026 46.2254 6.79957C46.6066 6.98347 46.9666 7.20859 47.2988 7.47089C47.8981 7.82955 48.4007 8.32919 48.7629 8.92637C49.1251 9.52355 49.3359 10.2002 49.377 10.8974C49.5106 13.3834 49.6449 15.4631 49.7791 17.5399Z" fill="#0E0D0D"/>
<path d="M34.2801 13.1159C36.2233 12.906 38.172 13.4593 39.7149 14.6592C40.1177 14.9948 40.7883 14.9948 41.124 15.3298C41.5268 15.7326 41.996 15.6654 42.4666 15.7326C42.9162 15.8265 43.3255 16.0577 43.6381 16.3943C43.9506 16.7309 44.1509 17.1562 44.2113 17.6116C44.3226 18.1407 44.3677 18.6817 44.3456 19.222C44.4127 21.101 44.547 22.9792 44.6141 24.7911C44.6812 25.7973 44.8155 26.8036 44.8826 27.8106C44.8268 28.9752 44.8717 30.1424 45.0169 31.2993C45.0724 31.8398 45.0269 32.3859 44.8826 32.9097C44.7935 33.3671 44.5531 33.7813 44.2001 34.0856C43.8472 34.3899 43.4021 34.5666 42.9365 34.5873C42.094 34.7174 41.2318 34.6008 40.4541 34.2516C39.5821 33.7817 38.6422 33.3125 37.7688 32.8426C37.6617 32.8019 37.5645 32.739 37.4835 32.658C37.4025 32.577 37.3396 32.4798 37.2989 32.3727C37.0975 31.6349 36.494 31.7692 36.0269 31.8356C35.8927 31.8356 35.7584 32.037 35.7584 32.1713C35.7536 32.4955 35.8225 32.8166 35.9598 33.1104C36.1518 33.6017 36.2431 34.1265 36.2283 34.6537C36.4297 36.3313 33.8802 38.0753 32.1354 37.1362C31.7147 36.8864 31.3646 36.5336 31.118 36.111C30.8715 35.6884 30.7367 35.21 30.7264 34.7208C30.6805 33.9109 30.8422 33.1026 31.1963 32.3727C31.2914 32.2029 31.3298 32.0071 31.3056 31.8139C31.2815 31.6208 31.1961 31.4404 31.062 31.2993C30.8606 31.0308 30.3914 30.9636 30.2572 31.2321C29.9886 31.6349 29.7872 32.2384 29.3852 32.5041C29.0495 32.7727 28.4461 32.7055 28.0426 32.9069C27.2377 33.2425 26.5664 33.7118 25.7615 34.1146C25.0909 34.4502 24.4188 34.7852 23.7489 35.0537C22.5413 35.4565 22.0043 35.2551 21.3336 34.1817C20.8338 33.3524 20.5781 32.3988 20.5959 31.4307C20.5288 28.4783 20.4617 25.5267 20.3945 22.6414C20.3945 21.2324 20.3945 19.8234 20.4616 18.4814C20.4616 17.7437 20.663 17.4752 21.4008 17.408C22.7736 17.2078 24.123 16.8707 25.4287 16.4017C26.6664 16.0446 27.8427 15.5016 28.9174 14.7913C29.253 14.5899 29.6551 14.3214 29.9908 14.1207C30.9152 13.4799 32.0201 13.1509 33.1445 13.1816C33.5424 13.1816 33.878 13.1159 34.2801 13.1159Z" fill="#DB947B"/>
<path d="M48.1687 47.3999V49.1446C48.197 49.8434 48.0872 50.541 47.8454 51.1973C47.6036 51.8535 47.2346 52.4556 46.7596 52.969C46.4911 53.3047 46.1561 53.5725 45.8876 53.9081C45.0411 55.0269 43.9362 55.924 42.6674 56.5227C41.4688 57.1285 40.2373 57.6668 38.9787 58.1353C38.6277 58.2346 38.2685 58.302 37.9053 58.3367C36.8991 58.4709 35.8928 58.6723 34.8858 58.7394C32.8062 58.8737 30.7258 59.1423 28.6461 58.6723C27.5056 58.4038 26.2979 58.2695 25.1574 57.9346C22.8764 57.264 20.6625 56.4584 19.052 54.5801C17.4109 52.8374 16.4987 50.5329 16.5024 48.1391C16.4911 47.4885 16.4463 46.8389 16.3682 46.1929C16.3682 45.723 16.5696 45.5223 17.1059 45.5895C18.7835 45.7909 20.3939 45.9923 22.0708 46.1258C23.8378 46.2162 25.591 45.773 27.1028 44.8539C27.6836 44.5811 28.2442 44.2672 28.7804 43.9147C30.0383 43.2031 31.2091 42.3475 32.2691 41.3652C32.5376 41.0966 32.8726 40.8952 33.1411 40.6274C33.2767 40.498 33.4568 40.4258 33.6442 40.4258C33.8316 40.4258 34.0119 40.498 34.1474 40.6274C35.2208 41.3652 36.2942 42.0365 37.3676 42.7071C39.6727 44.1255 42.4258 44.6283 45.0834 44.1161C45.6607 44.016 46.2432 43.9487 46.8281 43.9147C47.7673 43.8476 47.9687 44.049 47.9687 44.9881C48.1029 45.9273 48.103 46.6657 48.1701 47.4034L48.1687 47.3999Z" fill="#D1C6CC"/>
<path d="M42.3319 7.67919C42.1976 9.08825 41.9962 10.6315 41.7948 12.1741C41.7277 12.5098 41.4592 12.577 41.2578 12.3756C40.7879 11.9728 40.2515 11.5707 39.7816 11.1036C38.7753 10.0302 37.4334 9.89594 36.0915 9.69454C35.4487 9.67514 34.8089 9.78942 34.2125 10.0302C33.3405 10.2987 32.4678 10.6344 31.663 10.9022C31.5287 10.9693 31.4616 10.9693 31.3944 11.0365C30.0518 11.8413 28.6435 12.5126 27.3665 13.3846C24.817 15.1293 21.9317 15.5314 18.9122 15.3979C18.3331 15.3675 17.7645 15.231 17.2346 14.9951C15.3886 14.3646 13.7442 13.2529 12.4712 11.7749C11.9341 11.1043 11.1992 10.6344 10.8607 9.82881C10.7936 9.62741 10.9278 9.35886 11.1292 9.35886C11.6362 9.50273 12.1516 9.61486 12.6725 9.69454C12.7651 9.68439 12.8546 9.6553 12.9354 9.6091C13.0163 9.56291 13.0867 9.5006 13.1424 9.42601C13.2096 9.29175 13.1424 9.02324 13.1424 8.82184C13.1424 8.75471 13.0753 8.75471 13.0082 8.68758C11.6656 7.74845 11.8006 6.27223 11.6656 4.86318C11.6468 4.73297 11.655 4.60031 11.6897 4.47341C11.7243 4.3465 11.7846 4.22805 11.867 4.12543C12.0012 3.72265 12.3369 3.58842 12.8061 3.72268C13.5439 3.92408 14.3494 4.19261 15.0871 4.46043C15.3557 4.52756 15.6242 4.59467 15.8249 4.6618C16.764 4.93033 16.764 4.86319 17.234 3.92406C17.5025 3.38701 17.6367 3.3206 18.0388 3.72268C18.4961 4.14072 19.0394 4.45345 19.6305 4.6389C20.2217 4.82435 20.8463 4.878 21.4604 4.79607C23.3842 4.68874 25.2824 4.30461 27.0966 3.65553C28.9084 2.91779 30.7867 2.31289 32.6657 1.64299C34.0177 1.17974 35.4648 1.06603 36.8726 1.31239C38.2803 1.55875 39.6029 2.1572 40.7172 3.05205C41.1292 3.34888 41.4736 3.7295 41.7281 4.16891C41.9825 4.60832 42.1411 5.09661 42.1934 5.60165C42.2648 6.20301 42.2647 6.87432 42.3319 7.67919Z" fill="#D1C6CC"/>
<path d="M21.8683 44.3123C20.5846 44.33 19.3094 44.1023 18.1111 43.6416C17.5069 43.3731 17.3734 43.1046 17.7083 42.5011C18.0281 42.0036 18.387 41.5325 18.7817 41.0921C20.5558 39.2966 22.4623 37.637 24.485 36.1272C25.6732 35.3207 26.958 34.6668 28.3094 34.181C28.98 33.9796 29.1814 34.1139 29.3828 34.7181L29.5842 35.523C29.644 36.1993 29.9269 36.8366 30.3884 37.3346C30.85 37.8325 31.4639 38.163 32.1338 38.2739C32.6708 38.4082 32.738 38.7439 32.4023 39.0788C31.0565 40.5488 29.5225 41.8347 27.8402 42.9032C26.9867 43.4552 26.0265 43.8209 25.0221 43.9766C23.9794 44.1582 22.9258 44.2704 21.8683 44.3123Z" fill="#CFC4CA"/>
<path d="M47.7663 26.0652V38.0781C47.1622 38.1488 46.8944 37.6082 46.4237 37.3404C46.0881 37.139 45.7531 36.9376 45.4846 36.7362C45.0818 36.4677 44.5455 36.5348 44.3441 35.9985C44.6797 35.73 45.0147 35.5286 45.3503 35.2607C45.7881 34.9281 46.0965 34.4534 46.2223 33.9181C46.5799 32.7912 46.7389 31.6107 46.6923 30.4294C46.6251 28.1483 46.558 25.9337 46.4237 23.6527C46.2895 21.573 46.1552 19.4926 45.8867 17.413C45.6853 15.3333 45.0818 14.7277 43.0014 14.5277C42.3301 14.4606 42.1966 14.1921 42.398 13.5886C42.8007 12.381 43.2028 11.1733 43.6056 9.89852C43.7399 9.36147 43.8742 8.75798 44.5448 8.75798C45.2825 8.69085 46.0881 8.69083 46.558 9.42857C47.0129 10.0908 47.3111 10.8479 47.43 11.6425C47.9671 14.662 47.7656 17.7479 47.7656 20.7674C47.7656 22.6464 47.7656 24.3233 47.7656 26.0673L47.7663 26.0652Z" fill="#C9BEC4"/>
<path d="M43.2709 43.1052C41.9629 43.1924 40.6635 42.838 39.5808 42.0989C39.0444 41.7633 38.5074 41.3612 37.9703 41.0255C37.0366 40.4609 36.2539 39.6782 35.6893 38.7445C35.2865 38.2074 35.3536 37.9396 35.8235 37.4725C36.4229 36.9385 36.9227 36.3023 37.2997 35.5935C37.6354 34.9229 37.9703 34.8558 38.7759 35.1907C38.9773 35.2579 39.1787 35.4593 39.3801 35.4593C41.3926 35.5935 42.936 36.7313 44.5464 37.8746C45.2412 38.3777 45.892 38.9389 46.4918 39.5522C46.8345 39.8132 47.1147 40.1473 47.312 40.5303C47.5093 40.9133 47.6188 41.3355 47.6323 41.7661C47.6523 41.8988 47.6221 42.0341 47.5476 42.1457C47.4731 42.2573 47.3597 42.3371 47.2295 42.3696C45.7533 42.6353 44.4114 43.1723 43.2709 43.1052Z" fill="#CFC4CA"/>
<path d="M18.7141 25.3274C18.8483 27.5413 18.9155 29.8231 19.184 32.037C19.3854 33.7146 19.5868 35.4586 20.9287 36.8005C21.2644 37.1362 21.063 37.3376 20.7945 37.6054C19.9225 38.4103 18.9826 39.2829 18.1092 40.1549C17.6393 40.6249 17.1701 41.1612 16.7001 41.6983C16.6262 41.769 16.5326 41.8158 16.4316 41.8325C16.3622 41.8038 16.3012 41.7579 16.2542 41.6992C16.2073 41.6405 16.1759 41.5709 16.1631 41.4969C16.2302 40.2892 16.2302 39.0144 16.2974 37.8068C16.7219 33.8174 16.8789 29.8041 16.7673 25.7938C16.7001 23.4456 16.4987 21.0974 16.4316 18.7492C16.3979 18.527 16.3979 18.3009 16.4316 18.0786C16.4316 17.6759 16.2973 17.1395 16.7673 16.9381C17.2372 16.6696 18.4448 17.4751 18.512 18.0115C18.6462 19.6219 18.7805 21.2317 18.8476 22.8421C18.9148 23.7141 18.8476 24.5869 18.8476 25.3917C18.8125 25.3546 18.765 25.3317 18.7141 25.3274Z" fill="#CFC4CA"/>
<path d="M14.957 30.1572C14.8899 30.9621 14.8899 31.6334 14.8228 32.3711C14.8122 32.4515 14.7813 32.5279 14.7331 32.593C14.6848 32.6582 14.6208 32.71 14.547 32.7436C14.4732 32.7771 14.3921 32.7914 14.3113 32.785C14.2305 32.7785 14.1526 32.7517 14.085 32.7068C13.8227 32.5698 13.5918 32.3796 13.407 32.1485C13.2222 31.9173 13.0876 31.6502 13.0116 31.3642C12.7517 30.306 12.8704 29.1902 13.3473 28.2104C13.4144 28.1433 13.4816 28.009 13.5487 27.9419C13.6423 27.8052 13.7795 27.7043 13.9379 27.6555C14.0962 27.6068 14.2664 27.613 14.4207 27.6733C14.5263 27.7402 14.6167 27.8284 14.6861 27.9323C14.7555 28.0363 14.8023 28.1537 14.8235 28.2768C14.9281 28.8979 14.9727 29.5276 14.957 30.1572Z" fill="#DB947B"/>
<path d="M49.3101 30.76V28.881C49.3101 28.7467 49.5115 28.5454 49.6457 28.4111C49.7129 28.344 49.9814 28.4111 50.0485 28.5454C50.3641 28.7688 50.626 29.0597 50.815 29.3971C51.004 29.7344 51.1153 30.1096 51.1411 30.4954C51.1668 30.8812 51.1062 31.2679 50.9636 31.6274C50.8211 31.9868 50.6002 32.3099 50.3171 32.5733C50.2499 32.6404 50.1828 32.7746 50.0485 32.7746C49.8763 32.8432 49.6957 32.8884 49.5115 32.9089C49.4443 32.9089 49.3772 32.6404 49.3772 32.5061C49.3884 31.9237 49.366 31.3412 49.3101 30.7614V30.76Z" fill="#DB947B"/>
<path d="M27.4373 23.5806C26.3401 23.5964 25.2788 23.9737 24.4178 24.654C24.1072 24.9438 23.7019 25.1109 23.2773 25.1239C23.1981 25.1207 23.1208 25.0992 23.0512 25.0612C22.9817 25.0232 22.9219 24.9697 22.8765 24.9048C22.831 24.8399 22.8011 24.7655 22.7891 24.6871C22.7772 24.6088 22.7834 24.5288 22.8073 24.4533C23.3816 23.1879 24.257 22.0823 25.3569 21.2331C25.7166 20.9558 26.1491 20.7891 26.6018 20.7534C27.0545 20.7176 27.5078 20.8143 27.9065 21.0317C28.9863 21.5167 29.8305 22.4091 30.2547 23.5142C30.2547 23.5813 30.389 23.7156 30.3218 23.7827C30.2739 23.9796 30.1821 24.1632 30.0533 24.3198C29.9862 24.3869 29.6505 24.3869 29.6505 24.3198C29.1142 23.5135 28.1093 23.8491 27.4373 23.5806Z" fill="#090908"/>
<path d="M38.9776 21.1676C39.9839 21.4361 41.1244 21.7718 41.7957 22.9794C41.9802 23.281 42.0605 23.6349 42.0241 23.9865C41.9877 24.3382 41.8367 24.6681 41.5943 24.9255C41.4766 25.0098 41.3362 25.0566 41.1915 25.0598C40.9901 24.9927 40.8559 24.7913 40.7216 24.657C40.3058 24.2478 39.7809 23.967 39.2098 23.8481C38.6386 23.7292 38.0453 23.7772 37.5007 23.9864C37.1973 24.0923 36.8818 24.1599 36.5616 24.1878C36.2259 24.2549 35.7567 23.7179 35.9574 23.4501C36.5616 22.5109 37.1651 21.5711 38.3727 21.2361C38.5663 21.1666 38.7734 21.1431 38.9776 21.1676Z" fill="#090908"/>
<path d="M29.7847 28.076C29.7175 28.5459 29.6504 28.8808 29.5832 29.2165C29.2476 30.4241 28.577 30.827 27.3022 30.6256C27.1461 30.5953 27.0011 30.5231 26.8829 30.4166C26.7648 30.3102 26.6779 30.1735 26.6316 30.0213C26.4366 29.3906 26.4556 28.7131 26.6857 28.0942C26.9157 27.4754 27.3439 26.95 27.9036 26.5998C28.028 26.5016 28.1744 26.435 28.3301 26.4056C28.4859 26.3763 28.6464 26.3851 28.798 26.4313C28.9497 26.4774 29.0879 26.5596 29.2009 26.6708C29.3139 26.7819 29.3983 26.9188 29.4469 27.0697C29.6095 27.3862 29.7234 27.7254 29.7847 28.076Z" fill="#090908"/>
<path d="M36.6959 28.747C36.8973 28.0757 37.0315 27.4044 37.2329 26.7338C37.291 26.5832 37.3901 26.4518 37.5191 26.3548C37.6482 26.2577 37.8019 26.1989 37.9627 26.1849C38.1235 26.1709 38.2851 26.2023 38.4289 26.2756C38.5727 26.3489 38.6931 26.4612 38.7763 26.5995C39.3014 27.3459 39.5825 28.2365 39.5811 29.1491C39.581 29.4506 39.5 29.7466 39.3467 30.0063C39.1933 30.2659 38.9731 30.4797 38.7091 30.6253C38.5723 30.7236 38.408 30.7765 38.2395 30.7765C38.0711 30.7765 37.9068 30.7236 37.77 30.6253C37.4348 30.4422 37.1569 30.1696 36.9673 29.8381C36.7777 29.5065 36.6837 29.1288 36.6959 28.747Z" fill="#0D0C0C"/>
<path d="M36.8302 45.4547C36.5286 47.1554 35.9863 48.8046 35.2197 50.3524C35.1526 50.4196 35.0854 50.5538 35.0183 50.621C34.6422 50.912 34.2067 51.1169 33.7428 51.2213C33.2788 51.3257 32.7976 51.327 32.3331 51.2251C31.9043 51.1897 31.4997 51.0119 31.1836 50.7201C30.8675 50.4283 30.658 50.0392 30.5883 49.6147L30.3869 48.8098C30.2811 47.5362 29.9638 46.289 29.4478 45.1197C29.423 45.0525 29.4162 44.9801 29.428 44.9094C29.4397 44.8388 29.4697 44.7725 29.515 44.717C29.6327 44.6327 29.773 44.5859 29.9177 44.5827C31.6624 45.1197 33.4064 44.9183 35.1511 44.9183C35.4789 44.8918 35.7981 44.8005 36.0903 44.6498C36.6959 44.4484 36.8302 44.5134 36.8302 45.4547Z" fill="#090908"/>
</g>
</svg>
