<svg width="64" height="64" viewBox="0 0 64 64" fill="none" xmlns="http://www.w3.org/2000/svg">
<circle cx="32" cy="32" r="32" fill="#3ACCE1"/>
<mask id="mask0" mask-type="alpha" maskUnits="userSpaceOnUse" x="0" y="0" width="64" height="64">
<circle cx="32" cy="32" r="32" fill="#14CA7B"/>
</mask>
<g mask="url(#mask0)">
<path d="M78.4564 115.503C78.3481 115.188 78.3481 114.845 78.4564 114.53C78.604 114.289 78.7306 114.036 78.8348 113.773C78.9969 113.611 79.0511 113.395 79.2132 113.233C79.3278 113.167 79.4231 113.073 79.4895 112.959C79.556 112.845 79.5912 112.716 79.5916 112.584C78.9427 112.205 79.3753 109.448 79.321 108.8C79.1449 108.746 78.9567 108.746 78.7806 108.8L78.6727 108.908C78.6708 109.008 78.6325 109.104 78.5649 109.178C78.5107 109.611 78.727 111.611 78.2944 111.881C78.2944 111.936 78.2944 112.205 78.1865 112.26C78.1865 112.314 78.0787 112.854 77.916 112.909C77.9702 112.854 77.6454 113.341 77.6997 113.287C77.5918 113.503 77.4834 113.665 77.4291 113.774C77.4302 113.83 77.4155 113.885 77.3869 113.932C77.3582 113.98 77.3167 114.019 77.267 114.044C77.206 114.194 77.1337 114.339 77.0507 114.477C77.0474 114.669 76.9913 114.856 76.8887 115.017C76.8887 115.125 76.8887 115.45 76.7266 115.504C76.642 115.742 76.5137 115.962 76.3482 116.153C76.4024 116.045 76.1861 116.315 76.2404 116.315C76.1822 116.461 76.0893 116.591 75.9698 116.693C75.8422 116.983 75.6107 117.214 75.3209 117.342C74.7804 117.72 74.402 117.937 73.9152 118.261C73.8326 118.327 73.7416 118.381 73.6446 118.423C73.3717 118.538 73.0722 118.575 72.7794 118.531L72.401 118.369C71.8605 118.045 71.4279 117.071 71.9684 116.585C71.9684 116.53 72.0226 116.26 72.1304 116.206C72.1826 116.057 72.2765 115.926 72.401 115.828C72.5853 115.466 72.8025 115.122 73.0499 114.801C73.0862 114.629 73.182 114.476 73.3205 114.368C73.3205 114.368 73.7531 113.611 73.8609 113.611C73.8067 113.719 73.9688 113.233 73.9688 113.341C74.0766 113.233 73.9688 113.124 73.9688 113.016C73.9784 112.814 74.0147 112.614 74.0766 112.422C74.1309 112.098 74.455 109.557 74.8876 109.34C74.8334 109.448 74.8334 109.34 74.8876 109.07L74.7798 108.962H74.6177C74.5099 109.178 74.2936 109.178 74.2393 109.503C74.0772 109.773 74.2936 110.043 74.0772 110.259C74.0666 110.45 74.0111 110.635 73.9152 110.8C73.9152 111.016 73.8073 111.989 73.5368 112.097C73.591 111.989 73.591 112.097 73.4289 112.368C73.3719 112.562 73.2803 112.746 73.1584 112.908C73.0338 113.123 72.8447 113.293 72.6179 113.395L72.3474 113.665L72.0768 113.936C71.7635 114.117 71.473 114.335 71.2116 114.585C71.1574 114.639 70.4548 115.072 70.4006 115.125C70.284 115.228 70.1572 115.319 70.0222 115.396C69.8129 115.534 69.5963 115.66 69.3733 115.774C69.2112 115.828 67.9133 115.991 67.7513 115.612C67.4289 115.402 67.1376 115.147 66.886 114.855C66.7959 114.675 66.7582 114.473 66.7773 114.272C66.7964 114.072 66.8714 113.88 66.9939 113.72C67.3722 113.396 67.5343 112.801 67.9127 112.477C67.938 112.427 67.9768 112.385 68.0247 112.357C68.0725 112.328 68.1275 112.313 68.1832 112.315C68.129 112.369 68.1833 112.315 68.3453 112.207C68.524 111.986 68.7445 111.802 68.9943 111.666C69.146 111.569 69.275 111.44 69.3726 111.288C69.5977 110.396 69.9053 109.527 70.2915 108.693C70.3322 108.408 70.4239 108.134 70.562 107.882C70.6162 107.651 70.6162 107.41 70.562 107.179C70.3965 106.988 70.2682 106.768 70.1836 106.53C69.9724 106.342 69.7903 106.123 69.6432 105.881C69.4858 105.685 69.3583 105.466 69.2648 105.232C69.1403 105.135 69.0464 105.003 68.9943 104.854C68.8472 104.828 68.6959 104.839 68.5542 104.886C68.4126 104.933 68.285 105.015 68.1832 105.125C67.9912 105.273 67.8106 105.436 67.6428 105.611C67.5886 105.719 67.4807 106.098 67.3722 106.152C67.3722 106.26 67.318 106.585 67.2102 106.639C67.1909 107.078 67.1183 107.514 66.9939 107.936C66.9534 108.017 66.8985 108.091 66.8318 108.152C66.6885 108.431 66.4616 108.658 66.1828 108.801C65.9665 109.125 65.0477 109.018 64.7771 108.963C64.5352 108.955 64.3045 108.859 64.1282 108.693C63.9765 108.595 63.8474 108.466 63.7498 108.314C63.4793 108.152 63.642 107.828 63.4793 107.665V107.449C63.8577 106.638 63.425 105.719 63.9119 104.854C63.9119 105.016 64.0197 104.151 64.0197 104.314C64.0299 104.164 64.0665 104.018 64.1276 103.881C64.1276 103.827 64.1818 103.557 64.2896 103.503C64.3439 103.232 64.6138 102.205 64.9386 102.097C64.8843 102.151 64.9386 102.097 65.0464 101.935C65.161 101.748 65.3074 101.584 65.479 101.448C65.4248 101.502 65.6954 101.286 65.5869 101.34C65.6411 101.178 66.0737 100.907 66.2358 100.8C66.1816 100.854 66.2358 100.8 66.3979 100.692C66.4521 100.638 66.722 100.475 66.7763 100.421C66.8588 100.355 66.9498 100.301 67.0468 100.259C67.2214 100.158 67.4019 100.068 67.5873 99.9886C67.6951 99.8808 68.182 99.6645 68.2362 99.6102C68.3188 99.5443 68.4098 99.4898 68.5068 99.4481C68.4525 99.5024 68.5068 99.4481 68.6688 99.3403C68.8094 99.1885 68.9739 99.0607 69.1557 98.9619L69.4263 98.6914C69.4805 98.5293 69.6426 98.4208 69.6968 98.313C69.8046 98.1509 69.8589 98.0967 69.8046 98.1509C70.2441 97.4393 70.8123 96.8159 71.4802 96.3126C71.5969 96.2098 71.7237 96.1191 71.8586 96.042C71.8586 95.9342 71.9129 95.88 72.0207 95.7715C72.0748 95.5039 72.0748 95.2281 72.0207 94.9605C72.075 95.1226 71.8586 94.42 71.9129 94.5821C71.805 94.5279 71.805 94.1495 71.7508 94.0952C71.5887 93.9332 71.643 93.6084 71.4802 93.4463C71.4515 93.3182 71.4156 93.1919 71.3724 93.0679C71.2585 92.8248 71.1679 92.5714 71.1019 92.3111C70.8036 91.8715 70.601 91.3741 70.5072 90.8512C70.2828 90.4764 70.1015 90.0774 69.9667 89.6618C69.7504 89.6076 69.5883 88.743 69.5883 88.6345L69.4263 88.2561C69.3128 88.0954 69.2387 87.9103 69.2099 87.7156C69.0479 87.3915 68.8315 86.9046 68.6695 86.5805C68.4887 86.2997 68.3605 85.9883 68.2911 85.6616C67.9127 85.4453 67.9669 84.6885 67.6422 84.3644C67.0475 83.4992 66.507 82.4725 65.9665 81.6072C65.7502 81.2831 65.5339 80.9047 65.3176 80.5799C65.3718 80.6341 65.1555 80.3636 65.2098 80.4721C64.9438 80.1637 64.7251 79.8174 64.5608 79.4447C64.4949 79.3622 64.4404 79.2712 64.3988 79.1742C64.5066 79.3363 63.8041 78.2554 63.8583 78.4174C63.6962 78.2554 63.6962 78.2011 63.7505 78.3096C63.6428 78.197 63.5517 78.0695 63.4799 77.9312C63.3721 77.7691 63.3178 77.7149 63.3721 77.7691C62.9802 77.2806 62.6362 76.7556 62.3447 76.2013C62.4526 76.3092 61.9664 75.7687 62.0742 75.823C62.0742 75.823 61.8036 75.4988 61.8579 75.5524C61.7224 75.4657 61.6255 75.3302 61.5873 75.174C61.1011 74.6336 60.3437 73.9304 59.8033 73.3357L59.6954 73.2279C59.4791 73.2279 58.8302 72.5253 58.7766 72.4711C58.6145 72.3632 58.5602 72.309 58.6145 72.3633C58.4795 72.2862 58.3527 72.1955 58.2361 72.0927C58.074 72.0385 57.9656 71.8764 57.8577 71.8222C57.8577 71.8222 56.9925 71.2817 57.3173 71.4438C57.2094 71.4438 57.1552 71.3895 57.0467 71.2817C56.8704 71.2003 56.69 71.1281 56.5062 71.0654C56.4265 71.0378 56.3397 71.0388 56.2607 71.0684C56.1817 71.098 56.1156 71.1543 56.0736 71.2275C56.0194 71.3353 55.9658 71.3895 55.9115 71.498C55.7623 71.8634 55.6994 72.2584 55.7275 72.6521C55.7556 73.0458 55.874 73.4278 56.0736 73.7683C56.2513 74.3838 56.4865 74.9811 56.7762 75.5524C57.0467 75.6603 57.2088 76.5255 57.3166 76.7418C58.1276 77.2823 57.9113 80.6884 57.9656 81.3373C58.0734 82.9593 58.1819 85.2296 57.695 86.6896L57.5329 87.068C57.2624 87.5006 57.5872 88.2574 57.2624 88.6358C57.178 89.0443 57.0512 89.4429 56.884 89.8251C56.5598 90.2578 56.9382 91.2851 56.5056 91.6635C56.5599 91.5556 56.2893 92.1503 56.3435 92.0419L56.2357 92.4202C56.0194 92.6908 56.0736 93.0149 55.8573 93.177C55.7495 93.3933 55.5332 94.1501 55.3168 94.2043C55.4247 94.0423 54.9927 94.7448 55.1005 94.5827C55.1005 94.6906 55.0463 94.7448 54.9385 94.8533C54.8328 95.0809 54.7061 95.2981 54.5601 95.5022C54.4522 95.61 54.4522 95.9348 54.2895 96.0427C54.2189 96.3191 54.0899 96.5771 53.9111 96.7994C53.6406 97.0157 53.6406 97.4484 53.3707 97.7183C53.3185 97.8677 53.2246 97.999 53.1001 98.0967C53.1544 97.9888 52.9381 98.313 52.9923 98.2588C52.8034 98.5333 52.5859 98.787 52.3434 99.0155C52.2355 99.1776 52.1813 99.2318 52.2355 99.1776C52.1774 99.3238 52.0845 99.4537 51.965 99.556L51.8571 99.6638C51.9114 99.6096 51.8571 99.6638 51.7493 99.8259C51.4356 100.229 51.0922 100.609 50.722 100.961C50.6141 101.123 50.5599 101.177 50.6141 101.123C50.6122 101.223 50.5739 101.32 50.5063 101.394C50.3984 102.046 50.4541 102.715 50.6684 103.34C50.7762 103.448 51.0468 103.448 51.2088 103.61L51.3167 103.718C51.4938 103.934 51.6118 104.192 51.6592 104.466C51.7066 104.741 51.6818 105.024 51.5872 105.286C51.4957 105.506 51.3559 105.703 51.1781 105.862C51.0003 106.021 50.789 106.138 50.5599 106.205C49.7489 107.718 51.2088 107.827 52.2355 107.827C54.1275 107.827 56.0194 107.665 57.8577 107.556C58.074 107.178 58.9929 107.448 59.2634 107.556C59.4887 107.623 59.7063 107.714 59.9124 107.827C59.9834 107.825 60.054 107.838 60.1194 107.866C60.1847 107.894 60.2432 107.936 60.2907 107.989C60.4543 108.071 60.5869 108.204 60.6691 108.367C60.7234 108.475 60.777 108.529 60.8312 108.638C60.777 108.584 60.8312 108.638 60.939 108.8C60.8312 108.746 61.1554 108.962 61.0469 108.908C61.8579 109.34 61.9657 110.043 62.5068 110.584L62.6147 110.692C62.696 110.732 62.7693 110.787 62.831 110.854C62.6147 110.8 63.642 111.178 63.4799 111.125C63.8027 111.277 64.0544 111.548 64.1824 111.881C64.1282 111.773 64.1824 111.881 64.2903 112.152C64.7765 113.503 64.4524 115.828 64.3981 117.179C64.3981 117.45 64.506 120.315 64.236 120.423C64.3439 120.369 64.0197 120.585 64.1282 120.531C64.074 120.693 63.1009 121.126 62.9388 121.234C63.2094 121.072 62.182 121.774 62.3983 121.612C62.2905 121.774 62.2363 121.828 62.2905 121.774C62.2571 121.875 62.2018 121.968 62.1284 122.045C62.0851 122.624 62.1214 123.206 62.2363 123.775C62.2905 124.586 62.02 125.721 62.2905 126.478C62.3447 126.532 62.4526 126.694 62.5611 126.748C62.7231 126.802 62.8316 126.964 62.9394 127.019C63.1015 127.126 63.1558 127.181 63.1015 127.126C63.3721 127.343 63.8583 127.234 64.1288 127.397C64.1288 127.397 64.3994 127.613 64.3994 127.668C64.3451 127.613 64.5615 127.884 64.5072 127.775C65.1019 130.262 64.6693 132.857 65.0477 135.29C65.1004 135.36 65.1289 135.446 65.1289 135.534C65.1289 135.621 65.1004 135.707 65.0477 135.777C64.8969 136.012 64.6665 136.185 64.3988 136.264C64.5608 136.156 63.8583 136.642 64.0204 136.534L63.2636 137.075C63.2094 137.129 63.0473 137.237 62.993 137.345C62.9349 137.492 62.842 137.622 62.7225 137.724C62.7225 137.724 62.5062 138.102 62.452 138.102C62.3802 138.241 62.2891 138.368 62.1814 138.481C62.0736 138.643 62.0193 138.697 62.0736 138.643C61.9657 138.805 61.9115 138.859 61.9657 138.805C61.8157 139.044 61.6338 139.263 61.4253 139.454C61.1646 139.794 61.0308 140.215 61.0469 140.643C61.0065 140.724 60.9515 140.798 60.8848 140.859C60.939 140.805 60.8848 140.859 60.777 141.021C60.6691 141.129 60.1823 141.778 59.966 141.778C59.0998 141.989 58.206 142.062 57.3173 141.995C55.9116 141.887 54.4522 141.887 53.1001 141.887C51.6944 141.941 50.1266 141.887 48.6673 141.832C47.691 141.814 46.7164 141.742 45.7481 141.616C45.2076 141.562 43.4235 141.778 42.9909 141.454C43.2072 141.454 42.1257 141.292 42.342 141.346C42.2341 141.292 41.9636 141.184 41.9636 141.076C41.9094 141.021 41.7473 140.914 41.6931 140.859L41.3147 140.697C41.0441 140.589 40.9363 140.535 41.0441 140.589C40.7736 140.265 40.1789 140.265 39.8547 139.941C39.6384 139.886 39.2058 139.724 39.098 139.508C38.9964 139.352 38.9059 139.19 38.8274 139.021C38.6111 136.696 38.8816 134.263 38.6111 131.993C38.2327 131.615 38.5033 130.371 38.5033 129.885C38.5033 129.128 38.5033 128.371 38.449 127.56C38.449 126.911 38.7732 125.452 38.2869 124.965C37.7465 124.425 36.6113 124.749 36.0166 124.803C34.6652 124.911 33.2052 124.749 31.908 124.857C31.8001 124.965 31.3675 124.965 31.259 124.965C30.8264 125.344 30.9885 126.966 30.9885 127.506C30.9343 128.75 30.9885 130.047 31.0427 131.236C31.3133 131.561 31.1506 132.642 31.1506 132.966V135.237C31.2317 136.388 31.2317 137.544 31.1506 138.696C31.1506 138.858 30.6637 139.183 30.5559 139.237L30.2853 139.507C30.3396 139.453 30.2853 139.507 30.1233 139.615C30.1233 139.615 29.9069 139.831 29.8527 139.831C29.7985 139.993 29.5822 140.048 29.4743 140.102L29.2038 140.318C29.0551 140.461 28.8919 140.588 28.7169 140.697L28.3385 141.075C28.3396 141.131 28.325 141.186 28.2964 141.234C28.2677 141.281 28.2262 141.32 28.1765 141.346C28.2307 141.238 28.0144 141.562 28.0686 141.453C27.6902 141.886 26.0682 141.67 25.582 141.724C24.3384 141.832 22.9333 141.832 21.6354 141.832C20.5539 141.832 19.4187 141.67 18.3378 141.778C17.6889 141.832 17.1484 141.723 16.4995 141.723C16.0126 141.723 14.8774 141.94 14.4448 141.669C13.7423 141.561 12.8228 141.777 12.1203 141.561C11.9545 141.461 11.8112 141.328 11.6995 141.17C11.5878 141.012 11.5101 140.832 11.4713 140.642C11.2008 140.318 10.8224 139.994 10.6061 139.724C10.444 139.616 10.3898 139.562 10.444 139.616C10.3362 139.616 10.2819 139.562 10.1735 139.454C10.2277 139.508 9.95716 139.346 10.0114 139.346C9.90355 139.292 9.84932 139.238 9.74085 139.184C9.63301 139.184 9.20039 139.184 9.09192 139.076C8.97735 139.011 8.88204 138.916 8.8156 138.802C8.74917 138.688 8.71396 138.559 8.71353 138.427C8.64593 138.353 8.6076 138.257 8.60569 138.156C8.17307 137.886 7.09214 137.454 6.76736 136.967C6.8216 137.021 6.76736 136.967 6.60529 136.859C6.30085 136.665 6.0116 136.448 5.74004 136.21C5.36166 135.886 5.52373 133.291 5.52373 132.858C5.52373 131.831 5.19958 130.318 5.4695 129.344C5.49372 129.254 5.54146 129.171 5.60789 129.104C5.67433 129.038 5.75711 128.99 5.84788 128.966C6.07643 128.724 6.33012 128.506 6.60466 128.317C6.76673 128.101 7.09151 128.101 7.25359 127.939C7.41566 127.831 7.57774 127.615 7.79405 127.56L7.90189 127.453C8.49659 126.75 8.00973 124.75 8.06397 123.939C8.11817 123.417 8.11817 122.892 8.06397 122.371C7.96665 122.219 7.83756 122.09 7.68558 121.992C7.57774 121.938 7.19872 121.83 7.14512 121.722C6.96139 121.707 6.78002 121.671 6.60466 121.614C6.44258 121.614 6.1178 121.506 5.95572 121.506C5.79365 121.398 5.73941 121.344 5.79365 121.398C5.5752 121.261 5.39047 121.076 5.25319 120.858C5.30742 120.912 5.25319 120.858 5.14535 120.696C4.8212 120.047 5.03751 118.75 5.03751 117.939V113.776C5.03751 112.695 4.87543 111.992 6.01059 111.452C6.8216 111.073 7.52414 111.181 7.84892 110.317C8.06523 109.83 7.84892 109.722 8.28154 109.236C8.55209 108.965 9.09255 108.749 9.4167 108.479C10.3898 107.722 10.6061 107.29 11.9033 107.235C13.2548 107.181 14.6063 107.181 15.9577 107.127C16.9308 107.127 18.9312 107.452 19.7416 106.965C19.5795 106.154 18.1196 106.047 18.66 105.019C18.8764 104.587 19.5789 104.479 19.6331 103.938C19.741 103.181 18.9842 102.857 18.498 102.478C16.0113 100.748 13.8489 99.0181 12.4438 96.2609C11.2544 93.9906 9.84869 91.3419 9.4167 88.8004C8.87919 86.04 8.66228 83.2267 8.77029 80.4166C8.86229 79.016 9.0611 77.6246 9.36498 76.2543C9.52706 75.6054 10.6622 73.3351 9.95968 72.7404C9.04083 71.9294 4.17479 75.8759 3.31017 76.4706C-0.94833 79.6337 -4.31865 83.842 -6.4749 88.6887C-7.61232 91.412 -8.20021 94.3332 -8.20475 97.2844C-8.25899 98.4738 -8.42107 99.9873 -7.39375 100.853C-6.42066 101.664 -4.90712 101.988 -3.82556 102.637C-1.66308 103.988 0.0667706 105.826 0.0667706 108.475C0.0667706 109.394 0.121006 110.8 -0.798471 111.34C-2.09571 112.043 -3.33934 111.557 -3.77196 110.259C-3.93403 109.719 -4.25881 107.448 -5.17766 107.989C-5.48026 108.531 -5.75105 109.091 -5.98867 109.665C-6.09651 110.367 -5.33974 110.962 -5.01559 111.557C-4.42089 112.584 -4.0425 113.99 -3.2315 114.854C-2.47472 115.665 -0.961178 116.206 -0.798471 117.557C-0.636396 118.692 -1.82579 119.071 -2.74464 118.963C-4.09611 118.801 -5.12343 117.99 -6.09651 117.071C-6.91987 116.408 -7.56925 115.555 -7.98844 114.584C-8.15052 114.26 -9.17784 111.125 -9.7183 112.8C-9.93461 113.341 -9.17784 114.584 -8.96153 115.125C-8.79945 115.665 -8.69098 116.26 -8.47467 116.8C-7.98781 117.882 -6.15012 118.206 -6.04165 119.449C-5.98741 120.044 -6.5285 120.476 -7.01473 120.8C-7.71727 121.287 -8.04205 121.125 -8.79882 120.855C-10.301 120.388 -11.6717 119.573 -12.7996 118.476C-13.7185 117.503 -13.5022 115.989 -13.6106 114.746C-13.6649 114.259 -13.3943 113.232 -13.7727 112.854C-14.2053 112.367 -14.4752 112.8 -14.638 113.178C-14.9085 113.88 -14.8 114.908 -14.9621 115.665C-15.1784 116.583 -15.0163 116.854 -14.4752 117.611C-14.1511 118.043 -12.367 120.097 -13.3937 120.584C-13.537 120.863 -13.7639 121.09 -14.0426 121.233C-15.1778 122.044 -17.124 120.531 -17.665 119.611C-17.9413 119.184 -18.1765 118.731 -18.3676 118.26C-18.5839 118.205 -18.908 117.287 -19.0165 117.07C-19.1244 117.016 -19.3949 116.476 -19.4491 116.421C-19.557 115.719 -19.6654 113.231 -19.0707 112.691C-19.0644 112.332 -18.9716 111.979 -18.8002 111.664C-18.5771 111.171 -18.5388 110.615 -18.6924 110.096C-18.9039 109.809 -19.085 109.501 -19.2328 109.177C-19.4076 108.798 -19.5347 108.398 -19.6112 107.988C-20.3137 107.555 -19.9896 103.555 -19.2328 103.069C-18.7543 102.275 -18.1307 101.578 -17.3945 101.014C-17.3945 100.96 -17.0703 100.798 -17.0161 100.743L-16.7456 100.527C-16.5938 100.388 -16.4309 100.262 -16.2587 100.149C-16.0966 100.041 -16.0966 99.9867 -16.0966 100.041C-16.0966 99.9331 -16.0424 99.8789 -15.9346 99.7704V99.6083C-15.8803 99.8246 -16.1509 99.0679 -16.0424 99.2299C-16.3129 98.8516 -15.9346 97.4458 -15.8803 96.9596C-15.7725 95.9323 -15.7725 94.8514 -15.664 93.8241C-15.511 92.8558 -15.2942 91.8987 -15.0151 90.959C-15.0053 90.7746 -14.969 90.5926 -14.9072 90.4186C-14.9072 90.5264 -14.7452 89.9317 -14.7994 90.0402C-14.7452 89.8781 -14.7452 89.7697 -14.6373 89.6618C-14.5705 89.4365 -14.4798 89.219 -14.3668 89.0129C-14.3634 88.8213 -14.3074 88.6343 -14.2047 88.4724C-14.2047 88.4182 -14.1505 88.1483 -14.0426 88.094C-14.0969 88.2019 -14.0426 88.094 -13.9348 87.8235C-13.9348 87.6614 -13.9348 87.283 -13.7727 87.1746C-13.7727 87.0667 -13.6649 86.472 -13.5022 86.4178C-13.4208 86.2415 -13.3485 86.0611 -13.2859 85.8773C-13.0153 85.2826 -12.6912 83.8227 -12.2585 83.3907C-12.2103 83.1253 -12.1189 82.8697 -11.988 82.6339C-11.8801 82.4718 -11.8259 82.4176 -11.8801 82.4718C-11.7723 82.3098 -11.6096 81.985 -11.5018 81.8229C-11.1776 81.4445 -11.0149 80.9041 -10.745 80.5257C-10.6908 80.4178 -10.6371 80.3636 -10.5829 80.2551C-10.6371 80.3094 -10.2588 79.8225 -10.3124 79.8767C-10.2045 79.7147 -10.1503 79.6604 -10.2045 79.7147C-10.2045 79.6068 -10.1503 79.5526 -10.0425 79.4441C-9.98141 79.2946 -9.90909 79.15 -9.82614 79.0115C-9.74694 78.826 -9.65659 78.6456 -9.55559 78.471C-9.42648 78.0491 -9.20478 77.6612 -8.90666 77.3359C-8.79882 77.1738 -8.74459 77.1196 -8.79882 77.1738C-8.74459 77.066 -8.69098 77.0117 -8.63675 76.9033C-8.74459 77.0653 -8.63675 76.9033 -8.3662 76.5249L-8.09565 76.2543C-7.93358 75.9838 -7.0141 74.8486 -6.63571 74.8486C-6.36517 74.6323 -5.93318 74.1461 -5.60839 73.9298C-5.49618 73.7905 -5.36932 73.6636 -5.23001 73.5514C-5.06793 73.2272 -4.68954 73.0109 -4.47323 72.7946C-4.47323 72.7946 -4.14908 72.5783 -4.20269 72.5783C-3.89901 72.2313 -3.554 71.9227 -3.17537 71.6594C-3.07305 71.5399 -2.94319 71.4471 -2.79698 71.3889C-2.85122 71.4431 -2.58067 71.2268 -2.63491 71.2811L-2.36436 71.0105C-2.24775 70.9077 -2.12096 70.8171 -1.98597 70.74C-1.7163 70.4763 -1.40634 70.2572 -1.06776 70.091C-1.12199 70.1453 -0.527296 69.6584 -0.5809 69.7126C-0.473061 69.4963 0.0137978 69.4421 0.175873 69.28C0.433901 69.0981 0.704967 68.9353 0.986881 68.7932C1.15386 68.6492 1.33493 68.5224 1.52734 68.4148C1.64396 68.312 1.77074 68.2213 1.90573 68.1442C2.28411 67.6038 3.41927 67.4417 4.01397 66.9548C4.19941 66.8756 4.37989 66.7853 4.55443 66.6843C5.0949 66.3601 5.74383 65.9818 6.23005 65.657C6.3125 65.5918 6.40327 65.5379 6.49997 65.4968C6.70403 65.3507 6.92129 65.2241 7.1489 65.1184C7.33972 64.9529 7.55982 64.8246 7.79783 64.74C7.90567 64.4695 8.87939 64.1996 9.09507 64.0911L9.20291 63.9832C9.23628 63.8822 9.29164 63.7898 9.36498 63.7127C9.41922 63.2258 9.47282 62.0371 9.85184 61.6045C9.85184 61.4424 9.85184 60.9555 10.0139 60.8477C9.95968 60.9555 10.176 60.6856 10.1218 60.7398C10.5544 60.5235 11.6353 60.7398 12.1764 60.5778C12.5548 60.2536 13.6899 60.3615 14.1226 60.3072C15.312 60.253 16.4471 60.0367 17.6365 59.9831C18.7717 59.8752 19.9611 59.821 21.1505 59.7125C21.4746 59.7125 23.1509 59.7668 23.3129 59.4962C23.652 59.4336 23.9955 59.3975 24.3403 59.3884C24.3945 59.3341 24.6644 59.1721 24.7186 59.1178C24.6644 59.1721 24.935 58.9558 24.8807 59.01C24.8807 58.9021 25.2049 58.6858 25.2591 58.5774C25.4167 58.171 25.5971 57.7739 25.7996 57.388C25.7453 57.6585 25.9616 56.6312 25.9074 56.9011C26.0152 56.7933 25.9616 56.2522 26.0152 56.0901C26.0486 55.9891 26.104 55.8967 26.1773 55.8196C26.2074 55.7677 26.2242 55.7092 26.2261 55.6493C26.2279 55.5893 26.2148 55.5299 26.188 55.4763C26.1612 55.4227 26.1214 55.3766 26.0723 55.3421C26.0232 55.3077 25.9663 55.2861 25.9068 55.2791C25.3712 55.0956 24.8476 54.8789 24.339 54.6302C23.9064 54.1975 22.7712 54.306 22.3928 53.8192C22.13 53.7619 21.8756 53.671 21.6361 53.5486C21.565 53.5506 21.4944 53.5372 21.429 53.5092C21.3637 53.4812 21.3052 53.4394 21.2577 53.3865C21.0814 53.3051 20.901 53.2329 20.7172 53.1702C20.2303 53.116 20.0147 52.6834 19.6899 52.4135C19.1393 52.1604 18.6152 51.8532 18.1253 51.4965C17.6853 51.2962 17.283 51.0219 16.9359 50.6855C16.6684 50.5923 16.4141 50.4652 16.1791 50.3071C16.1791 50.3071 15.8549 50.0366 15.9085 50.0366C15.512 49.7316 15.1654 49.3667 14.8812 48.955C14.7222 48.8065 14.5774 48.6435 14.4486 48.4681C14.2926 48.3109 14.1646 48.1281 14.0702 47.9277C13.9624 47.7656 13.9081 47.7114 13.9624 47.7656C13.9081 47.7114 13.8545 47.6035 13.8003 47.5493C13.8545 47.6035 13.6382 47.333 13.6925 47.3872C13.3683 47.2794 13.2598 46.3599 12.9899 46.09C13.0442 46.1978 12.8279 45.7116 12.8821 45.8194C12.72 45.7652 12.72 45.4411 12.6115 45.3326C12.6658 45.4404 12.4495 44.9542 12.5037 45.062C12.4495 44.9542 12.3959 44.7915 12.3416 44.6837C12.1719 44.4359 12.044 44.1619 11.9632 43.8726C11.8012 43.8184 11.6391 43.2237 11.5849 43.0616C11.4171 42.8861 11.2364 42.7234 11.0444 42.5748L10.666 42.4127C10.5315 42.3452 10.3838 42.3084 10.2334 42.3049C9.96284 42.0343 9.58445 42.0343 9.36814 41.7644C9.33191 41.7671 9.29552 41.762 9.26145 41.7494C9.22739 41.7368 9.19645 41.7169 9.17076 41.6912C9.14507 41.6655 9.12523 41.6346 9.1126 41.6005C9.09998 41.5665 9.09485 41.5301 9.09759 41.4939C8.82705 41.1697 8.44866 40.8449 8.17874 40.4665C8.01667 40.3587 7.9082 39.9797 7.80036 39.8176C7.60577 39.6823 7.38453 39.59 7.15143 39.5471C6.95648 39.4901 6.77341 39.3984 6.61096 39.2765C6.44889 39.1687 6.39465 39.1144 6.44889 39.1687C6.34105 39.1144 6.28681 39.1144 6.17834 39.0608C6.23258 39.0608 5.58364 38.8988 5.69148 38.8988C5.47603 38.7805 5.29101 38.6139 5.15102 38.4119C4.77264 38.0335 4.98895 36.6278 4.88048 36.1952C4.34001 35.5462 4.60993 33.9249 4.50209 33.1681C4.39425 32.1408 4.01523 29.9783 4.88048 29.33C4.98832 29.1679 5.04255 29.1137 4.98832 29.1679C5.04327 29.0193 5.12971 28.8844 5.24173 28.7724C5.35374 28.6604 5.48867 28.5739 5.63725 28.519C5.58301 28.5732 5.63725 28.519 5.79932 28.4111C5.90717 28.3569 6.33979 28.087 6.44826 28.0328C6.53079 27.9669 6.62179 27.9124 6.7188 27.8707C6.66457 27.8707 7.15142 27.6001 7.09719 27.6001C7.47557 27.2217 7.20503 26.2487 7.63765 25.9245C7.85396 25.654 8.17811 25.3298 8.44866 25.0057C8.39442 25.0599 8.44866 25.0057 8.5565 24.8436C8.61074 24.7894 8.77281 24.6815 8.82705 24.6273C8.91371 24.4918 9.04922 24.3949 9.20543 24.3567C9.09759 24.411 9.69229 24.0326 9.58382 24.0862C9.74589 23.9783 9.80013 23.9241 9.74589 23.9783C9.74589 23.8705 10.2864 23.6 10.3948 23.5457L10.5027 23.4379C10.5569 23.33 10.6105 23.2758 10.6647 23.1673C10.6105 23.3294 10.8811 22.6269 10.8268 22.789C10.8895 22.6052 10.9617 22.4248 11.0431 22.2485C11.3136 21.8069 11.5314 21.3351 11.6921 20.8428C11.7589 20.6175 11.8496 20.3999 11.9626 20.1939C12.1846 19.6023 12.4746 19.0385 12.8266 18.5138C12.9037 18.3788 12.9943 18.252 13.0971 18.1354C13.1514 17.9734 13.3134 17.8649 13.3677 17.757C13.3677 17.757 13.6382 17.4329 13.584 17.4865C13.6382 17.3787 13.6918 17.3244 13.7461 17.216C13.6918 17.3238 13.8539 16.9996 13.8539 17.0539C13.9081 16.946 13.9617 16.8918 14.016 16.7833C14.0741 16.6371 14.167 16.5073 14.2865 16.4049L14.3944 16.2971L14.6649 16.0266L14.7728 15.9187C14.7728 15.8109 15.0969 15.5946 15.1511 15.4861C15.259 15.324 15.3132 15.2698 15.259 15.324C15.3127 15.2113 15.388 15.1103 15.4808 15.0268C15.5735 14.9433 15.6818 14.8788 15.7994 14.8372C15.9615 14.6751 16.0158 14.6751 15.9073 14.7293L16.1778 14.4588L16.4484 14.1882C16.3941 14.2425 16.6105 13.9719 16.5562 14.0804L16.8268 13.8098C16.7725 13.8641 17.0431 13.6478 16.9888 13.702C17.1357 13.534 17.3212 13.4042 17.5293 13.3236C17.7456 13.1615 18.1782 12.7289 18.4482 12.6747C18.4482 12.6205 18.6645 12.4584 18.7187 12.4584C18.8054 12.3229 18.9409 12.226 19.0971 12.1878C19.0971 12.1878 19.4755 11.9173 19.4755 11.9715C19.6518 11.8056 19.8824 11.7094 20.1244 11.701C20.3407 11.3768 21.6922 10.89 22.0706 10.7821C22.1248 10.6743 22.3947 10.6743 22.449 10.6743C22.7248 10.4842 23.0381 10.3552 23.3678 10.2959C23.3136 10.3501 23.8004 10.1338 23.7462 10.1881C23.8004 10.0802 24.0703 10.0802 24.1246 10.0802C24.9244 9.7638 25.7599 9.5463 26.6125 9.43254C26.9109 9.31764 27.2182 9.22716 27.5313 9.162C28.0718 8.51307 29.8559 9.10776 30.5048 8.62154C30.8289 8.35099 30.7211 7.81053 31.0453 7.59422C31.2616 6.67537 30.0722 3.91819 31.0453 3.43197C31.1278 3.3661 31.2188 3.31159 31.3158 3.26989C31.4439 3.24118 31.5702 3.20518 31.6942 3.16205C32.3967 2.8379 32.8294 2.99998 33.3698 3.64891C33.8024 4.29784 33.5861 5.10885 33.7482 5.86562C33.9103 6.0277 33.856 6.18977 33.7482 6.35248C33.694 6.89294 33.9103 7.48764 33.9103 8.08234L34.1808 8.46072C35.0373 8.63968 35.904 8.76605 36.7759 8.83911C36.938 8.89334 37.1543 8.89334 37.3164 8.94695C37.8568 9.10902 38.4515 9.2175 38.992 9.32534L39.3704 9.48741C39.5991 9.54439 39.8179 9.6356 40.0193 9.75796C40.1814 9.92003 40.5598 9.81219 40.6683 10.0285C40.9924 10.1363 42.3439 10.2991 42.4523 10.6774C42.236 10.5154 43.2091 11.0558 42.9392 10.948C42.9392 10.948 43.3718 11.1101 43.3176 11.0558C43.6473 11.1152 43.9606 11.2442 44.2364 11.4342C44.507 11.4884 45.9663 12.0289 46.0205 12.3531C45.9127 12.2988 46.2368 12.5151 46.1826 12.4609C46.2368 12.5151 46.561 12.6772 46.561 12.7314C46.5068 12.6772 46.561 12.7314 46.7231 12.8393C47.0442 13.0924 47.3509 13.3631 47.6419 13.6503C47.6962 13.7045 47.8582 13.8124 47.9125 13.8666L48.1288 14.1371C48.2908 14.2992 48.5072 14.5698 48.6692 14.7318C48.615 14.6776 48.6692 14.7318 48.7771 14.8939C48.7228 14.8397 48.9391 15.1102 48.8849 15.056C49.047 15.2181 49.2633 15.3801 49.4254 15.5429L49.6959 15.8134C49.8038 15.9755 49.858 16.0297 49.8038 15.9755C49.965 16.1283 50.0938 16.3121 50.1821 16.5159C50.3176 16.6026 50.4145 16.7381 50.4527 16.8943L50.669 17.2727C50.8853 17.3269 50.9396 17.8674 51.1016 18.0295C51.0474 17.9752 51.2637 18.2458 51.2095 18.1916C51.2637 18.1916 51.48 18.5157 51.48 18.5699C51.7225 18.7985 51.9401 19.0522 52.1289 19.3267C52.3225 19.577 52.4859 19.8492 52.6158 20.1377C52.8158 20.4319 52.9964 20.7388 53.1563 21.0566C53.8052 21.3807 53.5889 22.7864 54.3457 23.2733C54.1836 23.2191 54.9404 23.4354 54.724 23.4354C55.1839 23.5068 55.6045 23.7363 55.9134 24.0843C56.0597 24.1424 56.1895 24.2353 56.2918 24.3548C56.184 24.3006 56.5081 24.5712 56.3997 24.4627C56.5075 24.5169 56.616 24.8953 56.6702 25.0031C56.616 24.9489 56.8323 25.2195 56.7781 25.111C57.1152 25.2068 57.4283 25.3727 57.6969 25.5978L58.0753 25.7599C58.2497 25.8263 58.4137 25.9174 58.5621 26.0305C59.1026 26.1925 58.9405 30.5175 58.9405 31.058C58.9405 31.4906 59.5352 34.0314 58.8327 34.302C58.7443 34.5058 58.6156 34.6897 58.4543 34.8425L58.1838 35.113C58.1295 35.2208 57.9674 35.3835 57.9132 35.4914C57.859 35.7619 57.9132 36.2482 57.8054 36.4102C57.8054 36.4645 57.6975 36.7886 57.6433 36.7886C57.5862 36.9672 57.4942 37.1327 57.3727 37.2755C57.3185 37.4376 57.1022 37.4918 56.9944 37.546C56.9203 37.6136 56.8241 37.652 56.7238 37.6539C56.9401 37.546 55.9128 38.0322 56.0749 37.9244C55.967 37.9786 55.9128 38.0322 55.8043 38.0322C55.8586 37.978 55.588 38.1943 55.6423 38.1401C55.6169 38.1898 55.5781 38.2313 55.5303 38.26C55.4824 38.2887 55.4275 38.3033 55.3717 38.3022C55.426 38.2479 55.3717 38.3022 55.2096 38.41L54.9391 38.6805C54.8313 38.8426 54.777 38.8969 54.8313 38.8426C54.8324 38.8984 54.8177 38.9533 54.7891 39.0012C54.7604 39.049 54.7189 39.0878 54.6692 39.1132C54.6692 39.1674 54.6692 39.4373 54.5071 39.4916C54.5613 39.3837 54.5613 39.4916 54.3993 39.7621C54.345 39.8699 54.345 40.1947 54.2372 40.249C54.2372 40.3032 54.2372 40.5731 54.0751 40.6273C54.0751 40.6816 54.0751 40.9515 53.9673 41.0057C53.9567 41.1378 53.92 41.2664 53.8594 41.3841C53.8265 41.6201 53.7333 41.8436 53.5889 42.0331C53.6967 41.7625 53.2105 42.8441 53.3726 42.5735C53.2811 42.9557 53.0953 43.3089 52.8321 43.6008C52.8864 43.925 52.3995 44.4661 52.2374 44.6824C51.9133 45.0065 51.7506 45.6012 51.4264 45.9796C51.4806 45.9254 51.1023 46.6286 50.9938 46.6286C51.048 46.5207 50.8317 46.8449 50.8859 46.7906C50.8859 46.7906 50.6696 47.0612 50.6154 47.0612C50.3991 47.3317 50.1285 47.6559 49.9665 47.818C49.7253 48.1488 49.4538 48.4564 49.1555 48.7368C49.1012 48.791 48.9391 48.9531 48.9391 49.0073C48.9391 49.1152 48.5608 49.3315 48.4523 49.44L47.8071 50.0883C47.6602 50.2562 47.4748 50.3861 47.2667 50.4667C47.3209 50.4124 47.2667 50.4667 47.1046 50.5745C46.9259 50.7955 46.7054 50.9792 46.4557 51.115C46.4557 51.115 46.2394 51.3855 46.1851 51.3855C46.2394 51.3313 46.1851 51.3855 46.023 51.4933C45.8855 51.6484 45.7204 51.7767 45.5362 51.8717C45.482 51.926 45.3199 52.0338 45.2656 52.088C45.2114 52.3586 44.1305 52.737 43.9684 52.737C43.9142 52.8448 43.3737 53.0611 43.3195 53.1154C43.2652 53.2232 42.9953 53.2232 42.9411 53.2774C42.8869 53.3317 42.6169 53.3853 42.5627 53.4395C42.5085 53.5474 42.1843 53.6558 42.1301 53.6558C42.0759 53.8721 41.6432 53.8179 41.4812 53.9264C41.6432 53.8721 40.9943 54.0884 41.1028 54.0884C40.8322 54.1963 40.7244 54.2505 40.8322 54.1963L40.1833 54.3584C39.967 54.4662 39.318 54.4662 39.156 54.6289C39.0279 54.6576 38.9016 54.6936 38.7776 54.7367C37.8045 55.0073 39.0481 55.3857 39.2644 55.6556C39.2644 55.6556 39.535 55.8719 39.535 55.9261C39.4808 55.8719 39.6971 56.1425 39.6428 56.034C39.7507 56.3581 39.8049 56.6287 39.9134 56.9528C39.6971 56.5744 40.2918 57.5475 40.2918 57.4933C40.6642 57.8765 41.1039 58.1879 41.589 58.4121C41.6432 58.4664 42.0759 58.5742 42.1295 58.6827C42.8541 58.6559 43.5794 58.7103 44.2919 58.8448C44.8324 58.899 46.4544 58.7369 46.7786 59.0611C48.0222 59.1689 49.2652 59.0611 50.5088 59.1153C51.2547 59.0503 52.0063 59.1236 52.7255 59.3316C52.8904 59.3774 53.0529 59.4315 53.2124 59.4937C53.4829 59.6558 53.8071 59.6015 54.0234 59.8721L54.1312 59.9799C54.2933 60.1962 54.4554 60.5204 54.6181 60.7367C54.8069 60.8499 54.9875 60.9764 55.1586 61.1151C55.3048 61.1732 55.4346 61.2661 55.5369 61.3856C55.4291 61.3314 55.699 61.5477 55.699 61.4935C55.8069 61.5477 55.8611 61.6013 55.9696 61.6555C56.333 61.7926 56.6781 61.9742 56.9969 62.196C57.1047 62.2502 57.5916 62.4123 57.6458 62.5744C58.2947 62.8449 59.0515 63.2233 59.7005 63.4932C59.971 63.6011 60.0788 63.6553 59.971 63.6011C60.1331 63.7632 60.6735 63.8174 60.7278 64.0337C60.6199 63.9795 60.9441 64.1415 60.8898 64.1415C60.9977 64.1958 61.0519 64.2494 61.1604 64.3036C60.9983 64.1958 61.1604 64.3036 61.5388 64.5742C61.7753 64.6854 61.994 64.8312 62.1877 65.0068C62.0799 64.9525 62.404 65.1689 62.3498 65.1146C62.4848 65.1917 62.6116 65.2824 62.7282 65.3852C62.8903 65.5472 62.9445 65.5472 62.8903 65.493L63.1608 65.7636L63.2686 65.8714C63.5432 66.0603 63.7969 66.2778 64.0254 66.5203C64.296 66.5746 64.7822 67.2771 64.9443 67.4392L65.2148 67.7097C65.3541 67.8219 65.481 67.9488 65.5932 68.0881L65.701 68.196C65.8089 68.358 65.8631 68.4123 65.8089 68.358C66.2415 68.7906 67.5387 69.6553 67.6472 70.1964C67.8046 70.3464 67.9493 70.5092 68.0798 70.6832L68.3504 70.9538L68.6209 71.2243L68.8372 71.4949C68.94 71.6115 69.0307 71.7382 69.1078 71.8732C69.1575 71.8986 69.199 71.9374 69.2277 71.9852C69.2563 72.0331 69.271 72.088 69.2699 72.1438C69.4077 72.3531 69.534 72.5697 69.6482 72.7927C69.8118 72.9435 69.9409 73.1279 70.0266 73.3332C70.1778 73.4945 70.3052 73.6764 70.405 73.8736C70.3508 73.8194 70.5671 74.09 70.5128 73.9815C70.6207 74.0357 70.6749 74.0893 70.6749 74.1978L70.9455 74.4683C70.8912 74.4141 70.9455 74.4683 71.0533 74.6304C70.9991 74.5762 71.2154 74.8467 71.1611 74.7925C71.2154 74.7925 71.4317 75.1166 71.4317 75.1709C71.3775 75.1166 71.7558 75.6035 71.7022 75.5493C71.8643 75.6035 71.8643 75.9276 71.9728 76.0361C71.9728 75.9819 72.1349 76.2524 72.0806 76.1982C72.1349 76.2524 72.1885 76.3603 72.2427 76.4145C72.2427 76.3603 72.4048 76.6308 72.3505 76.5766C72.5126 76.6308 72.5126 76.955 72.6211 77.0628C72.6211 77.0086 72.7832 77.2791 72.7289 77.2249C72.891 77.2791 72.9452 77.6033 72.9995 77.7117C72.9452 77.6039 73.1615 78.0901 73.1073 77.9823C73.3236 78.0365 73.3779 78.577 73.5399 78.7391C73.4321 78.577 73.8641 79.3338 73.7562 79.1174C73.9726 79.1717 74.1346 79.9285 74.2967 80.1448C74.2967 80.0905 74.5673 80.6852 74.5673 80.6316C74.8378 81.01 74.8914 81.1721 74.7836 81.01C75.0363 81.3091 75.2207 81.6597 75.324 82.0373C75.7024 82.3079 76.0808 83.6051 76.2429 83.9835C76.5134 84.1456 76.4592 84.686 76.6213 84.9023C76.567 84.7945 76.7833 85.3892 76.7291 85.2807C76.8369 85.335 76.8369 85.6049 76.8369 85.6591C76.8912 85.767 76.9448 85.9297 76.999 86.0375C77.0533 86.1996 77.1069 86.6864 77.2696 86.8485C77.2153 86.6864 77.4316 87.389 77.3774 87.2269C77.5751 87.505 77.7216 87.8162 77.81 88.1457C77.8643 88.2536 77.9179 88.3078 77.9721 88.4163C78.0672 88.5864 78.1399 88.768 78.1884 88.9568C78.2522 89.0785 78.3064 89.205 78.3505 89.3351C78.5088 89.57 78.636 89.8244 78.7289 90.0919C78.791 90.303 78.8272 90.521 78.8367 90.7408C78.7825 90.5788 78.9988 91.2813 78.9445 91.1192C79.1609 91.2271 79.3229 92.4165 79.3772 92.5249C79.7013 93.2275 79.5393 94.0927 79.9176 94.7416C80.1608 94.8556 80.4142 94.9462 80.6744 95.0122C80.9986 95.12 81.6475 95.3363 81.8096 95.7147C81.9845 95.8236 82.1477 95.9504 82.2964 96.0931C82.2964 96.0931 82.6206 96.3637 82.567 96.3094C82.8167 96.4452 83.0372 96.6288 83.2159 96.8499C83.4322 96.9041 83.4865 97.0662 83.6485 97.2283C83.6485 97.2283 83.8648 97.5524 83.8648 97.4988C83.9307 97.5814 83.9852 97.6723 84.0269 97.7694C83.9727 97.7151 84.189 97.9857 84.1348 97.9314C84.2968 97.9857 84.5131 98.5804 84.5131 98.7425C84.7944 99.5063 84.9585 100.308 85 101.121C85 101.5 85 103.176 84.6758 103.5C84.6758 103.662 84.5138 104.473 84.2432 104.527C84.1137 104.85 83.9505 105.158 83.7564 105.446C83.6487 105.559 83.5576 105.686 83.4858 105.825C82.8369 106.96 83.8642 108.473 83.2153 109.608C83.1074 110.798 83.1074 112.473 82.6748 113.447C82.6137 113.797 82.4432 114.118 82.188 114.365C82.188 114.365 81.9174 114.69 81.9174 114.636C81.8563 114.751 81.7621 114.845 81.6469 114.906C81.7011 114.852 81.3227 115.177 81.3763 115.177C81.2262 115.417 81.0444 115.635 80.8359 115.826C80.8901 115.772 80.4575 116.097 80.4575 116.097C80.2954 116.204 80.2412 116.259 80.2954 116.204C80.2412 116.366 79.8628 116.421 79.8085 116.475C79.7007 116.529 78.6734 116.529 78.5649 116.313C78.6196 116.18 78.6383 116.036 78.6193 115.893C78.6003 115.751 78.5441 115.617 78.4564 115.503Z" fill="black"/>
<path d="M42.9396 64.6821C42.8854 66.7367 43.6964 69.1691 43.1017 71.1147C42.5612 73.0066 40.3445 74.0339 40.0204 75.9801C39.642 78.0883 40.1282 80.4671 40.1282 82.5754C40.1282 84.6836 39.8577 87.116 41.1555 88.9007C41.772 89.5363 42.3326 90.2237 42.8312 90.9554C43.1846 91.8679 43.3502 92.8424 43.318 93.8204C43.4259 96.0907 43.6964 98.361 43.8049 100.631C43.8591 101.442 44.1833 102.686 43.5886 103.334C43.1017 103.875 41.5882 104.2 40.9399 104.362C38.9229 104.871 36.8574 105.162 34.7785 105.233C32.5694 105.288 30.3602 105.125 28.1832 104.746C27.5885 104.638 26.2913 104.691 25.8586 104.259C25.3718 103.772 25.4802 102.313 25.426 101.664C25.2097 99.3934 25.2097 97.0682 25.2097 94.7436C25.2097 93.8784 24.9934 92.6354 25.3175 91.8244C25.6417 90.9592 26.6148 90.3109 27.2095 89.6619C27.8042 88.9594 28.3446 88.3647 28.3446 87.4452C28.3989 86.31 28.2904 85.1207 28.2368 83.9855C28.0747 81.823 27.9126 79.6605 27.6963 77.4981C27.5885 76.2544 27.48 76.0924 26.6148 75.2277C25.8276 74.494 25.1208 73.6783 24.5065 72.7947C23.4256 70.9028 23.5877 68.5776 23.2629 66.5236C23.1008 65.7126 22.3441 63.8207 22.776 63.0639C23.1002 62.415 25.2091 61.8745 25.8574 61.6039C27.943 60.899 30.1004 60.4276 32.2899 60.1982C34.5067 59.9819 37.3174 60.6851 39.4263 61.2798C40.2373 61.4961 41.643 61.5503 42.3456 62.0366C43.1559 62.4686 42.8854 63.7658 42.9396 64.6821Z" fill="#FEDB79"/>
<path d="M22.4487 68.2536C22.2746 69.7853 22.5173 71.3355 23.1512 72.7406C23.8537 74.1463 25.1516 74.579 26.1783 75.6599C27.1514 76.633 27.1514 78.0929 27.1514 79.3901C27.1514 80.9037 27.3677 82.4172 27.3135 83.9308C27.2592 85.2822 27.5298 87.2284 26.773 88.3636C26.0162 89.4987 24.8268 90.4718 24.3942 91.8233C24.0701 93.0669 24.3942 94.8504 24.3942 96.094C24.5023 97.7862 24.5023 99.4836 24.3942 101.176C24.2321 102.527 23.529 103.662 22.1239 102.798C20.8579 102.168 19.6305 101.464 18.4479 100.69C16.0558 98.8148 14.0854 96.4574 12.6649 93.7707C9.47506 87.9322 9.47506 80.9056 10.9892 74.5247C11.746 71.3349 14.5032 69.0104 16.7199 66.7401C17.7472 65.6585 19.0445 63.9286 20.7743 64.307C22.6107 64.6312 22.4487 66.8479 22.4487 68.2536Z" fill="#939087"/>
<path d="M44.0748 92.8518C44.129 91.2297 43.318 90.203 42.3449 89.0679C41.4688 88.1372 40.9351 86.9364 40.8314 85.6624C40.7322 84.0604 40.7141 82.4544 40.7771 80.8506C40.7771 79.3371 40.5608 77.3366 41.1013 75.9316C41.5339 74.7964 42.6691 73.7691 43.3716 72.796C44.2368 71.6609 44.3447 70.8498 44.3447 69.3905C44.2904 67.6064 42.9932 61.93 46.615 64.1467C49.048 65.6067 50.6158 68.309 52.2372 70.5263C53.9895 72.9382 55.2396 75.6774 55.9132 78.5815C56.5005 81.6359 56.3522 84.7862 55.4806 87.7719C55.1564 89.0692 55.048 90.5291 54.5075 91.7727C53.967 93.1784 52.8855 94.3678 52.0745 95.6115C51.6738 96.2934 51.222 96.9439 50.723 97.5576C50.2362 98.0981 50.0205 98.6385 49.5879 99.1796C49.132 99.6344 48.624 100.034 48.0743 100.369C47.6417 100.693 47.1012 101.45 46.5065 101.613C44.8309 102.153 44.7767 99.4502 44.6682 98.4771C44.561 96.5814 44.2368 94.6894 44.0748 92.8518Z" fill="#939087"/>
<path d="M32.991 54.4673C29.0379 54.2285 25.1495 53.3522 21.4761 51.8722C18.0706 50.5207 15.4755 47.655 13.583 44.5737C13.3666 44.1411 12.4478 43.1138 12.5556 42.5733C12.7177 41.8708 13.9613 42.0865 14.5018 41.9786C14.8266 41.9227 15.1372 41.8033 15.4158 41.6271C15.6943 41.4509 15.9354 41.2215 16.1251 40.9519C16.6119 40.303 16.6119 39.4384 17.1524 38.8973C17.7225 38.3968 18.4488 38.1102 19.207 38.0863C19.9638 38.1941 19.8017 38.7352 20.018 39.3835C20.5585 40.8435 21.91 42.357 22.9373 43.4379C25.2619 45.8709 29.0463 47.2218 32.2897 47.3845C36.15 47.6224 39.9566 46.3858 42.9401 43.9248C43.985 42.9317 44.8939 41.8046 45.643 40.5729C46.3455 39.5998 46.6703 37.059 48.0218 37.1674C48.7786 37.2217 49.319 37.7621 49.9137 38.0863C50.779 38.5731 51.3737 38.4647 52.3467 38.4647C54.1851 38.5189 52.6173 40.7892 52.0226 41.7081C50.0222 44.9521 47.914 47.9792 44.7784 50.2501C43.1111 51.4127 41.2919 52.3404 39.3719 53.0073C37.3582 53.8985 35.1919 54.3941 32.991 54.4673Z" fill="#B3B3B3"/>
<path d="M33.5328 19.7062C36.2488 19.6749 38.9218 20.3853 41.2639 21.7609C43.3185 23.0581 44.6158 25.7074 45.481 27.8699C46.6704 30.9512 47.1566 33.7084 46.1836 36.8982C45.5177 39.4452 44.0366 41.7044 41.9664 43.3308C37.5337 46.6826 31.0462 47.71 26.2886 44.4123C24.079 42.8721 22.3622 40.7254 21.3453 38.2313C20.3285 35.7371 20.055 33.002 20.558 30.3559C21.0984 27.3288 22.3963 24.6252 24.8829 22.7882C26.2113 21.7899 27.6655 20.971 29.2079 20.3526C29.5869 20.1925 33.5328 19.3278 33.5328 19.7062Z" fill="#496372"/>
<path d="M73.1056 84.5797C73.5925 84.6875 74.2408 83.7145 74.7277 83.7145C75.2145 83.7145 75.5387 84.6333 75.4844 85.0659C75.2139 86.5795 72.6194 86.6879 71.7006 87.6068C72.4031 87.661 73.1605 87.2284 73.8088 87.0121C74.1872 86.85 75.2145 86.039 75.5929 86.0933C76.4039 86.1475 76.7281 87.9852 76.1334 88.5263C75.5628 88.9845 74.9468 89.383 74.295 89.7157C74.5656 89.6078 74.8897 89.6614 75.1603 89.4994C75.5925 89.1088 76.1463 88.8796 76.7281 88.8504C77.5933 89.1746 77.2685 90.0398 76.8901 90.4724C76.6196 90.743 73.7546 92.4728 73.7546 92.5271C74.295 92.9597 76.4033 91.1756 76.9986 91.0671C78.0259 90.7966 78.1338 91.8781 78.2422 92.797C78.4586 94.4726 77.7018 93.8779 76.4582 94.0942C75.7556 94.2021 73.9715 95.3915 73.4311 95.1752C72.7821 94.9588 72.2959 91.8233 72.0796 91.1743C71.647 89.9849 71.2143 88.7956 70.6739 87.6604C69.6635 85.5496 68.5447 83.4924 67.322 81.4971C64.5648 77.1179 61.8077 72.9014 57.5369 69.8195C56.2933 68.9006 56.2933 68.8464 56.4018 67.2786C56.5096 65.9814 56.0776 64.792 55.9692 63.4948C55.9149 63.2242 55.645 62.9001 55.9149 62.6837C56.2391 62.4674 56.7259 62.8458 56.888 63.0621C57.1586 63.3863 57.5905 66.3062 57.8611 66.3062C58.942 66.1983 56.1848 61.6028 59.1047 64.1437C59.3822 64.38 59.5966 64.6816 59.7287 65.0213C59.8608 65.361 59.9064 65.7282 59.8615 66.0899C59.8615 66.5767 59.3746 68.1981 59.6452 68.5765C60.1856 68.4686 60.2941 66.5761 60.2941 66.1977C60.3484 65.2246 60.402 65.0083 61.3214 65.6572C61.592 65.8735 62.3488 66.1977 62.4566 66.5225C62.5644 66.793 62.2945 67.0629 62.186 67.3335C62.1318 67.5498 61.6456 69.7665 61.6456 69.8201C61.9161 70.1443 62.7807 67.5498 62.835 67.4413C63.3218 66.9009 64.1322 67.8197 64.5106 68.4144C65.0511 69.1712 64.5648 69.4417 63.9701 70.1985C63.7538 70.469 62.4566 71.6042 62.6187 71.9826C63.3754 71.9284 64.2407 70.5769 64.7269 70.0907C65.7 69.1176 66.0241 69.8743 66.8894 70.7932C65.9705 71.55 64.4564 72.7936 64.0244 73.9288C64.7812 73.8745 65.8085 72.6315 66.3489 72.0368C66.6731 71.6584 66.8358 71.1716 67.322 71.2258C67.7004 71.2801 68.2409 72.1989 68.4036 72.4695C68.9983 73.4425 68.8362 74.0372 68.0794 74.9025C67.6468 75.3893 66.1333 76.2539 66.0248 76.8486C66.2953 77.1728 67.9709 75.605 68.133 75.4429C68.944 74.7404 69.1061 73.8751 69.8629 74.8482C71.3764 76.8486 68.5114 77.4433 67.7004 78.849C68.0245 79.2274 69.2682 78.0923 69.5387 77.9302C70.1334 77.4433 70.5118 76.5787 71.1607 77.1192C72.9448 78.6327 69.1603 79.8221 68.9983 80.6874C69.7008 81.2821 71.215 79.0654 71.7554 78.9033C72.4044 78.7412 73.5395 80.2547 73.3232 80.9579C73.0527 81.9852 71.3228 82.3636 70.6745 83.0125C69.6472 83.9856 71.7018 82.8505 72.0802 82.6342C72.8912 82.1473 73.4859 81.1742 74.1885 81.9852C74.9995 82.9041 74.1885 83.6609 73.3775 84.2556C72.6852 84.7188 71.9413 85.0998 71.1607 85.3907C71.1065 85.4449 71.1065 85.4985 71.0529 85.5528C71.215 85.6606 71.6476 85.4986 71.8097 85.4449C71.8627 85.1214 72.9436 84.6346 73.1056 84.5797Z" fill="#7B8B9A"/>
<path d="M19.0431 29.0568C18.1779 28.9489 17.0969 29.0568 16.448 28.3542C15.8533 27.7053 15.7455 26.7322 15.1508 26.0839C14.8636 25.7941 14.5161 25.5711 14.1329 25.431C13.7498 25.2908 13.3404 25.2368 12.934 25.2729C12.0152 25.2187 11.4205 25.3808 11.6904 24.3541C12.1628 22.5543 12.9498 20.8522 14.015 19.3266C15.0965 17.813 16.6101 16.84 17.9073 15.5427C19.2508 14.3798 20.7411 13.3983 22.3401 12.6235C22.7727 12.4072 24.2863 11.3798 24.881 11.5961C25.5299 11.8667 25.6377 13.2718 25.7998 13.8665C26.0161 14.569 26.2324 15.6506 26.935 16.0832C27.746 16.57 28.6648 16.2995 29.2595 17.1105C29.5301 17.4889 30.0163 18.5704 29.7464 18.9488C29.4222 19.4357 27.8545 19.5978 27.3134 19.8677C25.4071 20.8155 23.6861 22.097 22.2316 23.6515C21.5095 24.5009 20.9423 25.4707 20.556 26.5166C20.3416 27.1138 19.8541 29.1653 19.0431 29.0568Z" fill="#B3B3B3"/>
<path d="M37.8047 18.3002C37.6969 17.3271 38.7236 16.4619 39.2647 15.8136C40.1299 14.7862 40.0757 14.2458 39.8051 12.9485C39.6431 11.9755 39.2105 11.0566 40.5619 11.3808C41.6795 11.7189 42.7375 12.2296 43.6975 12.8943C44.7544 13.5407 45.7497 14.2827 46.671 15.111C47.1101 15.4423 47.5256 15.8037 47.9146 16.1926C48.1309 16.5167 48.0767 16.733 48.2387 17.0578C48.6714 17.8146 49.6987 18.4093 50.2391 19.1661C50.9077 20.1786 51.4522 21.2678 51.8612 22.4101C52.2396 23.3832 52.78 23.9779 51.5906 24.3563C50.7796 24.6268 50.347 24.6804 49.8065 25.4378C49.2661 26.2488 48.8877 26.8978 47.9146 27.2219C46.7252 27.6545 46.833 27.0056 46.2926 26.0325C45.1786 24.1619 43.7093 22.5272 41.9676 21.2207C41.0668 20.5728 40.0849 20.0457 39.0471 19.6529C38.2361 19.3818 37.8047 19.3275 37.8047 18.3002Z" fill="#B3B3B3"/>
<path d="M10.5018 31.1662C10.3398 29.8147 10.2855 25.976 11.9618 25.7597C12.4612 25.6673 12.9753 25.6924 13.4633 25.8332C13.9512 25.974 14.3997 26.2265 14.7732 26.5707C15.3136 27.1654 15.3679 28.0306 15.9083 28.6789C16.1791 28.9677 16.506 29.1982 16.8689 29.3563C17.2319 29.5144 17.6232 29.5968 18.0191 29.5984C18.5596 29.6527 19.0464 29.5442 19.2627 30.1389C19.479 30.7336 18.9922 31.8687 18.9922 32.5177C18.9565 33.6571 19.0289 34.7974 19.2085 35.9232C19.3706 36.7884 19.749 37.1126 18.9922 37.5988C18.2354 38.085 17.1539 37.9229 16.5592 38.7339C16.0723 39.4365 16.2886 40.2475 15.5861 40.8964C14.934 41.3931 14.1355 41.6593 13.3158 41.6532C11.5317 41.7074 11.4238 39.4365 11.1533 38.0308C10.669 35.7758 10.4504 33.472 10.5018 31.1662Z" fill="#FEDB79"/>
<path d="M33.0451 10.084C34.0563 10.0841 35.0668 10.1382 36.0722 10.2461C36.7747 10.3539 38.2347 10.4624 38.7752 10.9486C39.3156 11.3812 39.2078 12.6785 39.3156 13.3274C39.4234 14.1926 39.4777 14.6246 38.9372 15.2736C38.4626 15.7791 38.0289 16.3215 37.64 16.8956C37.4057 17.2651 37.2238 17.6654 37.0995 18.085C37.0453 18.3013 37.1538 18.6797 36.9917 18.896C36.6133 19.3286 35.4781 18.9502 34.9913 18.896C34.0033 18.7964 33.0088 18.7782 32.0178 18.8417C30.6663 18.896 30.5043 18.7339 30.0174 17.4903C29.6932 16.625 29.5305 16.1388 28.6117 15.8682C27.7464 15.5977 27.1518 15.6519 26.7198 14.7867C26.2365 13.9126 25.9076 12.9618 25.7473 11.9759C25.6931 11.0571 26.342 11.0571 27.2072 10.8408C29.1331 10.4525 31.0839 10.1996 33.0451 10.084Z" fill="#FEDB79"/>
<path d="M51.8052 37.9797C50.94 38.196 50.508 37.6013 49.8591 37.2771C49.3722 37.0066 48.1292 37.0066 47.9129 36.6282C47.6424 36.1956 48.075 35.2767 48.1292 34.7363C48.2388 33.8938 48.2929 33.045 48.2913 32.1954C48.3293 31.4498 48.2564 30.7028 48.075 29.9787C47.9671 29.6545 47.1561 28.573 47.3182 28.1946C47.5345 27.7077 48.4534 27.8162 48.886 27.5999C49.5885 27.2215 49.8048 26.4105 50.2917 25.8158C50.6965 25.3693 51.2223 25.05 51.8052 24.8969C52.6705 24.7349 52.7783 24.8969 53.1025 25.6537C53.8067 27.2749 54.1746 29.0222 54.184 30.7897C54.2018 32.5415 54.1114 34.2928 53.9135 36.0335C53.6429 37.6013 53.5351 37.9797 51.8052 37.9797Z" fill="#FEDB79"/>
<path d="M44.0203 59.7686C45.7502 59.7144 47.5343 60.0928 49.3177 60.147C50.6692 60.147 52.6153 59.7144 53.7505 60.6339C54.7778 61.3906 54.7236 63.6074 54.8857 64.7425C54.9668 65.6236 54.9668 66.5102 54.8857 67.3912C54.8314 68.0401 54.9935 69.4459 54.5615 69.9863C53.8047 70.9052 52.4533 68.0944 51.9664 67.4455C50.9933 66.1482 49.8582 65.0667 48.7766 63.8773C47.7159 62.6513 46.3565 61.7202 44.8301 61.1743C44.4517 61.0123 43.1544 60.6875 42.9917 60.3091C42.7224 59.604 43.4798 59.7686 44.0203 59.7686Z" fill="#B3B3B3"/>
<path d="M13.4212 61.1724C15.0432 61.1182 16.611 61.0103 18.233 60.9561C18.9355 60.9019 19.6387 60.9019 20.3412 60.8483C20.7196 60.8483 22.2874 60.5241 22.6116 60.7404C23.4226 61.2809 21.0438 62.0919 20.6112 62.3624C19.3139 63.1734 18.0161 63.9302 16.8273 64.8491C15.8203 65.7019 14.9297 66.6834 14.1786 67.7683C13.4761 68.7414 12.9892 69.2819 13.0434 67.7683C13.1195 66.2489 12.918 64.7284 12.4487 63.2813C11.907 61.8756 11.4208 61.0103 13.4212 61.1724Z" fill="#B3B3B3"/>
<path d="M38.236 58.8467C35.1303 58.6127 32.0077 58.758 28.9371 59.2794C28.0183 59.4414 27.3151 59.874 26.991 58.901C26.8038 58.3634 26.7483 57.7888 26.8289 57.2253C27.0994 56.7927 27.6399 57.2796 28.0183 57.3874C30.7212 58.1984 33.4248 57.9279 36.1277 57.3332C36.7224 57.1711 37.3714 57.2253 37.9661 57.009C38.5607 56.847 38.9391 56.4143 39.3175 56.9548C39.5338 57.2253 39.5338 58.4683 39.2097 58.6847C39.1548 58.8467 38.1817 58.9533 38.236 58.8467Z" fill="#B3B3B3"/>
<path d="M9.69064 26.247C9.4201 27.5985 9.69064 28.95 9.63641 30.3014C9.58217 31.5451 9.47433 32.8423 9.47433 34.0853C9.56355 35.6928 9.81713 37.287 10.2311 38.8429C10.3389 39.3297 11.0963 42.5731 9.69064 40.9511C8.87963 39.978 8.9881 37.8156 8.77179 36.5719C8.52057 35.0341 8.37602 33.4806 8.33917 31.9228C8.28494 30.5714 7.96079 29.0578 8.1771 27.7057C8.20963 27.056 8.47881 26.4407 8.93387 25.9759C9.20378 25.8686 9.74488 25.5987 9.69064 26.247Z" fill="#B2B2B2"/>
<path d="M55.2655 36.3054C55.806 33.9808 55.4276 31.3863 55.3197 29.0612C55.3172 27.9088 55.1533 26.7626 54.8329 25.6557C54.6708 25.2231 54.2382 24.7904 54.8871 24.5741C55.1577 24.4663 55.5897 24.7904 55.7524 25.0067C56.2928 25.7635 56.0765 27.4398 56.1308 28.3044C56.2386 29.6558 56.3471 31.0073 56.4013 32.3052C56.4555 33.3867 56.9418 35.0624 56.5634 36.0354C56.2928 36.6837 55.157 37.5465 55.2655 36.3054Z" fill="#B2B2B2"/>
<path d="M7.36616 30.6806C7.6367 32.5726 7.14985 34.6814 7.31192 36.6276C7.36616 37.006 7.74454 38.3032 7.14985 38.3575C6.55515 38.4117 6.50091 37.006 6.44731 36.6819C6.10641 34.6954 5.87169 32.6921 5.74414 30.6806C5.74414 30.0859 5.90622 29.0586 6.60939 28.8966C7.69031 28.5724 7.36616 30.0859 7.36616 30.6806Z" fill="#B2B2B2"/>
<path d="M31.3698 55.6018C32.5592 55.6018 34.0186 55.0613 35.1537 55.2777C36.1268 55.4397 36.2353 56.4671 35.3158 56.8454C34.5048 57.1696 31.3692 57.2238 30.6124 56.7376C29.64 56.0351 30.5569 55.6018 31.3698 55.6018Z" fill="#7B8B9A"/>
<path d="M57.6446 27.7611C57.8067 29.3289 57.9687 30.8966 58.0772 32.4102C58.0772 32.7343 58.4014 33.3833 58.023 33.5996C57.4825 33.8701 57.4825 32.8428 57.4283 32.518C57.212 30.8424 57.1041 29.1662 56.9957 27.4905C56.9957 27.22 56.7251 26.3011 57.1577 26.1391C57.6982 25.977 57.6446 27.4905 57.6446 27.7611Z" fill="#B1B1B1"/>
<path d="M32.9913 6.73156C32.9371 7.27203 33.424 8.29934 32.775 8.51566C31.8562 8.7862 31.9098 7.00211 31.8562 6.56949C31.8019 6.02903 31.4778 5.05594 32.343 5.10955C33.1534 5.11018 33.0449 6.13687 32.9913 6.73156Z" fill="#34EAEF"/>
<path d="M32.0734 3.5957C32.8302 3.5957 33.0465 4.73086 32.0734 4.40671C31.4245 4.1904 31.3709 3.70354 32.0734 3.5957Z" fill="#34E1E5"/>
<path d="M32.9911 41.7629C28.2336 42.3034 22.9898 36.8439 23.6387 32.1942C24.3955 26.9504 28.9361 23.9769 34.0185 23.7606C39.1544 23.49 43.2088 28.4639 42.8305 33.4378C42.4521 38.6274 38.0186 41.7629 32.9911 41.7629Z" fill="black"/>
<g filter="url(#filter0_d)">
</g>
<path d="M34.1275 41.006C31.8572 41.0602 29.9104 40.9518 27.9642 39.5461C26.0181 38.1404 24.7208 36.2491 24.7751 33.7618C24.9372 29.2212 27.478 25.5445 32.0735 24.6805C34.2692 24.3462 36.5121 24.8062 38.3989 25.9778C40.1287 27.1129 41.156 29.7616 41.4802 31.7084C41.6661 32.897 41.6035 34.1112 41.2964 35.2744C40.9893 36.4376 40.4444 37.5244 39.6961 38.4664C38.5067 39.8166 36.0195 41.1145 34.1275 41.006Z" fill="#496372"/>
<path d="M28.0185 32.4608C28.3427 29.8121 31.2626 27.0007 34.0191 27.649C36.722 28.2437 38.8309 30.2977 38.6682 33.2176C38.5061 35.9748 35.749 38.1915 32.9924 38.1366C30.2346 38.0319 27.9643 35.0585 28.0185 32.4608Z" fill="black"/>
<path d="M31.3691 32.3575C31.477 30.3028 34.5589 30.3028 34.8289 32.2496C35.2615 34.8441 31.3691 34.9494 31.3691 32.3575Z" fill="#010101"/>
<path d="M33.1549 33.5463C32.1276 33.5463 32.3439 32.0864 33.2092 32.0328C34.3412 31.9237 34.2359 33.4915 33.1549 33.5463Z" fill="#34E7EC"/>
</g>
<defs>
<filter id="filter0_d" x="20.2832" y="63.1387" width="25.5479" height="15.5793" filterUnits="userSpaceOnUse" color-interpolation-filters="sRGB">
<feFlood flood-opacity="0" result="BackgroundImageFix"/>
<feColorMatrix in="SourceAlpha" type="matrix" values="0 0 0 0 0 0 0 0 0 0 0 0 0 0 0 0 0 0 127 0"/>
<feOffset/>
<feGaussianBlur stdDeviation="3"/>
<feColorMatrix type="matrix" values="0 0 0 0 0 0 0 0 0 0 0 0 0 0 0 0 0 0 0.161 0"/>
<feBlend mode="normal" in2="BackgroundImageFix" result="effect1_dropShadow"/>
<feBlend mode="normal" in="SourceGraphic" in2="effect1_dropShadow" result="shape"/>
</filter>
</defs>
</svg>
