<svg width="64" height="64" viewBox="0 0 64 64" fill="none" xmlns="http://www.w3.org/2000/svg">
<circle cx="32" cy="32" r="32" fill="#14CA7B"/>
<mask id="mask0" mask-type="alpha" maskUnits="userSpaceOnUse" x="0" y="0" width="64" height="64">
<circle cx="32" cy="32" r="32" fill="#14CA7B"/>
</mask>
<g mask="url(#mask0)">
<path d="M-8.5322 102.914C-8.49899 100.621 -8.18391 98.3407 -7.59408 96.1245C-7.15226 94.1375 -6.71103 92.1499 -6.21414 90.218C-6.12015 89.9497 -6.11795 89.6577 -6.20789 89.388C-6.29783 89.1183 -6.47481 88.8861 -6.71103 88.7279C-8.42204 87.1821 -10.1336 85.6369 -11.8446 84.1463C-13.2088 82.8293 -14.4471 81.3878 -15.5432 79.8406C-15.9294 79.3437 -16.2617 78.8468 -16.6472 78.3505L-17.1441 77.6884C-17.6911 76.926 -17.9899 76.0135 -17.9997 75.0752C-18.0096 74.1369 -17.7301 73.2183 -17.1992 72.4446C-16.4065 71.0258 -15.4426 69.7096 -14.3291 68.5257C-13.8613 68.0685 -13.4365 67.5693 -13.06 67.0344C-12.1714 65.8233 -11.1737 64.6963 -10.0792 63.6675C-8.69922 62.3426 -7.37436 60.9627 -6.10458 59.6378C-4.8849 58.3636 -3.55485 57.1998 -2.12999 56.1601C0.29882 54.394 2.72763 52.628 5.15645 50.9164C6.20532 50.1979 7.31167 49.5364 8.4683 48.821C8.4683 48.269 8.35814 47.662 8.41322 47.0549C8.48541 45.8134 8.88443 44.6131 9.56986 43.5754C9.81428 43.2361 9.96793 42.8399 10.0162 42.4244C10.0645 42.009 10.0059 41.5881 9.84585 41.2017C9.61204 40.5448 9.48255 39.8554 9.4621 39.1584C9.41387 38.6767 9.45116 38.1903 9.57225 37.7216C9.84824 36.7835 10.2344 35.8999 10.566 35.0168C10.6211 34.9067 10.7319 34.851 10.842 34.7408C11.2839 35.1826 12.3878 34.1338 12.3878 35.403C12.1669 36.4518 11.7808 37.4983 11.6149 38.6047C11.4414 39.9121 11.6725 41.2413 12.2771 42.4134C13.7672 46.0013 16.5827 47.8781 20.0047 49.4239C22.6544 50.638 25.5245 51.2456 28.1191 52.4047C28.8375 52.7908 29.6092 52.5705 30.327 52.6256C30.6355 52.58 30.9502 52.6062 31.2469 52.7019C31.5437 52.7976 31.8143 52.9604 32.038 53.1775C32.2039 53.3434 32.4798 53.5637 32.59 53.4535C33.3084 52.9016 34.0268 53.4535 34.7452 53.4535C35.6283 53.5637 36.4562 53.8397 37.3393 54.0055C39.8232 54.4473 42.1418 54.2264 44.0181 52.2945C44.6653 51.7037 45.4395 51.2693 46.281 51.0247C47.8563 50.4501 49.2808 49.5257 50.4473 48.321C51.6138 47.1164 52.4919 45.6629 53.0155 44.0699C54.0905 41.1956 54.149 38.0398 53.1813 35.1276C52.8873 34.347 52.7015 33.5298 52.6294 32.6988C52.723 32.3314 52.7215 31.9462 52.6249 31.5796C52.5283 31.2129 52.3399 30.877 52.0774 30.6034C51.6896 30.2424 51.404 29.7853 51.2494 29.2785C51.1393 28.7816 51.1943 28.3955 51.8565 28.6164C52.6528 29.5134 53.2542 30.5659 53.6226 31.7074C53.8097 32.2542 54.0309 32.7889 54.2847 33.3082C54.3398 33.4184 54.4505 33.5291 54.4505 33.6393C54.5607 34.8534 55.2785 35.7346 55.9406 36.6751C56.3766 37.2417 56.7819 37.8312 57.1547 38.4412C57.5792 39.1177 57.7907 39.9061 57.7618 40.7042C57.9276 43.3539 57.2098 45.8378 56.5477 48.3768C56.4926 48.6528 56.3818 48.8737 56.3268 49.1497C56.28 49.3386 56.2756 49.5355 56.3138 49.7263C56.352 49.9172 56.4319 50.0972 56.5477 50.2536C58.1485 52.6274 59.6937 55.0005 61.2945 57.4293C61.6807 58.0364 62.013 58.6434 62.3434 59.2511C63.2381 61.0762 64.3302 62.7977 65.6002 64.3847C65.9384 64.7954 66.2343 65.2393 66.4832 65.7095C67.5872 67.6415 69.0222 69.2974 70.2369 71.1742C71.4556 72.9552 73.0354 74.4597 74.8736 75.59C76.3104 76.5282 77.6874 77.5219 79.2344 78.3499C80.6154 79.1173 81.9267 80.0039 83.1533 80.9996C83.8578 81.6004 84.6152 82.1362 85.4163 82.6005C85.676 82.7128 85.9088 82.8792 86.0991 83.0885C86.2895 83.2979 86.433 83.5454 86.5202 83.8146C86.686 84.2564 86.9063 84.4767 87.4032 84.3666C87.7509 84.3207 88.1016 84.3023 88.4521 84.3115C89.1062 84.2478 89.7664 84.3176 90.3926 84.5169C91.0188 84.7161 91.598 85.0406 92.095 85.4705C93.021 86.282 94.0871 86.918 95.2411 87.3474C96.3601 87.7952 97.3075 88.5879 97.9459 89.6103C98.8945 91.0014 99.7078 92.4801 100.375 94.0261C100.816 95.0199 101.093 96.1215 101.976 96.8962C102.031 96.9513 101.976 97.062 101.976 97.1171C101.915 97.1752 101.838 97.2135 101.755 97.2272C101.589 97.2272 101.424 97.1171 101.258 97.1171C100.995 97.0669 100.724 97.1116 100.491 97.2432C100.258 97.3748 100.08 97.5847 99.9879 97.8355C99.4742 99.1044 98.8468 100.324 98.1135 101.48C98.0584 101.59 97.9477 101.701 97.9477 101.811C97.8375 102.97 97.4508 104.129 97.7818 105.343C97.9474 106.07 97.9474 106.825 97.7818 107.551C97.616 108.158 97.3957 108.655 96.7329 108.821C96.5583 108.86 96.4026 108.959 96.292 109.1C96.1814 109.24 96.1228 109.415 96.1259 109.594C95.9601 111.416 95.7398 113.182 95.5188 115.004C95.1878 117.708 94.9118 120.413 94.5807 123.173C94.4706 123.892 94.4149 124.663 94.3047 125.381L92.9781 133.33C92.371 137.193 91.819 141.112 91.212 144.977C90.7702 147.791 90.384 150.664 89.9979 153.478C89.7219 155.686 89.4459 157.949 89.1699 160.157C89.0598 160.875 88.8939 161.647 88.8389 162.365C88.5078 166.946 87.8451 171.472 87.238 175.999C87.1829 176.33 87.1279 176.606 87.0722 176.937C86.8157 177.778 86.7778 178.671 86.962 179.531C87.0253 179.917 87.0065 180.312 86.9069 180.69C86.8519 181.242 86.7411 181.849 86.7411 182.401C86.7484 182.82 86.6318 183.233 86.406 183.586C86.1801 183.939 85.855 184.218 85.4713 184.388C84.9518 184.678 84.3556 184.802 83.7633 184.743C83.1711 184.684 82.6113 184.444 82.1595 184.057C81.8856 183.835 81.675 183.544 81.5489 183.215C81.4228 182.885 81.3856 182.528 81.4411 182.18C81.5512 181.352 81.6069 180.524 81.662 179.696C81.6537 179.473 81.6996 179.251 81.7957 179.049C81.8919 178.847 82.0353 178.672 82.214 178.537C82.3854 178.373 82.5225 178.176 82.6172 177.958C82.712 177.74 82.7625 177.505 82.7659 177.267C83.2628 173.128 83.7597 169.043 84.256 164.903C84.7529 160.928 85.1941 156.954 85.6928 152.925C86.1897 148.95 86.6866 144.976 87.1829 140.946C87.79 136.255 88.397 131.618 89.0047 126.926C89.5016 123.062 89.9428 119.199 90.4415 115.39C90.6624 113.624 90.8833 111.912 91.1036 110.146C91.1587 109.76 91.1587 109.373 91.2138 108.987C91.2401 108.862 91.2278 108.731 91.1786 108.613C91.1293 108.495 91.0454 108.394 90.9378 108.325C90.8827 108.325 90.8827 108.27 90.8277 108.215C90.4914 107.953 90.2692 107.571 90.2076 107.15C90.1459 106.728 90.2494 106.299 90.4966 105.952C91.0609 104.799 91.3625 103.536 91.3796 102.253C91.4164 101.994 91.3976 101.731 91.3245 101.48C91.2144 101.204 90.9935 101.038 90.7175 101.204C89.9826 101.662 89.1523 101.945 88.2908 102.031C87.4293 102.117 86.5595 102.004 85.7485 101.701C85.5273 101.614 85.2903 101.574 85.0527 101.583C84.8151 101.593 84.5821 101.652 84.3686 101.756C84.0162 101.947 83.6272 102.061 83.2274 102.089C82.8277 102.118 82.4265 102.061 82.0505 101.922C81.7505 101.843 81.4781 101.683 81.2638 101.459C81.0494 101.235 80.9015 100.956 80.8364 100.652C80.7813 100.376 80.7262 100.155 80.6706 99.8794C80.586 99.48 80.4166 99.1035 80.1737 98.7754V98.7203C80.1186 98.5545 80.0078 98.3893 79.9528 98.2234V98.1684C79.6217 97.8924 79.2906 98.0582 78.959 98.1133C78.0209 98.2791 77.0821 98.4994 76.1452 98.7203C75.4565 98.8856 74.7385 98.8856 74.0499 98.7203C73.7222 98.6687 73.415 98.5282 73.1617 98.3142C72.9084 98.1001 72.7186 97.8206 72.613 97.5062C72.3714 96.9371 72.1865 96.3456 72.0611 95.7402C71.9792 95.3114 72.0072 94.8689 72.1423 94.4539C72.2774 94.0389 72.5154 93.6648 72.834 93.3664C73.3859 92.8695 73.3308 92.8144 72.9998 92.0415C72.6239 91.1512 72.1014 90.3302 71.454 89.6127C70.626 88.6746 69.7981 87.791 68.9701 86.9079C68.6941 86.5769 68.5283 86.6319 68.2517 87.1288C68.3619 87.4048 70.9565 95.1325 70.4596 95.8503C69.4107 97.5062 67.5339 87.7359 67.313 87.6257C67.143 87.5087 67.0244 87.3308 66.9819 87.1288C67.037 86.1351 66.5958 86.1907 65.9881 86.6319C64.1664 88.0688 61.9585 88.6189 59.9164 89.502C58.8144 89.9524 57.6281 90.1595 56.4387 90.109C56.0526 90.054 55.6107 90.054 55.3898 89.6121C55.4449 88.8937 56.1082 88.8937 56.5489 88.7842C58.9547 88.0221 61.3136 87.1189 63.6132 86.0794C65.2141 85.361 65.435 84.8096 64.8273 83.1537C64.1089 81.2768 62.8954 79.5658 62.0135 77.7441C60.4064 74.4003 58.5999 71.1561 56.6039 68.0288C56.383 67.6977 56.2729 67.035 55.7209 67.2559C55.1139 67.4768 54.2308 67.311 53.8441 68.0839C53.7822 68.2041 53.7448 68.3353 53.7339 68.47C53.4579 69.2429 53.2921 70.2361 52.2438 70.2361C51.25 70.2361 50.974 69.298 50.643 68.5251C50.3119 67.7522 50.0359 67.1452 49.263 68.2491C49.0552 68.5106 48.7835 68.714 48.4742 68.8399C48.1648 68.9657 47.8282 69.0097 47.4969 68.9675C46.2828 68.8574 45.7309 69.5195 45.51 70.6234C45.4401 71.1578 45.2912 71.6787 45.0681 72.1692C44.9418 72.4565 44.7324 72.6994 44.4668 72.8666C44.2012 73.0338 43.8917 73.1176 43.578 73.1073C43.2614 73.0839 42.961 72.9582 42.722 72.7491C42.483 72.5401 42.3185 72.259 42.2532 71.9483C42.0588 71.4927 41.9467 71.0062 41.9221 70.5115C41.867 69.1316 40.8732 68.3036 40.156 67.3649C39.825 66.9231 39.6591 67.3098 39.4376 67.475C37.8918 68.6891 37.1746 68.4131 36.8436 66.4812C36.7433 65.5521 36.8373 64.6122 37.1196 63.7214C37.2297 63.2795 37.3955 62.8934 37.5057 62.4516C37.6715 61.8445 38.0026 61.0716 37.5608 60.5747C37.119 60.0778 36.5119 60.6849 35.9599 60.8507C35.7851 60.8854 35.619 60.9545 35.4712 61.0542C35.3235 61.1538 35.1971 61.2819 35.0994 61.4309C35.0017 61.58 34.9348 61.747 34.9024 61.9223C34.8701 62.0975 34.873 62.2775 34.9111 62.4516C34.9661 64.4936 35.132 66.4812 35.187 68.5233C35.2421 69.5722 36.015 69.7931 36.7328 70.0691C37.3949 70.3451 38.73 70.278 38.5091 71.2712C38.3432 72.265 37.0639 71.9459 36.291 71.8902C35.5181 71.8902 34.7452 71.6143 34.1956 72.5524C33.6987 73.4905 33.5335 74.2634 34.0855 75.2572C35.6313 78.293 36.8454 81.4397 38.1702 84.5857C39.5502 87.7874 40.4883 91.2645 42.4208 94.2453C43.2545 95.7055 43.7805 97.321 43.9666 98.9921C44.5736 102.47 45.5674 105.892 45.8434 109.425C46.0089 111.001 46.0643 112.587 46.0092 114.171C45.8434 116.766 46.3403 119.36 46.6163 121.954L46.7821 123.776C46.7821 124.328 46.948 124.659 47.6101 124.383C47.7759 124.328 47.9412 124.217 48.107 124.162L48.4381 123.996C48.537 123.954 48.6299 123.898 48.714 123.83C48.7691 123.775 48.8242 123.775 48.8799 123.72C49.0457 123.61 49.1559 123.499 49.3217 123.389C53.4248 120.606 58.0719 118.724 62.9559 117.869C63.3083 117.833 63.644 117.701 63.9263 117.487C64.2087 117.273 64.4267 116.985 64.5567 116.655C64.8625 115.976 65.1208 115.276 65.3296 114.56C65.3635 114.338 65.4675 114.133 65.6263 113.974C65.7851 113.815 65.9906 113.711 66.2126 113.677C66.6545 113.677 66.8221 113.54 66.931 113.871C67.0412 114.478 67.3705 114.889 67.7572 114.726C68.6047 114.226 69.611 114.068 70.571 114.284C71.3989 114.45 71.5648 113.953 71.3989 113.235C71.32 112.893 71.1703 112.57 70.9593 112.289C70.7484 112.008 70.481 111.774 70.1742 111.603C69.8675 111.431 69.5282 111.326 69.1782 111.293C68.8282 111.26 68.4753 111.301 68.1422 111.413C66.4413 112.037 64.6535 112.391 62.8433 112.462C60.5803 112.462 59.8625 111.965 59.1447 109.868C58.3718 107.605 58.6478 105.176 58.2066 102.804C58.2617 102.528 58.3724 102.252 58.7586 102.252C59.7524 103.025 59.9727 104.129 60.1385 105.288C60.4145 106.778 60.4696 108.324 61.0766 109.759C61.4077 110.477 61.795 110.808 62.6224 110.642C64.2783 110.311 66.045 110.311 67.6453 109.593C68.3637 109.262 69.191 109.372 69.9633 109.317C71.7851 109.151 72.2263 108.544 72.0054 106.723C71.6192 103.577 70.6255 100.54 70.1836 97.3943C70.0647 96.9252 70.0274 96.4392 70.0735 95.9575C70.1836 95.6815 69.6873 93.3077 70.0735 93.3634C70.1285 93.4736 70.7356 95.6264 70.7919 95.7922C71.5103 98.606 72.4478 101.367 72.9998 104.238C73.1656 105.121 73.4416 106.059 73.6619 106.942C73.7896 107.319 73.8261 107.72 73.7686 108.114C73.711 108.507 73.561 108.881 73.3309 109.205C72.558 110.309 72.558 111.524 72.7238 112.793C72.834 113.512 72.9447 114.283 73.0549 115.001C73.0825 115.166 73.0825 115.334 73.0549 115.498C72.5029 117.209 71.8958 118.921 70.295 120.025C69.3012 120.743 68.4181 121.626 67.3693 122.288C67.0731 122.482 66.8118 122.725 66.5964 123.006C66.5303 123.05 66.4743 123.107 66.4322 123.174C66.3902 123.241 66.363 123.316 66.3525 123.395C66.3421 123.473 66.3486 123.553 66.3717 123.629C66.3948 123.705 66.4338 123.775 66.4862 123.834C66.7108 124.312 66.969 124.773 67.2591 125.214C68.1422 126.263 68.8049 127.422 69.5772 128.526C69.8086 128.844 69.9076 129.24 69.8532 129.63C69.7156 130.944 69.438 132.239 69.0252 133.494C68.7497 134.182 68.4173 134.847 68.0314 135.481C67.6971 136.06 67.4726 136.696 67.3693 137.357C67.1435 138.851 66.8114 140.327 66.3755 141.773C66.2096 142.435 66.0995 143.153 65.9893 143.869C65.9343 144.2 66.0444 144.531 66.3755 144.587C67.1281 144.838 67.8509 145.172 68.5307 145.581C68.9168 145.747 71.7037 147.262 71.4271 147.317C70.3231 147.096 68.2541 147.018 67.4268 146.243C67.2897 146.12 67.1419 146.009 66.9849 145.912C66.6539 145.746 66.212 145.415 65.9361 145.857C65.6601 146.354 66.212 146.243 66.5982 146.354C67.3711 146.685 67.9781 147.458 68.7534 147.734C69.2822 147.874 69.7852 148.097 70.2435 148.396C70.8506 149.003 70.2986 149.555 69.5251 149.942C69.2833 150.055 69.0191 150.111 68.7522 150.107C66.5927 150.2 64.4318 149.957 62.3464 149.389C62.0704 148.727 62.8984 148.782 63.0085 148.395C64.0023 145.911 64.1676 143.262 64.8303 140.668C65.3823 138.405 65.7684 136.086 66.3761 133.823C66.7622 132.386 67.5902 131.118 67.6459 129.572C67.7009 128.468 67.5908 127.585 66.7628 126.812C64.9754 125.282 63.5437 123.379 62.5679 121.238C62.4095 120.869 62.1353 120.561 61.7867 120.362C61.4382 120.163 61.0342 120.083 60.636 120.134C59.4381 120.167 58.2575 120.429 57.1583 120.907C55.7784 121.514 54.3984 122.286 53.0736 123.002C52.3007 123.444 52.2456 123.885 52.7425 124.603C54.0123 126.424 55.3366 128.135 56.4411 130.067C56.662 130.398 57.1032 130.564 57.1595 131.006C57.1853 132.157 57.4682 133.289 57.9875 134.317C58.7059 135.697 58.5395 137.187 58.2084 138.568C57.6215 141.196 56.8469 143.778 55.8903 146.296C55.5042 147.234 55.7802 147.565 56.7183 147.732C57.6564 147.899 58.6502 147.732 59.4231 148.505C58.9262 149.333 58.0982 148.947 57.381 149.057C54.8971 148.781 52.3582 148.671 50.0395 147.677C49.3211 147.401 48.2734 147.18 48.4937 146.187C48.6596 145.193 49.7078 145.193 50.5358 145.138C51.4188 145.083 52.3019 145.193 53.1855 145.083C53.6824 145.028 54.2344 144.807 54.1793 144.255C54.1242 143.648 53.5172 143.758 53.1304 143.758C50.6128 143.806 48.1394 144.429 45.8997 145.58C45.5035 145.87 45.0529 146.076 44.5748 146.187C44.3539 146.132 44.1887 146.021 44.2438 145.745C45.1819 144.586 46.5067 144.034 47.9424 143.59C49.6534 143.038 51.4745 142.872 53.2412 142.431C53.7141 142.337 54.1964 142.3 54.678 142.321C54.8359 142.33 54.9922 142.286 55.1223 142.196C55.2524 142.106 55.3488 141.975 55.3964 141.824C55.5673 141.466 55.7149 141.097 55.8382 140.72C56.3256 138.695 56.4007 136.593 56.0592 134.538C55.6653 132.804 54.7619 131.227 53.4651 130.011C53.3505 129.88 53.2039 129.78 53.0396 129.722C52.8752 129.664 52.6986 129.65 52.527 129.68L51.2021 129.846C49.929 130.016 48.6335 129.845 47.4484 129.349C46.872 129.113 46.2428 129.037 45.6267 129.128C44.3018 129.349 42.9219 129.57 41.597 129.79C40.6844 129.955 39.7628 130.065 38.8371 130.121C38.0028 130.177 37.1731 130.288 36.3533 130.452C35.1324 130.663 33.8919 130.737 32.6547 130.673C29.6188 130.563 26.5829 130.618 23.5471 130.673C22.2288 130.681 20.915 130.829 19.6282 131.115C19.4672 131.171 19.2922 131.171 19.1313 131.115C18.1931 130.839 17.1993 131.115 16.2612 130.839C16.0436 130.793 15.8212 130.775 15.5991 130.784C14.4626 130.922 13.3136 130.922 12.1771 130.784C11.7353 130.729 11.5149 130.95 11.5149 131.391C11.5004 132.322 11.6888 133.245 12.0669 134.096C12.5256 135.337 12.8945 136.61 13.1709 137.905C13.6512 140.108 14.4117 142.241 15.4339 144.251C15.6548 144.692 15.82 145.134 16.0409 145.575C16.0867 145.704 16.1795 145.811 16.3008 145.873C16.422 145.936 16.5626 145.951 16.6941 145.914C18.0911 145.719 19.5116 145.776 20.889 146.08C21.6618 146.19 22.4898 146.19 23.2627 146.355C23.7829 146.441 24.2753 146.649 24.6995 146.963C25.6384 147.69 26.4903 148.524 27.2385 149.446C27.6745 150.016 27.9764 150.676 28.1215 151.378C28.4526 152.979 28.7286 154.58 28.2317 156.236C27.9006 157.285 27.9006 158.391 27.4037 159.438C27.2379 159.714 27.4037 160.045 27.5139 160.321C27.9596 161.234 28.2932 162.198 28.5077 163.191C28.5552 163.491 28.6291 163.787 28.7286 164.074C28.954 165.241 28.8391 166.448 28.3975 167.551C28.1969 168.042 28.1583 168.583 28.2873 169.097C28.6745 171.27 29.285 173.396 30.1091 175.443C30.3421 175.959 30.5268 176.495 30.6611 177.044C30.829 177.688 30.7704 178.37 30.4953 178.976C30.3956 179.145 30.3478 179.34 30.3575 179.536C30.3673 179.732 30.4343 179.921 30.5503 180.08C31.1574 181.239 30.9365 182.067 29.8882 182.84C29.2261 183.282 28.6184 183.778 28.0114 184.277C27.2978 184.707 26.5126 185.007 25.6933 185.16C23.2203 185.937 20.6923 186.527 18.1309 186.926C16.813 187.1 15.4856 187.192 14.1563 187.202C12.3902 187.312 10.6241 187.368 8.85744 187.478C6.7046 187.643 4.54047 187.588 2.39896 187.312C1.70435 187.222 1.00385 187.185 0.30361 187.202C-1.35232 187.147 -2.89809 186.65 -4.49894 186.374C-4.97352 186.282 -5.42435 186.094 -5.8238 185.822C-6.23463 185.601 -6.55097 185.239 -6.71353 184.802C-6.87609 184.365 -6.87371 183.883 -6.70684 183.448C-6.58552 183.068 -6.60507 182.656 -6.76192 182.289C-7.09299 181.516 -7.03791 180.633 -7.25882 179.86C-7.29561 179.602 -7.27683 179.338 -7.20374 179.087C-7.11501 178.305 -6.96732 177.53 -6.76192 176.769C-6.30304 174.954 -5.25462 173.343 -3.78113 172.188C-3.39499 171.912 -3.06272 171.691 -2.73226 171.415C-2.51043 171.232 -2.34935 170.987 -2.27043 170.711C-2.19151 170.435 -2.19849 170.141 -2.29044 169.869C-2.89749 168.599 -2.73226 167.275 -2.84241 165.95C-2.87001 165.767 -2.87001 165.581 -2.84241 165.398C-2.45627 164.349 -3.00825 163.521 -3.56082 162.748C-3.84338 162.356 -4.1571 161.987 -4.49894 161.644C-5.02598 161.106 -5.35644 160.406 -5.43706 159.657C-5.50903 158.772 -5.69455 157.9 -5.98903 157.063C-6.10799 156.496 -6.0891 155.909 -5.93396 155.352C-5.61069 154.437 -5.37026 153.496 -5.21555 152.538C-5.12758 151.883 -4.81557 151.278 -4.33251 150.827C-3.0568 149.544 -1.53645 148.53 0.138376 147.846C0.911263 147.515 1.68415 147.294 2.51211 146.963C2.95393 146.797 3.06409 146.577 2.89826 146.135C2.23612 144.203 1.57339 142.326 0.856184 140.395C0.798361 140.135 0.677458 139.893 0.504143 139.691C0.330828 139.489 0.110426 139.332 -0.137611 139.235C-0.438223 139.16 -0.707113 138.991 -0.905518 138.753C-1.10392 138.515 -1.22159 138.22 -1.24156 137.911C-1.34657 137.169 -1.6736 136.476 -2.17968 135.924C-2.39666 135.634 -2.5302 135.29 -2.56583 134.93C-2.67308 134.363 -2.65968 133.78 -2.52651 133.219C-2.39334 132.658 -2.14338 132.131 -1.79294 131.673C-1.42972 131.229 -1.11522 130.747 -0.854822 130.236C-0.789003 130.16 -0.744535 130.067 -0.725912 129.968C-0.707289 129.869 -0.715168 129.767 -0.748753 129.671C-0.782339 129.576 -0.840441 129.492 -0.917192 129.426C-0.993946 129.36 -1.08663 129.316 -1.18589 129.298C-3.42907 128.337 -5.35972 126.77 -6.76072 124.772C-6.87088 124.606 -6.98163 124.496 -6.92656 124.275C-6.70565 123.392 -6.62004 121.073 -6.28897 120.19C-5.73699 120.19 -5.87768 120.936 -5.8226 121.322C-5.71245 121.708 -6.15367 123.226 -5.8226 123.557C-5.23093 123.866 -4.62277 124.142 -4.00084 124.385C-2.6209 125.158 -1.35112 125.323 -0.247169 123.833C-0.0262585 123.557 0.359884 123.226 0.635872 123.391C1.73982 124.109 1.84998 123.17 2.18164 122.563C2.47351 122.023 2.69598 121.448 2.84378 120.852C2.95393 120.466 3.17484 120.079 3.67174 120.19C3.7837 120.205 3.89114 120.244 3.98694 120.304C4.08274 120.364 4.16468 120.443 4.22732 120.537C4.28996 120.631 4.33186 120.738 4.35023 120.849C4.3686 120.96 4.36303 121.075 4.33387 121.184C4.11296 122.288 4.4997 123.392 4.4997 124.496C4.48059 124.807 4.57708 125.114 4.77064 125.359C4.96421 125.603 5.24123 125.768 5.54858 125.82C6.56613 126.133 7.63819 126.227 8.6946 126.096C10.0871 125.838 11.5215 125.918 12.8763 126.331C14.2311 126.745 15.4663 127.478 16.4773 128.47C17.034 128.982 17.707 129.349 18.4381 129.542C19.1691 129.734 19.936 129.745 20.6722 129.574C22.1623 129.298 22.6041 128.746 22.6041 127.2C22.6041 122.012 22.0522 116.823 22.1073 111.579C22.1623 107.494 22.7143 103.41 22.9903 99.325C23.4321 92.9791 25.4742 87.0708 27.7372 81.2199C28.6202 78.9019 30.0001 76.7491 31.2149 74.5412C32.721 72.0206 33.288 69.0488 32.8157 66.1508C32.6499 64.9367 32.4846 63.722 32.4296 62.4522C32.3745 61.8451 32.1536 61.4033 31.4914 61.4584C27.7928 61.8445 24.5917 59.8024 21.059 59.3032C19.7006 59.1547 18.3658 58.8396 17.0844 58.365C15.7313 57.9332 14.5765 57.033 13.8276 55.8261C13.5906 55.3526 13.2511 54.9378 12.8338 54.612C11.7086 53.8359 10.7516 52.8408 10.0201 51.6862C9.41301 50.7481 8.6952 50.5823 7.64633 51.1343C5.86339 52.1024 4.14824 53.1905 2.51271 54.391C-3.76935 58.9238 -9.3508 64.3555 -14.0526 70.5121C-14.8136 71.4287 -15.4967 72.4073 -16.0946 73.4378C-16.4585 74.0497 -16.627 74.758 -16.5776 75.4682C-16.5283 76.1784 -16.2635 76.8567 -15.8186 77.4124C-14.8395 78.6667 -13.7694 79.8473 -12.6169 80.9446C-10.7401 83.0399 -8.86326 85.1951 -6.5452 86.8511C-5.33109 87.7341 -5.10839 87.679 -4.44985 86.4092C-3.23574 83.8703 -1.8558 81.3864 -0.641094 78.8468C0.186869 77.1909 -0.254951 76.5287 -2.13119 76.5287C-2.57301 76.5287 -3.06931 76.5288 -3.23514 75.9768C-3.40097 75.4799 -2.95916 75.2039 -2.57301 74.9279C-2.10052 74.673 -1.55875 74.5762 -1.02724 74.6519C-0.585419 74.707 -0.089119 74.983 0.409575 74.6519C-0.172194 74.2225 -0.858229 73.9565 -1.57742 73.8814C-2.23955 73.7156 -2.51554 73.3845 -2.12939 72.7775C-1.98623 72.5545 -1.8748 72.3127 -1.79833 72.0591C-1.46726 70.9 -0.970366 70.6791 0.133587 71.1209C2.0655 71.8938 2.22894 71.9489 3.39036 70.1272C4.60447 68.1402 5.92933 66.2082 6.53699 63.8896C6.64714 63.5585 6.75789 63.1712 7.14404 63.1167C7.34015 63.0858 7.54091 63.1239 7.71202 63.2246C7.88314 63.3252 8.01397 63.4822 8.08216 63.6687C8.46641 64.2947 8.77508 64.9641 9.00172 65.6628C9.16755 66.4357 8.30307 66.2082 7.69601 66.4291C7.36495 66.5393 7.30987 66.9811 7.14404 67.3122C5.43303 70.9539 3.55619 74.4867 1.78712 78.0721C0.297024 81.0529 -1.3595 83.9786 -2.90467 86.9594C-4.34149 89.8295 -3.67756 90.3814 -0.696772 92.2583C0.0761147 92.7552 0.959154 92.7552 1.78712 93.0862C2.33909 93.2521 3.86092 93.5011 4.08183 94.1088C3.97167 94.5506 2.72584 94.468 2.33909 94.5219C-0.420784 94.6877 -2.46345 93.0317 -4.5606 91.5961C-5.66455 90.8777 -5.60948 90.7682 -5.94054 92.038C-6.84623 95.2973 -7.51036 98.6189 -7.92754 101.976C-8.00004 102.77 -8.11999 103.559 -8.28674 104.338C-8.34661 104.501 -8.31428 103.316 -8.58907 103.466C-8.69803 103.466 -8.64295 103.19 -8.5322 102.914Z" fill="black"/>
<path d="M12.1668 35.1864C12.1117 35.0763 12.2219 34.8003 11.8908 34.9105C11.8357 34.9105 11.7806 35.0763 11.725 35.1314C11.3388 35.4624 11.3388 35.4624 11.0066 34.9655C10.9469 34.8632 10.8725 34.7702 10.7856 34.6895C11.327 33.6852 11.9747 32.7418 12.7176 31.8758C13.0514 31.347 13.5305 30.9255 14.0975 30.6617C14.8703 30.2557 15.5768 29.7344 16.1929 29.1159C16.6509 28.7031 17.1729 28.3675 17.7386 28.1221C20.2225 27.0182 22.8172 26.08 25.3561 25.1413C26.9225 24.6492 28.5297 24.2981 30.1587 24.0924C33.2717 23.6415 36.4348 23.6601 39.5423 24.1475C40.4626 24.2833 41.3681 24.5049 42.2471 24.8097C43.627 25.2495 45.0535 25.5273 46.4976 25.6376C46.9773 25.6813 47.4449 25.8122 47.8776 26.0238C48.5314 26.392 49.2144 26.7057 49.9197 26.9619C50.3381 27.0904 50.7256 27.3038 51.058 27.5887C51.3904 27.8736 51.6605 28.2239 51.8516 28.6178C51.5756 28.6729 51.2996 28.728 51.4654 29.1147C51.8051 29.7761 52.2322 30.3889 52.7352 30.9365C52.9266 31.1173 53.0522 31.3567 53.0922 31.617C53.1323 31.8772 53.0844 32.1433 52.9561 32.3733C52.9061 32.456 52.8866 32.5537 52.901 32.6493C52.4592 32.7044 52.3491 32.2631 52.1826 31.9871C51.7462 31.3827 51.3409 30.7562 50.9685 30.1103C49.9197 28.1784 48.2087 27.4055 45.9457 27.0194C47.9305 29.716 49.2711 32.8316 49.8646 36.127C50.1956 37.7829 50.6375 39.4939 50.1406 41.2055C50.0304 41.5916 50.0855 42.1436 49.4784 42.1993C48.6505 42.0335 48.6505 41.2612 48.4296 40.6535C48.2432 39.9409 48.2817 39.1882 48.5397 38.4983C48.8157 38.2223 48.9815 38.3881 49.0366 38.7192C49.0643 39.142 49.0643 39.5662 49.0366 39.989C49.0199 38.9554 48.9462 37.9235 48.8157 36.8981C48.8708 37.3399 49.0366 37.7811 48.7606 38.1678C47.9327 38.1678 48.1536 37.5057 48.0985 37.0639C47.3801 33.3102 46.0031 29.8882 43.3516 27.0726C42.634 26.2976 41.6854 25.775 40.6468 25.5825C34.52 24.3128 28.6135 25.1407 22.7627 27.4043C19.5059 28.5633 16.8011 30.5503 14.2615 32.7588C13.713 33.2723 13.2477 33.8679 12.8822 34.5243C12.7188 34.8003 12.6637 35.2421 12.1668 35.1864Z" fill="#240B0D"/>
<path d="M-5.77243 123.946C-5.88285 122.863 -5.88285 121.772 -5.77243 120.689C-5.71735 119.585 -5.55152 118.534 -5.55152 117.432C-5.55152 116.494 -5.22045 116.107 -4.28173 116.107C-2.79293 115.951 -1.29014 115.988 0.18915 116.218C0.851282 116.383 1.45893 116.052 2.12107 116.107C3.61116 116.218 5.10186 116.218 6.59195 116.438C6.75778 116.438 6.92302 116.494 7.08885 116.494C11.3394 116.604 11.8357 116.162 12.3877 112.409C13.1061 107.662 14.0987 102.97 15.0374 98.2801C15.2583 97.066 14.9823 96.5691 13.7126 96.6242C10.6767 96.7344 7.91681 95.7962 5.10185 94.9132C4.54988 94.6372 3.83207 94.6923 3.39085 94.0852C2.65182 93.6886 1.848 93.4269 1.01711 93.3124C-0.748968 92.9262 -2.07383 91.8223 -3.34361 90.6626C-3.46535 90.5294 -3.55773 90.3721 -3.61476 90.2009C-3.67179 90.0297 -3.69221 89.8484 -3.67468 89.6688C-3.65601 88.8303 -3.46827 88.0042 -3.1227 87.24C-2.57073 86.2462 -2.01875 85.253 -1.52186 84.2042C-0.0317593 81.2784 1.51401 78.2977 3.00471 75.3725C3.55668 74.3237 4.16373 73.2772 4.71571 72.2259C5.70951 70.1839 6.64763 68.1963 7.64142 66.1542C7.80725 65.768 7.86233 65.768 8.24848 66.044C8.35863 66.1542 8.46939 66.2099 8.57954 66.1542C8.63462 66.1542 8.6897 65.9884 8.6897 65.9333C8.58607 65.1071 8.34317 64.3045 7.97129 63.5595C7.91622 63.4494 7.75038 63.3937 7.64023 63.3386C7.55922 63.3057 7.46877 63.3044 7.38689 63.3352C7.30501 63.3659 7.23772 63.4263 7.19841 63.5045C7.15289 63.6659 7.13428 63.8338 7.14333 64.0014C7.17891 64.3982 7.06036 64.7935 6.81226 65.1053C6.09386 66.4853 5.37545 67.8101 4.65704 69.1901C4.23896 70.0198 3.69941 70.7825 3.05619 71.453C2.89036 71.6189 2.7802 71.7841 2.61437 71.9499C2.39116 72.1626 2.0947 72.2812 1.78641 72.2812C1.47812 72.2812 1.18165 72.1626 0.958445 71.9499C0.792612 71.8398 0.627378 71.6189 0.461546 71.5081C0.282043 71.3722 0.0775013 71.273 -0.140383 71.2162C-0.358267 71.1593 -0.585213 71.1461 -0.808237 71.177C-0.895732 71.1663 -0.984425 71.1823 -1.0627 71.2228C-1.14097 71.2634 -1.20518 71.3266 -1.24691 71.4042C-1.28865 71.4819 -1.30596 71.5703 -1.29659 71.658C-1.28721 71.7456 -1.25159 71.8284 -1.19438 71.8955C-0.973471 72.2265 -0.863316 72.3924 -1.24946 72.6139C-1.30454 72.6689 -1.41529 72.724 -1.47037 72.7797C-1.69128 72.9455 -1.91219 73.1108 -1.85651 73.3867C-1.80144 73.7178 -1.47037 73.7178 -1.19438 73.6627C-0.665226 73.6418 -0.13784 73.736 0.351391 73.9387C0.649899 74.0299 0.917379 74.2019 1.12428 74.4356C1.21396 74.5062 1.28215 74.6004 1.32118 74.7077C1.36021 74.8149 1.36852 74.931 1.34519 75.0427C1.29011 75.3187 1.01412 75.2636 0.793211 75.3187C0.303753 75.3541 -0.187387 75.2786 -0.643602 75.0978C-0.981154 74.995 -1.33874 74.9764 -1.68512 75.0437C-2.03149 75.1111 -2.3561 75.2622 -2.6306 75.4839C-2.71089 75.523 -2.77606 75.5875 -2.816 75.6673C-2.85594 75.7472 -2.86842 75.838 -2.85151 75.9257C-2.81785 76.0287 -2.75054 76.1173 -2.66041 76.1773C-2.57028 76.2374 -2.46257 76.2654 -2.35461 76.2568C-2.09198 76.2786 -1.82781 76.2409 -1.58172 76.1466C-0.477772 75.6497 0.51363 76.6435 0.295115 78.0235C0.236958 78.2746 0.144068 78.5164 0.0191288 78.7419C-1.41769 81.5556 -2.85151 84.4293 -4.28652 87.243C-4.39668 87.4639 -4.50743 87.6292 -4.61759 87.8501C-4.78342 88.1261 -4.94866 88.1811 -5.27972 88.0159C-6.7859 87.1716 -8.14649 86.0906 -9.30939 84.8142C-11.1311 82.9374 -12.9523 80.9504 -14.719 79.0185C-15.504 78.2502 -16.1239 77.3298 -16.5407 76.3137C-16.6825 75.9613 -16.7508 75.5837 -16.7413 75.204C-16.7318 74.8243 -16.6449 74.4506 -16.4857 74.1058C-16.1129 73.2669 -15.6502 72.471 -15.1057 71.732C-13.3947 69.6367 -11.7388 67.5371 -10.0272 65.4394C-9.7803 65.119 -9.50302 64.8233 -9.19923 64.5563C-7.65346 63.0106 -6.10828 61.5205 -4.61759 59.9747C-3.75174 59.1056 -2.8298 58.2942 -1.85771 57.5459C0.736338 55.614 3.22083 53.5713 5.92503 51.8585C6.91883 51.2514 8.02038 50.8647 9.01598 50.3127C9.0667 50.2836 9.12266 50.2649 9.18065 50.2575C9.23865 50.2501 9.29753 50.2542 9.35393 50.2696C9.41033 50.285 9.46313 50.3114 9.50931 50.3473C9.55548 50.3831 9.59413 50.4277 9.62303 50.4786C10.0092 51.197 10.6719 51.6376 11.1131 52.3554C11.5727 53.1091 12.1952 53.7504 12.9349 54.2322C13.5311 54.6075 14.0094 55.1432 14.3148 55.778C14.902 56.7886 15.8174 57.5678 16.9089 57.9859C17.6916 58.3084 18.5055 58.5491 19.3377 58.7043L24.6365 59.8633C25.4526 60.0373 26.2482 60.2963 27.0103 60.6362C27.9765 61.0852 29.037 61.2935 30.1012 61.2433C30.8741 61.1882 31.7021 61.1882 32.475 61.1882C32.9168 61.1882 33.082 61.354 33.082 61.6851C33.2478 63.7272 33.4131 65.7148 33.5789 67.7568C33.7563 70.1554 33.1771 72.5492 31.923 74.6015C31.4812 75.4294 31.0399 76.2023 30.5981 77.0303C30.1166 78.0708 29.546 79.0677 28.8925 80.0099C28.6716 80.3504 28.504 80.7227 28.3956 81.1138C27.5676 83.3768 26.6846 85.5847 26.0219 87.8483C25.3597 90.0035 24.8628 92.209 24.3659 94.3618C23.9272 96.5649 23.6505 98.7971 23.538 101.041C23.3171 103.745 23.0961 106.395 22.8758 109.099C22.8287 109.502 22.8103 109.908 22.8208 110.313C22.8758 114.012 22.9309 117.71 23.0967 121.409C23.2069 123.451 23.2626 125.438 23.3727 127.48V128.418C23.3993 128.615 23.3519 128.814 23.2396 128.977C23.1274 129.14 22.9585 129.256 22.7657 129.302C22.5496 129.36 22.3445 129.453 22.1586 129.578C21.7634 129.858 21.3112 130.048 20.8341 130.134C20.3571 130.22 19.867 130.2 19.3988 130.074C18.2438 129.948 17.1697 129.42 16.3629 128.584C15.436 127.704 14.3229 127.044 13.1061 126.652C12.2267 126.319 11.2794 126.206 10.3462 126.321C9.12384 126.533 7.87577 126.552 6.64763 126.376C6.15073 126.266 5.65383 126.156 5.10185 125.99C4.90772 125.961 4.73186 125.859 4.6092 125.706C4.48654 125.552 4.42604 125.358 4.43972 125.162C4.38465 123.782 3.88775 122.402 4.32957 120.967C4.38465 120.747 4.16374 120.526 3.83267 120.471C3.61176 120.415 3.44653 120.526 3.44653 120.691C3.44653 122.237 2.45273 123.396 1.73552 124.61C1.68044 124.72 1.51461 124.72 1.40446 124.72C1.34938 124.72 1.2943 124.61 1.2943 124.5C1.23922 124.224 1.40446 123.837 1.01831 123.672C0.576492 123.451 0.466335 124.003 0.245426 124.169C-0.0767059 124.454 -0.372265 124.768 -0.637615 125.107C-0.771482 125.293 -0.968801 125.424 -1.19242 125.474C-1.41603 125.525 -1.65052 125.493 -1.85172 125.383C-2.18279 125.272 -2.51385 125.107 -2.84552 124.996C-3.84051 124.664 -4.83431 124.277 -5.77243 123.946Z" fill="#80A5B4"/>
<path d="M47.0526 125.106C46.8868 125.216 46.7216 125.051 46.6665 124.885C46.6114 124.664 46.2247 119.475 45.9481 117.102C45.8194 115.91 45.801 114.709 45.893 113.514C45.9204 112.242 45.865 110.97 45.7272 109.705C45.433 107.03 44.9722 104.375 44.3472 101.757C43.9611 99.8801 43.5743 97.9481 43.0224 96.0695C42.8291 95.2952 42.492 94.5641 42.0286 93.9143C41.1499 92.6435 40.5136 91.2214 40.1517 89.7194C39.9175 88.8299 39.5647 87.9759 39.1029 87.1804C38.4663 86.1321 37.9825 84.9984 37.666 83.8135C37.108 81.9167 36.3494 80.0848 35.4031 78.3488C35.1638 77.9716 34.9781 77.563 34.8511 77.1347C34.5361 76.2658 34.1291 75.4331 33.637 74.6508C33.4946 74.4832 33.4119 74.2729 33.4019 74.0532C33.3919 73.8334 33.4552 73.6166 33.5819 73.4367C33.8579 72.9398 34.0788 72.3878 34.3548 71.8909C34.6859 71.2839 34.8517 71.2288 35.5138 71.339C36.3298 71.5226 37.1743 71.5414 37.9977 71.394C38.131 71.376 38.2611 71.3389 38.3838 71.2839C38.4457 71.2299 38.4856 71.155 38.4957 71.0735C38.5059 70.992 38.4857 70.9096 38.4389 70.8421C38.1203 70.593 37.7374 70.4398 37.335 70.4002C36.783 70.2746 36.2462 70.0896 35.7341 69.8483C35.522 69.7843 35.3368 69.6524 35.207 69.4728C35.0772 69.2932 35.01 69.076 35.0157 68.8545C35.0157 68.6886 34.9606 68.5234 34.9606 68.3025C35.0708 66.8657 34.6847 65.4887 34.9056 64.0519C34.9305 63.3494 34.8748 62.6464 34.7397 61.9566C34.712 61.6997 34.712 61.4406 34.7397 61.1837C34.7318 61.0679 34.7668 60.9532 34.838 60.8616C34.9092 60.7699 35.0117 60.7077 35.1259 60.6868C36.064 60.3557 36.9476 60.0797 37.8858 59.8037C38.2719 59.6936 38.4928 59.9139 38.4377 60.3006C38.339 61.2533 38.1542 62.195 37.8858 63.1144C37.4083 64.2655 37.2555 65.5254 37.4439 66.7573C37.5541 67.2542 37.6098 67.8062 38.1623 67.9163C38.6592 68.0265 39.0454 67.6404 39.3764 67.2542C39.4315 67.1991 39.4315 67.1991 39.4315 67.1441C39.7075 66.813 39.7626 66.1503 40.2595 66.261C40.6456 66.3161 40.5906 66.9231 40.7013 67.3099C40.7498 67.481 40.8413 67.6368 40.9671 67.7626C41.0928 67.8883 41.2486 67.9798 41.4197 68.0283C41.6276 68.0992 41.8084 68.2329 41.9371 68.4109C42.0657 68.5889 42.136 68.8025 42.1381 69.0221C42.2483 69.6291 42.359 70.2362 42.5243 70.8439C42.6014 71.3167 42.7309 71.7796 42.9104 72.2238C42.9721 72.3681 43.0699 72.494 43.1944 72.5895C43.3189 72.685 43.4659 72.7468 43.6212 72.769C43.7765 72.7912 43.9349 72.773 44.0812 72.7162C44.2274 72.6594 44.3566 72.5659 44.4562 72.4447C44.7779 72.1476 45.0077 71.7645 45.1183 71.3408C45.1781 70.9111 45.2703 70.4866 45.3943 70.071C45.4589 69.6751 45.6097 69.2982 45.8361 68.967C45.9209 68.7838 46.0654 68.6348 46.246 68.5445C46.4266 68.4542 46.6325 68.428 46.8299 68.4701C47.1383 68.5372 47.4525 68.5741 47.768 68.5803C48.1507 68.5813 48.5257 68.4727 48.8485 68.2673C49.1714 68.0619 49.4286 67.7683 49.5898 67.4212C49.64 67.2462 49.7143 67.0789 49.8107 66.9243C49.9765 66.6484 50.2525 66.5933 50.4178 66.8693C50.6938 67.4763 51.0248 68.0283 51.3008 68.6354C51.4672 69.0461 51.7111 69.4209 52.0192 69.7393C52.0825 69.8011 52.158 69.8491 52.2408 69.8801C52.3237 69.911 52.4121 69.9244 52.5004 69.9192C52.5888 69.914 52.675 69.8904 52.7537 69.85C52.8324 69.8095 52.9017 69.753 52.9573 69.6842C53.2527 69.3043 53.477 68.8741 53.6195 68.4144C53.6745 68.1385 53.7296 67.9175 53.7853 67.6416C53.8955 67.1447 54.1164 66.9794 54.6683 67.0896C54.8783 67.1413 55.0986 67.1325 55.3037 67.0642C55.5088 66.9958 55.6904 66.8707 55.8274 66.7034C56.2692 66.3173 56.4344 66.3724 56.7104 66.8693C56.9864 67.3111 57.2073 67.8074 57.4288 68.2492C57.8428 69.0255 58.3235 69.7642 58.8656 70.4571C59.2307 70.9583 59.545 71.4945 59.8037 72.058C60.9077 74.1533 62.0116 76.3085 63.1156 78.4039C63.6125 79.2869 64.0537 80.17 64.6057 81.0536C65.0885 81.8989 65.4948 82.7857 65.8198 83.7033C66.206 84.6415 65.9856 85.1402 65.1577 85.7454C64.783 85.9693 64.396 86.1719 63.9986 86.3525C61.4252 87.5246 58.7681 88.5037 56.0495 89.2818C55.9944 89.2818 55.8836 89.3919 55.8286 89.4476C53.8966 90.6066 53.8966 90.6066 54.8348 92.7595C55.4969 94.2495 56.0489 95.7953 56.6009 97.286C56.9978 98.5034 57.535 99.6705 58.2017 100.764C58.5507 101.369 58.7406 102.052 58.7537 102.751C59.0822 104.162 59.2489 105.607 59.2506 107.056C59.3331 108.343 59.6709 109.6 60.2444 110.754C60.3927 111.122 60.6549 111.433 60.9925 111.642C61.3302 111.85 61.7257 111.946 62.1212 111.913C64.2863 112.006 66.447 111.649 68.4671 110.864C69.115 110.653 69.8175 110.681 70.446 110.945C71.0744 111.209 71.5868 111.69 71.8891 112.301C72.0759 112.8 72.2054 113.319 72.2753 113.847C72.2937 113.948 72.2883 114.052 72.2595 114.15C72.2308 114.248 72.1795 114.339 72.1098 114.414C72.04 114.489 71.9537 114.546 71.8577 114.582C71.7618 114.618 71.6587 114.631 71.5569 114.62C71.2958 114.614 71.0363 114.577 70.784 114.51C70.3514 114.346 69.8829 114.301 69.427 114.379C68.971 114.456 68.544 114.654 68.19 114.952C67.9694 115.113 67.7276 115.243 67.4715 115.338C67.3987 115.362 67.3212 115.37 67.2451 115.359C67.1689 115.349 67.0961 115.322 67.0322 115.279C66.9683 115.237 66.915 115.18 66.8764 115.113C66.8377 115.047 66.8148 114.973 66.8094 114.896C66.8094 114.62 66.8645 114.289 66.8645 114.013C66.8645 113.903 66.6987 113.792 66.5885 113.737C66.5293 113.712 66.4632 113.71 66.4023 113.73C66.3414 113.75 66.29 113.792 66.2574 113.847C66.1328 114.033 66.0395 114.238 65.9814 114.454C65.8713 115.503 65.0984 116.386 64.9326 117.435C64.9067 117.542 64.8518 117.64 64.7739 117.718C64.6959 117.796 64.5979 117.851 64.4908 117.877C64.2773 117.958 64.0551 118.013 63.8286 118.043C61.8967 118.153 60.0749 118.871 58.2011 119.479C55.614 120.336 53.1326 121.484 50.8045 122.901C50.3621 123.174 47.4388 124.94 47.0526 125.106Z" fill="#80A5B4"/>
<path d="M12.1666 35.1868C12.5528 34.745 12.4977 34.1379 12.885 33.6967C13.3764 33.1225 13.9117 32.5873 14.4859 32.0959C15.5898 31.2679 16.6938 30.3298 17.7427 29.3911C18.0802 29.1078 18.4509 28.8665 18.8466 28.6727C19.8404 28.2308 20.8336 27.7896 21.8825 27.2927C24.5807 26.0981 27.4176 25.2453 30.3274 24.7543C32.8113 24.2574 35.2963 24.4233 37.8341 24.6442C39.1009 24.7342 40.3572 24.9374 41.5878 25.2512C41.9388 25.3217 42.2751 25.4523 42.5816 25.6374C43.4646 26.4653 44.4033 27.1832 44.9553 28.2871C45.1762 28.7289 45.5624 29.1151 45.8384 29.612C46.6112 31.0488 47.4392 32.482 47.7152 34.0829C47.7929 34.52 47.9225 34.9463 48.1013 35.3526C48.3491 35.9654 48.462 36.6243 48.4324 37.2846C48.4324 37.5605 48.4324 37.8365 48.6533 38.003C48.7084 38.058 48.7635 38.1131 48.7084 38.1688C48.7084 38.2239 48.7084 38.2789 48.6533 38.2789V40.6527C48.5193 42.6135 47.7434 44.4757 46.4454 45.9515C45.3965 47.1106 44.4033 48.3803 42.9677 49.0976C40.4868 50.6856 37.737 51.8077 34.8533 52.4088C32.5903 52.9608 30.2717 52.7399 27.9536 52.5746C26.2977 51.9125 24.6418 51.4707 22.9308 50.9738C22.2412 50.841 21.5959 50.5373 21.0539 50.0908C20.5652 49.6475 19.945 49.3761 19.2878 49.3179C18.6813 49.1985 18.1129 48.9333 17.6319 48.545C16.7489 47.993 15.8658 47.386 14.9822 46.834C14.2557 46.4024 13.6926 45.7425 13.3807 44.9571C13.1568 44.3425 12.8404 43.7655 12.4426 43.2461C12.022 42.6806 11.7044 42.0452 11.5045 41.3693C11.2471 40.5301 11.1538 39.6492 11.2297 38.7746C11.3329 37.5336 11.6499 36.3198 12.1666 35.1868Z" fill="#A52D37"/>
<path d="M67.5317 69.63C67.949 69.9559 68.2885 70.3707 68.5255 70.8442C68.8172 71.4389 69.2309 71.9656 69.7396 72.3899C70.281 72.8399 70.7971 73.3196 71.2853 73.8267C71.5335 74.0637 71.8114 74.2673 72.1121 74.4326C73.0238 74.8994 73.8762 75.4738 74.6511 76.1436C75.9233 77.1631 77.2703 78.0857 78.6807 78.9035C80.4176 80.0242 82.0777 81.2598 83.6497 82.6021C83.9808 82.8781 83.9808 82.9882 83.7048 83.2091C82.3567 84.1979 81.1169 85.3265 80.0062 86.5761C78.5846 88.1303 77.3609 89.8546 76.3633 91.7097C76.0215 92.2849 75.7439 92.8958 75.5353 93.5314C75.5233 93.6631 75.4758 93.789 75.3981 93.8959C75.3203 94.0027 75.215 94.0866 75.0935 94.1385C75.0117 94.0706 74.945 93.9865 74.8975 93.8915C74.85 93.7965 74.8227 93.6926 74.8175 93.5865C74.4242 91.6313 73.5085 89.8192 72.1678 88.3428C71.0439 86.9704 69.7865 85.713 68.4141 84.5891C67.537 83.8499 66.7244 83.0374 65.9853 82.1603C65.6221 81.7163 65.3076 81.2346 65.0472 80.7234C63.1703 76.8596 61.3486 72.9958 59.4197 69.187C58.9778 68.304 58.4259 67.5311 57.9296 66.7031C57.7462 66.3962 57.5434 66.1013 57.3225 65.8201C57.1424 65.5648 57.0368 65.2645 57.0173 64.9527C56.9979 64.6408 57.0654 64.3297 57.2124 64.054C57.4437 63.5756 57.5775 63.0559 57.6059 62.5252C57.6344 61.9945 57.557 61.4635 57.3782 60.9631C57.0471 60.025 56.7711 59.0312 56.4951 58.0374C56.2859 57.2239 56.1566 56.392 56.109 55.5535C56.109 54.8351 55.9432 54.0634 55.8881 53.3456C55.8329 52.9981 55.8329 52.6441 55.8881 52.2967C55.8881 52.1309 56.0539 52.1309 56.1641 52.1309C56.4444 52.2566 56.6766 52.4695 56.8262 52.7379C57.5446 53.7868 58.2061 54.8931 58.9216 55.9396C60.6876 58.4786 62.0682 61.2385 63.9444 63.7224C64.2482 64.1518 64.4553 64.642 64.5515 65.1592C64.5759 65.2877 64.5686 65.4202 64.5301 65.5452C64.4916 65.6703 64.4232 65.784 64.3307 65.8765C64.2382 65.969 64.1245 66.0375 63.9994 66.0759C63.8744 66.1144 63.7419 66.1218 63.6134 66.0973C63.4003 66.0575 63.1952 65.9828 63.0063 65.8764C62.6202 65.6555 62.3442 65.8213 62.0682 66.0973C61.958 66.2074 61.7922 66.3733 61.8473 66.5391C61.8555 66.5934 61.8761 66.645 61.9074 66.6901C61.9388 66.7351 61.98 66.7724 62.028 66.7991C62.076 66.8257 62.1294 66.841 62.1842 66.8438C62.239 66.8466 62.2937 66.8368 62.3442 66.8151C63.1773 66.8525 64.0071 66.9447 64.8281 67.0911C65.6009 67.1462 65.8219 67.5329 65.4351 68.2501C65.2693 68.6363 64.9933 69.023 64.8281 69.4091C64.8033 69.4683 64.8008 69.5345 64.821 69.5953C64.8413 69.6562 64.8829 69.7077 64.9382 69.7402H65.1591C65.4902 69.4642 65.7662 69.1331 66.0972 68.8572C66.1242 68.8247 66.158 68.7987 66.1962 68.7808C66.2343 68.7629 66.276 68.7536 66.3182 68.7536C66.3603 68.7536 66.402 68.7629 66.4402 68.7808C66.4783 68.7987 66.5121 68.8247 66.5391 68.8572C66.5941 68.9673 66.5391 69.0781 66.5391 69.2433C66.8139 69.906 67.3658 69.2439 67.5317 69.63Z" fill="#80A5B4"/>
<path d="M54.7804 55.2222C54.7523 56.1488 54.9217 57.0708 55.2773 57.927C55.8732 59.4446 56.2271 61.0464 56.3261 62.6739C56.3236 63.2958 56.2115 63.9125 55.9951 64.4956C55.876 64.8829 55.7091 65.2537 55.4982 65.5996C55.0564 66.4826 55.0564 66.4826 54.1182 66.2066C53.4561 66.0408 53.2352 66.1516 53.0143 66.7586C52.9041 67.0346 52.7934 67.3657 52.6832 67.6417C52.6281 67.8075 52.3522 67.8075 52.2414 67.6967C52.1306 67.586 52.0205 67.4207 51.9103 67.3106C51.722 66.9589 51.5002 66.6261 51.2482 66.3168C50.5397 65.7071 50.0703 64.8661 49.9233 63.9431C49.9233 63.888 49.8132 63.7772 49.7575 63.7221C49.6927 63.6783 49.6144 63.6588 49.5366 63.6671C49.4815 63.6671 49.4815 63.7221 49.4264 63.7221C49.4264 63.7772 49.3714 63.7772 49.3714 63.8323C49.4815 64.7704 48.9852 65.5433 48.7643 66.3713C48.5985 66.9783 48.1573 67.1442 47.5502 66.9232C47.3845 66.8646 47.2337 66.7704 47.1084 66.6473C46.9832 66.5541 46.8267 66.5135 46.672 66.5341C46.5174 66.5547 46.3769 66.6348 46.2804 66.7574C46.1703 66.8676 46.1146 67.0334 46.0044 67.0334C45.0106 67.4752 44.7347 68.2475 44.6796 69.2413C44.6245 69.7933 44.4036 70.3453 44.2934 70.8972L44.1276 71.3941C44.0815 71.4999 44.0035 71.5886 43.9046 71.648C43.8056 71.7073 43.6906 71.7343 43.5756 71.7252C43.4098 71.6701 43.2446 71.5594 43.2446 71.3941C43.1214 70.8293 43.0292 70.2581 42.9686 69.6831C42.9066 69.0226 42.7581 68.373 42.5267 67.7512C42.4717 67.6411 42.4717 67.5854 42.4166 67.4752C42.3615 66.9783 41.7545 66.8682 41.6437 66.4263C41.5978 65.9863 41.5794 65.5438 41.5886 65.1015C41.5446 64.9042 41.442 64.7249 41.2942 64.587C41.1465 64.449 40.9605 64.359 40.7607 64.3286C40.6336 64.2788 40.4934 64.2736 40.3629 64.3137C40.2325 64.3538 40.1194 64.4369 40.0423 64.5495C39.8764 64.7704 39.7112 65.0464 39.5454 65.3224C39.3795 65.5984 39.1592 65.9294 38.9934 66.2054C38.9383 66.3156 38.7725 66.3156 38.6623 66.3156C38.4965 66.3156 38.4414 66.1498 38.4414 66.0396C38.3835 65.5543 38.4403 65.0622 38.6072 64.6028C38.7731 64.0508 38.9934 63.4988 39.1592 63.0019C39.5381 62.0545 39.7257 61.0414 39.7112 60.0212C39.6561 58.7514 39.8213 57.4822 39.3251 56.2124C39.2976 56.1627 39.2832 56.1067 39.2833 56.0499C39.2833 55.9931 39.2978 55.9372 39.3254 55.8875C39.353 55.8378 39.3928 55.796 39.441 55.7659C39.4892 55.7358 39.5443 55.7185 39.601 55.7155C39.883 55.6074 40.1821 55.5512 40.4841 55.5497C41.9072 55.5019 43.2629 54.9321 44.2928 53.9488C44.7347 53.5627 45.1759 53.1759 45.5626 52.7898C46.0636 52.2929 46.6953 51.9483 47.3844 51.796C47.9023 51.7252 48.385 51.4936 48.7643 51.1339C49.4827 50.5268 50.1443 49.9198 50.8597 49.3121C50.9698 49.2019 51.1357 49.0912 51.2458 48.981C51.3694 48.8945 51.5189 48.8528 51.6695 48.8628C51.8201 48.8728 51.9627 48.934 52.0738 49.0361C52.1839 49.1463 52.2947 49.3121 52.4048 49.4223C53.1468 50.4169 53.7763 51.4907 54.2817 52.624C54.7631 53.3987 54.9408 54.3243 54.7804 55.2222Z" fill="#A52D37"/>
<path d="M31.3759 59.8055C29.8416 59.9722 28.2942 59.6434 26.9601 58.8674C26.699 58.704 26.4033 58.6039 26.0967 58.5751C25.7901 58.5463 25.4809 58.5896 25.194 58.7016C24.5626 58.9044 23.8809 58.8849 23.2621 58.6465C21.9923 58.3705 20.7782 58.0945 19.5084 57.7635C18.5604 57.531 17.6722 57.1011 16.9018 56.5018C16.1314 55.9025 15.4961 55.1474 15.0375 54.2858C14.7396 53.7016 14.2534 53.2348 13.6576 52.9609C12.7201 52.4724 11.8933 51.796 11.2288 50.9739C11.0504 50.7756 10.9016 50.5526 10.787 50.3118C9.95899 48.7338 9.74281 46.9057 10.1799 45.1782C10.2352 44.9663 10.3501 44.7748 10.511 44.6262C10.5256 44.597 10.547 44.5716 10.5734 44.5522C10.5997 44.5328 10.6302 44.5199 10.6625 44.5145C10.6948 44.5092 10.7278 44.5115 10.759 44.5213C10.7902 44.5312 10.8187 44.5482 10.842 44.5711C11.0156 44.6895 11.1655 44.8393 11.2838 45.0129C12.3811 46.4595 13.7498 47.6781 15.3135 48.6008C16.0864 49.0977 16.8593 49.6497 17.6316 50.1466C18.3432 50.6585 19.1236 51.0673 19.9496 51.3607C20.5567 51.5265 21.2194 51.6917 21.8265 51.9126C23.4273 52.4646 25.0832 52.5748 26.629 53.3495C27.559 53.7855 28.5853 53.9755 29.6098 53.9014C30.4417 53.928 31.2631 54.096 32.0386 54.3983C32.4324 54.5944 32.8688 54.6893 33.3084 54.6743C33.8383 54.6991 34.3606 54.8109 34.8542 55.0054C35.4648 55.131 36.0231 55.4389 36.455 55.8884C36.5955 56.0466 36.7639 56.1775 36.9519 56.2746C37.283 56.4404 37.7248 56.5506 37.6703 57.1025C37.6839 57.3853 37.631 57.6674 37.5161 57.9261C37.4011 58.1849 37.2272 58.4131 37.0082 58.5926C36.7979 58.7576 36.5518 58.871 36.2898 58.9237C34.6327 59.4194 33.0869 60.0264 31.3759 59.8055Z" fill="#A52D37"/>
<path d="M49.5915 42.1427C50.0583 40.9105 50.1729 39.5726 49.9226 38.2789C49.7568 37.3959 49.6466 36.4571 49.4808 35.5741C49.1076 33.949 48.5903 32.3605 47.935 30.8272C47.4658 29.5309 46.7319 28.3466 45.7798 27.3495C45.6709 27.2741 45.5799 27.1758 45.5132 27.0614C45.4465 26.947 45.4057 26.8193 45.3937 26.6874C45.3937 26.5216 45.7798 26.4665 46.2216 26.5773C47.1597 26.9083 48.1535 27.2394 49.0923 27.5154C49.5251 27.6352 49.8985 27.9103 50.1411 28.2883C51.1928 29.6458 52.1337 31.0857 52.9549 32.5939C53.2495 34.0579 53.6554 35.4973 54.169 36.8996C54.2318 37.0583 54.269 37.226 54.2792 37.3965C54.4821 39.2903 54.2942 41.2057 53.7272 43.024C53.5063 43.631 53.341 44.2938 53.1752 44.9008C52.9083 45.8345 52.4147 46.6878 51.7384 47.3847C50.4686 48.7646 49.1443 50.1446 47.3777 50.9725C47.0238 51.1528 46.6543 51.3007 46.2737 51.4144C45.4502 51.5948 44.6996 52.0177 44.1185 52.6285C43.8976 52.9045 43.6216 53.1254 43.4001 53.4014C43.071 53.7686 42.6198 54.0039 42.1303 54.0635C41.9059 54.0732 41.6836 54.1102 41.4682 54.1736C39.8122 54.8358 38.2114 54.6155 36.5555 54.1736C35.9246 53.9742 35.2784 53.8264 34.6235 53.7318C34.2925 53.0697 34.8445 53.0134 35.1755 52.8488C35.8939 52.5728 36.6656 52.407 37.3834 52.1867C39.8477 51.7332 42.167 50.6943 44.1459 49.1574C46.1248 47.6204 47.7054 45.6304 48.7546 43.355C49.0396 42.9156 49.1503 42.4187 49.5915 42.1427Z" fill="#A52D37"/>
<path d="M37.6685 52.4648C36.7854 52.7408 35.9575 53.0168 35.0744 53.2928C34.7984 53.3478 34.7434 53.5137 34.7434 53.7346C34.4845 53.7458 34.2251 53.7273 33.9705 53.6795C33.8046 53.6244 33.6394 53.3484 33.4736 53.3484C33.1976 53.3484 33.3634 53.7346 33.1425 53.8453C32.9767 53.9004 32.8114 54.0112 32.6456 53.9555C32.4247 53.9004 32.0385 53.7897 31.9835 53.6244C31.7075 52.8515 31.1004 52.9623 30.4934 52.9623H28.7824C28.6498 52.9713 28.5168 52.9512 28.3927 52.9036C28.2686 52.8559 28.1564 52.7818 28.064 52.6863H30.1593C32.4073 52.6703 34.6401 52.3167 36.783 51.6374C37.7211 51.3614 38.6599 51.0855 39.5429 50.7544C40.26 50.4345 40.9446 50.0464 41.5874 49.5954C42.0843 49.3194 42.4704 48.877 43.1331 48.877C43.575 49.6498 42.9122 49.8707 42.471 50.1467C41.1407 51.0516 39.666 51.7235 38.1103 52.1337C37.9421 52.1888 37.6134 52.0787 37.6685 52.4648Z" fill="#220A0C"/>
<path d="M54.0082 48.1029C53.9498 47.6214 53.9872 47.1331 54.1184 46.6661C54.7947 44.7242 55.3116 42.7304 55.6642 40.7045C55.704 40.4914 55.7786 40.2863 55.8851 40.0975C55.897 40.0583 55.9183 40.0227 55.9473 39.9938C55.9762 39.9649 56.0118 39.9435 56.0509 39.9316C56.1339 39.9453 56.2109 39.9837 56.2718 40.0418C56.5803 40.5757 56.6787 41.2054 56.5478 41.8079C56.382 42.6909 56.2167 43.6296 56.0509 44.5127C55.9688 45.5679 55.7461 46.6074 55.3888 47.6036C55.1679 48.1005 55.3888 48.6525 55.0577 49.1494C54.9784 49.3042 54.886 49.452 54.7817 49.5912C54.6716 49.7571 54.3399 49.7014 54.2297 49.4811C54.123 49.0276 54.049 48.567 54.0082 48.1029Z" fill="#A12C36"/>
<path d="M37.6691 52.4634C37.5589 52.4634 37.5032 52.4083 37.4482 52.4083C37.2823 52.2981 37.338 52.2425 37.5032 52.1874C38.0001 52.0215 38.497 51.8012 38.9933 51.6905C40.4302 51.3594 41.5874 50.5315 42.8021 49.7035C42.9306 49.6219 43.0344 49.5068 43.1024 49.3706C43.1705 49.2345 43.2001 49.0824 43.1882 48.9306C44.2703 48.1701 45.2207 47.2379 46.002 46.1707C46.002 46.1156 46.0571 46.1156 46.1122 46.0606C47.1059 45.4535 47.3819 44.4046 47.7681 43.4665C48.1542 42.5835 48.4865 41.6448 48.8169 40.7617C48.872 40.8719 49.0379 40.9826 49.0379 41.0377C48.9828 41.5346 49.3689 41.7561 49.6449 42.0866C49.7 42.9145 49.2031 43.5767 48.8169 44.2418C48.265 45.2356 47.5472 46.1737 46.9401 47.1124C46.8086 47.2914 46.6607 47.4578 46.4983 47.6093C45.8362 48.3277 45.0615 48.8791 44.4029 49.5963C43.9412 50.0756 43.3443 50.4028 42.6919 50.5344C42.4338 50.5677 42.1875 50.6623 41.9735 50.8104C40.6499 51.8563 39.1592 52.1323 37.6691 52.4634Z" fill="#050102"/>
<path d="M48.764 38.3886C48.7201 38.3237 48.7006 38.2455 48.7089 38.1676V36.5117C49.3159 37.4498 49.4273 38.2778 49.1507 40.3205C48.8747 39.9343 49.0406 39.5476 48.9849 39.1614C48.9849 38.8298 48.9849 38.5538 48.764 38.3886Z" fill="#050102"/>
<path d="M32.0163 59.7144C31.8062 59.5523 31.6673 59.3149 31.6289 59.0523C31.4637 58.3896 31.3529 57.7825 31.2428 57.1204C31.2429 56.9704 31.208 56.8225 31.141 56.6883C31.074 56.5542 30.9766 56.4375 30.8566 56.3475C30.3399 56.0062 29.9063 55.5535 29.5875 55.0226C29.4557 54.7947 29.2599 54.6104 29.0244 54.4927C28.7889 54.375 28.524 54.329 28.2626 54.3605H27.7106C27.294 54.3777 26.8843 54.2495 26.5519 53.9977C26.2195 53.7459 25.9851 53.3863 25.8889 52.9806C25.7961 52.557 25.6072 52.1605 25.3369 51.8215C25.2302 51.6497 25.0847 51.5053 24.9121 51.3999C24.7395 51.2945 24.5446 51.231 24.3431 51.2145C24.1779 51.2145 24.012 51.1043 23.8462 51.1043C23.4461 51.0631 23.0746 50.8781 22.8006 50.5837C22.5265 50.2893 22.3686 49.9055 22.3561 49.5035C22.3561 49.3382 22.301 49.1724 22.301 49.0066C22.2955 48.9638 22.2802 48.9229 22.2562 48.8871C22.2322 48.8513 22.2003 48.8215 22.1629 48.8001C22.1255 48.7787 22.0836 48.7663 22.0406 48.7638C21.9975 48.7613 21.9545 48.7688 21.9149 48.7857C21.5402 49.0095 21.1532 49.2122 20.7558 49.3927C20.3987 49.5722 19.9947 49.6368 19.5994 49.5775C19.204 49.5182 18.8368 49.338 18.5479 49.0617C18.2638 48.8521 18.0597 48.5519 17.9694 48.2106C17.879 47.8694 17.9078 47.5075 18.051 47.1848C18.1612 46.9088 18.327 46.6328 18.4372 46.3569C18.4924 46.1957 18.483 46.0194 18.411 45.865C18.339 45.7106 18.21 45.5902 18.051 45.5289C16.3951 44.756 16.34 44.5908 16.6142 42.8241C16.6543 42.6742 16.6495 42.5159 16.6005 42.3687C16.5514 42.2215 16.4602 42.092 16.3382 41.9961C16.2281 41.886 16.1173 41.7201 16.0072 41.61C15.8756 41.4285 15.8143 41.2055 15.8345 40.9823C15.8548 40.759 15.9552 40.5507 16.1173 40.3959L16.9453 39.5679C16.9959 39.5236 17.0344 39.4671 17.057 39.4037C17.0796 39.3404 17.0857 39.2723 17.0746 39.206C17.0635 39.1396 17.0356 39.0772 16.9936 39.0247C16.9516 38.9721 16.8968 38.9312 16.8345 38.9058C16.7533 38.8302 16.6577 38.7717 16.5534 38.7338C16.4491 38.6958 16.3383 38.6792 16.2275 38.6849C15.4381 38.5798 14.6615 38.3948 13.9094 38.1329C13.1377 37.9351 12.4328 37.535 11.8674 36.9739C11.5209 36.6988 11.2541 36.3364 11.0945 35.9238C10.8185 35.2054 10.4323 34.5989 10.2114 33.8817C9.8989 32.864 9.80485 31.7917 9.93544 30.7351C10.0022 30.4544 9.97951 30.1599 9.87067 29.8928C9.76184 29.6256 9.57224 29.3991 9.32839 29.245C8.98439 29.046 8.70356 28.754 8.51821 28.4025C8.33287 28.051 8.25054 27.6543 8.28071 27.258C8.28533 27.0782 8.22688 26.9024 8.11548 26.7611C7.17736 26.0427 6.62538 24.8292 5.24544 24.8843C4.68207 24.8369 4.13578 24.6673 3.64459 24.3874C3.45919 24.3141 3.29573 24.1944 3.16992 24.0398C3.04411 23.8852 2.96018 23.7008 2.92619 23.5043C2.70528 22.2345 3.58832 20.4134 4.69227 19.9165C5.18917 19.6956 5.68607 19.5303 6.18296 19.3645C6.29312 19.3094 6.45895 19.1993 6.45895 19.1436C6.49117 18.6696 6.68616 18.2212 7.01093 17.8744C7.17676 17.5984 7.01093 17.3775 6.90077 17.156C6.60459 16.7196 6.48617 16.1867 6.56971 15.6659C6.6031 15.3527 6.73232 15.0573 6.93974 14.8202C7.14717 14.5831 7.4227 14.4158 7.72874 14.3411C8.08884 14.2179 8.47018 14.1692 8.84968 14.1977C9.22919 14.2262 9.59896 14.3314 9.93664 14.5069C10.3613 14.7318 10.7675 14.99 11.1513 15.2792C11.2333 15.3318 11.3254 15.3665 11.4217 15.3811C11.5179 15.3956 11.6162 15.3897 11.71 15.3636C11.8038 15.3376 11.8911 15.292 11.9661 15.2299C12.0411 15.1678 12.1021 15.0905 12.1451 15.0032C12.4211 14.617 12.4211 14.1752 12.0901 13.9543C11.9509 13.85 11.8031 13.7576 11.6482 13.6783C11.5081 13.6218 11.3845 13.5308 11.2889 13.4138C11.1932 13.2969 11.1287 13.1576 11.1012 13.009C11.0736 12.8605 11.0841 12.7074 11.1314 12.5639C11.1788 12.4204 11.2617 12.2912 11.3723 12.1882C12.3104 10.9735 13.8011 10.4215 15.457 12.0775C15.7881 12.4085 16.009 12.8504 16.34 13.2365C16.5059 13.4574 16.6711 13.6226 16.8369 13.8436C16.9402 13.9299 17.0731 13.9724 17.2073 13.9622C17.3416 13.9519 17.4664 13.8895 17.5553 13.7885C17.6787 13.6514 17.7895 13.5035 17.8864 13.3467C19.0488 11.5064 20.7428 10.0627 22.744 9.20684C22.8542 9.15176 23.02 9.15176 23.1302 9.04161C24.7173 7.99365 26.5017 7.28065 28.374 6.94626C28.549 6.89605 28.7163 6.8217 28.8708 6.72535C29.2019 6.50444 29.0918 6.22845 28.981 5.95246C28.9277 5.89918 28.9259 5.84649 28.9259 5.74412C28.657 5.4779 28.3207 5.28979 27.9531 5.19993C27.622 5.58607 27.6771 6.19372 27.1802 6.52479C26.6833 6.91093 26.3522 6.91093 26.0212 6.35956L25.8559 6.02849C25.7853 5.86448 25.7743 5.68094 25.8247 5.50964C25.8751 5.33833 25.9838 5.19003 26.1319 5.09037C26.7857 4.65214 27.4382 4.37735 28.2015 4.74254L28.2285 4.70064C28.4623 4.70065 28.6911 4.76854 28.887 4.89607C29.083 5.0236 29.2377 5.20527 29.3324 5.41904C29.3163 5.43521 29.3001 5.45257 29.2839 5.47113C29.3205 5.54895 29.3845 5.59864 29.4222 5.67468C29.4222 5.72975 29.4773 5.72975 29.4773 5.78483C29.5324 6.17098 29.6431 6.55772 30.14 6.66787C30.3371 6.70377 30.5406 6.67474 30.7198 6.58514C30.899 6.49554 31.0443 6.3502 31.1338 6.17098C31.252 6.00775 31.3853 5.85602 31.5319 5.71778C31.6742 5.36725 31.7271 4.98687 31.6858 4.61084C31.6289 3.9499 31.4643 3.78467 30.6914 3.67391C30.4705 3.67391 30.1945 3.67391 30.2496 3.39793C30.2599 3.28928 30.3115 3.18872 30.3936 3.1169C30.4758 3.04508 30.5824 3.00747 30.6914 3.01178C31.0262 2.96716 31.3654 3.05025 31.6417 3.24451C31.9179 3.43877 32.1109 3.72995 32.1821 4.06006C32.3339 4.40978 32.3813 4.79596 32.3185 5.17201C32.2557 5.54806 32.0855 5.89791 31.8283 6.17936C31.8159 6.24232 31.8168 6.30719 31.8311 6.36975C31.8455 6.43231 31.8728 6.49115 31.9114 6.54244C31.95 6.59373 31.9989 6.63631 32.055 6.66741C32.1112 6.69851 32.1732 6.71744 32.2372 6.72295C32.9556 6.88818 33.3962 6.55772 33.9482 6.22605C33.9809 6.21985 34.0142 6.21685 34.0476 6.21707C34.4792 5.67468 34.86 5.13288 35.294 4.59048C35.4042 4.48032 35.5149 4.42525 35.6251 4.5354C35.6807 4.59048 35.7358 4.81139 35.6807 4.86647C35.4537 5.39618 35.1363 5.88237 34.7426 6.30328C34.4259 6.61998 34.6139 6.8355 34.8719 6.99894C35.918 7.00887 36.9457 7.27485 37.8653 7.77362C39.5879 8.49809 41.1059 9.63527 42.2853 11.0849C42.4167 11.264 42.5646 11.4303 42.7271 11.5818C43.0582 11.9128 43.2791 11.9128 43.6102 11.5267C43.9882 11.0932 44.4548 10.7457 44.9785 10.5076C45.5022 10.2696 46.0708 10.1465 46.646 10.1468C46.9564 10.1628 47.2598 10.245 47.5359 10.3877C47.812 10.5305 48.0544 10.7307 48.2469 10.9747C48.3011 11.0462 48.3304 11.1335 48.3304 11.2232C48.3304 11.3129 48.3011 11.4001 48.2469 11.4716C48.1367 11.6369 47.9709 11.8027 48.1367 12.0236C48.3576 12.1343 48.4678 12.0236 48.6336 11.9685C49.659 11.5277 50.7802 11.3566 51.8904 11.4716C53.1602 11.5267 53.6014 11.9685 53.6571 13.2934V14.2315C53.7 14.5124 53.8384 14.7699 54.049 14.9607C54.2595 15.1515 54.5294 15.264 54.8131 15.2792C55.3651 15.2792 55.9721 15.2241 56.5241 15.2792C56.831 15.2956 57.119 15.4324 57.3256 15.6598C57.5323 15.8872 57.641 16.1869 57.6281 16.4939C57.6247 16.9373 57.4687 17.3661 57.1863 17.708C56.7426 18.3004 56.4234 18.9765 56.2481 19.6956C56.0766 20.5257 55.6749 21.2908 55.0891 21.9035C54.8811 22.0773 54.7277 22.3074 54.6473 22.5662C54.59 22.8689 54.4594 23.1529 54.267 23.3935C54.0745 23.6341 53.8261 23.8238 53.5433 23.9462C53.4484 24.001 53.3716 24.0826 53.3225 24.1807C53.2734 24.2788 53.2543 24.3892 53.2673 24.4981C53.3165 26.1684 53.0546 27.8333 52.4951 29.4078C52.3843 29.8497 52.5501 30.2909 52.2191 30.6776C51.9982 31.0087 51.6671 31.2296 51.3911 31.5607C51.2609 31.732 51.1498 31.9171 51.06 32.1126C50.7479 32.6795 50.2816 33.1463 49.715 33.459C49.1485 33.7716 48.5049 33.9174 47.8589 33.8793C46.9761 33.8134 46.0897 33.9453 45.2643 34.2655C44.7601 34.5385 44.3546 34.9633 44.1053 35.4796C44.0794 35.5412 44.066 35.6073 44.0659 35.6741C44.0658 35.7409 44.0789 35.807 44.1046 35.8687C44.1303 35.9303 44.168 35.9863 44.2155 36.0333C44.263 36.0802 44.3193 36.1173 44.3813 36.1423C44.994 36.3901 45.6529 36.503 46.3132 36.4734C47.2408 36.4914 48.1574 36.6785 49.018 37.0253C49.1252 37.0512 49.2231 37.1061 49.3011 37.184C49.3791 37.262 49.434 37.36 49.4598 37.4672C49.625 38.4053 49.7909 39.3991 49.9567 40.3372C50.0143 40.5507 50.014 40.7758 49.9558 40.9892C49.8976 41.2025 49.7837 41.3966 49.6256 41.5513C49.4047 41.6621 49.4604 41.9375 49.2946 42.0482C49.2389 42.159 49.1287 42.214 49.0186 42.3242C48.9709 42.346 48.9185 42.3555 48.8662 42.3518C48.8139 42.3482 48.7634 42.3315 48.7192 42.3032C48.5772 42.4922 48.3672 42.6185 48.1337 42.6553C47.6204 42.9916 47.2173 43.4715 46.9747 44.0352C46.759 44.4813 46.6821 44.9818 46.7538 45.472C46.8367 46.0764 46.8367 46.6893 46.7538 47.2938C46.7352 47.4688 46.6608 47.6331 46.5416 47.7625C46.4223 47.8919 46.2646 47.9795 46.0917 48.0122L44.9326 48.3432C44.8085 48.3739 44.698 48.4446 44.6182 48.5443C44.5383 48.6441 44.4935 48.7674 44.4908 48.8952C44.4389 49.5479 44.3281 50.1945 44.1597 50.8271C44.0496 51.1582 43.8838 51.3791 43.497 51.3791C43.0001 51.4342 42.5589 51.4899 42.0602 51.5449C41.8837 51.5463 41.7114 51.5994 41.5646 51.6976C41.4179 51.7958 41.3032 51.9348 41.2346 52.0975C40.7928 52.9806 40.2965 53.9193 39.8547 54.8023C39.7577 55.053 39.5806 55.2646 39.351 55.4043C39.1214 55.5441 38.8521 55.6041 38.5849 55.5752C38.2592 55.5384 37.931 55.618 37.6583 55.7998C37.3856 55.9817 37.186 56.2542 37.0948 56.569C36.8339 57.174 36.539 57.7638 36.2118 58.3357C35.9062 58.9701 35.4279 59.5054 34.8318 59.8803C34.4656 60.1385 34.0288 60.2779 33.5806 60.2796C33.0116 60.2661 32.4625 60.0677 32.0163 59.7144ZM32.6233 56.4576C32.5962 56.9966 32.6519 57.5365 32.7886 58.0585C32.8993 58.5003 33.1196 58.9415 33.6165 58.9966C33.8629 59.023 34.1104 58.9592 34.3134 58.8171C34.5163 58.675 34.661 58.4642 34.7205 58.2237C34.9954 57.4347 35.386 56.6908 35.8795 56.0164C36.1413 55.6098 36.4809 55.2591 36.8789 54.9843C37.2768 54.7096 37.7252 54.5163 38.1982 54.4156C38.8052 54.3605 39.0812 53.9738 39.3021 53.4218C39.9224 52.031 40.9665 50.872 42.2853 50.1105C43.5545 49.2275 44.2172 47.5159 45.3212 46.3018C45.7073 45.9156 45.2661 45.1427 45.1003 44.5357C44.8243 43.5976 45.3762 42.8798 46.0384 42.3805C46.6652 41.9099 47.3417 41.5387 48.0679 42.156C48.0409 41.8201 48.1277 41.5471 48.5773 41.4974C48.5857 41.5298 48.5923 41.5627 48.5989 41.595C48.606 41.5625 48.6169 41.531 48.6312 41.501C48.6486 41.4154 48.6654 41.3214 48.6797 41.2292C48.664 41.0994 48.6741 40.9677 48.7097 40.8419C48.7096 40.7482 48.702 40.6547 48.6869 40.5623C48.5767 40.0103 48.19 39.5134 48.0798 38.9615C47.9697 38.3544 47.583 38.1886 47.0861 38.0784C46.8706 38.015 46.6483 37.978 46.4239 37.9683C43.1121 38.0233 40.8491 36.0914 38.6963 33.9386C37.4816 32.7239 36.9853 32.4485 35.6053 33.4417C33.4501 34.9875 31.2997 35.0425 28.8714 34.3247C27.5171 33.8799 26.1003 33.655 24.6748 33.6584C24.1228 33.4932 24.1228 32.8855 23.8468 32.5545C23.1182 31.0069 23.4044 29.5719 24.5173 29.178C23.0428 29.0941 21.5682 28.9666 20.0937 28.9666C18.7138 28.9666 18.6569 29.0774 19.3208 30.2364C19.4427 30.4323 19.5532 30.635 19.6519 30.8435C19.983 31.6714 20.2589 32.5545 19.4867 33.2723C18.6587 34.0452 17.8307 33.8793 16.9477 33.3273C16.3343 32.8916 15.666 32.5389 14.9601 32.2785C14.7603 32.2278 14.578 32.1241 14.4322 31.9784C14.2865 31.8326 14.1828 31.6503 14.1321 31.4505C13.9112 30.5124 13.194 30.6776 12.5313 30.7878C11.7584 30.9536 11.7584 31.5607 11.8692 32.1126C12.0243 33.0543 12.4071 33.9437 12.9843 34.7037C13.5615 35.4637 14.3156 36.0712 15.181 36.4734C16.3951 37.0804 17.2764 36.6392 17.72 35.3694C18.1618 34.0446 18.879 33.8793 19.9279 34.8174C20.7008 35.5376 21.0324 36.532 21.6946 37.2505C21.8235 37.4071 21.9007 37.6 21.9155 37.8024C21.4186 39.2392 20.0937 39.6793 18.9347 40.1762C17.9966 40.618 17.4979 41.0041 18.1618 41.9979C18.2179 42.0663 18.2571 42.1469 18.2763 42.2332C18.2954 42.3195 18.2939 42.4092 18.272 42.4948C17.8301 43.7095 18.3276 44.2615 19.431 44.7027C20.2039 45.0338 19.9279 46.0276 19.9279 46.7448C19.9279 47.1309 19.5417 47.6829 20.0931 47.9038C20.5349 48.0691 20.7558 47.5728 20.9762 47.2411C21.1904 46.8995 21.5153 46.6419 21.8967 46.5111C22.2781 46.3803 22.6928 46.3844 23.0715 46.5227C23.8995 46.7987 23.9546 47.5716 23.8995 48.2894C23.8995 49.2275 24.0647 49.7795 25.2243 49.7262C25.9427 49.6711 26.6611 50.168 27.3197 50.3883C27.4481 50.4322 27.5657 50.5028 27.6648 50.5956C27.7638 50.6884 27.842 50.8011 27.8942 50.9264C27.9464 51.0516 27.9714 51.1865 27.9675 51.3222C27.9636 51.4578 27.9309 51.5911 27.8717 51.7132C27.5957 52.5411 27.7064 52.9279 28.7547 52.8171C28.8242 52.8107 28.894 52.8075 28.9642 52.8075C30.6878 52.8051 32.6233 54.7077 32.6233 56.4582V56.4576ZM39.3027 28.2518C39.7445 28.3069 40.0211 28.8589 40.1307 29.2456C40.2042 29.8177 40.1668 30.3986 40.0205 30.9566C39.7996 31.8947 41.0143 33.8266 41.9524 34.1026C42.4493 34.2134 42.5044 33.8266 42.6708 33.5507C42.994 32.7753 43.3626 32.0196 43.7748 31.2877C44.6028 30.1286 45.3756 30.1286 46.3138 31.1775C47.2519 32.2815 47.7506 32.3365 48.7977 31.3433C50.0961 30.2603 50.9265 28.7179 51.1157 27.0377C51.2816 25.4368 50.0118 24.6089 48.5217 25.3267C47.9668 25.613 47.506 26.053 47.1944 26.5941C46.9317 27.0521 46.6169 27.4782 46.2563 27.8639C45.9738 28.1858 45.5887 28.4002 45.1662 28.4706C44.7437 28.541 44.3098 28.463 43.9382 28.25C43.5382 28.0466 43.2241 27.7067 43.0527 27.2919C42.8813 26.8771 42.8639 26.4147 43.0037 25.9882C43.1424 25.5918 43.253 25.1861 43.3348 24.7741C42.6056 25.1282 41.9354 25.5927 41.3478 26.1511C39.9792 27.3278 38.4562 28.3122 36.8212 29.0768C36.2541 29.3877 35.6001 29.5021 34.9611 29.4023C34.3222 29.3024 33.7342 28.9939 33.2891 28.5248C32.3682 27.748 31.6167 26.7903 31.0811 25.711C30.4184 26.8701 30.3627 28.1949 29.2594 28.8571C28.6301 29.1797 27.921 29.3138 27.2173 29.2432C26.6318 29.2564 26.0457 29.2468 25.4602 29.224C25.6118 29.6171 25.6469 30.0454 25.5614 30.4579C25.3405 31.396 25.7823 31.8947 26.6653 31.7828C27.8898 31.6231 29.1326 31.8759 30.1975 32.5012C30.8675 32.9115 31.6556 33.0855 32.436 32.9954C33.2165 32.9053 33.9442 32.5564 34.5032 32.0043C35.2044 31.3259 36.1217 30.9155 37.0948 30.8447C38.0886 30.7896 38.8058 30.4034 38.7507 29.2438C38.7507 28.8726 38.7507 28.247 39.2399 28.247C39.2596 28.2482 39.2806 28.2494 39.3027 28.2518Z" fill="black"/>
<path d="M29.2567 5.5088C29.1918 5.48551 29.1384 5.43812 29.1075 5.37648C29.0766 5.31483 29.0707 5.24365 29.0909 5.17773C29.1262 5.18419 29.1595 5.19876 29.1883 5.22031C29.217 5.24185 29.2403 5.26978 29.2564 5.30189C29.2725 5.33399 29.2809 5.3694 29.2809 5.40531C29.281 5.44122 29.2727 5.47665 29.2567 5.5088Z" fill="#1C1C1C"/>
<path d="M48.6311 41.4993C48.4653 41.7753 48.3001 41.9962 48.1343 42.2721C47.5312 42.1689 46.911 42.2659 46.3682 42.5481C46.0529 42.6974 45.7991 42.9513 45.6498 43.2665C45.4592 43.4848 45.3453 43.7594 45.3254 44.0484C45.3055 44.3375 45.3807 44.6251 45.5396 44.8674C45.6893 45.1799 45.7827 45.5163 45.8156 45.8612C45.8985 46.2774 45.8188 46.7095 45.593 47.0688C45.3672 47.4281 45.0124 47.6873 44.6015 47.7931C44.5188 47.8432 44.4211 47.8626 44.3255 47.8482C43.8837 47.9583 43.6071 48.1793 43.7184 48.6761C43.7619 49.1678 43.6246 49.6584 43.3323 50.0561C43.2427 50.2305 43.1089 50.3783 42.9443 50.4849C42.7797 50.5914 42.59 50.6529 42.3942 50.6631C41.9578 50.7015 41.5391 50.8539 41.1801 51.105C41.0291 51.1864 40.8974 51.2993 40.7939 51.436C40.4078 52.3191 39.6349 52.9818 39.4691 53.975C39.4691 54.0852 39.414 54.1408 39.3589 54.251C39.1931 54.5821 38.9728 54.858 38.5309 54.803C38.1174 54.7538 37.6985 54.827 37.3261 55.0134C36.9537 55.1998 36.6441 55.4913 36.4356 55.8518C36.1596 56.2937 35.7735 56.6798 35.4975 57.1216C35.2619 57.4478 35.1102 57.8269 35.0557 58.2256C35.026 58.5578 34.8841 58.8701 34.6533 59.1109C34.4225 59.3517 34.1166 59.5067 33.7859 59.5504C33.6703 59.5949 33.5466 59.6142 33.423 59.607C33.2994 59.5999 33.1787 59.5665 33.0691 59.509C32.9594 59.4516 32.8632 59.3714 32.787 59.2739C32.7107 59.1764 32.6561 59.0637 32.6268 58.9434C32.2846 58.1234 32.1335 57.2363 32.185 56.3493C32.2307 56.1317 32.2492 55.9093 32.2401 55.6872C32.2829 55.5407 32.2664 55.3833 32.1942 55.2489C32.1219 55.1145 31.9997 55.0139 31.854 54.9688C31.4964 54.8511 31.1659 54.6634 30.8816 54.4168C30.5973 54.1701 30.365 53.8693 30.198 53.532C30.1164 53.4035 30.0013 53.2997 29.8652 53.2316C29.729 53.1636 29.5769 53.134 29.4251 53.1458C28.9011 53.1792 28.3826 53.2718 27.8794 53.4218C27.3825 53.5877 27.1065 53.256 27.161 52.7597C27.2065 52.4018 27.3391 52.0606 27.5471 51.7659C27.6333 51.6121 27.6738 51.437 27.6641 51.261C27.6543 51.085 27.5947 50.9154 27.492 50.7721C27.3956 50.6495 27.2551 50.5694 27.1004 50.5488C26.9458 50.5282 26.7892 50.5688 26.6641 50.6619C26.5609 50.7172 26.4404 50.7309 26.3275 50.7C26.2146 50.6692 26.1178 50.5962 26.057 50.4961C25.8982 50.2764 25.665 50.1217 25.4008 50.0608C25.1365 49.9999 24.8592 50.037 24.6202 50.165C24.4968 50.2102 24.3652 50.229 24.2341 50.2201C24.1569 50.2426 24.0756 50.2469 23.9966 50.2325C23.9176 50.2181 23.843 50.1855 23.7787 50.1373C23.7145 50.0891 23.6623 50.0265 23.6264 49.9547C23.5905 49.8828 23.5719 49.8036 23.5719 49.7232C23.5443 49.4111 23.5443 49.0972 23.5719 48.7851C23.5823 48.3055 23.5639 47.8257 23.5168 47.3483C23.4928 47.1716 23.4078 47.0089 23.2767 46.888C23.1456 46.7672 22.9765 46.6958 22.7984 46.6862C22.5583 46.6439 22.3114 46.6622 22.0801 46.7393C21.8488 46.8165 21.6403 46.9501 21.4736 47.128C21.1425 47.5141 20.8115 47.9559 20.4798 48.3421C20.402 48.4553 20.2917 48.5423 20.1634 48.5916C20.0352 48.6409 19.895 48.6501 19.7614 48.6181C19.6361 48.5801 19.5236 48.5086 19.4361 48.4113C19.3485 48.314 19.2892 48.1946 19.2645 48.0661C19.1632 47.7155 19.2027 47.3392 19.3746 47.0172C19.5481 46.7548 19.6437 46.4487 19.6506 46.1342C19.6506 44.9201 19.6506 44.8644 18.6017 44.6974C18.4706 44.7062 18.3391 44.6875 18.2156 44.6423C17.4972 44.4214 17.2775 43.8694 17.7187 43.2624C17.848 43.0886 17.9223 42.8801 17.9321 42.6637C17.9419 42.4474 17.8868 42.233 17.7738 42.0482C17.5683 41.7103 17.384 41.36 17.2218 40.9994C17.056 40.7234 17.1117 40.5576 17.4427 40.3923C17.9947 40.1714 18.6017 39.9505 19.1537 39.6739C20.1664 39.2294 21.0705 38.5702 21.8034 37.742C23.1834 36.5279 23.8988 34.8163 24.7292 33.2154C24.821 33.0868 24.9478 32.9872 25.0946 32.9285C25.2414 32.8698 25.4019 32.8545 25.5571 32.8844C26.2755 33.0502 27.0472 33.1604 27.765 33.3262C28.9791 33.6022 29.9041 34.8145 31.9192 34.6073C33.9343 34.4002 34.9964 32.9951 35.8244 32.4982C35.9585 32.3868 36.1071 32.2939 36.2662 32.2222C37.2043 31.8361 37.867 31.9463 38.4741 32.7191C39.737 34.1395 41.1852 35.3835 42.7797 36.4177C43.0541 36.6248 43.3772 36.7578 43.7178 36.8039C45.0427 36.9697 46.4226 37.19 47.7475 37.3559C48.3546 37.4109 48.5204 37.5768 48.4096 38.1838C48.3778 38.3257 48.3761 38.4728 48.4047 38.6154C48.4333 38.758 48.4914 38.8931 48.5755 39.0118C48.7265 39.1744 48.8435 39.3656 48.9193 39.5741C48.9952 39.7826 49.0285 40.0043 49.0173 40.2259C48.8515 40.5019 48.9622 40.8329 48.7964 41.0539C48.6979 41.1824 48.6403 41.3376 48.6311 41.4993Z" fill="#E1E1E1"/>
<path d="M20.6979 36.9727C20.3657 36.1098 19.8139 35.3487 19.0971 34.7648C18.9318 34.6546 18.8211 34.5995 18.6553 34.4888C18.6049 34.4646 18.55 34.4511 18.4941 34.4493C18.4383 34.4474 18.3826 34.4572 18.3307 34.4779C18.2788 34.4987 18.2318 34.53 18.1927 34.5699C18.1535 34.6098 18.1231 34.6574 18.1033 34.7097C17.9244 35.0684 17.848 35.4694 17.8824 35.8687C17.8809 36.0385 17.8341 36.2048 17.7467 36.3504C17.6593 36.496 17.5346 36.6155 17.3855 36.6967C17.0125 36.9698 16.567 37.126 16.1052 37.1456C15.6434 37.1652 15.1862 37.0473 14.7914 36.8068C13.5001 36.1132 12.4587 35.0322 11.8136 33.7159C11.4449 32.8647 11.2931 31.9354 11.3718 31.0111C11.3636 30.922 11.3751 30.8323 11.4055 30.7482C11.4359 30.6641 11.4845 30.5877 11.5478 30.5245C11.611 30.4613 11.6874 30.4128 11.7716 30.3824C11.8557 30.3521 11.9455 30.3407 12.0345 30.349C12.6507 30.4157 13.2739 30.3401 13.8563 30.1281C13.9121 30.1156 13.97 30.1165 14.0253 30.1306C14.0807 30.1447 14.1319 30.1717 14.175 30.2093C14.218 30.2469 14.2515 30.2941 14.2729 30.347C14.2943 30.4 14.303 30.4573 14.2981 30.5142V30.9003C14.2981 31.6732 14.4083 31.7834 15.1812 31.9492C15.4571 32.0043 15.7331 32.0043 15.8996 32.2252C16.3965 32.7772 17.1693 32.8323 17.6662 33.3842C17.7479 33.456 17.8475 33.5041 17.9545 33.5235C18.0614 33.5429 18.1716 33.5329 18.2733 33.4944C19.4323 33.0526 19.9843 32.776 19.4323 31.2314C19.3224 30.8922 19.1543 30.5748 18.9354 30.2933L18.2721 29.3031C18.0512 28.9169 18.217 28.5847 18.6582 28.5847C19.1356 28.5293 19.6177 28.5293 20.0951 28.5847C22.5239 28.6948 24.9527 28.7499 27.3264 28.9157C27.9097 28.933 28.4852 28.7794 28.9823 28.4739C29.4843 27.9902 29.8467 27.3801 30.0312 26.7078C30.1965 26.1559 30.4174 25.659 30.6383 25.107C30.6383 25.0519 30.8041 24.9968 30.8592 24.9968C30.9422 25.0105 31.0192 25.0489 31.0801 25.107C31.1903 25.3279 31.301 25.6039 31.4112 25.8254C31.9806 27.0271 32.8803 28.0419 34.0052 28.7511C34.2105 28.9191 34.4574 29.0283 34.7198 29.0672C34.9821 29.1061 35.2501 29.0732 35.4953 28.972C35.9638 28.831 36.4244 28.6652 36.8752 28.4751C38.3779 27.7235 39.7857 26.7956 41.0689 25.7111C41.7166 25.171 42.3988 24.6737 43.111 24.2222C43.1919 24.1424 43.3009 24.0977 43.4145 24.0977C43.5281 24.0977 43.6372 24.1424 43.7181 24.2222C43.7852 24.3091 43.8215 24.4159 43.8215 24.5257C43.8215 24.6355 43.7852 24.7423 43.7181 24.8292C43.6079 25.0501 43.4972 25.2154 43.387 25.4363C43.2443 25.7513 43.1512 26.0865 43.111 26.4301C43.0532 26.736 43.1043 27.0526 43.2556 27.3248C43.4068 27.597 43.6486 27.8076 43.939 27.9202C44.2299 28.0838 44.5671 28.1455 44.897 28.0955C45.227 28.0455 45.5308 27.8866 45.7601 27.6442C46.0298 27.3558 46.2704 27.0416 46.4785 26.706C46.8096 26.2648 47.1407 25.7679 47.4723 25.3291C47.7153 25.0088 48.0702 24.792 48.4661 24.722C49.165 24.6197 49.8772 24.6571 50.5615 24.8322C50.7421 24.8464 50.9107 24.9283 51.0335 25.0615C51.1563 25.1947 51.2242 25.3694 51.2236 25.5506C51.4136 26.923 51.1422 28.3197 50.4519 29.521C49.9487 30.4008 49.2948 31.1855 48.52 31.8391C48.3394 32.0244 48.1164 32.1632 47.8703 32.2433C47.6242 32.3235 47.3623 32.3427 47.1072 32.2993C46.852 32.2559 46.6112 32.1512 46.4055 31.9942C46.1997 31.8372 46.0352 31.6325 45.926 31.3978C45.8236 31.2004 45.7315 30.9977 45.65 30.7908C45.5983 30.6804 45.5198 30.5848 45.4216 30.5126C45.3234 30.4403 45.2087 30.3939 45.0879 30.3775C44.9672 30.361 44.8442 30.3751 44.7303 30.4185C44.6164 30.4618 44.5152 30.533 44.4359 30.6256C43.9414 31.0598 43.5621 31.6098 43.3319 32.2264C43.0559 32.8891 42.835 33.5513 42.559 34.214C42.5442 34.3031 42.5039 34.3861 42.4431 34.453C42.3823 34.5199 42.3035 34.5678 42.2162 34.5911C42.1289 34.6145 42.0367 34.6121 41.9507 34.5844C41.8646 34.5567 41.7884 34.5048 41.7311 34.4349C40.9191 33.8166 40.1942 33.0917 39.5759 32.2797C39.3784 32.1012 39.2527 31.8569 39.2223 31.5924C39.1919 31.328 39.2588 31.0615 39.4106 30.8429C39.7333 30.2126 39.812 29.4855 39.6315 28.8008C39.5599 28.6418 39.467 28.4932 39.3555 28.359C39.2907 28.3152 39.2125 28.2957 39.1346 28.3039C39.0957 28.3158 39.0602 28.3371 39.0314 28.3659C39.0026 28.3947 38.9813 28.4302 38.9694 28.4691C38.9694 28.8002 38.9143 29.0762 38.9143 29.4073C38.9143 30.2903 38.6934 30.5663 37.8104 30.7872C37.4713 30.896 37.1176 30.952 36.7615 30.953C36.3417 30.9698 35.9297 31.0714 35.5503 31.2517C35.1708 31.432 34.8318 31.6871 34.5536 32.0019C34.1961 32.4467 33.7468 32.8092 33.2364 33.0645C32.726 33.3198 32.1665 33.4619 31.5962 33.4812C30.5857 33.1985 29.6131 32.7945 28.6998 32.2779C28.4605 32.0702 28.1782 31.9179 27.8732 31.832C27.5682 31.7461 27.248 31.7287 26.9355 31.781L26.2734 31.9468C25.6106 32.1121 25.1694 31.6708 24.8365 31.1739C24.7068 30.992 24.6467 30.7695 24.6673 30.547C24.6878 30.3245 24.7876 30.1167 24.9485 29.9616C25.088 29.8004 25.1802 29.6038 25.2149 29.3935C24.972 29.3281 24.7139 29.349 24.4846 29.4526C24.2554 29.5562 24.0692 29.7361 23.9577 29.9616C23.7648 30.1637 23.6278 30.4124 23.5601 30.6834C23.4924 30.9544 23.4963 31.2384 23.5715 31.5074C23.6638 31.7928 23.8143 32.056 24.0134 32.2803C24.2894 34.2673 22.9645 36.8062 21.2535 37.5241C20.9769 37.4696 20.8661 37.2487 20.6979 36.9727Z" fill="#C0A08B"/>
<path d="M31.0782 20.028C30.9645 20.0301 30.8524 20.0001 30.7548 19.9416C30.6572 19.8831 30.578 19.7983 30.5263 19.6969C29.8079 18.2601 28.4309 17.6015 27.1593 16.8831C26.2212 16.3312 25.1723 15.8893 24.2336 15.393C22.8587 14.773 21.3794 14.4172 19.8729 14.3442C19.614 14.3554 19.3547 14.3369 19.1 14.2891C19.0557 14.2767 19.0149 14.2541 18.981 14.2231C18.9471 14.192 18.921 14.1534 18.9049 14.1103C18.8887 14.0672 18.8829 14.021 18.888 13.9753C18.8931 13.9296 18.9089 13.8857 18.9342 13.8473C19.2443 13.2642 19.6553 12.7409 20.1483 12.3015C21.8177 10.3965 24.0696 9.09628 26.5541 8.60289C27.4371 8.43706 28.2651 8.16107 29.1481 7.99584C29.3636 7.93242 29.5859 7.89543 29.8103 7.88568C31.9778 7.79488 34.1481 7.98036 36.2687 8.43766C38.3053 9.05561 40.05 10.3887 41.1814 12.1913C41.4024 12.4673 41.2916 12.7984 40.9055 12.9097C39.9141 13.3601 38.9569 13.8821 38.0414 14.4717C36.7544 15.8191 35.3684 17.0685 33.895 18.2092C32.8449 18.7588 31.9613 19.476 31.0782 20.028Z" fill="#C0A08B"/>
<path d="M52.1089 16.7152C52.5931 16.7645 53.0797 16.6478 53.4889 16.3842C54.0082 16.1304 54.5428 15.9092 55.0897 15.722C55.3918 15.6198 55.7158 15.6008 56.0278 15.667C56.1178 15.6747 56.205 15.7018 56.2835 15.7465C56.362 15.7912 56.4298 15.8525 56.4823 15.926C56.5348 15.9995 56.5707 16.0835 56.5875 16.1722C56.6043 16.2609 56.6017 16.3522 56.5798 16.4399C56.4631 17.1417 56.113 17.7836 55.586 18.2616L54.9239 18.9237C54.8652 18.9906 54.8244 19.0712 54.8051 19.1581C54.7859 19.2449 54.7888 19.3352 54.8137 19.4206C54.8688 19.5865 55.1448 19.8068 54.9239 20.0277C54.7827 20.1393 54.6069 20.198 54.427 20.1935C53.599 20.3594 53.323 21.0215 52.9902 21.6303C52.88 21.9063 53.156 21.9614 53.3212 22.1272C53.5421 22.3481 53.4871 22.5691 53.2111 22.6241C53.156 22.6241 53.156 22.6792 53.1009 22.6792C52.6904 22.6526 52.2791 22.7181 51.8971 22.8709C51.5151 23.0237 51.172 23.2599 50.893 23.5623C50.7758 23.6313 50.6429 23.6692 50.5069 23.6724C49.8447 23.5623 49.2371 23.9484 48.575 24.0035C48.1114 24.0484 47.6679 24.215 47.2894 24.4865C46.911 24.7579 46.6109 25.1245 46.4197 25.5492C46.2288 26.0058 45.9471 26.4189 45.5918 26.7634C45.3709 26.9843 45.15 27.2052 44.7638 27.0393C44.4878 26.8735 44.3777 26.5975 44.5429 26.1012C44.7986 25.4886 44.8375 24.807 44.6531 24.1693C44.5422 23.8802 44.5367 23.5612 44.6377 23.2684C44.7386 22.9757 44.9395 22.7278 45.205 22.5685C45.4182 22.4166 45.621 22.2506 45.8121 22.0716C46.2761 21.649 46.5991 21.0941 46.7373 20.4819C46.8756 19.8698 46.8224 19.2299 46.585 18.649C46.3247 18.0102 46.1395 17.3434 46.033 16.662C45.7692 15.8065 45.2715 15.0417 44.5962 14.4541C44.2651 14.123 43.9341 13.7356 43.6024 13.4052C43.5372 13.3457 43.4851 13.2732 43.4495 13.1924C43.4139 13.1117 43.3955 13.0244 43.3955 12.9361C43.3955 12.8479 43.4139 12.7606 43.4495 12.6798C43.4851 12.599 43.5372 12.5266 43.6024 12.4671C44.1616 11.8602 44.7917 11.3227 45.4792 10.8662C45.6378 10.7452 45.8317 10.6797 46.0312 10.6797C46.2307 10.6797 46.4246 10.7452 46.5832 10.8662C46.8592 11.032 46.9693 11.2524 46.6933 11.4733C46.5123 11.6024 46.3701 11.7788 46.2825 11.9832C46.1949 12.1876 46.1651 12.4121 46.1964 12.6323C46.1992 12.7548 46.2281 12.8754 46.2813 12.9858C46.3346 13.0962 46.4108 13.1939 46.505 13.2723C46.5992 13.3508 46.709 13.4082 46.8272 13.4406C46.9454 13.473 47.0692 13.4797 47.1902 13.4603C47.6881 13.429 48.1667 13.2566 48.5702 12.9634C49.2397 12.5244 49.9905 12.2242 50.7781 12.0803C51.2147 11.9604 51.6778 11.9797 52.1029 12.1354C52.1699 12.1533 52.2319 12.1863 52.284 12.2319C52.3362 12.2776 52.3772 12.3346 52.4039 12.3985C52.4306 12.4625 52.4422 12.5318 52.4378 12.6009C52.4335 12.6701 52.4134 12.7374 52.3789 12.7975C52.2331 13.0674 52.067 13.3257 51.882 13.5704C51.7719 13.7362 51.6611 13.9015 51.7162 14.0122C51.9922 14.6744 51.7162 15.0611 51.2744 15.5023C51.1869 15.589 51.1243 15.6977 51.0932 15.8168C51.0621 15.936 51.0635 16.0613 51.0973 16.1797C51.1311 16.2981 51.1961 16.4053 51.2855 16.49C51.3749 16.5747 51.4854 16.6339 51.6054 16.6614C51.7752 16.6479 51.9459 16.6662 52.1089 16.7152Z" fill="#E1E1E1"/>
<path d="M6.57016 22.7314C6.24827 22.7583 5.93213 22.8327 5.63204 22.9523C5.2459 23.1181 4.80408 23.2833 4.41794 23.4492C4.32737 23.4919 4.2273 23.5105 4.12742 23.5032C4.02755 23.4958 3.93127 23.4627 3.84795 23.4072C3.76462 23.3516 3.69708 23.2755 3.65187 23.1861C3.60667 23.0968 3.58535 22.9972 3.58998 22.8972C3.58172 22.2823 3.80365 21.6866 4.21217 21.227C4.6207 20.7674 5.1863 20.4772 5.79788 20.4133C6.41518 20.3377 7.02474 20.2085 7.61964 20.0272C7.77587 20.0016 7.91765 19.9205 8.01902 19.799C8.12039 19.6774 8.17456 19.5233 8.17161 19.365C8.19079 18.789 8.26476 18.216 8.39253 17.654C8.50268 17.378 8.28237 17.1571 8.11654 16.9356C7.9624 16.7739 7.87192 16.562 7.8618 16.3389C7.85168 16.1157 7.9226 15.8965 8.06146 15.7215C8.20759 15.5348 8.411 15.4013 8.64042 15.3415C8.86984 15.2816 9.11256 15.2989 9.33124 15.3904C9.82009 15.563 10.3174 15.7104 10.8213 15.8323C11.0744 15.8959 11.3334 15.9328 11.5942 15.9424C12.864 15.8873 13.2501 15.3904 13.14 14.1207C13.0849 13.6788 12.8089 13.4585 12.5329 13.1269C12.257 12.8509 12.312 12.5749 12.6431 12.354C12.8675 12.1758 13.1406 12.0699 13.4264 12.0502C13.7122 12.0305 13.9973 12.0981 14.244 12.2438C14.7827 12.5268 15.2387 12.9449 15.567 13.4573C16.119 14.2302 16.119 14.3954 15.4569 15.1133C14.7544 15.9654 14.212 16.9378 13.856 17.9833C13.4699 19.0872 13.0831 20.2463 12.7521 21.3502C12.3102 22.896 12.3102 24.3861 13.58 25.6008C14.1269 26.222 14.8058 26.7129 15.567 27.0376C15.8229 27.1037 16.0492 27.2539 16.2093 27.4641C16.3695 27.6744 16.4543 27.9324 16.4501 28.1966C16.4563 28.437 16.5196 28.6724 16.6347 28.8835C16.7499 29.0946 16.9135 29.2753 17.1122 29.4107C17.4827 29.7825 17.7161 30.269 17.7743 30.7907C17.8019 30.9552 17.8019 31.1231 17.7743 31.2876C17.7564 31.3747 17.7146 31.4552 17.6535 31.5199C17.5925 31.5846 17.5146 31.6311 17.4286 31.654C17.3427 31.6769 17.252 31.6755 17.1668 31.6498C17.0816 31.6241 17.0053 31.5752 16.9464 31.5085C16.7 31.258 16.5116 30.9566 16.3944 30.6254C16.3692 30.542 16.3278 30.4643 16.2725 30.3968C16.2172 30.3294 16.1491 30.2736 16.0722 30.2325C15.9953 30.1915 15.911 30.166 15.8242 30.1576C15.7374 30.1492 15.6498 30.1581 15.5664 30.1836C15.2354 30.2938 15.0695 30.0178 15.0144 29.7975C14.9043 29.4664 15.0144 29.0246 14.6283 28.8594C14.2678 28.6845 13.8563 28.6454 13.4693 28.7492C13.2123 28.8144 12.9423 28.8076 12.6889 28.7297C12.4355 28.6518 12.2084 28.5057 12.0325 28.3074C11.7922 28.048 11.4794 27.8671 11.1347 27.7882C10.7901 27.7094 10.4296 27.7364 10.1005 27.8656C9.60364 28.0314 9.27257 27.6997 9.32765 27.2034C9.39811 26.8524 9.52875 26.5162 9.7138 26.2096C9.85246 25.9772 9.91074 25.7056 9.87962 25.4368C9.8775 25.3046 9.84805 25.1743 9.79312 25.0541C9.73819 24.9339 9.65897 24.8263 9.56045 24.7382C9.46193 24.6501 9.34624 24.5833 9.22066 24.5421C9.09508 24.5009 8.96233 24.4861 8.83075 24.4986C8.38893 24.4986 8.00279 25.1057 7.61664 24.6088C7.34066 24.2226 7.78248 23.8904 7.78248 23.5048C7.89443 23.1175 7.45321 22.7314 6.57016 22.7314Z" fill="#E1E1E1"/>
<path d="M26.8283 27.9193C26.1794 27.7547 25.5078 27.6987 24.8407 27.7535C23.217 27.758 21.6006 27.5351 20.0387 27.0913C19.0449 26.8704 18.0517 26.5944 17.113 26.3729C15.9051 26.0753 14.8458 25.3503 14.131 24.3321C13.9577 24.1074 13.8337 23.8487 13.7672 23.5728C13.7006 23.297 13.693 23.0102 13.7449 22.7312C13.9003 21.9528 14.1413 21.1938 14.4633 20.4682C15.2965 18.8193 16.2178 17.2163 17.2232 15.6663C17.338 15.4611 17.5065 15.291 17.7105 15.1742C17.9146 15.0574 18.1465 14.9982 18.3816 15.003C19.9284 14.9377 21.4756 15.1241 22.9626 15.5549L23.4595 15.7208C24.7293 16.3829 25.9985 16.9899 27.2132 17.6527C28.1436 18.1527 28.9831 18.8058 29.6965 19.5846C30.0276 19.9333 30.24 20.3777 30.3036 20.8544C30.3586 21.1854 30.4137 21.4614 30.4688 21.7374C30.6038 22.3721 30.552 23.0323 30.3197 23.6382C29.9077 24.8299 29.3257 25.9558 28.592 26.9812C28.2326 27.4144 27.7576 27.7367 27.2222 27.9103C27.1563 27.9446 27.0833 27.963 27.0091 27.9642C26.9461 27.9635 26.8842 27.9481 26.8283 27.9193ZM18.3816 16.9349C17.4447 18.5357 16.1749 19.9157 15.678 21.7374C15.0709 23.7795 15.8432 25.0493 17.941 25.4911C18.217 25.5462 18.4379 25.5462 18.7139 25.6013C19.2108 25.7665 19.8178 25.7114 20.3147 25.8772C22.2466 26.3741 24.2887 26.4843 26.2763 26.9261C26.4261 27.0088 26.5876 27.0681 26.7552 27.1021C27.2321 26.9138 27.6522 26.6054 27.9747 26.2068C28.2972 25.8082 28.5111 25.3329 28.5955 24.8272C28.6035 24.6514 28.6526 24.4799 28.7389 24.3265C28.8252 24.1732 28.9463 24.0422 29.0924 23.9441C29.4385 23.8573 29.5115 23.4317 29.7959 23.2784C29.7827 23.2431 29.7689 23.2072 29.7546 23.1718C29.7081 22.6531 29.6344 22.1371 29.5337 21.6261C29.5427 21.2494 29.4262 20.8804 29.2026 20.5772C28.8161 20.0251 28.3055 19.5713 27.7119 19.2523C25.3382 17.8724 22.91 16.6583 20.1495 16.3823C19.9657 16.3667 19.7777 16.3518 19.5939 16.3518C19.3574 16.3242 19.1178 16.3643 18.9032 16.4675C18.6886 16.5708 18.5077 16.7328 18.3816 16.9349Z" fill="#413C64"/>
<path d="M34.4449 27.4236C34.3027 27.309 34.1732 27.1796 34.0587 27.0374C32.8497 25.7986 31.9265 24.3102 31.3539 22.6767C31.1321 21.9081 31.1907 21.0857 31.5192 20.3562C31.5273 20.2377 31.5603 20.1221 31.6161 20.0172C31.672 19.9123 31.7493 19.8204 31.8431 19.7474C31.9369 19.6744 32.0451 19.6221 32.1605 19.5938C32.2759 19.5656 32.3961 19.562 32.513 19.5833C32.5501 19.5923 32.5866 19.6041 32.6219 19.6187C33.2473 18.9534 33.9523 18.3677 34.7209 17.8747C35.7147 17.212 36.5426 16.384 37.5346 15.7195C37.8372 15.5761 38.1225 15.3985 38.3847 15.1903C38.426 15.1903 39.1427 14.4928 39.542 14.1725C39.5684 14.1015 39.6211 14.0434 39.6892 14.0103C39.8638 13.8479 40.0795 13.7363 40.3129 13.6876C40.5463 13.639 40.7886 13.6551 41.0135 13.7343C41.8099 13.8291 42.5401 14.2239 43.0556 14.8383C43.9776 15.9542 44.7909 17.1556 45.4844 18.4261C45.731 18.9419 45.8448 19.5111 45.8155 20.082C45.7877 20.5686 45.5696 21.0247 45.2084 21.3518C42.6694 23.2287 40.1855 25.2157 37.4807 26.8716C36.9151 27.2179 36.3011 27.4784 35.659 27.6445C35.523 27.6791 35.3833 27.697 35.2429 27.6977C34.9528 27.704 34.6699 27.6068 34.4449 27.4236ZM32.7889 21.9038C33.0805 22.8172 33.4888 23.6891 34.0037 24.4978C35.1633 26.4854 35.1633 26.4854 37.0946 25.3252C39.1424 24.0215 41.1145 22.6023 43.0011 21.0746C44.1601 20.1916 44.2152 19.6947 43.4429 18.3698C42.5683 16.8396 41.6942 15.4962 39.7485 15.0975C37.6699 16.6888 35.6973 18.4926 33.5074 19.9707C33.3431 20.1148 33.1342 20.1979 32.9159 20.206C32.9021 20.7801 32.5459 21.3207 32.7889 21.9038Z" fill="#413C64"/>
<path d="M32.4551 19.8047C32.0133 19.8598 31.793 20.2465 31.4613 20.4118C31.3192 20.2972 31.1897 20.1678 31.0752 20.0256C31.4355 19.324 32.0177 18.7612 32.7311 18.4248C33.6437 17.8942 34.4952 17.2648 35.2701 16.5479C36.1101 15.7893 37.0152 15.106 37.9749 14.5059C38.085 14.616 38.2509 14.7268 38.361 14.8369C38.3879 14.9705 38.3762 15.109 38.3274 15.2362C38.2785 15.3634 38.1944 15.4741 38.085 15.5553C36.2118 16.9898 34.4451 18.5355 32.4551 19.8047Z" fill="#090809"/>
<path d="M21.2524 37.5244C21.5178 37.1856 21.8133 36.8716 22.1355 36.5863C23.0048 35.5556 23.6446 34.3514 24.0123 33.0541C24.0674 32.8332 24.0123 32.5572 24.0674 32.2812C24.1537 32.3449 24.2237 32.4282 24.2717 32.5241C24.3196 32.62 24.3442 32.726 24.3434 32.8332C24.3363 32.9414 24.3581 33.0496 24.4066 33.1466C24.4551 33.2436 24.5285 33.326 24.6194 33.3852C24.4888 34.3312 24.1494 35.2364 23.6256 36.0349C23.2025 36.8537 22.5243 37.5125 21.6937 37.9118C21.5363 37.7949 21.3887 37.6653 21.2524 37.5244Z" fill="#141212"/>
<path d="M38.8609 14.5059C38.7586 14.5655 38.6656 14.64 38.585 14.7268C38.64 14.6717 38.7508 14.616 38.8609 14.5059Z" fill="#090809"/>
<path d="M39.358 14.2305C39.2479 14.2855 39.1922 14.3963 39.082 14.4514C39.1868 14.3953 39.2803 14.3204 39.358 14.2305Z" fill="#090809"/>
<path d="M26.4973 5.39844C26.5309 5.42473 26.5583 5.45821 26.5773 5.49643C26.5964 5.53465 26.6067 5.57665 26.6074 5.61935C26.6074 5.67443 26.4973 5.7295 26.4416 5.7295C26.3314 5.7295 26.2758 5.67443 26.3314 5.56367L26.4973 5.39844Z" fill="#BFBFC0"/>
<path d="M39.4151 35.9243C39.4017 36.9626 39.1073 37.978 38.563 38.8624C38.0188 39.7468 37.2451 40.4672 36.3241 40.9471C35.601 41.2981 34.8098 41.4865 34.0061 41.4991C32.9967 41.5066 31.9934 41.6553 31.0253 41.9409C30.9019 41.9861 30.7703 42.0049 30.6391 41.996C30.545 42.0076 30.4498 41.9865 30.3693 41.9363C30.2889 41.886 30.2282 41.8097 30.1973 41.72C30.1422 41.4991 30.3075 41.3889 30.4733 41.3339C31.0253 41.113 31.6323 40.9477 32.1843 40.7268C32.7363 40.5059 33.2332 40.285 33.7852 40.0647C35.3707 39.2699 36.6651 37.9951 37.4838 36.4218C37.7047 36.0356 37.8699 35.6489 38.0908 35.2627C38.1426 35.1412 38.2262 35.036 38.3328 34.9581C38.4395 34.8802 38.5652 34.8326 38.6967 34.8203C38.846 34.8454 38.9861 34.9097 39.1024 35.0067C39.2188 35.1037 39.3072 35.2299 39.3588 35.3723C39.3999 35.5533 39.4188 35.7387 39.4151 35.9243Z" fill="#050505"/>
<path d="M35.8801 9.54004C37.0942 9.65019 38.1982 9.92618 38.6939 11.196C38.9251 11.8606 38.9055 12.5868 38.6388 13.238C38.6211 13.2919 38.5919 13.3412 38.5531 13.3825C38.5143 13.4239 38.467 13.4562 38.4143 13.4772C38.3617 13.4983 38.3051 13.5076 38.2486 13.5044C38.192 13.5013 38.1368 13.4857 38.0868 13.4589C37.9645 13.405 37.8525 13.3303 37.7558 13.238C37.3696 12.907 37.0374 12.5759 36.486 12.6861C36.1744 12.6963 35.8689 12.7759 35.592 12.9191C35.315 13.0624 35.0736 13.2656 34.8851 13.514C34.6091 13.9558 34.2781 14.342 33.947 14.7838C33.9133 14.858 33.8589 14.921 33.7904 14.9651C33.7219 15.0092 33.6421 15.0327 33.5606 15.0327C33.4791 15.0327 33.3993 15.0092 33.3307 14.9651C33.2622 14.921 33.2078 14.858 33.1741 14.7838C32.7417 14.0371 32.5889 13.1609 32.7431 12.3119C32.8756 11.6964 33.1618 11.1245 33.5749 10.6494C33.9881 10.1744 34.5149 9.81167 35.106 9.59511C35.3618 9.55289 35.6209 9.53445 35.8801 9.54004Z" fill="#060505"/>
<path d="M27.1042 12.687C27.0063 13.5252 26.7831 14.344 26.442 15.1158C26.4195 15.1656 26.3866 15.2099 26.3455 15.2458C26.3043 15.2817 26.256 15.3085 26.2037 15.3242C26.1515 15.3399 26.0964 15.3442 26.0423 15.3369C25.9882 15.3296 25.9363 15.3107 25.8901 15.2817C25.6089 15.1573 25.3762 14.944 25.2279 14.6746C24.9549 14.2172 24.5512 13.8519 24.0689 13.6257C23.6504 13.3887 23.1606 13.3103 22.689 13.4048C22.4767 13.4801 22.2486 13.4991 22.0268 13.4599C21.9379 13.4455 21.8539 13.4095 21.7821 13.3551C21.7103 13.3008 21.6528 13.2297 21.6148 13.1481C21.5767 13.0664 21.5592 12.9767 21.5637 12.8868C21.5682 12.7968 21.5946 12.7094 21.6407 12.632C22.1486 11.7071 22.9426 10.9719 23.9037 10.5366C24.2569 10.4249 24.6308 10.3942 24.9975 10.4469C25.3643 10.4996 25.7144 10.6343 26.0219 10.8409C26.3294 11.0475 26.5864 11.3208 26.7738 11.6404C26.9612 11.96 27.0741 12.3178 27.1042 12.687Z" fill="#060505"/>
<path d="M26.7726 27.2592H26.3859C24.518 27.0514 22.6502 26.7461 20.8278 26.3899C20.271 26.3234 18.9228 25.984 18.4894 25.9343C18.0888 25.9621 17.687 25.9008 17.313 25.7547C17.3122 25.7526 17.3122 25.7502 17.313 25.7481C17.1717 25.7056 17.0304 25.6571 16.8885 25.6056C16.4205 25.4099 16.0088 25.1004 15.6906 24.7052C15.3725 24.31 15.1581 23.8417 15.0668 23.3427C15.0116 23.1816 15.0116 23.0068 15.0668 22.8458C15.2653 21.6235 15.7584 20.4679 16.5036 19.4788C16.9856 18.8961 17.3766 18.2437 17.6632 17.5439C17.7256 17.3913 17.7995 17.2436 17.8841 17.1021C18.0849 16.7258 18.4068 16.4283 18.7978 16.2577C19.1887 16.0871 19.6257 16.0535 20.0382 16.1622C21.5283 16.4932 23.0189 16.6591 24.454 17.3763C25.6687 18.039 27.0486 18.4802 28.2076 19.3082C28.7621 19.6601 29.2488 20.1089 29.6445 20.6331V20.6403C29.7128 20.7223 29.7629 20.818 29.7911 20.921C30.0354 21.3838 30.0905 21.2395 30.0905 21.9645C30.0905 22.7254 29.0997 24.9363 28.9895 25.1022L28.9704 25.1405C28.9682 25.1871 28.9528 25.2321 28.926 25.2704L28.2633 26.4294C28.1635 26.6751 27.9942 26.8863 27.776 27.0371C27.5579 27.1879 27.3005 27.2717 27.0354 27.2783C26.9475 27.2786 26.8596 27.2722 26.7726 27.2592ZM24.8958 26.2103C26.3326 26.4863 27.4904 26.3761 28.2076 24.9962C28.2664 24.9336 28.3381 24.8846 28.4178 24.8525C28.6835 23.769 29.0379 22.7092 29.4774 21.6837C29.4879 21.6721 29.4962 21.6588 29.502 21.6442C29.2272 21.5077 29.0955 21.3317 29.1859 21.0647C28.571 20.9821 28.155 20.496 27.6012 20.1936C25.3453 18.7258 22.8065 17.7478 20.1489 17.323C19.8681 17.2561 19.5734 17.2787 19.3061 17.3877C19.0388 17.4967 18.8122 17.6865 18.6582 17.9307C17.8352 19.0799 17.114 20.2989 16.503 21.5736C15.7846 23.2846 16.1719 24.1682 17.8279 24.9962C18.149 25.1124 18.4431 25.2926 18.6923 25.526C19.0905 25.5518 19.4664 25.5619 19.8897 25.6032C19.9711 25.6404 20.1824 25.723 20.4327 25.8266C20.4924 25.7713 20.5654 25.7325 20.6446 25.714C20.8831 25.6869 21.123 25.6735 21.363 25.6739C22.5553 25.7366 23.7386 25.9163 24.8958 26.2103Z" fill="#060507"/>
<path d="M32.82 20.3022C34.807 18.7565 37.2185 17.064 39.0953 15.4632C39.6446 15.046 40.3218 14.8327 41.0111 14.8597C41.3119 14.9339 41.5923 15.0746 41.8316 15.2715C42.0709 15.4683 42.2631 15.7163 42.394 15.9972C43.0561 16.991 43.553 18.0925 44.1601 19.0881C44.2867 19.268 44.3501 19.4848 44.3401 19.7046C44.3301 19.9243 44.2474 20.1346 44.105 20.3022C43.8111 20.7529 43.4369 21.1458 43.001 21.4613C42.0629 22.1797 41.1242 22.8981 40.131 23.5566C38.7486 24.6282 37.2704 25.5701 35.7152 26.3704C35.2183 26.5913 34.8322 26.5913 34.5562 26.1495C34.2251 25.6526 33.3971 24.0212 33.1194 23.4692C33.0092 23.2483 33.5283 23.6656 33.6941 23.5554C35.1842 25.1563 36.5971 24.6594 37.9219 23.7212C39.3587 22.7275 40.6818 21.6792 42.0617 20.6854C43.2208 19.8574 43.2758 19.4713 42.5586 18.2566C40.7925 15.1656 40.4633 15.1099 37.7561 17.2628C36.2103 18.5326 34.4993 19.5258 33.1194 21.0164C32.7883 21.2374 33.0942 21.9863 32.4872 21.9306C32.3826 21.3652 32.5019 20.7812 32.82 20.3022Z" fill="#050406"/>
<path d="M32.458 21.9028C32.6789 21.7926 32.6789 21.5717 32.734 21.3508C32.7269 21.2426 32.7487 21.1344 32.7972 21.0374C32.8457 20.9404 32.9192 20.8581 33.01 20.7988C33.3961 21.9579 34.1139 23.0067 34.0589 24.2765C33.9487 24.3867 33.893 24.4974 33.7829 24.5525C33.1376 23.7867 32.6835 22.8785 32.458 21.9028Z" fill="#171519"/>
<path d="M29.7729 21.9489C29.8555 22.8469 28.1284 25.9169 27.9625 26.248C27.5764 26.9101 26.9927 26.9257 26.2204 26.8155C24.4543 26.5395 17.6193 25.4685 17.1775 25.1925C16.0184 24.6405 15.6778 23.4486 15.9538 22.1788C16.1459 21.3536 16.4823 20.5688 16.9476 19.8607C17.3894 19.0878 17.8857 18.3706 18.3844 17.6528C18.5191 17.427 18.6865 17.2224 18.8813 17.0458C19.0161 16.894 19.1936 16.7864 19.3906 16.7371C19.5876 16.6879 19.7948 16.6993 19.9852 16.7698C20.6655 16.9828 21.3691 17.1125 22.0806 17.1559C22.307 17.185 22.5293 17.2407 22.7427 17.3218C24.7848 18.3156 26.9376 19.1435 28.8695 20.4127C28.9252 20.5779 29.6903 21.0515 29.7729 21.9489Z" fill="#D4BDAD"/>
<path d="M38.3088 37.6359C38.3268 37.8203 38.3013 38.0063 38.2342 38.1789C38.1671 38.3515 38.0604 38.506 37.9226 38.6297C37.8125 38.7399 37.7017 38.7956 37.5916 38.6848C37.4814 38.6297 37.3707 38.4639 37.4257 38.3538C37.4283 38.1768 37.4752 38.0033 37.5619 37.8491C37.6487 37.6948 37.7727 37.5648 37.9226 37.4707C38.0328 37.4701 38.3088 37.5252 38.3088 37.6359Z" fill="white"/>
<path d="M37.2049 39.4573C37.26 39.7884 36.8187 40.1757 36.432 40.1195C36.3769 40.1195 36.3218 40.1195 36.3218 40.0644C36.2471 40.0216 36.1896 39.954 36.1593 39.8733C36.1291 39.7927 36.1279 39.704 36.156 39.6226C36.186 39.4931 36.255 39.376 36.3537 39.2871C36.4524 39.1983 36.5761 39.1419 36.708 39.1257C36.7944 39.1212 36.8806 39.1393 36.958 39.178C37.0354 39.2167 37.1015 39.2748 37.1498 39.3466C37.1498 39.4022 37.1498 39.4573 37.2049 39.4573Z" fill="white"/>
<path d="M33.6192 14.1205C33.0307 14.3169 33.1062 13.4566 33.1062 13.2908C33.1382 12.6649 33.3297 12.0576 33.6623 11.5265C33.995 10.9954 34.4578 10.5581 35.007 10.2561C35.5921 9.98443 36.254 9.9268 36.8772 10.0932C37.5711 10.3195 39.1701 11.6773 38.3254 12.8992C37.9482 13.0788 36.9526 11.915 35.7762 12.2203C34.5999 12.5257 33.73 14.0098 33.6192 14.1205Z" fill="#D8D8D8"/>
<path d="M22.2614 12.6866C22.2536 12.5447 22.4931 12.3873 22.6907 12.1933C22.9933 11.8725 23.366 11.626 23.7796 11.4729C24.1932 11.3198 24.6366 11.2644 25.0752 11.3109C25.7936 11.4414 26.3821 12.4867 26.4473 13.5325C26.4473 13.663 26.3168 13.7942 26.2516 13.9247C26.1863 13.9899 26.0558 13.9247 25.99 13.9247C25.7139 13.7734 25.4515 13.5986 25.2057 13.402C24.2107 12.7938 23.7162 12.8536 22.7224 12.7609C22.6278 12.7525 22.2686 12.8285 22.2614 12.6866Z" fill="#D4D4D5"/>
<path d="M33.4517 23.0082C33.0591 22.3627 32.9029 21.6009 33.0099 20.853C34.5557 19.4162 36.3218 18.259 37.9789 16.9341C38.5309 16.4923 39.0828 16.1061 39.6348 15.6643C39.8034 15.5275 40.0089 15.444 40.2251 15.4244C40.4413 15.4048 40.6585 15.4499 40.8489 15.5542C41.5164 15.8167 42.0524 16.3335 42.339 16.991C42.6186 17.5788 42.9318 18.1501 43.2771 18.702C43.7189 19.5299 44.2679 19.7335 43.6058 20.3962C43.4956 20.5064 37.0204 25.2083 36.7426 25.3742C35.1968 26.2021 35.3842 25.8226 34.5006 24.7755C34.3898 24.6073 33.6714 23.4494 33.4517 23.0082Z" fill="#D4BDAD"/>
<path d="M26.3863 23.0078C26.5411 23.0131 26.6911 23.0628 26.8185 23.1508C26.9458 23.2389 27.0452 23.3618 27.1047 23.5047C27.1683 23.687 27.1887 23.8816 27.1644 24.0732C27.1401 24.2647 27.0717 24.448 26.9646 24.6087C26.8575 24.7694 26.7146 24.9031 26.5472 24.9993C26.3798 25.0954 26.1923 25.1515 25.9996 25.163C25.5027 25.163 24.8406 24.3901 25.1716 23.8382C25.2993 23.6179 25.4746 23.429 25.6848 23.2853C25.895 23.1416 26.1347 23.0468 26.3863 23.0078Z" fill="#0B0A09"/>
<path d="M36.4877 23.5048C36.4964 23.7523 36.4096 23.9936 36.2452 24.1789C36.0808 24.3641 35.8515 24.479 35.6047 24.4997C35.4697 24.4998 35.3362 24.4718 35.2125 24.4177C35.0889 24.3635 34.9778 24.2844 34.8863 24.1851C34.7948 24.0859 34.7248 23.9688 34.6808 23.8412C34.6368 23.7136 34.6197 23.5782 34.6306 23.4437C34.6266 23.314 34.6489 23.1849 34.6962 23.0641C34.7435 22.9433 34.8149 22.8334 34.906 22.7411C34.9971 22.6487 35.106 22.5758 35.2261 22.5268C35.3462 22.4777 35.475 22.4536 35.6047 22.4559C36.1543 22.4331 36.4326 22.8971 36.4877 23.5048Z" fill="#090807"/>
</g>
</svg>
