<svg width="64" height="64" viewBox="0 0 64 64" fill="none" xmlns="http://www.w3.org/2000/svg">
<circle cx="32" cy="32" r="32" fill="#7D98D3"/>
<mask id="mask0" mask-type="alpha" maskUnits="userSpaceOnUse" x="0" y="0" width="64" height="64">
<circle cx="32" cy="32" r="32" fill="#7D98D3"/>
</mask>
<g mask="url(#mask0)">
<path d="M10.079 112.358C9.50512 112.416 9.16077 112.645 8.75903 112.817C7.15207 113.678 5.60249 113.449 3.99553 112.76C3.88074 112.703 3.70857 112.645 3.65117 112.53C3.01987 111.67 2.1016 110.981 1.64247 109.948C1.29812 109.087 0.781591 108.226 0.379848 107.365C0.207674 107.021 0.0354996 106.734 -0.194067 106.447C-0.595808 105.873 -0.710592 105.816 -1.45668 106.045C-2.54712 106.389 -3.63757 106.791 -4.72801 107.136C-6.10541 107.537 -7.48281 107.767 -8.9176 107.767C-9.72108 107.767 -10.582 107.824 -11.3854 107.939C-12.5333 108.111 -13.6811 107.882 -14.7715 107.595C-15.6324 107.423 -16.2063 106.734 -16.5507 105.988C-17.5263 103.922 -18.1003 101.798 -17.9855 99.5025C-17.9281 98.1825 -17.8133 96.8624 -17.3542 95.5998C-17.2394 95.3703 -17.182 95.0833 -17.1246 94.7964C-16.9524 93.8781 -16.7803 93.0172 -16.3211 92.1563C-16.2063 91.9842 -16.1489 91.7546 -16.0916 91.525C-15.2307 88.3111 -13.7385 85.3841 -12.4185 82.3424C-12.3037 82.0554 -12.1889 81.7684 -12.0167 81.4815C-11.7872 81.0224 -11.8446 80.6206 -12.0167 80.1615C-13.1072 77.6936 -14.1976 75.2258 -15.2881 72.7579C-15.4602 72.2988 -15.6898 71.8397 -15.8046 71.3232C-16.0916 70.2901 -15.7472 69.544 -14.8863 68.9127C-14.5994 68.7405 -14.3124 68.5684 -14.0828 68.3962C-6.79411 64.1492 0.494633 59.8448 7.78337 55.5978C8.87382 54.9665 9.84947 54.2204 10.5382 53.13C11.1121 52.2117 11.9156 51.5804 12.7191 50.8917C14.613 49.4569 14.2686 50.203 14.0965 47.7926C14.0391 46.7021 13.9243 45.6117 13.7521 44.5213C13.5225 43.2586 13.5799 41.9386 13.5225 40.676C13.4651 38.9543 13.3504 37.2325 13.293 35.4534C13.2356 33.9038 13.293 32.3542 13.3504 30.8046C13.4078 28.9107 13.4078 27.0742 13.5225 25.1803C13.5799 24.2046 13.6373 23.2863 13.8095 22.3107C14.0391 20.7611 14.1539 19.2115 14.4982 17.7194C14.7852 16.4567 15.1869 15.2515 15.7608 14.1037C16.3347 13.0706 16.8513 11.9802 17.4252 10.9471C18.1139 9.7993 18.8026 8.70886 19.6061 7.67581C20.5243 6.52798 21.6148 5.55232 22.7626 4.57666C23.853 3.71579 24.9435 2.85491 26.1487 2.28099C26.3783 2.16621 26.5504 2.05143 26.7226 1.93664C28.1574 0.903593 29.7644 0.501852 31.4287 0.214894C32.8061 -0.0146731 34.1262 -0.0720648 35.5036 0.10011C37.1105 0.272285 38.4879 0.846202 39.7505 1.82186C40.3244 2.28099 40.9558 2.68273 41.7592 2.56795C41.874 2.56795 41.9314 2.56795 42.0462 2.62534C43.6532 3.25665 45.2601 3.77318 46.5228 4.9784C47.9575 6.29841 49.2202 7.7332 50.368 9.28278C50.5402 9.51234 50.6549 9.74191 50.7697 9.97148C51.2863 11.1767 51.8028 12.3819 52.0323 13.7019C52.721 17.375 53.0654 21.0481 53.3524 24.7211C53.4671 26.0411 53.6393 27.3611 53.7541 28.6812C53.8115 29.1977 53.8689 29.7142 53.8115 30.1733C53.5245 33.0429 53.6967 35.9699 53.5245 38.8395C53.4097 40.3891 53.6393 41.9386 53.5245 43.4882C53.4097 44.7508 53.4098 46.0708 53.295 47.3334C53.2376 47.9648 53.295 48.5961 53.4097 49.2274C53.4671 49.6291 53.5245 50.0882 53.6967 50.4326C53.9263 50.8343 54.4428 50.7196 54.8445 50.7769C56.8532 51.2935 58.8046 51.9248 60.6411 52.7857C62.2481 53.5891 63.6829 54.6222 65.0602 55.77C66.495 56.9753 68.0446 58.0657 69.6516 59.0413C71.1438 59.9596 72.5212 61.0501 73.8986 62.0831C74.6447 62.5996 75.3908 63.1162 76.1368 63.6327C77.1699 64.3214 78.1456 65.1249 79.0064 65.9857C80.3264 67.3057 81.7612 68.3962 83.1386 69.6588C83.7125 70.1753 84.2865 70.6919 84.8604 71.2658C85.8934 72.4136 86.9265 73.6188 87.9595 74.7667C88.7056 75.5701 89.4517 76.3736 90.1978 77.1771C90.7717 77.8084 91.2882 78.4971 91.7474 79.3006C92.2639 80.2189 92.8952 81.0798 93.5839 81.8832C94.1578 82.6293 94.1004 83.318 93.6413 84.0067C92.8952 85.0398 92.1491 86.0728 91.1161 86.8763C90.5995 87.278 90.1404 87.6798 89.7387 88.1963C89.3943 88.5981 88.9352 88.9424 88.4761 89.2868C87.5578 89.9181 86.6969 90.5494 85.836 91.2381C84.6308 92.2711 83.1386 92.9598 81.8186 93.8781C80.4986 94.739 79.1212 95.3703 77.7438 96.1738C76.596 96.8624 75.5055 97.6085 74.3577 98.2399C73.1525 98.9286 71.8325 99.3877 70.6272 99.9042C68.5611 100.822 66.495 101.626 64.4289 102.487C63.6828 102.774 62.9941 103.118 62.3055 103.405C61.3298 103.749 60.2967 104.094 59.2063 103.692C58.7472 103.52 58.5176 103.864 58.6324 104.323C58.6898 104.61 58.862 104.84 59.0341 105.012C59.3211 105.299 59.5507 105.643 59.8376 105.93C60.182 106.217 60.2393 106.619 60.2967 107.021C60.4115 107.709 60.182 108.226 59.6654 108.743C59.1489 109.259 58.6324 109.776 58.0011 110.177C57.7141 110.349 57.4272 110.636 57.0828 110.809C56.6811 111.038 56.6237 111.325 56.6237 111.727C56.6237 112.588 56.9106 113.449 57.1402 114.31C57.6567 116.146 58.2306 117.983 59.2637 119.647C59.5507 120.106 59.7802 120.623 59.9524 121.139C60.8133 123.664 61.6741 126.132 62.5924 128.657C63.1089 130.15 63.6828 131.584 64.2568 133.019C64.7733 134.282 65.1176 135.544 65.5194 136.807C65.9211 138.184 66.4377 139.562 66.9542 140.939C67.6429 142.718 68.3316 144.498 69.0777 146.277C69.8238 148.171 70.5699 150.007 71.3733 151.901C72.062 153.508 72.8081 155.058 73.4968 156.665C74.1855 158.386 74.989 160.108 75.6777 161.83C76.309 163.379 76.6534 164.986 76.8829 166.593C76.9977 167.339 76.8255 168.085 76.5386 168.717C76.0221 169.865 75.3334 170.955 74.4725 171.931C74.0707 172.39 73.669 172.792 73.2673 173.251C71.5455 175.374 69.2498 176.694 66.782 177.727C65.8637 178.072 65.0602 178.531 64.1994 179.047C63.7976 179.277 63.6829 179.564 63.7976 179.966C63.855 180.253 63.855 180.539 63.9124 180.769C64.4863 182.893 64.7159 185.073 65.0602 187.254C65.2324 188.23 65.3472 189.263 65.462 190.239C65.5768 191.673 65.8063 193.051 66.0359 194.486C66.0933 194.715 66.1507 194.887 66.3229 195.06C67.3559 195.863 68.102 196.781 68.6759 197.814C68.7333 197.929 68.7907 198.044 68.9055 198.159C69.5368 198.905 69.8238 199.766 70.1107 200.741C70.6272 202.578 70.9716 204.472 71.3733 206.366C71.8899 208.719 72.2342 211.129 72.349 213.597C72.349 214.343 72.5212 215.032 72.6359 215.778C72.9803 217.787 73.4394 219.853 73.7264 221.861C74.1281 224.329 74.5299 226.855 74.8742 229.322C75.1612 231.216 75.4481 233.11 75.8499 235.004C76.0221 235.808 76.1368 236.611 76.1942 237.472C76.3664 239.825 77.1125 241.949 78.4325 243.842C79.1212 244.761 79.7525 245.736 80.4986 246.597C81.6464 247.975 82.5073 249.524 83.483 251.074C83.9995 251.82 84.4012 252.681 84.9752 253.37C86.0656 254.804 86.2952 256.469 86.4673 258.133C86.5247 258.592 86.41 259.051 86.4673 259.51C86.5821 260.314 86.2952 261.06 85.8934 261.749C84.4012 264.503 82.1056 266.11 79.0638 266.799C77.9734 267.029 76.8829 266.684 75.8499 266.512C75.5629 266.455 75.3334 266.34 75.1038 266.225C74.4725 265.881 73.669 265.823 73.1525 265.307C72.1194 264.274 70.9716 263.356 70.1681 262.093C69.5368 261.175 68.9629 260.257 68.389 259.338C66.8394 256.928 65.6916 254.345 64.4289 251.82C63.5107 249.926 62.822 247.917 62.2481 245.909C62.2481 245.794 62.2481 245.679 62.1907 245.622C61.4446 244.818 61.4446 243.728 61.0428 242.752C60.6411 241.776 60.3541 240.743 60.0672 239.768C59.9524 239.366 59.8376 238.964 59.6654 238.62C57.8863 234.602 56.5089 230.413 55.1315 226.281C54.2132 223.526 53.5245 220.771 52.6637 218.016C51.9176 215.548 51.2863 213.081 50.4828 210.67C49.8515 208.948 49.3349 207.169 48.8758 205.447C48.4741 204.127 48.4741 202.75 48.5888 201.373C48.5888 200.856 48.9332 200.397 49.1628 199.995C49.5645 199.249 49.7367 198.503 49.5071 197.642C49.1628 196.38 48.9906 195.117 48.7036 193.912C48.1297 191.387 47.7854 188.746 47.1541 186.221C46.8097 184.959 46.6375 183.639 46.408 182.319C46.3506 182.146 46.3506 181.974 46.2358 181.802C46.1784 181.63 46.0062 181.515 45.7767 181.573C45.0306 181.687 44.2271 181.802 43.481 181.917C41.4149 182.261 39.2914 182.433 37.1679 182.433C34.9296 182.433 32.6914 182.491 30.4531 182.261C29.42 182.146 28.387 182.032 27.2392 181.917C27.0096 182.146 27.1244 182.548 27.067 182.893C27.0096 183.237 27.067 183.524 27.0096 183.868C26.8374 186.91 26.8374 190.009 26.3209 193.051C26.0913 194.313 25.9191 195.576 25.9191 196.896C25.9191 197.24 25.9191 197.527 25.8044 197.872C25.5174 198.79 25.8044 199.594 26.3209 200.34C26.6652 200.799 26.7226 201.2 26.78 201.717C26.8948 203.898 26.5504 206.021 26.1487 208.145C25.6896 210.498 25.1157 212.794 24.5991 215.089C24.14 217.098 23.3939 219.049 22.9348 221.001C22.7626 221.804 22.5904 222.608 22.4183 223.411C22.1313 224.788 21.9017 226.166 21.3852 227.543C20.8687 228.978 20.4669 230.413 20.1226 231.905C19.7782 233.34 19.6061 234.775 19.3765 236.209C19.2617 236.841 19.3191 237.472 19.5487 238.103C19.893 239.079 20.0652 240.055 20.2948 241.03C20.6391 242.522 20.6965 244.015 20.4669 245.564C20.2374 247.114 19.6061 248.434 18.573 249.639C18.2287 250.041 17.8843 250.5 17.54 250.902C16.7939 251.763 15.9904 252.509 14.9573 252.853C14.613 252.968 14.3834 253.197 14.0965 253.484C12.9486 254.919 12.1451 256.583 11.1695 258.133C10.4234 259.396 9.6773 260.658 8.93121 261.921C8.58686 262.437 8.12773 262.954 7.72598 263.413C7.49642 263.643 7.20946 263.815 7.03728 264.102C6.40598 265.307 5.25814 265.766 4.05292 266.11C1.52768 266.857 -0.997549 266.971 -3.58017 266.455C-4.95757 266.168 -6.27758 265.594 -7.59759 265.135C-7.71237 265.077 -7.82716 265.02 -7.94194 264.905C-8.40107 264.159 -8.86021 263.413 -9.37673 262.724C-9.66369 262.323 -9.72108 261.863 -9.77847 261.404C-9.95065 260.142 -10.0654 258.879 -9.49152 257.616C-9.43412 257.444 -9.37673 257.272 -9.26195 257.1C-7.71237 254.862 -6.10541 252.738 -4.15409 250.844C-3.80974 250.5 -3.46539 250.213 -3.12104 249.926C-0.997549 248.204 0.724199 246.138 2.33117 243.957C3.01987 243.039 3.53639 242.063 3.65117 240.858C3.65117 240.342 3.93813 239.825 4.05292 239.251C4.33987 237.989 4.39727 236.669 4.51205 235.349C4.68422 233.799 4.56944 232.249 4.68422 230.7C4.79901 229.035 4.62683 227.428 4.62683 225.764C4.62683 223.985 4.68423 222.206 4.62683 220.427C4.56944 218.877 4.56944 217.328 4.56944 215.778C4.51205 214.286 4.62683 212.794 4.56944 211.301C4.51205 210.096 4.39727 208.948 4.28248 207.743C4.11031 205.792 4.1677 203.783 4.22509 201.832C4.22509 201.602 4.33987 201.373 4.39726 201.2C4.62683 200.512 4.79901 199.766 5.02857 199.134C5.43032 198.159 5.77467 197.183 6.80772 196.609C7.20946 196.38 7.32424 195.978 7.32424 195.576C7.32424 194.199 7.43902 192.821 7.55381 191.444C7.72598 189.78 8.01294 188.173 8.24251 186.566C8.41468 185.418 8.64425 184.327 8.9886 183.237C9.39034 182.089 9.56252 180.941 9.79208 179.793C9.84947 179.506 9.6773 179.392 9.39034 179.334C8.58686 179.162 7.78337 178.99 7.03728 178.646C6.57815 178.416 6.11901 178.244 5.65988 178.014C5.02857 177.613 4.39727 177.268 3.70857 176.981C1.35551 175.833 -0.767982 174.341 -2.83408 172.734C-4.32627 171.529 -5.35932 169.922 -5.99062 168.143C-6.10541 167.856 -6.10541 167.512 -6.10541 167.225C-6.1628 166.134 -6.10541 165.101 -5.81845 164.011C-5.41671 162.461 -5.07236 160.912 -4.61322 159.362C-4.26888 158.099 -3.92452 156.779 -3.58017 155.517C-3.408 154.885 -3.23582 154.311 -2.89147 153.738C-2.37495 152.877 -2.31756 151.901 -2.0306 150.983C-1.45668 149.433 -1.05494 147.826 -0.481026 146.277C0.552025 143.694 1.29812 140.997 1.98682 138.299C2.67552 135.602 3.42161 132.904 4.45466 130.322C4.56944 129.977 4.74162 129.633 4.79901 129.289C5.25814 127.165 6.06162 125.099 6.63554 122.976C6.86511 122.115 7.32424 121.254 7.66859 120.45C8.2999 118.786 8.9886 117.122 9.56252 115.457C9.79208 114.424 9.96426 113.449 10.079 112.358Z" fill="black"/>
<path d="M51.4588 151.843C50.5979 151.613 49.7944 151.384 48.9336 151.154C48.1875 150.982 47.7283 150.523 47.4988 149.834C46.7527 147.424 46.064 145.013 45.6049 142.546C45.0883 139.906 44.5718 137.266 43.8831 134.626C43.3092 132.387 42.9074 130.034 42.5631 127.739C41.8744 123.549 41.5301 119.302 40.6692 115.112C40.5544 114.596 40.497 114.022 40.3248 113.505C39.6935 111.267 39.5213 109.029 39.2918 106.733C39.2344 106.217 39.0622 105.758 39.0048 105.241C38.4309 101.338 37.7996 97.4358 37.5126 93.5331C37.3405 91.467 36.9387 89.4583 36.5944 87.4496C36.4222 86.474 36.3648 85.5557 36.6518 84.58C36.7665 84.2357 36.8239 83.8913 36.7665 83.4896C36.6518 82.6861 36.3648 81.9974 35.5613 81.6531C34.8726 81.3661 34.93 81.3087 34.9874 80.62C35.1596 79.4722 35.2744 78.3243 35.4465 77.2339C35.5039 76.7174 35.5613 76.2582 35.6761 75.7417C36.4222 71.2652 37.1683 66.7886 37.9144 62.3121C38.3161 59.9016 38.8326 57.4338 39.2344 55.0233C39.3492 54.4494 39.5787 54.1051 40.1527 53.9903C40.9561 53.8181 41.5874 53.4164 42.2188 52.8998C42.4483 52.6703 42.7353 52.4981 42.9648 52.3259C43.3092 52.039 43.7109 51.9816 44.0553 52.2685C44.1701 52.3259 44.2849 52.3833 44.457 52.4407C44.744 52.4981 45.1457 52.7851 45.0309 52.1537C44.9162 52.039 44.8014 51.9816 44.6866 51.8668C44.457 51.6946 44.2275 51.5798 44.2848 51.2355C44.3996 50.8337 44.744 50.432 45.1457 50.4894C45.777 50.5468 46.4083 50.4894 47.0396 50.719C48.8188 51.2929 50.6553 51.6946 52.4345 52.3833C53.1806 52.6703 53.984 52.8424 54.7875 53.072C55.8206 53.359 56.2797 53.9329 56.3371 55.0233C56.3945 55.9416 56.3371 56.8599 56.2223 57.7781C56.0501 59.7294 55.9927 61.7382 55.7058 63.6321C55.304 66.2721 55.0745 69.0269 54.2136 71.5521C54.1562 71.7243 54.0988 71.8965 54.0988 72.0686C54.0988 72.9869 53.6971 73.7904 53.2379 74.4791C52.4919 75.6843 51.6884 76.8322 50.5979 77.8078C49.7371 78.6113 48.9336 79.4722 48.0727 80.3331C47.7857 80.5626 47.4988 80.7922 47.2692 81.0791C46.9249 81.7678 46.1788 82.1122 45.5475 82.9157C46.2936 82.1122 46.8675 81.4235 47.7857 81.3661C48.2449 81.0217 48.8188 81.0217 49.3353 80.8496C50.1388 80.62 50.5405 80.9644 50.4258 81.7678C50.3684 82.5713 50.1962 83.3748 50.0814 84.2357C49.7944 85.8426 49.4501 87.4496 49.1631 89.114C48.9336 90.3766 48.7614 91.6392 48.704 92.9018C48.6466 93.9349 48.6466 94.9679 48.8762 96.001C48.9336 96.1731 48.9336 96.3453 48.9336 96.5175C48.9336 96.7471 48.8188 96.9766 48.5892 97.034C48.3597 97.1488 48.0727 97.2636 47.8431 97.321C46.2936 97.7801 45.6622 99.1575 45.9492 100.535C46.064 101.338 46.2362 102.142 46.4083 102.945C46.6379 103.978 46.8675 105.011 47.0396 106.045C47.2118 107.02 47.5562 107.996 48.0153 108.857C48.5892 109.947 49.5075 110.751 50.7701 110.98C52.3197 111.267 53.3527 112.243 54.2136 113.505C55.1319 114.825 55.7632 116.318 56.3945 117.752C56.4519 117.982 56.5667 118.154 56.6814 118.384C57.7719 120.163 58.518 122.057 59.3215 123.951C60.125 125.845 60.7563 127.796 61.445 129.747C62.7076 133.133 63.8554 136.577 65.1754 139.963C66.0937 142.431 67.1267 144.784 68.1024 147.252C69.5372 150.753 70.9146 154.196 72.3494 157.697C72.5789 158.214 72.6937 158.73 72.9233 159.247C73.0955 159.534 73.0955 159.878 72.9233 160.165C72.8085 160.107 72.6363 160.107 72.5789 160.05C72.005 159.476 71.3737 159.247 70.6276 159.763C70.5128 159.82 70.3981 159.821 70.2259 159.821C68.7337 159.534 67.4711 158.673 66.1511 157.984C62.191 155.918 58.231 153.852 53.8119 152.876C53.0084 152.704 52.1475 152.417 51.4588 151.843Z" fill="#4F8CB1"/>
<path d="M91.9773 82.457C92.0347 83.3753 91.5182 84.1788 90.9443 84.9249C89.6817 86.4745 88.2469 87.9092 86.5825 89.1145C84.2869 90.7788 81.9912 92.4432 79.5234 93.878C78.8347 94.2797 78.146 94.6241 77.4573 95.0258C74.8746 96.6328 72.1198 97.8954 69.4224 99.2728C68.045 99.9615 66.6102 100.593 65.118 101.052C63.9702 101.454 62.8798 101.855 61.8467 102.487C61.1006 102.946 60.4119 102.946 59.7232 102.372C59.3215 102.028 58.805 101.741 58.4032 101.396C57.8293 100.995 57.4276 100.478 57.3128 99.7319C57.2554 99.3302 57.0258 98.9858 56.7963 98.5841C56.5667 98.125 56.2797 97.7232 56.1076 97.2641C55.7058 96.4032 55.7058 96.1736 56.3945 95.5997C57.7719 94.3371 59.0919 93.0171 60.6415 91.8693C62.6502 90.4345 64.5441 88.8275 66.4955 87.2779C66.8398 86.991 67.2415 86.704 67.6433 86.4745C70.5703 84.8101 73.4398 83.1457 76.3668 81.5388C77.4573 80.9648 78.4903 80.2761 79.6955 79.9318C80.499 79.7022 81.0155 78.9561 81.7042 78.497C81.819 78.4396 81.819 78.1527 81.7616 77.9805C81.7042 77.6935 81.4173 77.6361 81.1877 77.7509C80.6138 78.0379 79.9825 78.0953 79.3512 78.21C78.8347 78.3248 78.3755 78.3248 77.859 78.3248C77.2851 78.3248 77.0555 77.9805 77.2277 77.4066C77.5147 76.4883 77.8016 75.57 78.0312 74.6518C78.0312 74.537 77.9738 74.3648 77.9164 74.3074C77.859 74.25 77.6294 74.3074 77.572 74.3648C77.1129 74.9961 76.4816 75.5126 76.1946 76.2013C75.9651 76.7753 75.5059 77.177 75.0468 77.5214C74.2433 78.1527 73.8416 78.0379 73.612 77.0622C73.4972 76.7753 73.4972 76.4309 73.4398 76.144C73.3251 75.57 73.2103 74.9961 73.0955 74.4222C72.9807 73.9057 72.6364 73.6761 72.1198 73.6761C71.8903 73.6761 71.7755 73.7909 71.7755 74.0205C71.8329 74.3074 71.9477 74.6518 72.005 74.9387C72.292 76.2587 72.579 77.6361 73.1529 78.8988C73.2103 79.0709 73.2103 79.3005 73.0381 79.4153C72.8659 79.5301 72.6938 79.4153 72.5216 79.3005C70.972 78.2674 69.5372 77.177 68.1598 75.9718C66.4955 74.4796 64.7737 73.0448 62.8798 71.7822C62.1337 71.2657 61.445 70.6343 60.7563 70.0604C59.8954 69.3717 59.0919 68.6256 58.2311 67.9369C58.0015 67.7648 57.8293 67.5352 57.6571 67.363C57.0258 66.7317 56.8537 65.9856 56.9684 65.1248C57.198 63.2308 57.485 61.3369 57.4276 59.3856C57.3702 58.2951 57.5424 57.2047 57.5997 56.1143C57.5997 55.7125 57.7719 55.4256 57.9441 55.0812C58.3458 54.5073 58.518 54.4499 59.2067 54.5647C60.0102 54.7369 60.6415 55.0238 61.2728 55.5403C62.4206 56.4586 63.6833 57.1473 65.0033 57.836C65.8068 58.2378 66.6102 58.7543 67.3563 59.2708C68.8485 60.3039 70.3407 61.3943 71.8329 62.4273C72.3494 62.8291 72.8085 63.2882 73.2677 63.69C74.4155 64.6082 75.5059 65.5839 76.6538 66.5022C79.0642 68.5109 81.4747 70.4622 83.713 72.6431C85.4921 74.3648 87.1565 76.2013 88.8782 77.9805C89.8539 79.0135 90.7147 80.1614 91.6904 81.1944C91.7478 81.5388 92.0347 81.9405 91.9773 82.457Z" fill="#4F8CB1"/>
<path d="M23.107 23.5159C23.5661 22.3681 23.5661 22.3681 24.7714 22.4255C25.8044 22.4829 26.7801 22.655 27.6983 23.0568C28.3296 23.3437 28.9036 22.8846 28.7888 22.1959C28.7314 22.0237 28.674 21.8516 28.674 21.6794C28.6166 21.335 28.3296 21.1055 27.9853 21.1055C27.067 21.1055 26.1488 20.9907 25.2305 21.1629C24.8861 21.2203 24.5418 21.335 24.0827 21.2776C23.9679 20.9333 24.14 20.5889 24.3122 20.302C25.4027 18.2359 26.6079 16.2272 28.387 14.6776C28.5018 14.5628 28.6166 14.5054 28.7314 14.3906C30.3383 13.3002 32.0027 12.3245 33.8966 11.9802C34.9297 11.808 36.0201 11.808 36.9384 12.4393C37.3401 12.6689 37.6845 12.8985 38.201 12.8985C38.5454 12.8985 38.8323 13.0706 39.0619 13.3002C40.0949 14.1037 40.8984 15.022 41.7019 16.055C43.0793 17.8341 43.5384 19.9002 44.1697 21.9663C44.4567 22.8846 44.8584 23.7455 44.9158 24.7211C44.9732 25.3525 45.4324 25.5246 46.1211 25.3525C46.2358 25.2951 46.3506 25.2377 46.5228 25.2377C47.728 25.0081 48.7037 25.9264 48.5315 27.189C48.3593 28.3942 47.4985 29.1403 46.2932 29.1403C46.1211 29.1403 45.9489 29.0829 45.7193 29.0829C45.2602 29.0829 44.801 29.4847 44.8584 29.9438C44.9158 30.3455 44.8584 30.6325 44.6863 30.9768C44.5715 31.2638 44.4567 31.5508 44.3419 31.8951C44.055 32.756 43.6532 33.5595 43.0793 34.3056C41.9315 35.7977 40.841 37.2899 39.7506 38.8395C39.2341 39.5856 38.6027 40.2743 37.914 40.8482C37.2253 41.4795 36.594 42.1108 35.9053 42.6847C35.3314 43.2013 34.6427 43.603 33.954 43.9473C32.5766 44.5213 31.2566 44.3491 29.994 43.603C28.9609 42.9717 27.8705 42.3404 26.9522 41.4795C26.2635 40.8482 25.4601 40.2743 24.714 39.7004C24.0827 39.2412 23.6809 38.6673 23.394 37.9786C22.9922 37.1177 22.7626 36.3143 22.5905 35.396C22.3035 33.3873 22.1313 31.3786 22.1887 29.3699C22.2461 27.9925 22.4757 26.6725 22.7626 25.2951C23.5087 25.0655 23.8531 25.582 24.1974 26.0412C25.2879 27.4186 25.6322 27.5333 27.4688 26.9594C26.3783 25.9264 25.0009 25.6394 23.7957 25.1229C23.0496 24.7211 22.6479 24.3768 23.107 23.5159Z" fill="#EAC4A3"/>
<path d="M16.9087 72.47C16.507 74.9952 15.9905 77.5205 15.0722 79.9309C14.8426 80.5622 14.4983 81.1935 13.9818 81.6527C13.867 81.7675 13.8096 81.8249 13.6948 81.9396C12.7765 83.0301 11.7435 83.7762 10.2513 83.891C9.67739 83.9484 9.10348 84.2353 8.52956 84.4649C7.43912 84.924 6.29129 85.2684 5.14345 85.6127C2.733 86.3588 0.322552 87.1049 -2.0879 87.851C-3.63747 88.3101 -3.52269 88.3675 -4.21139 86.8753C-6.33488 82.3988 -8.40098 77.9222 -10.5245 73.4457C-11.328 71.7813 -11.2706 71.8961 -9.77838 71.0926C-7.99924 70.117 -6.27749 69.0839 -4.55574 68.0509C-3.52269 67.4195 -2.37486 66.8456 -1.28441 66.3291C0.379945 65.583 1.98691 64.6074 3.59388 63.7465C4.56954 63.1726 5.60258 62.656 6.52085 61.9673C7.5539 61.2213 8.75913 60.7621 9.96435 60.303C10.2513 60.1882 10.4809 60.2456 10.6531 60.5326C10.7678 60.7047 10.8826 60.9343 10.9974 61.1065C12.8339 64.55 14.7279 67.9361 16.5644 71.3796C16.7366 71.6665 17.0235 72.0109 16.9087 72.47Z" fill="#34EEF4"/>
<path d="M21.1553 18.0057C20.4666 18.8092 20.3518 19.8422 20.0649 20.7605C19.3762 22.7692 19.0318 24.8353 18.7449 26.9014C18.4579 29.0823 18.171 31.2632 18.4005 33.4441C18.5727 34.7067 18.6301 35.9693 18.8597 37.2319C19.0318 38.4371 19.204 39.6997 19.491 40.905C19.8927 42.4545 20.1223 44.0615 20.6388 45.5537C21.1553 46.9885 21.5571 48.4233 22.0162 49.8581C22.5327 51.6372 23.3362 53.2442 23.9101 55.0233C23.9675 55.1381 23.9675 55.1955 24.0249 55.2529C25.1727 56.7451 25.2875 58.5816 25.5745 60.3034C25.7467 61.3364 25.9762 62.3695 26.1484 63.4025C26.2058 63.8042 26.3206 64.206 26.3206 64.6077C26.378 65.0095 26.378 65.4112 26.7797 65.6982C26.8945 65.813 27.0093 65.9851 27.0667 66.1573C27.3536 67.8791 28.1571 69.4286 28.0423 71.2652C27.9849 71.8965 28.2145 72.5278 28.2719 73.1591C28.3293 73.733 28.0423 73.8478 27.4684 73.6756C27.1241 73.5608 26.8371 73.3313 26.5501 73.1017C26.2058 72.8147 25.8614 72.5278 25.4597 72.2408C24.771 71.7243 24.0823 71.6095 23.2788 71.9539C23.164 72.0113 23.0493 72.0686 22.8771 72.126C22.2458 72.2982 21.9588 72.1834 21.6145 71.6095C21.0979 70.7486 20.9258 69.8304 20.5814 68.9121C19.8353 66.7312 19.3762 64.4929 18.2857 62.4268C18.0562 61.9677 17.884 61.5086 17.8266 60.9921C17.7118 60.1312 17.597 59.2703 17.4823 58.4094C17.4249 58.0651 17.3101 57.7207 17.1379 57.3764C16.7936 56.6303 16.6214 55.8842 16.6788 55.1381C16.7362 53.7607 16.3918 52.3833 16.3344 51.0059C16.2196 49.4563 15.9901 47.9068 15.8179 46.3572C15.8179 46.1276 15.8179 45.898 15.7605 45.6685C15.1866 43.0285 15.0144 40.3311 15.0144 37.6336C15.0144 36.658 14.8422 35.6249 14.7849 34.6493C14.7275 33.1571 14.7848 31.6075 14.7275 30.1153C14.6701 28.7379 14.8422 27.3605 14.7275 26.0405C14.5553 24.0318 14.957 22.1379 15.3588 20.244C15.5309 19.3831 15.7031 18.5222 15.9327 17.7187C16.1049 16.9727 16.3344 16.2266 16.6214 15.4805C17.4249 13.7587 18.171 11.9796 19.1466 10.3152C19.8353 9.10999 20.8684 8.19173 21.844 7.21607C22.5327 6.46998 23.2788 5.78128 24.0249 5.09258C24.3693 4.74823 24.771 4.40388 25.2301 4.17431C26.5501 3.48561 27.8702 2.91169 29.1902 2.28039C29.6493 2.05082 30.1658 1.99343 30.6823 1.99343C32.1745 1.99343 33.7241 1.93604 35.2163 1.93604C36.1346 1.93604 36.938 2.28038 37.6841 2.62473C38.4876 3.02648 38.8893 3.65778 38.832 4.63344C38.7172 5.89606 38.3728 7.15868 38.1433 8.42129C38.0859 8.70825 37.8563 8.88043 37.512 8.82303C37.3972 8.82303 37.225 8.76564 37.1102 8.70825C36.1345 8.30651 35.0441 8.30651 34.0111 8.24912C31.7154 8.19173 29.5919 8.88043 27.698 10.143C27.2388 10.8891 26.4928 11.2909 25.8614 11.75C24.1971 13.0126 23.1066 14.6196 22.1884 16.4561C21.9588 17.1448 21.6719 17.6614 21.1553 18.0057Z" fill="#413D64"/>
<path d="M46.7523 45.5539C46.7523 44.6356 46.7523 43.7173 46.7523 42.7991C46.8097 41.7086 46.4653 40.6182 46.5227 39.5277C46.5801 37.0599 46.5227 34.592 46.5227 32.1242C46.5227 31.952 46.5227 31.7799 46.5227 31.5503C46.5801 30.9764 46.8097 30.5172 47.3836 30.2303C48.9906 29.4842 49.6219 28.1068 49.5645 26.4424C49.5071 25.2372 48.8758 24.2615 47.6706 23.8024C47.441 23.6876 47.154 23.6302 46.8671 23.5155C46.3506 23.3433 45.9488 22.9989 45.834 22.4824C45.6619 21.7363 45.2601 21.0476 45.0306 20.3015C44.514 18.5798 43.7679 16.9728 42.7923 15.4806C41.8166 14.0458 40.6688 12.8406 39.2914 11.8649C38.8323 11.578 38.7175 11.2336 38.7749 10.7171C38.8323 10.0284 38.8323 9.33972 39.0044 8.65102C39.234 7.67536 39.4062 6.6997 39.5784 5.66665C39.6931 5.09273 39.9801 4.97795 40.4392 5.09273C42.9645 5.72404 44.9732 7.04405 46.6949 9.11015C48.761 11.578 49.5645 14.4476 50.081 17.5467C50.368 19.0963 50.4254 20.6459 50.8271 22.1381C50.9419 22.5398 50.8845 22.9415 50.9419 23.3433C51.1715 25.065 50.8845 26.7868 50.9419 28.5659C50.9419 29.3694 50.8845 30.2303 51.1141 31.0338C51.2289 31.3781 51.1715 31.7799 51.1715 32.1242C51.1715 34.5347 51.1715 37.0025 51.1715 39.4129C51.1715 40.0443 51.0567 40.6756 51.0567 41.3069C51.0567 41.7086 50.9993 42.1104 51.1141 42.5121C51.1715 42.6843 51.1715 42.8564 51.1715 43.0286C50.9419 44.406 50.9993 45.7834 50.9419 47.1034C50.8845 48.0791 50.7697 49.1121 50.6549 50.0878C50.5975 50.5469 50.368 50.7191 49.9088 50.6043C49.048 50.3748 48.2445 50.1452 47.3836 49.8582C46.9819 49.7434 46.8097 49.4565 46.8097 49.0547C46.7523 47.9069 46.7523 46.7017 46.7523 45.5539Z" fill="#413D64"/>
<path d="M29.1907 60.5917C29.1333 59.4439 29.1333 58.296 29.0185 57.1482C28.9037 55.4265 28.7889 53.7621 28.6168 52.0977C28.5594 51.2943 28.6741 50.663 29.2481 50.089C29.3628 49.9743 29.4202 49.8595 29.4776 49.7447C30.4533 48.6542 30.7402 47.3342 30.7976 45.9568C30.7976 45.7273 30.7976 45.4977 30.855 45.2681C30.855 45.2107 30.9124 45.2107 30.9698 45.096C31.7733 45.1534 32.6342 45.4403 33.495 45.1534C34.2411 44.8664 35.0446 44.5794 35.7907 44.2925C36.0777 44.4647 36.0203 44.809 36.0777 45.0386C36.1351 45.2681 36.1351 45.4977 36.1925 45.7273C36.2498 46.3012 36.3072 46.9325 36.3072 47.5064C36.422 49.1134 36.9385 50.5482 37.9716 51.8108C38.3733 52.2699 38.4881 52.7864 38.3733 53.3604C38.2012 54.2786 38.1438 55.2543 37.7994 56.1726C37.6272 56.5743 37.6846 57.0908 37.5699 57.55C37.1107 59.9604 36.5942 62.3135 36.3072 64.7239C36.1924 65.5848 36.0203 66.4457 36.0203 67.3065C36.0203 67.7083 35.9055 68.11 35.7907 68.5118C35.6759 69.1431 35.6185 69.2005 34.9298 69.1431C34.2985 69.0857 33.7246 69.2578 33.2081 69.4874C32.4046 69.7744 31.6585 69.4874 30.9698 69.2579C30.7976 69.2005 30.7402 68.9709 30.6255 68.8561C29.7072 67.2491 29.4776 65.4126 29.3628 63.6335C29.1907 62.543 29.3628 61.5674 29.1907 60.5917Z" fill="#EAC4A3"/>
<path d="M20.0655 73.3887C20.0655 72.7573 19.7212 72.2982 19.1473 72.0686C19.2621 72.0113 19.4342 71.9539 19.4916 71.8391C19.549 71.7243 19.4342 71.6095 19.3194 71.5521C19.2621 71.5521 19.2621 71.4947 19.2047 71.4947C18.0568 71.5521 17.5403 70.806 17.0812 69.8878C15.5316 66.7886 13.982 63.6321 12.3751 60.5329C12.1455 60.0738 11.9159 59.672 11.629 59.2129C11.2846 58.6964 10.9977 58.639 10.4811 58.8686C9.50547 59.3277 8.52981 59.9016 7.55415 60.4181C7.2098 60.5903 6.92285 60.7625 6.5785 60.9347C3.36456 62.6564 0.150627 64.4356 -3.06331 66.1573C-4.55549 66.9608 -6.04767 67.7643 -7.53986 68.5678C-8.80247 69.2565 -10.0651 69.9452 -11.2703 70.5765C-11.6147 70.7486 -11.9016 70.9782 -12.0738 71.3226C-12.246 71.7243 -12.3608 72.0113 -12.1312 72.4704C-11.4999 73.7904 -10.8686 75.1104 -10.2373 76.4304C-9.14682 78.7835 -7.99899 81.1365 -6.85116 83.4896C-6.27724 84.6948 -5.70332 85.9 -5.1868 87.1053C-5.01462 87.4496 -4.89984 87.794 -4.78506 88.1383C-4.72766 88.2531 -4.78506 88.4253 -4.84245 88.5401C-5.1868 88.9418 -5.58854 89.2288 -6.10506 89.2861C-6.27724 89.2861 -6.44941 89.1714 -6.5068 88.9992C-6.67898 88.6548 -6.90855 88.2531 -7.08072 87.9087C-7.9416 85.7853 -9.08943 83.7765 -10.0651 81.7104C-11.5573 78.4965 -13.1068 75.34 -14.599 72.126C-15.1156 71.0356 -14.9434 70.2895 -13.9677 69.6008C-12.5903 68.6825 -11.2129 67.7643 -9.77813 66.9608C-8.28595 66.0999 -6.73637 65.2964 -5.1868 64.4929C-2.20243 62.886 0.781936 61.3364 3.82369 59.7294C5.94719 58.5816 8.12807 57.4912 10.2516 56.3433C10.9977 55.9416 11.6864 55.8842 12.4898 56.2285C12.8916 56.4007 13.2359 56.5729 13.4655 56.9746C13.982 57.7781 14.5559 58.5816 15.0151 59.4425C16.622 62.4268 18.0568 65.4686 19.549 68.5678C20.5247 70.5765 21.5003 72.5278 22.4186 74.5365C22.7056 75.1678 22.7056 75.2826 22.189 75.7417C21.9595 75.9139 21.7873 76.0861 21.5003 76.2008C21.2134 76.373 20.9264 76.6026 20.6395 76.3156C20.4099 76.0861 20.5821 75.7991 20.6395 75.5695C20.8116 74.8808 20.7542 74.1921 20.6968 73.5034C20.5247 73.2165 20.2377 73.3313 20.0655 73.3887Z" fill="#233946"/>
<path d="M28.3296 10.6033C29.1331 10.3737 29.9939 10.0868 30.7974 9.8572C32.6339 9.39807 34.4705 9.22589 36.3644 9.51285C36.9383 9.62763 37.3401 10.0294 37.627 10.4885C37.6844 10.6033 37.5122 10.8902 37.3974 10.8902C37.2253 10.8902 37.0531 10.8329 36.8809 10.7755C36.4792 10.6033 36.0774 10.5459 35.6757 10.6033C33.8966 10.7181 32.2322 11.1772 30.6252 11.8659C30.0513 12.0955 29.5348 12.5546 29.0183 12.9563C27.3539 14.2764 25.7469 15.5964 24.5991 17.4329C23.853 18.6955 23.2217 20.0155 22.7052 21.3929C22.6478 21.6225 22.5904 21.8521 22.4756 22.0242C21.7295 23.2868 21.5574 24.7216 21.5 26.099C21.5 26.4434 21.5 26.7303 21.3852 27.0747C21.1556 28.2225 21.0982 29.4278 21.1556 30.633C21.1556 33.56 21.3278 36.4869 21.5574 39.4139C21.6721 40.6191 21.7295 41.767 21.8443 42.9722C21.9591 44.4644 22.2461 45.8418 22.6478 47.2766C22.8774 48.1374 23.0495 48.9409 23.2791 49.8018C23.3365 50.0314 23.3939 50.2609 23.3939 50.4905C23.3939 50.6627 23.3365 50.8922 23.1643 50.8922C23.0495 50.8922 22.9348 50.7775 22.8774 50.7201C22.82 50.6053 22.7626 50.4905 22.7052 50.3183C22.3034 48.7114 21.6721 47.2192 21.2704 45.6122C20.4095 42.1687 19.893 38.7252 19.5486 35.1669C19.2617 32.5269 19.3765 29.8869 19.606 27.1895C19.8356 24.2625 20.4669 21.3929 21.3852 18.6381C22.1313 16.2851 23.3365 14.1616 25.2304 12.5546C26.2061 11.7511 27.0096 10.7181 28.3296 10.6033Z" fill="#68D5BA"/>
<path d="M32.9782 80.3345C32.9208 80.7362 33.0355 81.0806 33.1503 81.4249C33.3225 81.8267 33.2077 82.171 32.806 82.4006C32.2895 82.6875 32.0599 83.2041 31.8877 83.7206C31.5434 84.5815 31.6008 85.3849 32.1747 86.0163C32.806 86.7623 32.4616 87.451 32.2895 88.1971C32.2321 88.4841 31.7729 88.5415 31.6008 88.3119C30.9694 87.3937 30.5103 86.418 29.9938 85.4423C29.879 85.2128 29.9364 84.9832 29.9938 84.7536C30.5103 83.6058 30.3955 82.3432 30.7399 81.138C30.8547 80.7362 30.7973 80.2197 30.6251 79.818C30.2807 78.8997 29.9364 78.0388 29.8216 77.0632C29.7642 76.6614 29.4773 76.3171 29.2477 75.9727C29.0181 75.6284 28.846 75.284 28.9607 74.8249C29.3625 72.931 29.1329 70.9796 28.7312 69.0857C28.5016 67.8805 28.272 66.6753 28.0999 65.4127C27.9851 64.437 27.6981 63.4613 27.4686 62.4283C27.1242 60.8787 26.8372 59.3865 26.4929 57.8943C26.2059 56.6891 25.8616 55.4839 25.5746 54.2787C25.4598 53.8769 25.3451 53.4752 25.2303 53.0734C25.1155 52.7291 24.9433 52.3274 25.2303 52.0404C25.5746 51.696 26.0338 51.9256 26.3781 52.0978C26.8372 52.27 27.0094 52.6717 26.952 53.0734C26.8946 53.7621 26.8946 54.4508 26.952 55.1395C27.1242 56.9187 27.6407 58.6404 27.9851 60.3622C28.2146 61.3952 28.3294 62.4283 28.7312 63.4039C29.5347 65.2405 29.8216 67.2492 30.1086 69.2005C30.3381 70.2909 30.5103 71.4388 30.9694 72.4718C31.3712 72.8162 31.486 73.3327 31.6008 73.8492C32.2321 76.0301 32.6912 78.1536 32.9782 80.3345Z" fill="#4E8BB0"/>
<path d="M45.3752 40.0436C45.3752 42.0523 45.3752 44.061 45.3752 46.1271C45.3752 46.4715 45.3752 46.8732 45.3178 47.2176C45.3178 47.3324 45.1457 47.4471 45.0309 47.4471C44.9161 47.4471 44.7439 47.3898 44.6865 47.3324C44.457 47.0454 44.3422 46.7011 44.2848 46.3567C44.0552 45.4958 43.9404 44.635 43.3665 43.9463C43.1943 43.7167 43.1943 43.4297 43.1943 43.1428C43.1943 40.8471 43.1943 38.5514 43.1943 36.2558C43.1943 35.9688 43.1943 35.6819 43.3665 35.4523C43.9404 34.6488 44.457 33.8453 44.8013 32.9271C44.8587 32.8123 45.0309 32.7549 45.1457 32.7549C45.2604 32.7549 45.3752 32.9271 45.4326 33.0418C45.49 33.2714 45.4326 33.501 45.4326 33.7305C45.3752 35.7966 45.3752 37.9201 45.3752 40.0436Z" fill="#252240"/>
<path d="M29.3627 45.6117C29.3053 46.6447 28.9036 47.8499 28.3871 48.9978C28.0427 49.7439 27.7558 49.8586 26.8375 49.6865C26.5505 49.6291 26.2636 49.6291 26.034 49.5717C25.1158 49.3421 24.4844 48.8256 24.3697 47.7925C24.3697 47.6778 24.3123 47.5056 24.2549 47.3908C24.0827 45.5543 23.9679 45.7264 25.5749 44.5786C26.1488 44.1195 26.8949 44.0047 27.641 43.8325C27.7558 43.8325 27.9279 43.8325 28.0427 43.8325C28.961 43.9473 29.3627 44.349 29.3627 45.6117Z" fill="#447899"/>
<path d="M40.9554 42.7998C41.2424 42.9719 41.5868 43.2015 41.8737 43.3737C42.9642 44.005 43.0789 45.7841 41.8737 46.645C40.9554 47.2763 39.9798 47.7354 39.0041 48.252C38.7172 48.4241 38.4876 48.3094 38.3728 47.965C38.2006 47.5633 38.0285 47.2189 37.9711 46.8172C37.7989 45.8415 37.6841 44.9233 37.5693 43.9476C37.5693 42.9719 37.6267 42.9719 38.4876 42.5702C38.545 42.5128 38.6598 42.5128 38.7746 42.5128C39.2337 42.2832 39.6928 42.3406 40.152 42.4554C40.2667 42.4554 40.3241 42.5128 40.4389 42.5128C40.5537 42.685 40.8407 42.6276 40.9554 42.7998Z" fill="#447899"/>
<path d="M44.3419 48.5383C44.3419 49.227 44.2272 49.6287 43.9976 49.9731C43.3663 50.7766 42.6202 51.4653 41.7593 52.0392C41.3576 52.2688 40.9558 52.4983 40.4967 52.4983C40.095 52.4983 39.8654 52.2688 39.9228 51.9244C40.095 51.2357 40.2671 50.4896 40.4393 49.8009C40.5541 49.3992 40.7837 49.1696 41.128 48.9974C41.9889 48.5383 42.7924 48.0218 43.5385 47.3905C43.768 47.2183 44.1124 47.3331 44.1698 47.62C44.2272 47.9644 44.2846 48.3661 44.3419 48.5383Z" fill="#4E8AAE"/>
<path d="M42.62 40.0449C42.62 40.7336 42.62 41.4223 42.62 42.111C42.62 42.6849 42.333 42.9145 41.8165 42.6849C40.8982 42.2832 39.9799 41.9388 38.8895 41.9962C38.7747 41.9962 38.6025 41.9388 38.6025 41.7666C38.6025 41.6519 38.6025 41.4797 38.7173 41.4223C39.7504 40.3319 40.6686 39.184 41.5869 37.9788C41.6443 37.864 41.7591 37.8066 41.8739 37.6918C41.9886 37.5771 42.1608 37.4623 42.333 37.5197C42.5626 37.5771 42.5626 37.7492 42.5626 37.9788C42.5626 38.2084 42.5626 38.4379 42.5626 38.6675C42.62 39.0118 42.62 39.5284 42.62 40.0449Z" fill="#24213F"/>
<path d="M22.7628 41.6515C22.8202 40.9628 22.7054 40.561 22.8776 40.1593C22.9924 39.9871 23.1645 39.8723 23.3367 39.9871C24.1976 40.848 25.288 41.4793 26.0915 42.3976C26.3211 42.6845 26.3211 42.9141 26.0341 43.0863C25.4602 43.3732 24.9437 43.775 24.5419 44.2341C24.3698 44.4063 24.1976 44.5211 24.0254 44.6358C23.5089 44.9802 23.1071 44.808 23.1071 44.1767C23.1645 43.2584 22.648 42.3402 22.7628 41.6515Z" fill="#24213F"/>
<path d="M23.107 23.5156C23.107 23.8026 23.107 24.1469 23.107 24.4339C24.5992 24.8356 25.9766 25.5817 27.4114 26.1556C27.7558 26.3278 27.9279 26.6148 28.1001 26.9591C28.2149 27.1887 27.9279 27.533 27.641 27.4757C27.5262 27.4757 27.4114 27.4183 27.2392 27.3609C27.0671 27.3035 26.8949 27.1887 26.7227 27.3035C26.3784 27.5904 25.9766 27.7626 25.5749 27.533C24.9436 27.1887 24.1975 26.9017 23.9105 26.1556C23.681 25.5817 23.2792 25.2948 22.7627 25.1226C22.7627 24.7782 22.7627 24.3765 22.7627 24.0322C22.8201 23.86 22.8775 23.6304 23.107 23.5156Z" fill="#080706"/>
<path d="M28.3297 10.6031C27.4115 11.2918 26.5506 11.9805 25.6323 12.6692C24.4271 13.5875 23.5662 14.8501 22.8201 16.1127C22.361 16.9162 21.9019 17.7771 21.4427 18.5806C21.4427 18.351 21.3853 18.1214 21.1558 18.0067C21.8445 16.5719 22.5906 15.1371 23.5088 13.8745C24.4845 12.4971 25.8045 11.5788 27.1245 10.5457C27.2967 10.431 27.5262 10.3736 27.7558 10.2588C27.8706 10.4884 28.1002 10.5457 28.3297 10.6031Z" fill="#080B0E"/>
<path d="M15.876 55.8278C15.8186 56 15.7612 56.1147 15.7038 56.1721C15.589 56.2295 15.4169 56.2295 15.3595 56.1721C15.0725 56 14.843 55.7704 14.6134 55.5982C14.2116 55.2539 13.8099 54.8521 13.4082 54.5078C13.236 54.3356 12.8342 54.3356 12.7769 53.9913C12.7769 53.5895 13.1212 53.4173 13.4082 53.1878C14.9577 52.2121 15.1873 52.0973 15.5317 54.0486C15.7038 54.68 15.6464 55.3113 15.876 55.8278Z" fill="#417493"/>
<path d="M30.2231 69.2565C29.8788 68.9121 29.9361 68.3956 29.8214 67.9939C29.477 66.7312 29.1901 65.4112 28.9031 64.1486C28.8457 63.9191 28.8457 63.6895 28.8457 63.4599C29.0753 63.2877 29.0753 63.0008 29.0753 62.7138C29.0753 62.0251 29.1327 61.279 29.1327 60.5903C29.3622 61.1069 29.3622 61.6234 29.3622 62.1973C29.3622 63.1156 29.477 63.9764 29.7066 64.8947C29.9935 66.1573 30.2231 67.4199 30.5101 68.74C30.2805 68.7973 30.2805 69.0269 30.2231 69.2565Z" fill="#121517"/>
<path d="M45.0881 52.1538C45.1455 52.2112 45.2603 52.2112 45.3176 52.2686C45.375 52.3834 45.4898 52.4982 45.4898 52.5555C45.4898 52.6703 45.3176 52.7277 45.2029 52.7277C44.9159 52.7277 44.6863 52.6703 44.5142 52.4408C44.7437 52.4408 44.9733 52.4408 45.0881 52.1538Z" fill="#14242E"/>
<path d="M40.1518 42.4546C39.6927 42.4546 39.2335 42.4546 38.7744 42.512C39.2335 42.1103 39.6927 42.1103 40.1518 42.4546Z" fill="#24213F"/>
<path d="M23.9105 48.8831C23.9105 48.9979 23.9105 49.1701 23.7383 49.1701C23.7383 49.1701 23.6235 48.9979 23.6235 48.9405C23.6235 48.8258 23.6809 48.711 23.7383 48.5962C23.9105 48.5962 23.8531 48.7684 23.9105 48.8831Z" fill="#0C1514"/>
<path d="M40.9553 42.7987C40.7257 42.7987 40.5535 42.7413 40.3813 42.5117C40.6683 42.5117 40.8405 42.5691 40.9553 42.7987Z" fill="#24213F"/>
<path d="M53.2946 54.7376L53.2372 54.795C52.7781 55.0245 52.2616 54.8523 52.0894 54.4506C52.032 54.2784 52.2042 53.9341 52.3763 53.9341C52.7207 53.9915 53.065 54.1636 53.2946 54.4506C53.2946 54.508 53.2946 54.6228 53.2946 54.7376Z" fill="#162731"/>
<path d="M50.31 54.1627C50.0231 54.1627 49.7361 54.1053 49.6787 53.761C49.6787 53.7036 49.7361 53.5888 49.7935 53.5314C49.9657 53.3593 50.1952 53.3593 50.4248 53.474C50.4822 53.5314 50.597 53.5314 50.6544 53.5888C50.7692 53.6462 50.8839 53.761 50.8265 53.9332C50.8265 54.1053 50.6544 54.1627 50.5396 54.1627C50.4822 54.1627 50.3674 54.1627 50.31 54.1627Z" fill="#13212A"/>
<path d="M47.0968 52.6704C47.4411 52.6704 47.7281 52.8426 48.0151 53.0722C48.0724 53.1295 48.0724 53.2443 48.0724 53.3017C48.0151 53.3591 47.9577 53.4165 47.8429 53.4165C47.4411 53.4739 47.0968 53.3591 46.8098 53.1295C46.7524 53.0721 46.7524 52.9574 46.7524 52.9C46.8098 52.7852 46.9246 52.7278 47.0968 52.6704Z" fill="#111E26"/>
<path d="M55.7053 55.5402C55.6479 55.5976 55.5905 55.7123 55.5331 55.6549C55.1888 55.5976 54.8444 55.4828 54.6149 55.1958C54.5575 55.1384 54.6149 55.0236 54.6149 54.9662C54.6149 54.9089 54.6723 54.9089 54.7296 54.9089C55.1314 54.7367 55.7053 55.2532 55.7053 55.5402Z" fill="#080F13"/>
<path d="M37.1107 33.7317C36.8812 33.9613 36.709 34.1909 36.4794 34.4204C36.0777 34.8222 35.7333 35.3387 35.5038 35.9126C35.2168 36.5439 34.9299 37.1752 34.5855 37.7492C34.2986 38.2657 33.782 38.61 33.2655 38.897C33.0359 39.0118 32.749 39.0118 32.462 38.9544C31.9455 38.8396 31.5438 38.61 31.1994 38.2083C30.8551 37.8066 30.4533 37.4048 29.8794 37.2326C29.6498 37.1752 29.4777 37.0031 29.535 36.7161C29.5924 36.4865 29.7646 36.4865 29.9368 36.4292C30.5681 36.3144 31.1994 36.257 31.8307 36.1422C32.8064 35.97 33.6672 35.6831 34.4707 35.0518C35.2168 34.4778 36.0203 33.9039 36.8238 33.3874C37.0534 33.33 37.1681 33.4448 37.1107 33.7317Z" fill="#030302"/>
<path d="M41.0131 22.1953C41.0704 22.2527 41.1852 22.3675 41.1852 22.4249C41.1852 22.5397 41.1278 22.7118 41.1278 22.8266C40.8409 23.5153 40.3244 24.0318 39.7504 24.5484C39.2913 24.9501 38.8896 25.3519 38.7174 25.9258C38.66 26.0979 38.5452 26.2701 38.4304 26.3849C37.8565 27.2458 37.6269 27.3606 36.5939 27.0736C35.9626 26.9014 35.4461 26.844 35.0443 27.4753C34.9869 27.5901 34.8148 27.6475 34.7 27.7049C34.5278 27.7623 34.3556 27.7623 34.1834 27.6475C34.0113 27.5327 33.9539 27.3606 34.0113 27.131C34.0687 26.9588 34.1834 26.7866 34.2982 26.6719C34.8148 26.0406 35.3887 25.524 36.02 25.1223C37.5122 24.204 39.0617 23.2858 40.6113 22.3675C40.7261 22.3101 40.8983 22.2527 41.0131 22.1953Z" fill="#040303"/>
<path d="M33.0927 22.4825C33.2075 22.1956 33.2649 21.8512 33.2075 21.5643C33.1501 21.3921 33.3223 21.3347 33.4371 21.2773C33.6666 21.2199 33.8962 21.2199 34.1258 21.1625C36.0197 20.9903 37.971 20.8182 39.8649 20.646C40.0371 20.646 40.2093 20.646 40.4389 20.646C40.5536 20.646 40.6684 20.7608 40.6684 20.933C40.6684 21.1051 40.611 21.1625 40.4963 21.2773C40.1519 21.5069 39.8075 21.5069 39.4632 21.5069C38.8319 21.5069 38.2006 21.5643 37.5693 21.7364C36.5936 21.966 35.618 22.1956 34.6997 22.6547C34.4127 22.8269 34.1258 22.9417 33.7814 22.9991C33.3223 23.2286 33.0353 22.9417 33.0927 22.4825Z" fill="#090807"/>
<path d="M31.8304 32.2971C32.1747 32.2971 32.5765 32.2397 32.9208 32.2397C32.9782 32.2397 33.0356 32.3545 33.093 32.4119C33.1504 32.5267 33.1504 32.5841 33.0356 32.6415C32.2895 32.9284 31.6008 33.158 30.7973 33.2154C30.6825 33.2154 30.6251 33.2154 30.5104 33.2154C30.2808 33.158 30.2234 33.0432 30.166 32.8137C30.166 32.5841 30.2234 32.4119 30.453 32.4119C30.9121 32.2971 31.3712 32.2971 31.8304 32.2971Z" fill="#1E1916"/>
<path d="M37.111 33.7314C36.9962 33.6166 36.8814 33.5018 36.7666 33.3871C36.9962 33.0427 37.3405 32.8131 37.6849 32.641C37.7423 32.5836 37.857 32.641 37.9144 32.6984C37.9718 32.7557 37.9718 32.8705 37.9718 32.9279C37.7997 33.3297 37.5127 33.5592 37.111 33.7314Z" fill="#37302A"/>
</g>
</svg>
