<svg width="28" height="28" viewBox="0 0 28 28" fill="none" xmlns="http://www.w3.org/2000/svg">
<path d="M19.4552 14.0013C19.4552 15.0801 19.1353 16.1347 18.5359 17.0316C17.9365 17.9286 17.0846 18.6277 16.0879 19.0406C15.0912 19.4534 13.9945 19.5614 12.9364 19.351C11.8783 19.1405 10.9064 18.621 10.1435 17.8582C9.38068 17.0954 8.86118 16.1235 8.65071 15.0654C8.44024 14.0074 8.54826 12.9107 8.96111 11.914C9.37396 10.9173 10.0731 10.0655 10.9701 9.46611C11.8671 8.86677 12.9217 8.54688 14.0005 8.54688C15.4472 8.54688 16.8346 9.12154 17.8575 10.1444C18.8805 11.1673 19.4552 12.5547 19.4552 14.0013Z" stroke="#D8D8D8" stroke-width="3" stroke-linecap="round" stroke-linejoin="round"/>
<path d="M14 2V4.18178" stroke="#D8D8D8" stroke-width="3" stroke-linecap="round" stroke-linejoin="round"/>
<path d="M14 23.8184V26.0001" stroke="#D8D8D8" stroke-width="3" stroke-linecap="round" stroke-linejoin="round"/>
<path d="M5.5127 5.51172L7.06181 7.06078" stroke="#D8D8D8" stroke-width="3" stroke-linecap="round" stroke-linejoin="round"/>
<path d="M20.9385 20.9375L22.4876 22.4866" stroke="#D8D8D8" stroke-width="3" stroke-linecap="round" stroke-linejoin="round"/>
<path d="M2 14H4.18185" stroke="#D8D8D8" stroke-width="3" stroke-linecap="round" stroke-linejoin="round"/>
<path d="M23.8184 14H26.0002" stroke="#D8D8D8" stroke-width="3" stroke-linecap="round" stroke-linejoin="round"/>
<path d="M5.5127 22.4866L7.06181 20.9375" stroke="#D8D8D8" stroke-width="3" stroke-linecap="round" stroke-linejoin="round"/>
<path d="M20.9385 7.06078L22.4876 5.51172" stroke="#D8D8D8" stroke-width="3" stroke-linecap="round" stroke-linejoin="round"/>
</svg>
