<svg xmlns="http://www.w3.org/2000/svg" width="19.946" height="24" viewBox="0 0 19.946 24">
    <defs>
        <style>
            .cls-1{fill:#929292}
        </style>
    </defs>
    <g id="premium_profile" data-name="premium profile" transform="translate(-130.104 -759)">
        <g id="Group_101955" data-name="Group 101955" transform="translate(130.104 759)">
            <g id="man">
                <path id="Subtraction_10" d="M19.946 8.975H0a23.691 23.691 0 0 1 .621-2.3 10.763 10.763 0 0 1 1.89-3.507 10.257 10.257 0 0 1 2.331-2.094A10.386 10.386 0 0 1 6.823.062L6.9.033 6.375 2.84a4.642 4.642 0 0 0 1.019.873 5.613 5.613 0 0 0 2.935.909h.137a3.42 3.42 0 0 0 3.166-1.633L12.9 0h.03a8.393 8.393 0 0 1 2.3 1.115 9.941 9.941 0 0 1 2.661 2.746 15.048 15.048 0 0 1 2.055 5.1z" class="cls-1" data-name="Subtraction 10" transform="translate(0 15.025)"/>
                <path id="Path_51" d="M529.638 132.92a2.8 2.8 0 0 0 .263 1.922c.476 1.092.936 3.1 3.737 3.1 2.94 0 4.09-2.875 4.025-5.495-.008-.3-.394.583-1.191 1.322-.394.361-1.084.764-1.421.6s-.123-.181-.509-.5a1.38 1.38 0 0 0-1.577-.025c-.854.411-.246.657-1.561.575-.772-.062-1.626-1.59-1.766-1.499z" class="cls-1" data-name="Path 51" transform="translate(-523.744 -123.441)"/>
                <path id="Path_52" d="M520.608 31.339c.205-.008.123-1.084.575-1.889a3.6 3.6 0 0 0-.983-4.85 2.021 2.021 0 0 0-1.4-.493c-.55.1-5.421-2.053-6.571 1.15-.1.271-2.464.986-.37 5.257.329.674.345 1.659.534 1.643.3-.025-.107-2.53 1.06-3.368a2.2 2.2 0 0 1 1.363-.246c1.593-.016 2.029.657 3.409.493a1.714 1.714 0 0 0 1.29-.575c.378-.517.23-1.224.3-1.232.185-.022.415 4.118.793 4.11z" class="cls-1" data-name="Path 52" transform="translate(-506.705 -23.494)"/>
            </g>
        </g>
    </g>
</svg>
